<svg width="175" height="35" viewBox="0 0 175 35" fill="none" xmlns="http://www.w3.org/2000/svg">
<path d="M3.36325 21.4154C4.36876 20.3059 5.33959 18.9536 6.17173 17.428C6.58781 16.6652 7.00388 15.8678 7.38528 15.0356C7.76668 14.2035 8.14808 13.3367 8.56415 12.4005C8.80686 11.9498 9.0149 11.4643 9.3963 10.9096C9.50031 10.7709 9.60433 10.6322 9.7777 10.4935C9.95106 10.3548 10.1591 10.1815 10.5058 10.0774C10.6792 10.0081 10.8526 9.97341 11.0606 9.97341C11.1646 9.97341 11.2686 9.97342 11.338 10.0081H11.4073C11.3726 10.0081 11.5113 10.0428 11.5113 10.0428H11.546C11.7887 10.1121 11.9274 10.2161 12.0661 10.2855C12.2048 10.3895 12.3088 10.4588 12.4128 10.5629C12.7595 10.9443 12.9329 11.291 13.0716 11.603C13.2103 11.9151 13.2796 12.1925 13.3837 12.4699C13.557 13.0246 13.661 13.5794 13.7304 14.0995C14.1118 16.2145 14.2851 18.2949 14.5279 20.3406C14.6665 21.3461 14.8052 22.3516 15.0133 23.2531C15.0479 23.4264 15.0826 23.5998 15.152 23.7732C15.2907 23.6345 15.4293 23.4958 15.568 23.3571C16.1575 22.7676 16.7122 22.0742 17.1977 21.3461C18.2032 19.8898 19.0006 18.3642 19.6247 16.8733C20.2488 15.3824 20.6996 13.8914 21.0116 12.5045C21.4624 10.4588 21.6011 8.65585 21.5664 7.1996C19.3127 5.43129 16.4349 4.35645 13.349 4.35645C5.9637 4.35645 0 10.3548 0 17.7054C0 19.7164 0.450742 21.6234 1.24821 23.3224C1.97634 22.837 2.6698 22.1782 3.36325 21.4154Z" fill="#67797E"/>
<path d="M24.271 19.0575C23.3695 20.7911 22.26 22.5248 20.8731 24.1544C20.1796 24.9865 19.4168 25.784 18.5153 26.5468C18.0646 26.9282 17.5792 27.3096 16.9897 27.6563C16.6777 27.8297 16.331 28.003 15.8802 28.1764C15.7415 28.2111 15.6375 28.2458 15.4988 28.2804L15.2908 28.3151C15.2561 28.3151 15.1868 28.3151 15.1521 28.3498H14.9787H14.8054H14.736H14.4586C14.2159 28.3151 13.9732 28.2804 13.7652 28.1764C13.3144 28.003 12.9677 27.7603 12.725 27.5176C12.4823 27.2749 12.3089 27.0322 12.2049 26.8242C11.9622 26.4081 11.8235 26.0267 11.7195 25.7147C11.5115 25.0559 11.4421 24.4664 11.3728 23.877C11.2341 22.7328 11.1994 21.6579 11.1647 20.5831C11.1301 18.4681 11.1647 16.3877 11.026 14.446C10.9914 13.9606 10.9567 13.4752 10.8874 13.0591C10.8874 12.9898 10.8527 12.8858 10.8527 12.8164C10.7487 12.9898 10.61 13.1978 10.5059 13.3712C10.0205 14.1686 9.56979 15.0355 9.11904 15.8676C8.63362 16.6997 8.14821 17.4972 7.62812 18.26C6.58794 19.7856 5.44374 21.1379 4.26487 22.2127C3.43272 22.9755 2.60058 23.6343 1.76843 24.189C4.05683 28.2804 8.42559 31.0542 13.4531 31.0542C20.8384 31.0542 26.8021 25.0559 26.8021 17.7053C26.8021 16.4917 26.6288 15.3128 26.3514 14.2033C25.7966 15.7983 25.1032 17.4279 24.271 19.0575Z" fill="#67797E"/>
<path d="M15.4289 22.5254C15.2555 21.6932 15.1168 20.7917 15.0128 19.9943C14.9088 19.3008 14.8395 18.6074 14.7701 17.9139C14.6314 16.5963 14.4581 15.2094 14.2154 13.8572C14.1113 13.3718 14.0073 12.817 13.834 12.1929C13.7646 11.9502 13.6606 11.6381 13.5219 11.2914V11.2567C13.3832 10.9447 13.2098 10.5633 12.7938 10.1472C12.6898 10.0432 12.5511 9.93917 12.3777 9.80048C12.2043 9.69646 12.031 9.59245 11.7536 9.48843L11.6843 9.45375C11.6149 9.41908 11.5456 9.41909 11.5109 9.41909H11.4762C11.3375 9.38442 11.2335 9.38442 11.1295 9.38442C10.8868 9.38442 10.6441 9.41908 10.436 9.48843C10.02 9.62712 9.70791 9.83516 9.53454 10.0085C9.32651 10.1819 9.18782 10.3552 9.0838 10.4939C8.7024 11.014 8.49436 11.4648 8.25165 11.8808L8.18231 12.0195C7.97427 12.505 7.76623 12.9557 7.5582 13.4064C7.38483 13.8225 7.1768 14.2386 7.00344 14.62C6.58737 15.4868 6.20596 16.2496 5.82456 16.9431C4.99242 18.3993 4.09093 19.6822 3.08542 20.7571C2.6 21.2771 2.07992 21.7972 1.55983 22.248C0.935717 20.7224 0.588989 19.1274 0.588989 17.4631C0.588989 10.4939 6.37933 4.80762 13.4872 4.80762C16.3304 4.80762 19.0002 5.67444 21.2539 7.33873C21.2539 8.96835 21.0459 10.598 20.6992 12.2276C20.3871 13.6491 19.9363 15.0707 19.3469 16.423C18.6881 17.9832 17.8907 19.4395 16.9545 20.7224C16.3651 21.4505 15.8796 22.0399 15.4289 22.5254Z" fill="#67797E"/>
<path d="M13.418 30.639C8.87589 30.639 4.68049 28.2465 2.35742 24.3632C3.12022 23.8431 3.84835 23.219 4.5418 22.5949C5.75535 21.4507 6.89955 20.0985 7.9744 18.5382C8.45982 17.8101 8.94523 17.0126 9.5 16.1111C9.74271 15.695 9.95074 15.279 10.1935 14.8629C10.3321 14.6548 10.4362 14.4121 10.5749 14.2041C10.5749 14.3081 10.5749 14.3775 10.6095 14.4815C10.6789 15.7297 10.7135 17.0473 10.7135 18.3995C10.7135 19.1276 10.7135 19.8557 10.7482 20.5839C10.7829 21.6241 10.8176 22.7336 10.9563 23.9125C11.0256 24.4672 11.1296 25.0913 11.3377 25.8195C11.4417 26.1662 11.5804 26.5476 11.8577 27.033C12.0311 27.3451 12.2391 27.5878 12.4472 27.8305C12.6899 28.0732 13.106 28.3852 13.6607 28.5933C13.9381 28.6973 14.2155 28.7666 14.4582 28.7666H14.7702H14.8743H15.0823L15.2903 28.732C15.3597 28.732 15.4637 28.6973 15.4984 28.6973L15.7064 28.6626C15.8798 28.6279 15.9838 28.5933 16.1225 28.5586C16.6426 28.3852 16.9893 28.2119 17.3014 28.0038C17.9948 27.5878 18.4802 27.2064 18.8963 26.8596C19.7284 26.1662 20.4912 25.3687 21.2887 24.3979C22.5716 22.8376 23.7505 21.104 24.756 19.197C25.3107 18.1221 25.8308 17.0126 26.2469 15.8684C26.3163 16.4578 26.3856 17.0473 26.3856 17.6714C26.3163 24.8486 20.5259 30.639 13.418 30.639Z" fill="#67797E"/>
<path d="M35.3326 28V8.17945H38.3623L50.7927 23.4413H49.292V8.17945H52.9446V28H49.9149L37.4846 12.7382H38.9853V28H35.3326ZM65.023 28.1982C63.3429 28.1982 61.8706 27.8679 60.6058 27.2072C59.36 26.5276 58.3878 25.6027 57.6894 24.4323C57.0098 23.2619 56.67 21.9311 56.67 20.4399C56.67 18.9297 57.0004 17.5989 57.6611 16.4475C58.3406 15.2771 59.2656 14.3616 60.4359 13.7009C61.6252 13.0402 62.9749 12.7099 64.485 12.7099C65.9574 12.7099 67.2693 13.0308 68.4208 13.6726C69.5723 14.3144 70.4783 15.2205 71.139 16.3908C71.7997 17.5612 72.1301 18.9392 72.1301 20.5248C72.1301 20.6758 72.1206 20.8457 72.1017 21.0345C72.1017 21.2233 72.0923 21.4026 72.0734 21.5725H59.4732V19.2223H70.2046L68.8172 19.9585C68.8361 19.0902 68.6567 18.3257 68.2792 17.665C67.9017 17.0043 67.3826 16.4852 66.7219 16.1077C66.0801 15.7301 65.3344 15.5414 64.485 15.5414C63.6167 15.5414 62.8522 15.7301 62.1915 16.1077C61.5497 16.4852 61.04 17.0138 60.6625 17.6933C60.3038 18.354 60.1245 19.1374 60.1245 20.0435V20.6098C60.1245 21.5158 60.3321 22.3181 60.7474 23.0165C61.1627 23.715 61.7479 24.253 62.5029 24.6305C63.258 25.008 64.1263 25.1968 65.1079 25.1968C65.9574 25.1968 66.7219 25.0647 67.4014 24.8004C68.081 24.5361 68.6851 24.1208 69.2136 23.5545L71.1107 25.7348C70.4312 26.5276 69.5723 27.1411 68.534 27.5753C67.5147 27.9906 66.3443 28.1982 65.023 28.1982ZM73.0481 28L79.7021 19.3356L79.6455 21.2327L73.3029 12.8798H77.2387L81.6842 18.8259H80.1835L84.6573 12.8798H88.4798L82.0806 21.2327L82.1089 19.3356L88.7346 28H84.7422L80.0702 21.6857L81.5426 21.8839L76.9556 28H73.0481ZM97.0378 28.1982C95.3767 28.1982 94.093 27.7735 93.187 26.924C92.2809 26.0557 91.8278 24.7815 91.8278 23.1015V9.53857H95.3672V23.0165C95.3672 23.7339 95.5465 24.2907 95.9052 24.6871C96.2827 25.0835 96.8018 25.2818 97.4625 25.2818C98.2554 25.2818 98.916 25.0741 99.4446 24.6588L100.436 27.1789C100.02 27.5186 99.5107 27.7735 98.9066 27.9434C98.3025 28.1133 97.6796 28.1982 97.0378 28.1982ZM89.3361 15.8245V12.993H99.4163V15.8245H89.3361ZM122.432 12.7099C123.64 12.7099 124.706 12.9458 125.631 13.4177C126.575 13.8897 127.311 14.6164 127.84 15.598C128.368 16.5607 128.633 17.8066 128.633 19.3356V28H125.093V19.7886C125.093 18.4484 124.801 17.4479 124.215 16.7872C123.63 16.1265 122.79 15.7962 121.695 15.7962C120.921 15.7962 120.232 15.9661 119.628 16.3059C119.043 16.6457 118.581 17.1459 118.241 17.8066C117.92 18.4673 117.76 19.3073 117.76 20.3266V28H114.22V19.7886C114.22 18.4484 113.928 17.4479 113.342 16.7872C112.757 16.1265 111.917 15.7962 110.822 15.7962C110.048 15.7962 109.359 15.9661 108.755 16.3059C108.17 16.6457 107.708 17.1459 107.368 17.8066C107.047 18.4673 106.887 19.3073 106.887 20.3266V28H103.347V12.8798H106.717V16.9005L106.122 15.7113C106.632 14.7297 107.368 13.984 108.331 13.4744C109.312 12.9647 110.426 12.7099 111.672 12.7099C113.088 12.7099 114.315 13.0591 115.353 13.7575C116.41 14.456 117.108 15.5131 117.448 16.9288L116.061 16.4475C116.551 15.3148 117.363 14.4088 118.496 13.7292C119.628 13.0496 120.94 12.7099 122.432 12.7099ZM139.979 28.1982C138.431 28.1982 137.053 27.8679 135.845 27.2072C134.637 26.5276 133.683 25.6027 132.985 24.4323C132.286 23.2619 131.937 21.9311 131.937 20.4399C131.937 18.9297 132.286 17.5989 132.985 16.4475C133.683 15.2771 134.637 14.3616 135.845 13.7009C137.053 13.0402 138.431 12.7099 139.979 12.7099C141.545 12.7099 142.933 13.0402 144.141 13.7009C145.368 14.3616 146.321 15.2677 147.001 16.4191C147.699 17.5706 148.049 18.9109 148.049 20.4399C148.049 21.9311 147.699 23.2619 147.001 24.4323C146.321 25.6027 145.368 26.5276 144.141 27.2072C142.933 27.8679 141.545 28.1982 139.979 28.1982ZM139.979 25.1685C140.847 25.1685 141.621 24.9797 142.301 24.6022C142.98 24.2247 143.509 23.6772 143.886 22.9599C144.283 22.2426 144.481 21.4026 144.481 20.4399C144.481 19.4583 144.283 18.6183 143.886 17.9198C143.509 17.2025 142.98 16.6551 142.301 16.2776C141.621 15.9 140.856 15.7113 140.007 15.7113C139.139 15.7113 138.365 15.9 137.685 16.2776C137.025 16.6551 136.496 17.2025 136.1 17.9198C135.703 18.6183 135.505 19.4583 135.505 20.4399C135.505 21.4026 135.703 22.2426 136.1 22.9599C136.496 23.6772 137.025 24.2247 137.685 24.6022C138.365 24.9797 139.129 25.1685 139.979 25.1685ZM151.433 28V6.99022H154.972V28H151.433ZM168.934 28V24.942L168.735 24.2907V18.9392C168.735 17.901 168.424 17.0987 167.801 16.5324C167.178 15.9472 166.234 15.6546 164.969 15.6546C164.12 15.6546 163.28 15.7868 162.449 16.051C161.638 16.3153 160.949 16.6834 160.382 17.1553L158.995 14.5787C159.807 13.9557 160.769 13.4932 161.883 13.1912C163.016 12.8703 164.186 12.7099 165.394 12.7099C167.584 12.7099 169.273 13.2384 170.463 14.2955C171.671 15.3337 172.275 16.9477 172.275 19.1374V28H168.934ZM164.177 28.1982C163.044 28.1982 162.053 28.0094 161.204 27.6319C160.354 27.2355 159.693 26.6975 159.221 26.0179C158.768 25.3195 158.542 24.5361 158.542 23.6678C158.542 22.8183 158.74 22.0538 159.137 21.3743C159.552 20.6947 160.222 20.1567 161.147 19.7603C162.072 19.3639 163.299 19.1657 164.828 19.1657H169.217V21.5158H165.083C163.875 21.5158 163.063 21.7141 162.648 22.1105C162.232 22.488 162.025 22.9599 162.025 23.5262C162.025 24.168 162.279 24.6777 162.789 25.0552C163.299 25.4328 164.007 25.6215 164.913 25.6215C165.781 25.6215 166.555 25.4233 167.235 25.0269C167.933 24.6305 168.433 24.0453 168.735 23.2714L169.33 25.395C168.99 26.2822 168.377 26.9712 167.489 27.462C166.621 27.9528 165.517 28.1982 164.177 28.1982Z" fill="#67797E"/>
</svg>
