<svg width="148" height="35" viewBox="0 0 148 35" fill="none" xmlns="http://www.w3.org/2000/svg">
<path d="M46.9773 28V11.2941H40.4082V8.17945H57.2273V11.2941H50.6582V28H46.9773ZM65.2086 28.1982C63.5286 28.1982 62.0562 27.8679 60.7915 27.2072C59.5456 26.5276 58.5735 25.6027 57.875 24.4323C57.1955 23.2619 56.8557 21.9311 56.8557 20.4399C56.8557 18.9297 57.186 17.5989 57.8467 16.4475C58.5263 15.2771 59.4512 14.3616 60.6216 13.7009C61.8108 13.0402 63.1605 12.7099 64.6707 12.7099C66.143 12.7099 67.455 13.0308 68.6065 13.6726C69.7579 14.3144 70.664 15.2205 71.3247 16.3908C71.9854 17.5612 72.3157 18.9392 72.3157 20.5248C72.3157 20.6758 72.3063 20.8457 72.2874 21.0345C72.2874 21.2233 72.278 21.4026 72.2591 21.5725H59.6589V19.2223H70.3903L69.0029 19.9585C69.0217 19.0902 68.8424 18.3257 68.4649 17.665C68.0873 17.0043 67.5682 16.4852 66.9075 16.1077C66.2657 15.7301 65.5201 15.5414 64.6707 15.5414C63.8023 15.5414 63.0378 15.7301 62.3771 16.1077C61.7353 16.4852 61.2257 17.0138 60.8481 17.6933C60.4895 18.354 60.3101 19.1374 60.3101 20.0435V20.6098C60.3101 21.5158 60.5178 22.3181 60.9331 23.0165C61.3484 23.715 61.9335 24.253 62.6886 24.6305C63.4437 25.008 64.312 25.1968 65.2936 25.1968C66.143 25.1968 66.9075 25.0647 67.5871 24.8004C68.2667 24.5361 68.8707 24.1208 69.3993 23.5545L71.2964 25.7348C70.6168 26.5276 69.7579 27.1411 68.7197 27.5753C67.7004 27.9906 66.53 28.1982 65.2086 28.1982ZM82.6527 28.1982C81.0671 28.1982 79.6513 27.8679 78.4055 27.2072C77.1785 26.5276 76.2158 25.6027 75.5173 24.4323C74.8189 23.2619 74.4697 21.9311 74.4697 20.4399C74.4697 18.9297 74.8189 17.5989 75.5173 16.4475C76.2158 15.2771 77.1785 14.3616 78.4055 13.7009C79.6513 13.0402 81.0671 12.7099 82.6527 12.7099C84.1251 12.7099 85.4182 13.0119 86.5319 13.6159C87.6645 14.2011 88.5234 15.0695 89.1086 16.2209L86.3903 17.8066C85.9373 17.0893 85.3804 16.5607 84.7197 16.2209C84.0779 15.8812 83.3795 15.7113 82.6244 15.7113C81.7561 15.7113 80.9727 15.9 80.2743 16.2776C79.5758 16.6551 79.0284 17.2025 78.632 17.9198C78.2356 18.6183 78.0374 19.4583 78.0374 20.4399C78.0374 21.4215 78.2356 22.2709 78.632 22.9882C79.0284 23.6867 79.5758 24.2247 80.2743 24.6022C80.9727 24.9797 81.7561 25.1685 82.6244 25.1685C83.3795 25.1685 84.0779 24.9986 84.7197 24.6588C85.3804 24.319 85.9373 23.7905 86.3903 23.0732L89.1086 24.6588C88.5234 25.7914 87.6645 26.6692 86.5319 27.2921C85.4182 27.8962 84.1251 28.1982 82.6527 28.1982ZM100.609 12.7099C101.817 12.7099 102.893 12.9458 103.837 13.4177C104.8 13.8897 105.555 14.6164 106.102 15.598C106.65 16.5607 106.924 17.8066 106.924 19.3356V28H103.384V19.7886C103.384 18.4484 103.063 17.4479 102.422 16.7872C101.799 16.1265 100.921 15.7962 99.7882 15.7962C98.9576 15.7962 98.2214 15.9661 97.5796 16.3059C96.9378 16.6457 96.4376 17.1553 96.0789 17.8349C95.7391 18.4956 95.5693 19.3356 95.5693 20.3549V28H92.0299V6.99022H95.5693V16.9571L94.8047 15.7113C95.3333 14.7485 96.0978 14.0124 97.0983 13.5027C98.1176 12.9741 99.288 12.7099 100.609 12.7099ZM119.993 12.7099C121.201 12.7099 122.277 12.9458 123.221 13.4177C124.184 13.8897 124.939 14.6164 125.486 15.598C126.034 16.5607 126.307 17.8066 126.307 19.3356V28H122.768V19.7886C122.768 18.4484 122.447 17.4479 121.805 16.7872C121.182 16.1265 120.304 15.7962 119.172 15.7962C118.341 15.7962 117.605 15.9661 116.963 16.3059C116.321 16.6457 115.821 17.1553 115.463 17.8349C115.123 18.4956 114.953 19.3356 114.953 20.3549V28H111.414V12.8798H114.783V16.9571L114.188 15.7113C114.717 14.7485 115.481 14.0124 116.482 13.5027C117.501 12.9741 118.672 12.7099 119.993 12.7099ZM137.62 28.1982C136.073 28.1982 134.695 27.8679 133.486 27.2072C132.278 26.5276 131.325 25.6027 130.627 24.4323C129.928 23.2619 129.579 21.9311 129.579 20.4399C129.579 18.9297 129.928 17.5989 130.627 16.4475C131.325 15.2771 132.278 14.3616 133.486 13.7009C134.695 13.0402 136.073 12.7099 137.62 12.7099C139.187 12.7099 140.575 13.0402 141.783 13.7009C143.01 14.3616 143.963 15.2677 144.643 16.4191C145.341 17.5706 145.69 18.9109 145.69 20.4399C145.69 21.9311 145.341 23.2619 144.643 24.4323C143.963 25.6027 143.01 26.5276 141.783 27.2072C140.575 27.8679 139.187 28.1982 137.62 28.1982ZM137.62 25.1685C138.489 25.1685 139.263 24.9797 139.942 24.6022C140.622 24.2247 141.15 23.6772 141.528 22.9599C141.924 22.2426 142.123 21.4026 142.123 20.4399C142.123 19.4583 141.924 18.6183 141.528 17.9198C141.15 17.2025 140.622 16.6551 139.942 16.2776C139.263 15.9 138.498 15.7113 137.649 15.7113C136.78 15.7113 136.006 15.9 135.327 16.2776C134.666 16.6551 134.138 17.2025 133.741 17.9198C133.345 18.6183 133.147 19.4583 133.147 20.4399C133.147 21.4026 133.345 22.2426 133.741 22.9599C134.138 23.6772 134.666 24.2247 135.327 24.6022C136.006 24.9797 136.771 25.1685 137.62 25.1685Z" fill="#67797E"/>
<path d="M17.2773 34.8716C17.0383 34.8716 16.7911 34.8716 16.5521 34.8716C15.5054 34.5254 15.1263 33.7672 15.184 32.7123C15.2087 32.3249 15.184 31.9293 15.184 31.5255C14.0467 31.5255 12.9423 31.5255 11.7967 31.5255C11.7967 32.1354 11.8132 32.7288 11.7967 33.3139C11.7803 33.8908 11.533 34.3523 11.022 34.6408C10.8572 34.7397 10.6594 34.7974 10.4863 34.8716C10.2638 34.8716 10.0495 34.8716 9.82703 34.8716C8.71443 34.41 8.44245 33.998 8.44245 32.77C8.44245 32.3579 8.44245 31.9458 8.44245 31.5008C7.86555 31.5008 7.32985 31.509 6.79416 31.5008C5.72277 31.4843 4.84093 31.0722 4.14865 30.2398C3.61295 29.597 3.37395 28.8553 3.37395 28.0229C3.37395 27.5037 3.37395 26.9762 3.37395 26.4323C2.77232 26.4323 2.2119 26.4488 1.65148 26.4323C0.415258 26.3828 -0.359441 25.1136 0.168014 23.9846C0.439983 23.3994 0.917987 23.1027 1.55258 23.078C2.15421 23.0533 2.75584 23.0698 3.35747 23.0698C3.35747 21.916 3.35747 20.8116 3.35747 19.6578C2.72287 19.6578 2.10476 19.699 1.49489 19.6495C0.637776 19.5836 0.00318231 18.8336 0.0114238 17.9683C0.0196653 17.0617 0.588329 16.4189 1.48665 16.3447C1.96466 16.3035 2.4509 16.32 2.93715 16.3117C3.07725 16.3117 3.21736 16.3117 3.35747 16.3117C3.35747 15.1662 3.35747 14.0618 3.35747 12.9327C2.7888 12.9327 2.23662 12.9492 1.69269 12.9327C0.407017 12.8998 -0.375924 11.5811 0.209221 10.4273C0.514156 9.81746 1.04985 9.5867 1.69269 9.57022C2.24487 9.56198 2.80529 9.57022 3.38219 9.57022C3.38219 8.99332 3.36571 8.45762 3.38219 7.92192C3.4234 6.57032 4.03327 5.55662 5.22004 4.8973C5.74749 4.60885 6.30792 4.50171 6.9013 4.50171C7.41227 4.50171 7.92324 4.50171 8.45894 4.50171C8.45894 3.87536 8.43422 3.29021 8.46718 2.71331C8.51663 1.68312 9.31605 1.0238 10.338 1.14743C11.1621 1.24632 11.7885 1.91389 11.8132 2.74627C11.8297 3.32318 11.8132 3.90008 11.8132 4.47699C12.967 4.47699 14.0714 4.47699 15.2252 4.47699C15.2252 3.84239 15.184 3.22428 15.2334 2.61441C15.3323 1.4194 16.585 0.760078 17.6482 1.3205C18.3157 1.66664 18.5795 2.25179 18.5795 2.97704C18.5795 3.47977 18.5795 3.97426 18.5795 4.47699C19.7333 4.47699 20.8294 4.47699 21.9585 4.47699C21.9585 3.8836 21.942 3.31494 21.9585 2.74627C21.9997 1.61719 23.1205 0.867217 24.1837 1.23808C24.8595 1.46885 25.3045 2.0952 25.321 2.85341C25.3292 3.39735 25.321 3.94129 25.321 4.50995C25.8897 4.50995 26.4171 4.50171 26.9446 4.50995C28.8978 4.53468 30.3648 6.0099 30.3895 7.96313C30.3978 8.41641 30.3895 8.86145 30.3895 9.31473C30.3895 9.39715 30.406 9.47956 30.4142 9.57846C30.9747 9.57846 31.5104 9.57022 32.046 9.57846C32.6724 9.5867 33.1669 9.85867 33.4965 10.3944C33.6037 10.5674 33.6696 10.7735 33.752 10.9548C33.752 11.1773 33.752 11.3916 33.752 11.6141C33.5872 11.9108 33.4718 12.2322 33.2575 12.4877C32.9526 12.8503 32.4993 12.9492 32.0378 12.941C31.4939 12.941 30.9499 12.941 30.406 12.941C30.406 14.0865 30.406 15.1909 30.406 16.32C30.917 16.32 31.4115 16.32 31.8977 16.32C32.3839 16.32 32.862 16.4024 33.1916 16.7815C33.4224 17.0452 33.5707 17.3831 33.752 17.6881C33.752 17.9271 33.752 18.1743 33.752 18.4133C33.7191 18.4793 33.6861 18.5452 33.6614 18.6111C33.4389 19.2457 32.9938 19.6001 32.3345 19.6743C32.0543 19.7072 31.7658 19.7072 31.4856 19.7072C31.1312 19.7155 30.7686 19.7072 30.406 19.7072C30.406 20.8528 30.406 21.9572 30.406 23.0862C30.5461 23.0862 30.6615 23.0862 30.7851 23.0862C31.2219 23.0862 31.6587 23.078 32.1037 23.0945C33.0103 23.1275 33.4965 23.6714 33.7603 24.4791C33.7603 24.7016 33.7603 24.9159 33.7603 25.1384C33.4553 26.1768 32.7136 26.5229 31.6999 26.457C31.2796 26.4323 30.851 26.457 30.3895 26.457C30.3895 27.0257 30.3978 27.5531 30.3895 28.0888C30.3648 29.9019 29.0874 31.3195 27.2907 31.5008C26.7715 31.5502 26.2358 31.5173 25.7083 31.5255C25.5847 31.5255 25.4611 31.5255 25.321 31.5255C25.321 32.1189 25.3292 32.6546 25.321 33.1903C25.3128 33.8167 25.0408 34.3111 24.5051 34.6408C24.332 34.7479 24.1342 34.8139 23.9447 34.8963C23.7222 34.8963 23.5079 34.8963 23.2854 34.8963C22.2387 34.5254 21.8678 33.7507 21.9502 32.6876C21.9832 32.3085 21.9585 31.9293 21.9585 31.5502C20.8129 31.5502 19.7086 31.5502 18.5465 31.5502C18.5465 32.2096 18.5795 32.8442 18.5383 33.4787C18.4971 34.1463 18.1097 34.5831 17.4834 34.8056C17.4092 34.8056 17.3433 34.8386 17.2773 34.8716ZM27.0105 28.1135C27.0105 27.9652 27.0105 27.8416 27.0105 27.7262C27.0105 21.2319 27.0105 14.7376 27.0187 8.24334C27.0187 7.94665 26.9528 7.85599 26.6396 7.85599C20.1371 7.86423 13.6263 7.86423 7.12382 7.85599C6.81064 7.85599 6.74471 7.94665 6.74471 8.24334C6.75295 14.7376 6.75295 21.2319 6.75295 27.7262C6.75295 27.8498 6.76119 27.9817 6.76944 28.1135C13.5274 28.1135 20.236 28.1135 27.0105 28.1135Z" fill="#67797E"/>
<path d="M10.1494 24.7177C10.1494 20.2261 10.1494 15.7592 10.1494 11.2676C14.6328 11.2676 19.1079 11.2676 23.5995 11.2676C23.5995 15.7427 23.5995 20.2178 23.5995 24.7177C19.1244 24.7177 14.6575 24.7177 10.1494 24.7177Z" fill="#67797E"/>
</svg>
