<svg width="162" height="35" viewBox="0 0 162 35" fill="none" xmlns="http://www.w3.org/2000/svg">
<path d="M38.6 28V8.17945H41.6297L50.2941 22.6485H48.7085L57.2313 8.17945H60.261L60.2893 28H56.8066L56.7782 13.6443H57.5144L50.2658 25.7348H48.6235L41.2616 13.6443H42.111V28H38.6ZM65.3033 28V12.8798H68.8427V28H65.3033ZM67.0871 10.388C66.4265 10.388 65.879 10.1804 65.4449 9.76509C65.0296 9.34981 64.8219 8.84957 64.8219 8.2644C64.8219 7.66034 65.0296 7.16011 65.4449 6.7637C65.879 6.34841 66.4265 6.14077 67.0871 6.14077C67.7478 6.14077 68.2858 6.33897 68.7011 6.73538C69.1353 7.11292 69.3523 7.59427 69.3523 8.17945C69.3523 8.80238 69.1447 9.33093 68.7294 9.76509C68.3141 10.1804 67.7667 10.388 67.0871 10.388ZM82.0676 12.7099C83.2757 12.7099 84.3517 12.9458 85.2955 13.4177C86.2582 13.8897 87.0133 14.6164 87.5607 15.598C88.1081 16.5607 88.3818 17.8066 88.3818 19.3356V28H84.8425V19.7886C84.8425 18.4484 84.5216 17.4479 83.8797 16.7872C83.2568 16.1265 82.3791 15.7962 81.2464 15.7962C80.4159 15.7962 79.6797 15.9661 79.0379 16.3059C78.3961 16.6457 77.8958 17.1553 77.5372 17.8349C77.1974 18.4956 77.0275 19.3356 77.0275 20.3549V28H73.4881V12.8798H76.8576V16.9571L76.263 15.7113C76.7915 14.7485 77.5561 14.0124 78.5565 13.5027C79.5759 12.9741 80.7462 12.7099 82.0676 12.7099ZM92.8718 28V12.8798H96.4112V28H92.8718ZM94.6556 10.388C93.9949 10.388 93.4475 10.1804 93.0133 9.76509C92.5981 9.34981 92.3904 8.84957 92.3904 8.2644C92.3904 7.66034 92.5981 7.16011 93.0133 6.7637C93.4475 6.34841 93.9949 6.14077 94.6556 6.14077C95.3163 6.14077 95.8543 6.33897 96.2696 6.73538C96.7037 7.11292 96.9208 7.59427 96.9208 8.17945C96.9208 8.80238 96.7132 9.33093 96.2979 9.76509C95.8826 10.1804 95.3352 10.388 94.6556 10.388ZM107.852 28.1982C106.304 28.1982 104.926 27.8679 103.718 27.2072C102.51 26.5276 101.557 25.6027 100.858 24.4323C100.16 23.2619 99.8107 21.9311 99.8107 20.4399C99.8107 18.9297 100.16 17.5989 100.858 16.4475C101.557 15.2771 102.51 14.3616 103.718 13.7009C104.926 13.0402 106.304 12.7099 107.852 12.7099C109.419 12.7099 110.806 13.0402 112.015 13.7009C113.242 14.3616 114.195 15.2677 114.874 16.4191C115.573 17.5706 115.922 18.9109 115.922 20.4399C115.922 21.9311 115.573 23.2619 114.874 24.4323C114.195 25.6027 113.242 26.5276 112.015 27.2072C110.806 27.8679 109.419 28.1982 107.852 28.1982ZM107.852 25.1685C108.721 25.1685 109.494 24.9797 110.174 24.6022C110.854 24.2247 111.382 23.6772 111.76 22.9599C112.156 22.2426 112.354 21.4026 112.354 20.4399C112.354 19.4583 112.156 18.6183 111.76 17.9198C111.382 17.2025 110.854 16.6551 110.174 16.2776C109.494 15.9 108.73 15.7113 107.881 15.7113C107.012 15.7113 106.238 15.9 105.559 16.2776C104.898 16.6551 104.369 17.2025 103.973 17.9198C103.577 18.6183 103.378 19.4583 103.378 20.4399C103.378 21.4026 103.577 22.2426 103.973 22.9599C104.369 23.6772 104.898 24.2247 105.559 24.6022C106.238 24.9797 107.003 25.1685 107.852 25.1685ZM127.688 28.1982C126.461 28.1982 125.338 27.9151 124.318 27.3488C123.318 26.7825 122.516 25.933 121.912 24.8004C121.326 23.6489 121.034 22.1954 121.034 20.4399C121.034 18.6655 121.317 17.212 121.883 16.0794C122.468 14.9468 123.261 14.1067 124.262 13.5593C125.262 12.993 126.404 12.7099 127.688 12.7099C129.179 12.7099 130.491 13.0308 131.624 13.6726C132.775 14.3144 133.681 15.211 134.342 16.3625C135.021 17.514 135.361 18.8731 135.361 20.4399C135.361 22.0066 135.021 23.3752 134.342 24.5456C133.681 25.697 132.775 26.5937 131.624 27.2355C130.491 27.8773 129.179 28.1982 127.688 28.1982ZM119.307 33.4931V12.8798H122.676V16.4475L122.563 20.4682L122.846 24.4889V33.4931H119.307ZM127.291 25.1685C128.141 25.1685 128.896 24.9797 129.557 24.6022C130.236 24.2247 130.774 23.6772 131.171 22.9599C131.567 22.2426 131.765 21.4026 131.765 20.4399C131.765 19.4583 131.567 18.6183 131.171 17.9198C130.774 17.2025 130.236 16.6551 129.557 16.2776C128.896 15.9 128.141 15.7113 127.291 15.7113C126.442 15.7113 125.677 15.9 124.998 16.2776C124.318 16.6551 123.78 17.2025 123.384 17.9198C122.988 18.6183 122.789 19.4583 122.789 20.4399C122.789 21.4026 122.988 22.2426 123.384 22.9599C123.78 23.6772 124.318 24.2247 124.998 24.6022C125.677 24.9797 126.442 25.1685 127.291 25.1685ZM147.84 28V24.942L147.642 24.2907V18.9392C147.642 17.901 147.33 17.0987 146.707 16.5324C146.084 15.9472 145.141 15.6546 143.876 15.6546C143.026 15.6546 142.186 15.7868 141.356 16.051C140.544 16.3153 139.855 16.6834 139.289 17.1553L137.901 14.5787C138.713 13.9557 139.676 13.4932 140.789 13.1912C141.922 12.8703 143.092 12.7099 144.301 12.7099C146.49 12.7099 148.18 13.2384 149.369 14.2955C150.577 15.3337 151.181 16.9477 151.181 19.1374V28H147.84ZM143.083 28.1982C141.95 28.1982 140.959 28.0094 140.11 27.6319C139.26 27.2355 138.6 26.6975 138.128 26.0179C137.675 25.3195 137.448 24.5361 137.448 23.6678C137.448 22.8183 137.647 22.0538 138.043 21.3743C138.458 20.6947 139.128 20.1567 140.053 19.7603C140.978 19.3639 142.205 19.1657 143.734 19.1657H148.123V21.5158H143.989C142.781 21.5158 141.969 21.7141 141.554 22.1105C141.139 22.488 140.931 22.9599 140.931 23.5262C140.931 24.168 141.186 24.6777 141.696 25.0552C142.205 25.4328 142.913 25.6215 143.819 25.6215C144.688 25.6215 145.461 25.4233 146.141 25.0269C146.839 24.6305 147.34 24.0453 147.642 23.2714L148.236 25.395C147.897 26.2822 147.283 26.9712 146.396 27.462C145.528 27.9528 144.423 28.1982 143.083 28.1982ZM155.723 28V6.99022H159.263V28H155.723Z" fill="#67797E"/>
<path d="M13.8741 34.0116C9.54326 31.4641 5.22079 28.9166 0.856445 26.3435C0.956968 26.2751 1.02398 26.2239 1.09938 26.1811C2.66585 25.2579 4.23232 24.3346 5.7988 23.4028C5.99147 23.2917 6.1255 23.3003 6.30979 23.4114C8.68882 24.8219 11.0762 26.2153 13.4553 27.6344C13.9244 27.9165 14.3348 27.9165 14.8039 27.6344C17.183 26.2239 19.5704 24.8219 21.9494 23.4199C22.1002 23.3344 22.2175 23.2661 22.4018 23.3772C24.0185 24.3432 25.6436 25.2921 27.2603 26.2495C27.2938 26.2666 27.3274 26.3008 27.3944 26.3521C23.0384 28.9166 18.7076 31.4641 14.3767 34.0201C14.2092 34.0116 14.0416 34.0116 13.8741 34.0116Z" fill="#67797E"/>
<path d="M13.2606 1.91797C13.2606 3.83007 13.2522 5.75059 13.269 7.66269C13.269 7.89855 13.1937 8.01648 13.0014 8.12598C10.6102 9.50741 8.22726 10.9057 5.836 12.2787C5.40123 12.5314 5.20057 12.8683 5.20057 13.3737C5.20893 16.145 5.20056 18.9079 5.20892 21.6792C5.20892 21.9319 5.14204 22.0666 4.91629 22.2014C3.39458 23.0774 1.87287 23.9619 0.359524 24.8463C0.259191 24.9053 0.158858 24.9558 0.00835899 25.0316C0.00835899 24.8716 0.00835899 24.7621 0.00835899 24.6526C0.00835899 19.9018 0.0167221 15.1595 0 10.4087C0 9.84434 0.217386 9.49898 0.693965 9.22101C4.79087 6.85405 8.87106 4.47024 12.9596 2.09486C13.0432 2.04432 13.1268 1.97693 13.2021 1.91797C13.2188 1.91797 13.2355 1.91797 13.2606 1.91797Z" fill="#67797E"/>
<path d="M15.4845 1.91797C16.1446 2.31372 16.8047 2.71789 17.4648 3.10523C20.9742 5.15136 24.492 7.19749 28.0098 9.2352C28.4861 9.50464 28.6783 9.86672 28.6783 10.414C28.6699 15.1631 28.6699 19.9037 28.6699 24.6527C28.6699 24.7622 28.6699 24.8717 28.6699 25.0316C28.5362 24.9643 28.4527 24.9222 28.3691 24.8801C26.8233 23.9791 25.2775 23.0781 23.7317 22.1856C23.5311 22.0677 23.4643 21.9414 23.4643 21.7141C23.4726 18.969 23.4559 16.224 23.481 13.4706C23.481 12.8896 23.2637 12.5107 22.7624 12.2244C20.3977 10.8687 18.0414 9.4878 15.685 8.12372C15.4929 8.01425 15.4093 7.89637 15.4093 7.6606C15.4177 5.7492 15.4177 3.82937 15.4177 1.91797C15.4427 1.91797 15.4678 1.91797 15.4845 1.91797Z" fill="#67797E"/>
<path d="M13.267 25.4596C12.6842 25.1155 12.158 24.7965 11.6237 24.4776C10.2556 23.6635 8.89564 22.841 7.52756 22.0269C7.38185 21.943 7.27661 21.8591 7.27661 21.6492C7.28471 19.4168 7.2847 17.1843 7.2847 14.9434C7.2847 14.8931 7.2928 14.8427 7.3009 14.7588C7.38994 14.8008 7.4547 14.8175 7.51947 14.8595C9.36516 15.959 11.2109 17.0668 13.0565 18.1746C13.1537 18.2334 13.2589 18.3677 13.2589 18.4684C13.2751 20.7764 13.267 23.0844 13.267 25.4596Z" fill="#67797E"/>
<path d="M21.3774 14.7588C21.3855 14.8933 21.3936 14.9942 21.3936 15.095C21.3936 17.2554 21.3936 19.4241 21.4017 21.5844C21.4017 21.8114 21.337 21.9375 21.1426 22.0552C19.3206 23.1395 17.4986 24.2323 15.6765 25.3251C15.6037 25.3671 15.5389 25.4007 15.4336 25.4596C15.4255 25.3671 15.4093 25.2914 15.4093 25.2158C15.4093 22.9966 15.4093 20.7859 15.4093 18.5667C15.4093 18.4154 15.4255 18.2977 15.5794 18.2052C17.4743 17.0788 19.3611 15.944 21.256 14.8092C21.2722 14.8008 21.3046 14.7924 21.3774 14.7588Z" fill="#67797E"/>
<path d="M8.13281 13.0303C8.68056 12.7194 9.21146 12.4248 9.73393 12.1301C11.2002 11.3118 12.6665 10.4852 14.1328 9.67506C14.2339 9.61778 14.4193 9.60141 14.5204 9.65869C16.4923 10.7471 18.4558 11.8519 20.4277 12.9567C20.4614 12.9731 20.4952 13.0058 20.5457 13.0467C20.4446 13.104 20.3603 13.1613 20.2676 13.2104C18.38 14.2661 16.5008 15.3217 14.6131 16.3856C14.4193 16.5002 14.2761 16.5002 14.0738 16.3856C12.1862 15.3136 10.2901 14.2579 8.39405 13.194C8.31821 13.1449 8.24236 13.0958 8.13281 13.0303Z" fill="#67797E"/>
</svg>
