<svg width="173" height="35" viewBox="0 0 173 35" fill="none" xmlns="http://www.w3.org/2000/svg">
<path d="M45.8334 28.2832C44.2855 28.2832 42.8037 28.0661 41.3879 27.6319C39.9722 27.1789 38.849 26.6031 38.0184 25.9047L39.2926 23.0449C40.0854 23.6678 41.067 24.1869 42.2374 24.6022C43.4077 25.0175 44.6064 25.2251 45.8334 25.2251C46.8716 25.2251 47.7116 25.1119 48.3534 24.8853C48.9952 24.6588 49.4672 24.3568 49.7692 23.9793C50.0712 23.5828 50.2222 23.1392 50.2222 22.6485C50.2222 22.0444 50.0051 21.563 49.571 21.2044C49.1368 20.8268 48.5705 20.5343 47.8721 20.3266C47.1925 20.1001 46.428 19.8925 45.5786 19.7037C44.748 19.5149 43.908 19.2978 43.0585 19.0524C42.2279 18.7882 41.4634 18.4578 40.765 18.0614C40.0854 17.6461 39.5286 17.0987 39.0944 16.4191C38.6602 15.7396 38.4432 14.8712 38.4432 13.8141C38.4432 12.7382 38.7263 11.7566 39.2926 10.8694C39.8778 9.9633 40.7556 9.24598 41.9259 8.71744C43.1151 8.17001 44.6158 7.8963 46.428 7.8963C47.6172 7.8963 48.797 8.04731 49.9674 8.34934C51.1377 8.65137 52.1571 9.08553 53.0254 9.65184L51.8645 12.5117C50.9773 11.9831 50.0618 11.5961 49.1179 11.3507C48.1741 11.0865 47.268 10.9543 46.3997 10.9543C45.3804 10.9543 44.5498 11.077 43.908 11.3224C43.285 11.5678 42.8226 11.8887 42.5205 12.2851C42.2374 12.6815 42.0958 13.1346 42.0958 13.6443C42.0958 14.2483 42.3034 14.7391 42.7187 15.1166C43.1529 15.4753 43.7098 15.7585 44.3893 15.9661C45.0878 16.1737 45.8617 16.3814 46.7112 16.589C47.5606 16.7778 48.4006 16.9949 49.2312 17.2403C50.0807 17.4857 50.8452 17.8066 51.5247 18.203C52.2232 18.5994 52.78 19.1374 53.1953 19.8169C53.6295 20.4965 53.8466 21.3554 53.8466 22.3936C53.8466 23.4507 53.554 24.4323 52.9688 25.3384C52.4025 26.2256 51.5247 26.9429 50.3355 27.4903C49.1463 28.0189 47.6456 28.2832 45.8334 28.2832ZM64.2638 28.1982C62.5838 28.1982 61.1114 27.8679 59.8467 27.2072C58.6008 26.5276 57.6287 25.6027 56.9302 24.4323C56.2507 23.2619 55.9109 21.9311 55.9109 20.4399C55.9109 18.9297 56.2412 17.5989 56.9019 16.4475C57.5815 15.2771 58.5064 14.3616 59.6768 13.7009C60.866 13.0402 62.2157 12.7099 63.7259 12.7099C65.1982 12.7099 66.5102 13.0308 67.6617 13.6726C68.8131 14.3144 69.7192 15.2205 70.3799 16.3908C71.0406 17.5612 71.3709 18.9392 71.3709 20.5248C71.3709 20.6758 71.3615 20.8457 71.3426 21.0345C71.3426 21.2233 71.3332 21.4026 71.3143 21.5725H58.7141V19.2223H69.4455L68.0581 19.9585C68.0769 19.0902 67.8976 18.3257 67.5201 17.665C67.1425 17.0043 66.6234 16.4852 65.9628 16.1077C65.3209 15.7301 64.5753 15.5414 63.7259 15.5414C62.8575 15.5414 62.093 15.7301 61.4323 16.1077C60.7905 16.4852 60.2809 17.0138 59.9033 17.6933C59.5447 18.354 59.3653 19.1374 59.3653 20.0435V20.6098C59.3653 21.5158 59.573 22.3181 59.9883 23.0165C60.4036 23.715 60.9887 24.253 61.7438 24.6305C62.4989 25.008 63.3672 25.1968 64.3488 25.1968C65.1982 25.1968 65.9628 25.0647 66.6423 24.8004C67.3219 24.5361 67.9259 24.1208 68.4545 23.5545L70.3516 25.7348C69.672 26.5276 68.8131 27.1411 67.7749 27.5753C66.7556 27.9906 65.5852 28.1982 64.2638 28.1982ZM81.7079 28.1982C80.1223 28.1982 78.7065 27.8679 77.4607 27.2072C76.2337 26.5276 75.271 25.6027 74.5725 24.4323C73.8741 23.2619 73.5249 21.9311 73.5249 20.4399C73.5249 18.9297 73.8741 17.5989 74.5725 16.4475C75.271 15.2771 76.2337 14.3616 77.4607 13.7009C78.7065 13.0402 80.1223 12.7099 81.7079 12.7099C83.1803 12.7099 84.4734 13.0119 85.5871 13.6159C86.7197 14.2011 87.5786 15.0695 88.1638 16.2209L85.4455 17.8066C84.9925 17.0893 84.4356 16.5607 83.7749 16.2209C83.1331 15.8812 82.4347 15.7113 81.6796 15.7113C80.8113 15.7113 80.0279 15.9 79.3295 16.2776C78.631 16.6551 78.0836 17.2025 77.6872 17.9198C77.2908 18.6183 77.0926 19.4583 77.0926 20.4399C77.0926 21.4215 77.2908 22.2709 77.6872 22.9882C78.0836 23.6867 78.631 24.2247 79.3295 24.6022C80.0279 24.9797 80.8113 25.1685 81.6796 25.1685C82.4347 25.1685 83.1331 24.9986 83.7749 24.6588C84.4356 24.319 84.9925 23.7905 85.4455 23.0732L88.1638 24.6588C87.5786 25.7914 86.7197 26.6692 85.5871 27.2921C84.4734 27.8962 83.1803 28.1982 81.7079 28.1982ZM97.6225 28.1982C96.3389 28.1982 95.2063 27.9622 94.2247 27.4903C93.2431 26.9995 92.4786 26.2633 91.9312 25.2818C91.3838 24.2813 91.1101 23.026 91.1101 21.5158V12.8798H94.6495V21.0345C94.6495 22.3936 94.9515 23.413 95.5555 24.0925C96.1785 24.7532 97.0562 25.0835 98.1888 25.0835C99.0194 25.0835 99.7367 24.9137 100.341 24.5739C100.964 24.2341 101.445 23.7244 101.785 23.0449C102.144 22.3653 102.323 21.5253 102.323 20.5248V12.8798H105.862V28H102.493V23.9226L103.087 25.1685C102.578 26.1501 101.832 26.9052 100.85 27.4337C99.8689 27.9434 98.7929 28.1982 97.6225 28.1982ZM110.496 28V12.8798H113.866V17.0421L113.469 15.8245C113.923 14.8052 114.63 14.0312 115.593 13.5027C116.575 12.9741 117.792 12.7099 119.246 12.7099V16.0794C119.095 16.0416 118.953 16.0227 118.821 16.0227C118.689 16.0038 118.557 15.9944 118.425 15.9944C117.084 15.9944 116.018 16.3908 115.225 17.1836C114.432 17.9576 114.036 19.1185 114.036 20.6664V28H110.496ZM129.217 28.1982C127.537 28.1982 126.065 27.8679 124.8 27.2072C123.554 26.5276 122.582 25.6027 121.883 24.4323C121.204 23.2619 120.864 21.9311 120.864 20.4399C120.864 18.9297 121.194 17.5989 121.855 16.4475C122.535 15.2771 123.46 14.3616 124.63 13.7009C125.819 13.0402 127.169 12.7099 128.679 12.7099C130.151 12.7099 131.463 13.0308 132.615 13.6726C133.766 14.3144 134.672 15.2205 135.333 16.3908C135.994 17.5612 136.324 18.9392 136.324 20.5248C136.324 20.6758 136.315 20.8457 136.296 21.0345C136.296 21.2233 136.286 21.4026 136.268 21.5725H123.667V19.2223H134.399L133.011 19.9585C133.03 19.0902 132.851 18.3257 132.473 17.665C132.096 17.0043 131.577 16.4852 130.916 16.1077C130.274 15.7301 129.529 15.5414 128.679 15.5414C127.811 15.5414 127.046 15.7301 126.386 16.1077C125.744 16.4852 125.234 17.0138 124.857 17.6933C124.498 18.354 124.319 19.1374 124.319 20.0435V20.6098C124.319 21.5158 124.526 22.3181 124.941 23.0165C125.357 23.715 125.942 24.253 126.697 24.6305C127.452 25.008 128.32 25.1968 129.302 25.1968C130.151 25.1968 130.916 25.0647 131.596 24.8004C132.275 24.5361 132.879 24.1208 133.408 23.5545L135.305 25.7348C134.625 26.5276 133.766 27.1411 132.728 27.5753C131.709 27.9906 130.538 28.1982 129.217 28.1982ZM147.889 28V8.17945H151.57V28H147.889ZM160.952 28V11.2941H154.383V8.17945H171.202V11.2941H164.633V28H160.952Z" fill="#67797E"/>
<path d="M14.4087 34.3791C14.1946 34.3791 13.974 34.3791 13.7599 34.3791C13.5782 34.3206 13.39 34.2751 13.2084 34.2101C11.4111 33.5727 9.69165 32.7663 8.0955 31.7128C5.71425 30.139 3.81314 28.123 2.45706 25.5997C0.932283 22.7578 0.257487 19.6817 0.0887881 16.4951C-0.0344919 14.0499 0.00443983 11.5982 0.0109282 9.15293C0.0174167 7.27348 1.32159 5.84927 3.19674 5.62165C3.891 5.53711 4.59824 5.48508 5.28601 5.37453C7.88138 4.96482 10.1718 3.89828 12.1183 2.12289C12.592 1.69367 13.0721 1.28397 13.695 1.08887C13.9545 1.08887 14.2141 1.08887 14.4736 1.08887C15.1809 1.29697 15.6934 1.79122 16.219 2.27246C16.2255 2.27897 16.232 2.28547 16.245 2.29197C17.7113 3.56662 19.3789 4.47057 21.2475 5.01034C22.4998 5.37453 23.791 5.49809 25.0757 5.63466C26.7367 5.80374 28.1123 7.28649 28.1642 8.95783C28.2485 11.7087 28.3134 14.4596 28.0409 17.2105C27.8527 19.1029 27.5348 20.9629 26.9314 22.7708C25.7245 26.3671 23.5963 29.2741 20.4754 31.4397C18.6067 32.7273 16.5759 33.7028 14.4087 34.3791ZM22.3635 17.7242C22.3376 13.1459 18.6262 9.43257 14.0843 9.43257C9.53593 9.43257 5.82455 13.1524 5.80509 17.7242C5.78562 22.2765 9.58135 26.0745 14.1038 26.0289C18.6846 25.9834 22.3895 22.2635 22.3635 17.7242Z" fill="#67797E"/>
<path d="M20.5073 17.7782C20.468 21.4549 17.5517 24.3266 14.0718 24.2729C10.4936 24.2125 7.68222 21.2671 7.72809 17.7111C7.78052 14.0679 10.6706 11.1358 14.1505 11.1962C17.7155 11.2566 20.5794 14.2289 20.5073 17.7782ZM12.617 19.0865C12.2827 18.7309 11.9813 18.3887 11.6667 18.0667C11.1883 17.5836 10.6051 17.5501 10.1856 17.9862C9.77932 18.4021 9.81864 19.0194 10.2839 19.5025C10.782 20.0191 11.2866 20.529 11.7912 21.0457C12.381 21.6495 12.8922 21.6495 13.482 21.0457C14.9107 19.583 16.3393 18.1204 17.7614 16.6577C17.8466 16.5705 17.9318 16.4833 18.0039 16.3893C18.4036 15.8324 18.1546 15.0541 17.5058 14.8394C17.0667 14.6985 16.726 14.8663 16.4179 15.1816C15.1728 16.4631 13.9276 17.7446 12.617 19.0865Z" fill="#67797E"/>
</svg>
