<svg width="115" height="35" viewBox="0 0 115 35" fill="none" xmlns="http://www.w3.org/2000/svg">
<path d="M36.4231 28V8.17945H44.5778C46.3334 8.17945 47.8341 8.4626 49.0799 9.0289C50.3447 9.5952 51.3168 10.4069 51.9964 11.464C52.6759 12.5211 53.0157 13.7764 53.0157 15.2299C53.0157 16.6834 52.6759 17.9387 51.9964 18.9958C51.3168 20.034 50.3447 20.8363 49.0799 21.4026C47.8341 21.95 46.3334 22.2237 44.5778 22.2237H38.4618L40.1041 20.5531V28H36.4231ZM49.3914 28L44.3796 20.808H48.3154L53.3555 28H49.3914ZM40.1041 20.9495L38.4618 19.194H44.4079C46.0313 19.194 47.2489 18.8448 48.0606 18.1464C48.8912 17.4479 49.3064 16.4758 49.3064 15.2299C49.3064 13.9652 48.8912 12.993 48.0606 12.3135C47.2489 11.6339 46.0313 11.2941 44.4079 11.2941H38.4618L40.1041 9.48194V20.9495ZM63.9013 28.1982C62.2213 28.1982 60.7489 27.8679 59.4842 27.2072C58.2383 26.5276 57.2662 25.6027 56.5677 24.4323C55.8882 23.2619 55.5484 21.9311 55.5484 20.4399C55.5484 18.9297 55.8787 17.5989 56.5394 16.4475C57.219 15.2771 58.1439 14.3616 59.3143 13.7009C60.5035 13.0402 61.8532 12.7099 63.3633 12.7099C64.8357 12.7099 66.1476 13.0308 67.2991 13.6726C68.4506 14.3144 69.3567 15.2205 70.0174 16.3908C70.6781 17.5612 71.0084 18.9392 71.0084 20.5248C71.0084 20.6758 70.999 20.8457 70.9801 21.0345C70.9801 21.2233 70.9706 21.4026 70.9518 21.5725H58.3516V19.2223H69.083L67.6955 19.9585C67.7144 19.0902 67.5351 18.3257 67.1576 17.665C66.78 17.0043 66.2609 16.4852 65.6002 16.1077C64.9584 15.7301 64.2128 15.5414 63.3633 15.5414C62.495 15.5414 61.7305 15.7301 61.0698 16.1077C60.428 16.4852 59.9183 17.0138 59.5408 17.6933C59.1821 18.354 59.0028 19.1374 59.0028 20.0435V20.6098C59.0028 21.5158 59.2105 22.3181 59.6257 23.0165C60.041 23.715 60.6262 24.253 61.3813 24.6305C62.1363 25.008 63.0047 25.1968 63.9863 25.1968C64.8357 25.1968 65.6002 25.0647 66.2798 24.8004C66.9593 24.5361 67.5634 24.1208 68.0919 23.5545L69.9891 25.7348C69.3095 26.5276 68.4506 27.1411 67.4124 27.5753C66.393 27.9906 65.2227 28.1982 63.9013 28.1982ZM80.0995 28.1982C78.4384 28.1982 77.1548 27.7735 76.2487 26.924C75.3426 26.0557 74.8896 24.7815 74.8896 23.1015V9.53857H78.4289V23.0165C78.4289 23.7339 78.6083 24.2907 78.9669 24.6871C79.3445 25.0835 79.8636 25.2818 80.5243 25.2818C81.3171 25.2818 81.9778 25.0741 82.5063 24.6588L83.4973 27.1789C83.0821 27.5186 82.5724 27.7735 81.9683 27.9434C81.3643 28.1133 80.7413 28.1982 80.0995 28.1982ZM72.3978 15.8245V12.993H82.478V15.8245H72.3978ZM86.4089 28V12.8798H89.7784V17.0421L89.382 15.8245C89.835 14.8052 90.5429 14.0312 91.5056 13.5027C92.4872 12.9741 93.7048 12.7099 95.1583 12.7099V16.0794C95.0073 16.0416 94.8657 16.0227 94.7336 16.0227C94.6014 16.0038 94.4693 15.9944 94.3371 15.9944C92.9969 15.9944 91.9304 16.3908 91.1375 17.1836C90.3447 17.9576 89.9483 19.1185 89.9483 20.6664V28H86.4089ZM104.818 28.1982C103.27 28.1982 101.892 27.8679 100.684 27.2072C99.476 26.5276 98.5228 25.6027 97.8243 24.4323C97.1259 23.2619 96.7767 21.9311 96.7767 20.4399C96.7767 18.9297 97.1259 17.5989 97.8243 16.4475C98.5228 15.2771 99.476 14.3616 100.684 13.7009C101.892 13.0402 103.27 12.7099 104.818 12.7099C106.385 12.7099 107.772 13.0402 108.98 13.7009C110.207 14.3616 111.161 15.2677 111.84 16.4191C112.539 17.5706 112.888 18.9109 112.888 20.4399C112.888 21.9311 112.539 23.2619 111.84 24.4323C111.161 25.6027 110.207 26.5276 108.98 27.2072C107.772 27.8679 106.385 28.1982 104.818 28.1982ZM104.818 25.1685C105.686 25.1685 106.46 24.9797 107.14 24.6022C107.82 24.2247 108.348 23.6772 108.726 22.9599C109.122 22.2426 109.32 21.4026 109.32 20.4399C109.32 19.4583 109.122 18.6183 108.726 17.9198C108.348 17.2025 107.82 16.6551 107.14 16.2776C106.46 15.9 105.696 15.7113 104.846 15.7113C103.978 15.7113 103.204 15.9 102.525 16.2776C101.864 16.6551 101.335 17.2025 100.939 17.9198C100.543 18.6183 100.344 19.4583 100.344 20.4399C100.344 21.4026 100.543 22.2426 100.939 22.9599C101.335 23.6772 101.864 24.2247 102.525 24.6022C103.204 24.9797 103.969 25.1685 104.818 25.1685Z" fill="#67797E"/>
<path d="M8.30021 33.7607C7.78683 33.6681 7.26503 33.6008 6.76007 33.4661C3.08223 32.5067 0.490066 29.5358 0.102925 25.7401C-0.0233166 24.545 0.0440102 23.3247 0.027178 22.1128C0.0187619 21.6078 0.027178 21.1029 0.027178 20.5811C6.40659 20.5811 12.7608 20.5811 19.1065 20.5811C19.1233 20.5979 19.1318 20.6063 19.1318 20.6147C19.0981 22.6683 19.3337 24.7386 18.9045 26.7753C18.1639 30.3185 15.1846 33.1126 11.5993 33.626C11.3384 33.6597 11.0859 33.7102 10.825 33.7523C9.98344 33.7607 9.14183 33.7607 8.30021 33.7607Z" fill="#67797E"/>
<path d="M22.1869 1.44238C22.9107 1.8716 23.0201 2.20825 22.7087 2.99936C22.3048 4.02613 21.9008 5.04448 21.4884 6.07124C21.2527 6.66037 20.6299 6.88761 20.125 6.59304C19.7294 6.36581 19.5443 5.88609 19.7126 5.44845C20.1502 4.30386 20.5963 3.15927 21.0844 2.03151C21.1854 1.79586 21.4884 1.63595 21.6904 1.44238C21.8503 1.44238 22.0186 1.44238 22.1869 1.44238Z" fill="#67797E"/>
<path d="M8.6624 5.54166C8.6624 6.1897 8.6624 6.79566 8.6624 7.40162C8.6624 8.10858 8.67081 8.81553 8.65398 9.51407C8.65398 9.62348 8.57824 9.77496 8.48566 9.82546C7.37473 10.4146 6.80244 11.374 6.66778 12.5775C6.52471 13.8736 6.8866 15.0098 7.90494 15.8935C7.99752 15.9776 8.09852 16.0786 8.21634 16.1123C8.64556 16.247 8.68765 16.5415 8.67081 16.9371C8.63715 17.501 8.6624 18.0648 8.6624 18.654C5.77567 18.654 2.92261 18.654 0.0190526 18.654C0.0190526 18.5361 0.0190526 18.4183 0.0190526 18.2921C0.0190526 15.8009 0.0695482 13.3013 0.00221931 10.8101C-0.0735257 8.07491 1.91267 6.11396 4.30285 5.68473C5.07713 5.54166 5.8935 5.56691 6.69303 5.54166C7.33265 5.52483 7.97227 5.54166 8.6624 5.54166Z" fill="#67797E"/>
<path d="M10.556 18.6538C10.556 17.9216 10.5476 17.2062 10.5644 16.4909C10.5644 16.4067 10.6738 16.2973 10.758 16.2552C13.0556 15.018 13.2155 11.3823 11.002 10.0189C10.6233 9.78323 10.5391 9.54757 10.5476 9.15202C10.5728 7.96535 10.556 6.77867 10.556 5.60042C10.5896 5.57517 10.6065 5.54992 10.6233 5.54992C12.054 5.57517 13.4848 5.40685 14.9071 5.66775C17.0616 6.0633 18.6691 7.6287 19.0647 9.68223C19.1236 9.96838 19.1404 10.2714 19.1488 10.5575C19.1572 13.1665 19.1488 15.7755 19.1488 18.3845C19.1488 18.4687 19.1488 18.5444 19.1488 18.6454C16.2789 18.6538 13.4427 18.6538 10.556 18.6538Z" fill="#67797E"/>
<path d="M26.2191 7.56112C26.2023 7.88935 26.0424 8.20075 25.6805 8.36066C24.6117 8.86562 23.5344 9.36217 22.4487 9.85031C21.9522 10.0691 21.4219 9.85872 21.2031 9.38742C20.9843 8.91612 21.1695 8.36907 21.666 8.14184C22.7264 7.63687 23.7953 7.14032 24.8641 6.6606C25.5206 6.37445 26.2107 6.81209 26.2191 7.56112Z" fill="#67797E"/>
<path d="M27.8091 13.2675C27.8091 14.0081 27.22 14.4878 26.6224 14.2858C25.461 13.8903 24.308 13.4611 23.1634 13.0234C22.6921 12.8383 22.4901 12.2996 22.6668 11.8367C22.8436 11.357 23.3485 11.1045 23.8451 11.2729C24.9729 11.6684 26.0922 12.0808 27.2115 12.5016C27.6071 12.6531 27.8007 12.9645 27.8091 13.2675Z" fill="#67797E"/>
<path d="M8.53589 13.0482C8.53589 12.6022 8.63688 12.1982 8.91461 11.8447C9.30176 11.365 9.85722 11.3566 10.2612 11.8195C10.8082 12.4507 10.7998 13.6794 10.2528 14.3022C9.85722 14.7483 9.31017 14.7483 8.92303 14.277C8.63689 13.9235 8.53589 13.5027 8.53589 13.0482Z" fill="#67797E"/>
</svg>
