<svg width="1920" height="1921" viewBox="0 0 1920 1921" fill="none" xmlns="http://www.w3.org/2000/svg">
<mask id="mask0_239_415" style="mask-type:alpha" maskUnits="userSpaceOnUse" x="0" y="0" width="1920" height="1921">
<rect width="1920" height="1921" fill="#18333B"/>
</mask>
<g mask="url(#mask0_239_415)">
<g opacity="0.06">
<mask id="mask1_239_415" style="mask-type:luminance" maskUnits="userSpaceOnUse" x="0" y="0" width="1920" height="2880">
<path d="M1920 2880L1920 0L0 0L0 2880L1920 2880Z" fill="white"/>
</mask>
<g mask="url(#mask1_239_415)">
<path d="M2120.83 1638.53C2021.38 1615.49 1923.84 1586.3 1827.84 1551.36C1785.21 1536 1742.21 1518.72 1708.03 1488.77C1621.25 1412.35 1618.18 1278.34 1637.38 1163.9C1654.66 1058.69 1684.61 955.392 1726.46 857.088C1767.94 759.936 1820.93 665.472 1838.59 561.408C1856.26 456.96 1827.84 336 1738.37 279.552C1684.99 246.144 1617.79 240.768 1555.97 253.824C1494.53 266.88 1437.69 296.832 1384.32 330.24C1323.26 368.256 1261.44 412.416 1189.63 418.176C1115.14 423.936 1039.1 382.848 1003.39 317.568C952.319 224.64 984.575 110.592 1003.39 6.14388C1027.58 -126.336 1027.2 -268.8 968.447 -389.76C909.311 -510.72 781.055 -604.416 646.655 -592.128" stroke="white" stroke-miterlimit="10"/>
<path d="M2140.8 1615.1C2043.65 1592.45 1948.03 1564.03 1854.72 1529.47C1813.25 1514.11 1771.01 1497.22 1737.98 1468.03C1652.74 1393.54 1648.13 1263.74 1664.26 1152.77C1668.1 1126.27 1672.7 1100.16 1678.08 1074.05C1693.82 998.784 1716.1 925.056 1744.9 854.016C1783.3 758.784 1833.22 666.624 1849.34 564.864C1865.47 463.104 1835.9 347.904 1752.96 288.768C1721.47 266.496 1688.06 251.136 1651.58 244.608C1626.62 240.384 1600.9 239.232 1575.55 241.92C1563.65 243.072 1552.13 244.992 1540.22 247.68C1493.38 258.048 1447.3 279.552 1403.52 303.36C1399.3 305.664 1394.69 307.968 1390.46 310.656C1323.26 347.904 1254.91 387.072 1179.65 389.376C1107.46 391.296 1033.73 353.28 998.4 289.536C948.096 198.912 976.896 88.3198 993.024 -12.6722C994.176 -20.7362 995.328 -28.8001 996.48 -36.4801C1012.61 -157.824 1006.08 -284.544 950.016 -392.448C890.496 -507.648 764.928 -595.968 634.368 -581.76" stroke="#F9F9F9" stroke-miterlimit="10"/>
<path d="M2160.77 1591.3C2065.92 1569.41 1972.61 1540.99 1881.6 1507.2C1840.9 1492.22 1800.19 1475.33 1767.55 1446.91C1684.22 1374.34 1677.7 1249.15 1691.14 1141.25C1694.21 1115.52 1698.43 1090.18 1703.04 1064.83C1716.86 991.872 1737.22 919.679 1763.33 850.175C1798.66 757.247 1845.12 667.007 1859.71 567.551C1874.3 468.095 1843.97 358.655 1766.78 296.831C1735.68 271.871 1704.96 251.519 1669.63 240.767C1645.44 233.471 1619.71 229.248 1593.6 228.864C1581.7 228.864 1569.41 229.631 1556.74 231.167C1507.2 237.695 1456.9 259.2 1409.28 282.624C1404.67 284.928 1400.06 287.232 1395.07 289.536C1322.11 326.016 1246.85 360.192 1168.51 358.656C1098.24 357.12 1027.2 321.792 992.639 259.584C943.103 171.264 968.832 64.1275 981.888 -33.4085C983.04 -41.0885 983.808 -48.7685 984.576 -56.4485C997.248 -173.568 987.647 -294.912 931.199 -397.44C870.911 -506.88 748.416 -589.44 621.696 -574.08" stroke="#F4F4F4" stroke-miterlimit="10"/>
<path d="M2180.74 1567.87C2088.19 1546.37 1997.18 1518.72 1908.1 1485.31C1868.54 1470.34 1828.61 1453.82 1796.74 1426.18C1715.33 1355.52 1706.5 1234.56 1717.25 1129.73C1719.94 1104.77 1723.01 1080.19 1727.23 1055.23C1739.14 984.192 1757.18 914.304 1781.38 846.336C1813.63 755.712 1856.64 667.392 1870.08 570.24C1883.14 473.088 1852.03 369.024 1780.99 305.28C1749.89 277.632 1722.62 252.288 1688.06 236.928C1664.64 226.56 1639.3 219.264 1612.03 216.192C1599.74 215.04 1587.07 214.656 1574.02 215.04C1521.79 217.728 1467.26 239.232 1415.81 261.888C1410.82 264.192 1405.82 266.496 1400.45 268.8C1321.34 304.128 1240.32 334.08 1157.76 328.704C1090.18 324.48 1021.06 290.688 986.879 230.4C938.111 144.768 960.383 40.7039 970.751 -53.3761C971.519 -60.6721 972.287 -68.3522 972.671 -75.6482C981.887 -188.544 969.215 -304.512 912.383 -401.664C851.711 -505.344 731.519 -582.144 609.023 -565.248" stroke="#EEEEEE" stroke-miterlimit="10"/>
<path d="M2201.09 1544.45C2110.85 1523.71 2021.76 1496.45 1935.36 1463.42C1896.96 1448.83 1858.18 1432.32 1827.07 1405.44C1747.2 1336.7 1736.83 1220.35 1744.9 1118.59C1746.82 1094.4 1749.5 1070.21 1752.96 1046.4C1762.94 977.28 1778.69 909.312 1800.58 842.88C1829.76 754.56 1869.7 668.16 1881.22 573.312C1893.12 478.464 1860.86 379.008 1795.58 314.112C1764.86 283.392 1740.67 253.44 1707.26 233.472C1684.61 220.032 1659.26 209.28 1631.62 203.904C1618.94 201.216 1605.89 199.68 1592.06 199.68C1537.15 198.528 1478.4 220.032 1423.1 242.304C1417.73 244.608 1412.35 246.912 1406.59 248.832C1321.73 283.392 1234.56 308.736 1148.16 299.52C1082.88 292.608 1016.06 260.736 982.272 201.984C934.272 118.656 953.472 18.0478 960.384 -72.5762C960.768 -79.8722 961.536 -86.7841 961.92 -94.0801C967.68 -202.752 951.936 -313.344 894.72 -404.736C833.664 -502.656 716.16 -574.08 597.504 -555.264" stroke="#E9E9E9" stroke-miterlimit="10"/>
<path d="M2221.06 1521.02C2132.74 1500.67 2046.34 1474.18 1962.24 1441.54C1924.99 1426.94 1886.98 1410.82 1856.64 1384.7C1778.69 1317.89 1766.02 1205.76 1771.39 1107.46C1772.54 1084.03 1774.85 1060.61 1777.54 1037.57C1785.6 970.368 1799.42 904.32 1818.62 839.808C1844.74 753.792 1881.22 669.312 1891.58 576.768C1901.95 484.608 1869.7 388.608 1809.79 322.944C1779.07 289.152 1757.95 254.592 1725.7 230.4C1703.81 213.888 1678.46 200.064 1650.05 192C1636.99 188.16 1623.17 185.472 1608.96 184.32C1551.36 179.328 1488.38 200.448 1429.63 222.72C1423.87 225.024 1418.11 226.944 1412.35 229.248C1321.34 263.04 1228.42 283.776 1137.79 270.336C1074.82 261.12 1010.3 230.4 976.896 173.568C929.664 92.5438 945.792 -4.6082 949.632 -92.1602C950.016 -99.0722 950.016 -105.984 950.4 -112.896C952.704 -217.344 933.888 -322.56 875.904 -408.576C814.08 -500.352 699.648 -566.4 584.448 -546.432" stroke="#E3E3E3" stroke-miterlimit="10"/>
<path d="M2241.02 1497.6C2155.01 1478.02 2070.91 1451.9 1989.12 1419.65C1952.64 1405.44 1916.16 1389.31 1886.21 1363.97C1810.18 1299.07 1795.58 1191.55 1798.27 1095.94C1799.04 1073.28 1800.19 1050.62 1802.5 1027.97C1808.26 963.072 1820.16 898.56 1837.44 835.584C1860.48 751.488 1893.5 669.312 1902.34 579.456C1911.17 489.6 1878.91 397.056 1824 331.392C1793.28 294.528 1775.62 254.976 1744.51 226.56C1723.39 206.976 1698.05 190.08 1669.25 178.944C1655.81 173.952 1641.6 170.112 1626.62 167.808C1566.34 159.36 1499.14 180.096 1436.54 201.6C1430.4 203.904 1424.26 205.824 1418.11 208.128C1321.34 240.768 1222.66 257.664 1127.81 240C1067.14 228.864 1004.93 199.296 971.904 144C925.44 65.2801 938.112 -28.416 939.264 -112.512C939.264 -119.04 939.264 -125.952 939.264 -132.48C937.728 -232.704 916.224 -332.544 857.856 -413.184C795.648 -499.2 683.904 -559.488 572.544 -537.984" stroke="#DEDEDE" stroke-miterlimit="10"/>
<path d="M2261.38 1473.79C2177.66 1454.98 2095.49 1428.86 2016 1397.38C1980.67 1383.17 1945.34 1367.42 1916.16 1342.85C1841.66 1280.26 1825.15 1176.58 1825.15 1084.42C1825.15 1062.53 1825.92 1040.64 1827.07 1018.75C1830.91 955.776 1840.51 893.184 1855.49 832.128C1875.45 750.336 1905.02 670.08 1912.7 582.528C1920.38 494.976 1898.88 395.904 1838.21 339.84C1815.17 294.528 1793.28 255.744 1762.94 223.104C1742.59 200.448 1717.63 180.48 1687.68 166.656C1673.85 160.512 1659.26 155.52 1643.52 152.448C1580.54 140.16 1509.12 160.896 1442.69 182.016C1436.16 183.936 1429.63 186.24 1423.1 188.16C1320.19 220.032 1215.74 232.704 1116.67 210.432C1058.69 197.376 998.015 168.96 966.143 115.2C920.447 39.168 930.047 -51.456 928.127 -132.096C928.127 -138.624 927.743 -144.768 927.359 -151.296C922.367 -247.68 897.791 -341.76 839.039 -417.024C776.447 -497.28 667.391 -552.192 559.871 -528.768" stroke="#D8D8D8" stroke-miterlimit="10"/>
<path d="M2281.34 1450.37C2199.94 1431.94 2120.06 1406.59 2042.88 1375.49C2008.7 1361.66 1974.14 1345.92 1945.73 1322.11C1873.15 1261.44 1854.72 1161.98 1852.03 1073.28C1851.26 1052.16 1851.26 1031.04 1852.03 1009.92C1853.95 948.864 1861.63 888.192 1874.3 828.672C1891.2 749.184 1917.7 670.848 1923.46 585.6C1929.6 500.352 1909.25 404.352 1852.42 348.672C1830.53 299.904 1810.56 256.896 1781.76 219.648C1761.79 194.304 1737.22 170.496 1706.88 154.368C1693.06 146.688 1677.7 140.928 1661.18 136.704C1595.52 120.576 1519.49 141.312 1449.6 162.048C1442.69 163.968 1435.78 166.272 1428.86 168.192C1320.19 199.296 1209.98 208.512 1106.69 181.248C1051.01 166.656 992.64 138.624 961.152 86.7842C915.84 13.0562 922.368 -74.1119 917.76 -151.296C917.376 -157.44 916.992 -163.584 916.224 -169.728C907.776 -261.888 880.512 -350.592 820.992 -420.48C757.632 -494.976 651.648 -544.128 547.968 -519.552" stroke="#D2D2D2" stroke-miterlimit="10"/>
<path d="M2301.31 1426.94C2222.21 1409.28 2144.64 1384.32 2069.76 1353.6C2036.35 1339.78 2003.33 1324.42 1975.3 1301.38C1904.64 1242.62 1883.9 1147.78 1878.91 1061.76C1877.76 1041.41 1876.99 1021.06 1876.99 1000.32C1876.99 941.568 1882.37 882.432 1892.74 824.832C1906.56 747.648 1929.6 671.232 1934.21 588.288C1938.82 505.728 1919.62 412.8 1867.01 356.736C1846.66 304.512 1828.61 257.28 1800.58 215.424C1781.38 187.008 1756.8 160.128 1725.7 140.928C1711.49 132.096 1695.74 124.8 1678.46 119.808C1610.11 99.8402 1529.86 120.576 1456.13 140.544C1448.83 142.464 1441.54 144.384 1434.24 146.304C1319.42 176.64 1203.84 182.016 1095.94 150.144C1042.56 134.4 986.495 106.752 955.391 56.4482C910.847 -14.9758 914.303 -98.6877 906.239 -172.416C905.471 -178.176 905.087 -183.936 904.319 -189.696C892.415 -277.632 862.08 -360.96 802.176 -425.088C738.432 -493.824 635.136 -537.216 535.296 -511.104" stroke="#CDCDCD" stroke-miterlimit="10"/>
<path d="M2321.66 1403.52C2244.48 1386.24 2169.22 1362.05 2096.64 1331.71C2064.38 1318.27 2032.13 1302.91 2005.25 1280.64C1936.13 1223.81 1913.86 1133.18 1905.79 1050.62C1903.87 1031.04 1902.72 1011.46 1901.95 991.488C1900.03 934.656 1903.1 877.824 1911.17 821.376C1921.92 746.496 1941.5 672 1944.58 591.36C1947.65 511.104 1929.6 421.248 1880.83 365.568C1861.63 309.504 1845.89 258.432 1818.62 212.352C1800.19 180.864 1775.62 150.912 1744.13 129.024C1729.54 119.04 1713.41 110.592 1695.36 104.448C1624.32 80.6401 1539.84 101.376 1462.27 120.96C1454.59 122.88 1446.91 124.8 1439.23 126.72C1318.27 155.904 1196.93 158.592 1085.18 120.96C1034.5 104.064 980.351 76.8001 949.631 28.0321C905.855 -41.0879 905.855 -121.344 895.103 -191.616C894.335 -196.992 893.183 -202.752 892.415 -208.128C877.055 -291.84 843.647 -369.792 782.975 -428.544C718.463 -491.52 618.239 -529.536 521.855 -501.888" stroke="#C7C7C7" stroke-miterlimit="10"/>
<path d="M2341.63 1379.71C2266.75 1363.2 2193.79 1339.39 2123.52 1309.06C2092.42 1295.62 2061.31 1281.02 2034.82 1259.14C1967.62 1204.22 1943.04 1118.21 1932.67 1038.72C1929.98 1019.9 1928.06 1000.7 1926.91 981.888C1923.07 926.976 1924.22 872.064 1929.98 817.536C1937.66 744.576 1953.79 672 1955.71 594.048C1957.63 516.096 1939.97 429.312 1895.81 374.016C1877.76 314.496 1863.94 259.2 1838.21 208.512C1820.54 173.952 1796.35 140.928 1763.71 116.352C1748.74 105.216 1732.22 95.616 1713.41 88.704C1639.68 61.056 1550.98 81.4079 1469.57 100.992C1461.5 102.912 1453.44 104.832 1445.38 106.752C1318.66 135.168 1191.17 134.784 1075.58 91.7759C1027.2 73.7279 975.36 46.4639 945.024 -0.384049C902.016 -66.816 898.944 -144 885.12 -211.2C883.968 -216.576 882.816 -221.952 881.664 -226.944C862.848 -306.432 826.368 -379.008 765.312 -432.384C700.416 -489.216 602.88 -521.856 510.336 -492.672" stroke="#C2C2C2" stroke-miterlimit="10"/>
<path d="M2361.6 1356.29C2289.02 1340.16 2218.37 1317.12 2150.4 1287.17C2120.06 1274.11 2090.11 1259.52 2064.38 1238.4C1999.1 1185.41 1972.61 1103.62 1959.17 1027.2C1956.1 1009.15 1953.41 990.72 1951.49 972.672C1945.73 920.064 1944.58 866.688 1948.03 813.696C1952.64 743.04 1965.7 672.384 1965.7 596.736C1966.08 521.088 1949.57 437.76 1909.25 382.08C1892.35 318.72 1880.83 259.2 1855.87 204.288C1838.98 166.656 1814.78 130.176 1781.38 102.912C1766.02 90.24 1749.12 79.872 1729.92 71.808C1653.5 40.704 1560.58 60.672 1475.71 79.488C1467.26 81.408 1458.82 83.3281 1450.37 84.8641C1317.5 112.512 1184.26 109.824 1064.45 60.672C1017.98 41.856 968.832 14.5921 938.88 -30.3359C896.64 -94.4639 890.496 -168.192 873.6 -231.936C872.448 -236.928 870.912 -241.92 869.376 -246.912C847.104 -322.176 807.552 -389.376 746.112 -437.376C680.832 -488.448 585.984 -515.328 497.28 -484.608" stroke="#BCBCBC" stroke-miterlimit="10"/>
<path d="M2381.57 1332.86C2311.3 1317.5 2242.56 1294.46 2177.28 1265.28C2148.1 1252.22 2119.3 1238.02 2094.34 1218.05C2030.59 1166.98 2002.18 1089.41 1986.43 1016.45C1982.59 999.168 1979.52 981.504 1976.83 963.84C1969.15 913.152 1965.7 861.696 1966.85 810.624C1968.38 742.272 1977.98 673.536 1976.83 600.192C1975.68 527.232 1950.34 451.968 1924.22 391.296C1897.34 328.32 1899.26 260.736 1875.46 201.6C1859.33 160.896 1835.14 121.344 1801.34 91.3921C1785.6 77.5681 1768.32 66.0481 1748.35 56.8321C1669.25 21.8881 1572.1 41.8561 1483.39 60.2881C1474.56 62.2081 1465.73 63.7442 1456.9 65.6642C1318.27 92.5442 1178.88 87.5521 1055.23 31.8721C1011.07 11.9041 963.839 -15.3599 935.039 -58.3679C893.567 -120.192 883.968 -190.464 864.384 -250.752C862.848 -255.36 861.311 -260.352 859.391 -264.96C833.279 -336 791.039 -397.824 729.215 -440.064C663.167 -485.376 571.391 -506.88 486.527 -474.624" stroke="#B7B7B7" stroke-miterlimit="10"/>
<path d="M2401.92 1309.44C2333.57 1294.46 2267.52 1272.19 2204.16 1243.39C2176.13 1230.72 2148.1 1216.51 2123.9 1197.31C2062.08 1148.16 2031.74 1075.2 2012.93 1005.31C2008.32 988.8 2004.48 971.904 2001.02 955.008C1991.42 906.24 1986.05 856.704 1984.9 807.168C1983.36 741.12 1989.5 674.304 1986.82 603.264C1984.51 532.608 1960.7 459.648 1938.05 399.744C1912.7 332.544 1916.16 261.504 1893.5 197.76C1878.14 153.984 1853.95 111.36 1819.39 78.72C1803.65 63.744 1785.22 50.6879 1764.86 41.0879C1683.07 2.30392 1581.7 22.272 1489.15 40.32C1479.94 42.24 1470.72 43.7759 1461.5 45.3119C1316.74 71.0399 1170.82 64.512 1043.71 2.30398C1001.86 -18.432 956.928 -45.6961 928.512 -87.1681C887.808 -146.304 875.136 -213.504 852.096 -270.336C850.176 -274.944 848.256 -279.168 846.336 -283.776C816.768 -350.976 771.456 -407.04 709.248 -443.904C642.816 -483.456 553.728 -499.2 472.704 -465.408" stroke="#B1B1B1" stroke-miterlimit="10"/>
<path d="M2421.89 1286.02C2355.84 1271.81 2292.1 1249.92 2231.04 1221.5C2204.16 1208.83 2177.28 1195.01 2153.47 1176.58C2093.57 1129.34 2061.31 1060.61 2039.81 993.792C2034.82 978.048 2030.21 961.92 2025.98 945.792C2014.46 898.944 2006.78 851.328 2003.33 803.712C1998.72 739.968 2001.41 675.072 1997.57 606.72C1993.73 538.368 1971.84 467.712 1952.26 408.96C1928.45 337.536 1933.82 263.04 1912.32 194.688C1897.73 148.224 1873.54 102.144 1838.59 66.816C1822.46 50.688 1803.65 36.48 1782.53 25.728C1698.05 -16.896 1592.45 3.072 1496.06 20.352C1486.46 22.272 1476.86 23.8081 1467.26 25.3441C1316.74 50.3041 1163.9 42.2401 1033.73 -27.2639C993.792 -48.384 951.552 -76.032 923.52 -115.968C883.2 -172.8 867.456 -236.544 841.728 -289.92C839.808 -294.144 837.504 -298.368 835.584 -302.592C802.56 -365.568 754.176 -416.256 691.2 -447.744C624.384 -481.536 537.6 -491.52 460.416 -456.192" stroke="#ABABAB" stroke-miterlimit="10"/>
<path d="M2441.86 1262.21C2378.11 1248.77 2316.29 1227.26 2257.92 1199.23C2231.81 1186.94 2206.08 1173.12 2183.42 1155.46C2125.06 1110.53 2090.88 1046.02 2067.07 982.272C2061.31 967.296 2055.94 951.936 2051.33 936.192C2037.5 891.648 2028.29 845.952 2022.53 799.488C2014.85 737.664 2014.46 675.072 2008.7 609.024C2003.33 542.976 1983.74 474.624 1967.23 416.64C1945.73 340.992 1952.26 263.04 1931.52 190.464C1917.31 140.928 1893.89 91.3919 1857.79 53.3759C1841.28 35.7119 1822.08 20.7359 1800.19 8.83189C1713.02 -37.6321 1603.2 -17.6641 1502.98 -0.768111C1492.99 0.767889 1483.01 2.68796 1473.02 4.22396C1316.35 28.416 1156.61 19.5839 1023.36 -57.6001C985.343 -79.4881 945.792 -107.52 918.144 -145.536C878.592 -200.064 859.776 -259.968 830.976 -310.272C828.672 -314.112 826.368 -318.336 824.064 -322.176C787.584 -380.928 736.128 -426.24 672.768 -452.352C605.184 -480.384 521.472 -484.992 448.128 -448.128" stroke="#A6A6A6" stroke-miterlimit="10"/>
<path d="M2462.21 1238.78C2400.77 1225.73 2341.25 1204.99 2285.18 1177.34C2260.22 1165.06 2235.65 1151.62 2213.38 1134.72C2156.93 1091.71 2120.83 1031.42 2093.95 971.136C2087.42 956.928 2081.66 941.952 2076.29 927.36C2060.54 884.736 2049.02 840.96 2040.96 796.416C2030.21 736.896 2026.37 676.224 2019.46 612.48C2012.54 549.12 1995.26 483.072 1981.44 425.856C1962.24 346.368 1969.54 264.576 1949.95 187.392C1936.51 134.784 1913.09 82.1758 1876.61 41.4718C1859.71 22.6558 1840.13 6.52787 1817.47 -6.14413C1727.62 -56.0641 1613.57 -36.8642 1509.5 -19.9682C1499.13 -18.4322 1488.77 -16.8961 1478.4 -15.3601C1315.97 8.06389 1148.54 -1.53611 1012.99 -86.4001C976.895 -109.056 940.031 -137.088 912.767 -173.568C873.983 -225.792 852.095 -282.24 820.223 -329.472C817.535 -333.312 815.231 -336.768 812.543 -340.608C772.607 -395.136 718.079 -435.072 654.335 -455.808C586.367 -477.696 505.343 -476.928 435.839 -438.528" stroke="#A0A0A0" stroke-miterlimit="10"/>
<path d="M2482.18 1215.36C2423.04 1203.07 2365.82 1182.34 2311.68 1155.46C2287.87 1143.55 2264.06 1130.11 2242.94 1113.98C2188.42 1072.9 2150.02 1017.22 2120.83 959.616C2113.92 945.792 2107.39 931.968 2101.25 918.144C2083.58 877.44 2069.76 835.584 2059.39 792.576C2045.57 735.36 2038.27 676.608 2029.82 615.168C2021.76 554.112 2006.4 490.368 1995.65 434.304C1979.52 350.592 1987.2 264.96 1968.77 183.936C1956.1 128.256 1932.67 72.5759 1895.42 29.1839C1878.14 9.21589 1858.18 -8.06421 1834.75 -21.8882C1742.21 -75.6482 1623.94 -56.4482 1516.42 -40.3202C1505.66 -38.7842 1494.91 -37.2482 1484.16 -35.7122C1315.58 -13.4402 1140.48 -23.0402 1002.62 -116.352C968.448 -139.392 934.272 -168.192 907.392 -202.752C869.376 -252.288 844.032 -305.664 809.472 -349.44C806.784 -352.896 804.096 -356.352 801.024 -359.424C757.632 -409.728 700.032 -444.288 635.904 -459.264C567.552 -475.392 489.216 -468.864 423.552 -428.928" stroke="#9B9B9B" stroke-miterlimit="10"/>
<path d="M2502.14 1191.94C2444.93 1180.03 2390.02 1160.06 2338.56 1133.57C2315.52 1121.66 2293.25 1108.61 2272.51 1093.25C2219.52 1054.08 2179.58 1002.62 2147.33 948.48C2139.65 935.424 2132.35 922.368 2125.82 908.928C2106.24 870.528 2090.5 830.208 2077.82 789.12C2060.93 734.208 2050.18 677.376 2040.58 618.24C2030.98 559.488 2018.3 498.432 2009.86 442.752C1996.8 354.816 2004.86 265.728 1987.2 180.096C1975.3 121.344 1951.87 62.2081 1914.24 16.1281C1896.58 -4.99188 1876.22 -23.8078 1852.03 -38.3998C1756.8 -95.9998 1634.3 -76.7998 1522.94 -61.0558C1511.81 -59.5198 1500.67 -57.9838 1489.54 -56.8318C1315.2 -35.3278 1131.65 -44.5439 992.256 -146.688C959.616 -170.496 928.512 -199.296 902.4 -232.32C865.152 -279.552 836.736 -329.472 798.72 -369.792C795.648 -372.864 792.576 -375.936 789.504 -379.008C742.272 -425.088 682.368 -454.272 617.088 -463.872C547.968 -474.24 472.704 -462.336 410.88 -420.864" stroke="#959595" stroke-miterlimit="10"/>
<path d="M2522.11 1168.13C2467.2 1156.99 2414.59 1137.41 2365.44 1111.3C2343.55 1099.78 2322.43 1086.72 2302.08 1072.13C2251.01 1034.88 2208.77 987.648 2174.21 936.96C2165.76 924.672 2158.08 912.384 2150.78 899.712C2129.28 863.232 2111.23 824.832 2096.26 785.28C2076.29 732.672 2062.46 677.76 2051.33 620.928C2040.19 564.48 2030.21 506.496 2024.45 451.2C2014.85 359.424 2022.53 266.496 2006.4 176.256C1995.26 114.432 1972.22 52.2239 1933.44 3.45593C1915.78 -19.2001 1894.66 -38.7841 1869.7 -54.1441C1771.78 -115.584 1645.06 -96.3841 1529.86 -81.0241C1518.34 -79.4881 1507.2 -77.9521 1495.68 -76.8001C1315.2 -56.0641 1122.82 -64.8961 982.271 -175.872C951.551 -200.448 922.751 -229.248 897.407 -260.736C860.927 -305.664 829.055 -352.128 788.351 -388.992C785.279 -392.064 781.823 -394.752 778.367 -397.44C727.679 -439.68 664.703 -463.104 599.039 -467.328C529.535 -471.936 456.959 -454.272 398.975 -411.264" stroke="#909090" stroke-miterlimit="10"/>
<path d="M2542.46 1144.7C2393.09 1114.37 2261.38 1016.45 2175.74 890.496C2090.11 764.544 2047.49 612.096 2038.66 459.648C2032.9 364.032 2040.19 267.264 2024.83 172.8C2009.47 78.3361 1967.62 -18.048 1886.98 -69.888C1786.37 -135.168 1655.42 -115.968 1536.38 -101.376C1340.54 -77.184 1121.28 -77.184 971.904 -205.824C897.408 -269.952 847.488 -360.576 766.848 -416.64C655.104 -494.976 491.904 -488.832 386.304 -402.432" stroke="#8A8A8A" stroke-miterlimit="10"/>
<path d="M-22.2721 345.216C60.2879 404.736 139.392 469.632 214.272 538.752C247.68 569.472 280.704 602.112 300.672 642.816C351.36 746.88 302.208 871.68 240.768 969.6C183.936 1059.84 116.736 1143.55 40.3199 1218.05C-35.3281 1291.78 -120.96 1358.21 -177.408 1447.68C-233.856 1537.15 -254.592 1659.65 -193.92 1746.43C-157.824 1797.89 -97.5361 1828.61 -35.7121 1840.51C26.1119 1852.42 89.856 1846.66 152.064 1836.29C223.104 1824.77 297.216 1807.87 365.952 1830.53C436.608 1853.95 491.136 1921.15 498.816 1995.26C509.952 2100.86 436.224 2193.41 378.624 2282.5C305.28 2395.39 250.368 2526.72 258.048 2661.12C265.728 2795.52 347.904 2931.46 476.544 2971.78" stroke="white" stroke-miterlimit="10"/>
<path d="M-49.9205 359.04C31.4875 417.792 108.672 481.536 182.016 549.888C214.656 580.224 246.911 612.48 266.111 652.416C305.279 732.672 285.311 825.6 246.911 908.544C236.543 931.2 224.64 953.088 211.968 973.824C158.208 1063.3 94.0796 1145.86 20.7356 1220.35C-51.8404 1293.7 -134.401 1359.74 -188.929 1448.45C-219.265 1497.98 -240.385 1556.74 -243.841 1614.72C-246.913 1665.02 -236.928 1715.33 -208.512 1757.18C-203.52 1764.48 -197.76 1771.78 -191.616 1778.3C-154.368 1819.39 -100.608 1844.35 -45.6964 1855.1C-28.0324 1858.56 -10.3685 1860.86 7.67946 1862.02C54.1435 1865.09 101.376 1861.63 147.456 1856.26C220.416 1847.81 295.295 1836.67 363.647 1862.02C431.615 1886.98 484.223 1951.49 492.287 2024.06C503.423 2126.98 434.304 2217.98 380.544 2304.77C376.32 2311.68 372.095 2318.59 367.871 2325.5C306.047 2431.1 263.424 2550.53 273.024 2671.87C283.392 2801.28 365.184 2931.07 491.136 2968.32" stroke="#F9F9F9" stroke-miterlimit="10"/>
<path d="M-77.5682 373.248C2.30378 430.848 78.3358 493.824 149.76 561.408C181.632 591.36 212.736 623.232 231.936 662.784C270.336 741.888 252.672 832.512 216.576 914.304C206.592 936.576 195.456 958.08 183.936 978.816C133.632 1067.14 72.192 1149.31 2.30397 1223.04C-66.816 1296.38 -146.688 1362.05 -199.296 1449.6C-230.016 1501.06 -251.904 1561.34 -256.512 1621.25C-260.352 1673.09 -251.136 1724.93 -222.336 1768.32C-217.344 1776 -211.584 1783.3 -205.44 1790.21C-167.424 1832.83 -112.128 1858.56 -55.6802 1870.08C-37.6322 1873.92 -19.2002 1876.22 -0.768213 1877.76C47.2318 1881.6 95.6159 1879.68 142.848 1876.22C217.728 1870.85 293.376 1865.09 361.344 1893.5C426.24 1920.38 477.312 1982.21 485.376 2052.86C496.896 2153.47 432 2242.18 382.08 2327.42C378.24 2333.95 374.4 2340.86 370.56 2347.78C313.728 2450.69 275.712 2566.27 288 2683.01C301.056 2807.04 382.464 2930.69 505.344 2965.25" stroke="#F4F4F4" stroke-miterlimit="10"/>
<path d="M-105.216 387.072C-26.496 443.52 47.616 505.728 117.504 572.544C148.608 602.112 178.944 633.6 197.76 672.384C235.776 749.952 219.648 838.656 186.24 919.296C177.024 941.184 166.656 962.688 155.52 983.04C108.288 1070.21 50.3039 1151.62 -16.5121 1225.34C-82.5601 1298.3 -159.36 1363.58 -209.664 1450.37C-240.768 1503.74 -263.424 1565.57 -269.184 1627.01C-274.176 1680.38 -264.96 1734.14 -236.16 1779.07C-230.784 1787.14 -225.024 1794.82 -218.88 1802.11C-180.096 1846.66 -123.264 1872.77 -64.896 1885.44C-46.08 1889.28 -27.2642 1892.35 -8.44822 1893.89C40.7038 1898.5 90.6239 1897.73 139.008 1896.19C215.808 1893.89 291.84 1893.89 360.192 1924.99C422.016 1953.41 471.552 2012.93 480 2081.66C491.904 2179.58 431.232 2266.75 385.536 2349.7C382.08 2356.22 378.24 2362.75 374.784 2369.66C322.56 2470.27 289.536 2582.02 304.512 2693.76C320.64 2812.8 401.28 2929.92 521.088 2961.79" stroke="#EEEEEE" stroke-miterlimit="10"/>
<path d="M-132.864 400.896C-55.6801 456.192 17.28 517.632 84.864 583.68C114.816 613.248 144.768 644.352 163.2 681.984C200.448 758.016 186.24 845.184 155.52 924.288C147.072 945.792 137.472 966.912 127.104 986.88C82.944 1072.9 28.0318 1153.92 -35.3282 1226.88C-98.3042 1299.46 -172.032 1364.74 -220.416 1450.37C-251.904 1505.66 -275.328 1569.02 -281.856 1632.38C-287.616 1686.91 -279.168 1742.59 -249.984 1789.06C-244.608 1797.5 -238.848 1805.18 -232.704 1812.86C-193.152 1858.94 -134.784 1885.82 -74.8802 1899.26C-55.6802 1903.49 -36.48 1906.56 -16.896 1908.86C33.408 1914.62 84.8639 1915.01 134.016 1915.39C213.12 1916.16 289.152 1921.54 357.504 1955.71C416.256 1985.28 464.256 2042.5 473.088 2109.7C485.376 2205.31 428.544 2290.56 387.072 2371.58C383.616 2378.11 380.544 2384.26 377.472 2390.78C330.24 2488.7 301.824 2596.61 319.488 2703.36C338.304 2817.02 418.56 2928.38 535.68 2957.18" stroke="#E9E9E9" stroke-miterlimit="10"/>
<path d="M-160.128 415.104C-84.0959 469.248 -13.0559 529.92 52.9921 595.2C82.1761 624.384 110.976 655.104 129.408 692.352C165.888 766.848 153.984 852.096 125.184 930.048C117.504 951.168 108.288 971.904 99.0721 991.872C57.9841 1076.74 6.52813 1156.99 -53.7599 1229.95C-113.664 1302.14 -184.32 1367.42 -230.784 1451.9C-262.656 1509.12 -286.848 1574.02 -294.528 1638.91C-301.056 1694.98 -293.376 1752.58 -263.808 1800.58C-258.432 1809.02 -252.672 1817.47 -246.144 1825.15C-205.824 1873.15 -145.92 1900.42 -84.0957 1914.62C-64.5117 1919.23 -44.5437 1922.3 -24.5757 1924.99C27.2643 1931.52 79.4882 1933.44 130.176 1935.74C211.2 1939.58 287.616 1949.95 356.352 1987.58C412.032 2018.3 458.88 2073.6 467.328 2138.88C479.616 2231.81 427.392 2315.14 389.76 2394.24C386.688 2400.38 384 2406.91 380.928 2413.06C338.688 2508.67 315.264 2612.74 335.232 2714.5C356.736 2823.17 436.608 2928 550.656 2954.11" stroke="#E3E3E3" stroke-miterlimit="10"/>
<path d="M-187.776 428.928C-113.28 481.92 -43.3919 541.824 20.7361 606.336C49.1521 635.136 77.184 665.472 95.232 701.952C131.328 775.296 120.96 858.624 94.8481 935.04C87.9361 956.16 79.4881 976.512 70.6561 996.096C32.6401 1080.19 -15.7438 1159.3 -72.5758 1232.26C-129.024 1304.06 -196.608 1369.34 -241.536 1452.67C-273.408 1511.81 -298.752 1578.24 -307.2 1645.06C-314.496 1702.66 -307.2 1761.79 -277.632 1811.33C-272.256 1820.16 -266.496 1828.61 -259.584 1836.67C-218.88 1886.21 -157.056 1914.24 -93.3119 1929.22C-72.9599 1934.21 -52.6078 1937.66 -32.2558 1940.35C20.7362 1947.65 74.4961 1951.1 126.336 1955.33C209.28 1962.24 286.08 1977.6 354.816 2018.69C407.808 2050.18 452.736 2103.55 461.568 2167.3C474.24 2257.92 426.24 2339.33 392.832 2416.51C390.144 2422.66 387.456 2428.8 385.152 2434.94C347.52 2527.87 329.088 2628.1 351.744 2725.25C375.936 2828.54 455.424 2927.23 566.784 2950.66" stroke="#DEDEDE" stroke-miterlimit="10"/>
<path d="M-215.424 442.752C-142.08 494.976 -74.1125 553.728 -11.5205 617.472C16.1275 645.888 43.3916 675.84 61.0556 711.552C96.3836 783.36 88.3194 864.768 64.5114 940.032C57.9834 960.768 50.6876 980.736 42.6236 1000.32C7.67961 1083.26 -37.2485 1161.98 -91.3925 1234.18C-144.768 1305.6 -209.281 1370.88 -252.289 1453.06C-284.545 1514.11 -311.04 1582.08 -320.256 1650.43C-328.32 1709.18 -321.793 1770.62 -291.841 1821.7C-286.465 1830.91 -280.32 1839.74 -273.792 1848.19C-232.32 1899.65 -168.961 1928.06 -103.681 1944.19C-82.9445 1949.18 -61.8246 1953.02 -41.0886 1956.1C13.0554 1964.16 68.3516 1969.15 121.344 1975.3C206.208 1985.28 283.392 2005.63 352.128 2050.18C402.048 2082.43 445.439 2134.27 454.271 2196.1C467.327 2284.03 423.552 2363.9 393.984 2438.78C391.68 2444.54 389.375 2450.69 387.071 2456.83C354.431 2547.46 340.607 2643.84 365.951 2736C392.831 2834.3 471.936 2926.85 580.224 2947.2" stroke="#D8D8D8" stroke-miterlimit="10"/>
<path d="M-243.072 456.576C-171.264 507.648 -104.448 565.632 -43.7761 628.608C-16.8961 656.64 9.21577 686.208 26.8798 721.536C61.4398 791.808 55.2959 871.296 34.1759 945.408C28.4159 965.76 21.8878 985.344 14.2078 1004.54C-17.2802 1086.34 -59.5203 1164.29 -110.208 1236.48C-160.512 1307.9 -221.568 1373.18 -263.04 1453.82C-295.296 1517.18 -322.944 1586.3 -333.312 1656.58C-342.144 1716.86 -336 1779.84 -306.048 1832.45C-300.672 1842.05 -294.528 1850.88 -287.616 1859.71C-245.376 1912.7 -180.096 1941.89 -113.28 1958.78C-92.1602 1964.16 -70.6562 1968.38 -49.1522 1971.84C6.52782 1981.06 62.9758 1987.2 117.12 1995.26C203.904 2008.32 281.472 2033.66 350.592 2081.66C397.824 2114.69 439.296 2164.99 448.512 2224.9C461.568 2310.53 422.016 2388.1 396.672 2461.44C394.752 2467.2 392.832 2472.96 390.912 2478.72C363.264 2567.04 354.048 2659.2 382.08 2746.75C411.648 2840.06 490.368 2926.08 595.584 2943.36" stroke="#D2D2D2" stroke-miterlimit="10"/>
<path d="M-270.72 470.784C-200.064 520.704 -135.168 577.92 -76.0319 640.128C-49.9199 667.776 -24.5759 697.344 -7.67991 731.52C26.4961 800.64 21.8882 878.208 3.45619 950.784C-1.53581 970.752 -7.67995 990.336 -14.208 1009.15C-42.624 1089.79 -81.7918 1166.98 -129.024 1238.78C-175.872 1309.82 -233.856 1375.1 -273.792 1454.59C-306.432 1519.87 -334.848 1590.53 -345.984 1662.34C-355.584 1724.16 -350.208 1789.06 -319.872 1843.2C-314.496 1853.18 -308.352 1862.4 -301.056 1871.23C-258.048 1926.14 -191.232 1955.71 -122.496 1973.38C-100.608 1979.14 -78.7199 1983.36 -56.8319 1987.2C0.000139397 1997.18 57.9842 2004.86 112.896 2014.85C201.6 2030.98 279.552 2060.93 348.672 2112.77C392.832 2146.18 432.768 2194.94 442.368 2253.31C455.808 2336.26 420.48 2412.29 399.36 2483.33C397.824 2489.09 395.904 2494.46 394.752 2500.22C371.712 2585.86 367.872 2674.56 398.208 2757.12C430.464 2845.06 508.8 2925.31 611.328 2939.52" stroke="#CDCDCD" stroke-miterlimit="10"/>
<path d="M-298.369 484.608C-229.249 533.376 -165.888 589.824 -108.672 651.648C-83.3285 678.912 -58.7525 708.096 -42.2405 741.888C-8.83253 809.472 -11.5204 885.12 -27.2644 956.544C-31.4884 976.128 -36.8644 995.328 -42.6244 1014.14C-67.9684 1093.63 -103.681 1170.43 -147.841 1241.86C-191.617 1312.51 -246.144 1377.79 -284.544 1456.13C-317.184 1523.33 -346.753 1595.52 -359.041 1669.25C-369.409 1732.61 -364.417 1799.04 -334.081 1855.1C-328.705 1865.09 -322.176 1874.69 -315.264 1883.9C-271.488 1940.35 -203.136 1970.69 -132.864 1989.12C-110.592 1994.88 -87.9364 1999.49 -65.6644 2003.71C-7.68044 2014.46 51.8396 2023.68 107.904 2035.58C198.528 2054.78 277.247 2089.34 346.367 2145.41C387.839 2179.2 425.856 2226.82 435.456 2283.26C449.28 2363.9 418.176 2437.63 400.896 2507.14C399.36 2512.51 398.208 2518.27 397.056 2523.65C379.008 2606.98 379.775 2691.46 412.799 2769.02C447.743 2851.97 525.695 2925.7 625.151 2937.22" stroke="#C7C7C7" stroke-miterlimit="10"/>
<path d="M-326.016 498.432C-258.048 546.048 -196.225 601.728 -140.929 662.784C-116.353 690.048 -92.5444 718.464 -76.4164 751.488C-43.7764 817.536 -44.1606 891.648 -57.6006 961.536C-61.4406 980.736 -65.6646 999.936 -71.0406 1018.37C-93.3126 1097.09 -125.952 1172.74 -166.656 1243.78C-207.36 1314.05 -258.432 1379.33 -295.296 1456.51C-328.32 1525.63 -358.657 1598.98 -371.713 1674.62C-382.849 1739.14 -378.624 1807.87 -347.904 1865.09C-342.528 1875.46 -336 1885.44 -328.704 1895.04C-284.16 1953.41 -214.273 1984.13 -142.081 2003.71C-119.425 2009.86 -96.0005 2014.85 -73.3445 2019.07C-13.8245 2030.59 46.4636 2041.34 104.064 2054.78C196.608 2077.06 276.095 2115.84 344.831 2176.13C383.999 2210.3 419.712 2256.77 429.696 2311.3C443.52 2389.25 416.64 2461.44 403.584 2528.64C402.432 2534.02 401.664 2539.39 400.896 2544.77C387.456 2625.41 393.215 2706.43 428.927 2779.01C466.559 2856.58 544.128 2924.16 640.896 2932.99" stroke="#C2C2C2" stroke-miterlimit="10"/>
<path d="M-353.665 512.64C-287.233 559.104 -226.945 614.016 -173.185 674.304C-149.377 701.184 -126.721 729.216 -110.593 761.472C-78.7207 825.984 -77.1846 898.176 -87.9366 966.912C-91.0086 985.729 -94.8487 1004.54 -99.0727 1022.59C-118.273 1100.16 -147.457 1175.42 -185.473 1246.08C-222.721 1315.97 -270.721 1381.63 -305.665 1457.28C-338.689 1528.7 -370.561 1603.2 -384.385 1680.77C-396.289 1746.82 -392.833 1817.09 -361.729 1876.22C-355.969 1886.98 -349.825 1896.96 -342.529 1906.94C-297.217 1966.85 -225.793 1998.34 -152.065 2018.69C-128.641 2025.22 -105.217 2030.21 -81.7927 2035.2C-21.1207 2047.87 40.7033 2059.78 99.4553 2075.14C193.919 2100.48 274.175 2143.49 342.911 2208C379.391 2242.18 413.567 2287.49 423.551 2340.48C437.759 2416.13 415.103 2486.4 405.887 2551.68C405.119 2556.67 404.351 2562.05 403.967 2567.04C395.519 2645.38 405.887 2722.18 444.287 2790.14C484.991 2862.72 561.791 2924.16 655.487 2929.92" stroke="#BCBCBC" stroke-miterlimit="10"/>
<path d="M-380.928 526.464C-315.648 572.16 -256.896 625.92 -205.056 685.44C-182.016 711.936 -160.128 739.584 -144.384 771.456C-112.896 834.816 -109.44 905.088 -117.888 972.288C-120.192 990.72 -123.264 1009.15 -127.104 1027.2C-143.232 1103.62 -169.344 1178.11 -203.904 1248.77C-238.08 1318.66 -282.624 1383.94 -316.032 1458.43C-349.056 1531.78 -382.08 1607.81 -397.056 1686.91C-409.728 1754.5 -406.656 1826.69 -375.552 1886.98C-369.792 1898.11 -363.264 1908.48 -355.968 1918.46C-310.272 1979.9 -236.928 2012.16 -161.28 2033.28C-137.472 2039.81 -113.28 2045.57 -89.4724 2050.56C-27.6484 2064 35.7116 2077.44 95.6156 2094.72C192 2123.14 273.024 2169.98 341.376 2239.1C375.552 2273.28 407.424 2317.82 417.408 2368.9C432 2441.86 413.568 2510.21 408.576 2573.57C408.192 2578.56 407.808 2583.55 407.808 2588.54C404.352 2664.19 419.712 2737.54 460.416 2800.51C503.808 2867.71 580.223 2923.01 671.231 2926.08" stroke="#B7B7B7" stroke-miterlimit="10"/>
<path d="M-408.576 540.288C-344.832 584.832 -287.616 637.824 -237.312 696.576C-215.04 722.688 -193.92 750.336 -178.56 781.056C-147.84 842.88 -142.464 911.232 -148.224 977.28C-149.76 995.712 -152.064 1013.76 -155.136 1031.42C-168.192 1106.69 -190.848 1180.42 -222.336 1250.69C-253.44 1320.19 -294.528 1385.86 -326.4 1458.82C-359.424 1534.08 -393.6 1611.65 -409.344 1692.67C-422.784 1761.41 -420.48 1835.52 -388.992 1897.73C-383.232 1908.86 -376.704 1920 -369.024 1929.98C-322.56 1993.34 -247.68 2025.98 -170.112 2047.87C-145.536 2054.78 -120.96 2060.54 -96.7681 2065.92C-33.4081 2080.13 31.104 2095.1 91.776 2114.3C190.08 2145.79 272.256 2196.48 339.84 2270.21C371.328 2304.77 401.28 2348.16 411.648 2397.31C426.24 2467.97 412.416 2534.4 411.264 2595.84C411.264 2600.83 411.264 2605.44 411.264 2610.43C412.416 2683.78 432.768 2752.9 476.16 2811.26C522.24 2873.47 598.272 2922.24 686.208 2922.62" stroke="#B1B1B1" stroke-miterlimit="10"/>
<path d="M-436.225 554.112C-373.633 597.504 -317.953 649.728 -269.953 707.712C-248.449 733.44 -228.481 760.704 -213.121 790.656C-183.169 850.944 -175.873 917.376 -178.945 982.272C-179.713 1000.32 -181.633 1017.98 -183.937 1035.26C-193.537 1109.38 -213.505 1182.72 -241.537 1252.61C-269.185 1321.73 -306.817 1387.39 -337.537 1459.2C-370.561 1536.77 -405.889 1615.49 -422.785 1698.05C-436.993 1768.32 -435.073 1844.35 -403.585 1907.71C-397.825 1919.23 -391.297 1930.37 -383.617 1941.12C-336.385 2006.02 -259.585 2039.81 -180.865 2062.46C-155.905 2069.76 -130.945 2075.52 -105.985 2081.28C-41.4726 2096.26 24.5753 2112.77 86.3993 2133.89C187.007 2168.83 270.335 2222.98 337.151 2301.31C366.335 2335.87 393.983 2378.11 404.351 2425.73C419.327 2493.7 409.343 2558.21 412.415 2617.73C412.799 2622.34 412.799 2626.94 413.567 2631.94C419.711 2702.59 444.671 2768.26 490.751 2821.63C539.519 2878.46 615.167 2921.47 700.031 2918.4" stroke="#ABABAB" stroke-miterlimit="10"/>
<path d="M-463.873 568.32C-402.817 610.56 -348.673 662.016 -302.209 719.232C-281.473 744.576 -262.273 771.456 -247.681 801.024C-218.113 859.776 -208.897 924.672 -209.665 988.032C-210.049 1005.7 -210.817 1022.98 -212.353 1040.26C-218.881 1113.6 -235.777 1185.79 -260.353 1255.3C-284.929 1324.03 -319.105 1390.08 -348.289 1460.35C-381.313 1539.84 -417.793 1620.1 -435.457 1704.58C-450.433 1776.38 -449.281 1853.95 -417.409 1919.23C-411.649 1931.14 -404.737 1942.66 -397.057 1953.41C-349.057 2020.22 -270.721 2054.4 -190.081 2077.82C-164.737 2085.12 -139.009 2091.65 -113.665 2097.79C-48.0006 2113.54 19.5833 2131.58 82.5593 2154.62C185.087 2192.64 269.951 2250.62 335.615 2333.57C362.879 2368.13 387.839 2409.6 398.591 2455.3C413.951 2520.96 408.191 2583.55 415.487 2641.15C415.871 2645.76 416.639 2650.37 417.407 2654.59C428.543 2722.94 458.111 2784.38 506.879 2833.15C558.335 2884.99 633.599 2921.47 715.775 2915.71" stroke="#A6A6A6" stroke-miterlimit="10"/>
<path d="M-491.521 582.144C-431.617 623.232 -379.009 673.92 -334.465 730.368C-314.497 755.328 -296.065 781.824 -281.857 810.624C-253.057 868.224 -241.921 930.816 -240.001 993.024C-239.617 1010.3 -239.617 1027.58 -240.385 1044.48C-243.841 1116.67 -257.281 1188.1 -278.785 1257.6C-300.289 1325.95 -331.009 1392 -358.657 1461.12C-391.681 1542.91 -429.313 1624.32 -448.129 1710.34C-463.873 1783.3 -463.105 1863.17 -431.617 1929.98C-425.857 1942.27 -418.945 1953.79 -411.265 1964.93C-362.497 2033.28 -282.625 2068.22 -200.449 2092.42C-174.337 2100.1 -148.225 2106.62 -122.497 2113.15C-55.2966 2130.05 13.0553 2148.86 77.5673 2174.21C182.015 2215.3 268.799 2276.35 333.311 2364.67C358.271 2398.85 380.927 2439.55 392.063 2483.71C407.807 2546.69 406.271 2607.74 417.407 2663.04C418.175 2667.26 419.327 2671.87 420.479 2676.1C436.223 2741.76 471.167 2799.74 521.855 2843.14C575.999 2889.6 650.879 2919.94 729.983 2911.49" stroke="#A0A0A0" stroke-miterlimit="10"/>
<path d="M-519.168 595.968C-460.8 635.904 -409.728 685.824 -366.72 741.504C-347.52 766.08 -330.24 792.192 -316.032 820.608C-288 876.672 -274.56 937.728 -270.72 998.4C-269.568 1015.3 -269.184 1032.19 -269.184 1049.09C-269.568 1120.13 -279.936 1191.17 -298.368 1260.29C-316.416 1328.26 -343.68 1394.69 -370.176 1462.27C-402.816 1546.37 -442.368 1628.93 -461.952 1716.86C-478.464 1791.36 -478.464 1873.15 -446.592 1941.12C-440.832 1953.41 -433.92 1965.7 -425.856 1976.83C-376.32 2047.1 -294.912 2082.43 -210.816 2107.39C-184.32 2115.46 -157.44 2122.37 -131.328 2128.9C-62.9764 2146.56 6.91172 2166.91 72.5757 2194.18C178.944 2238.34 268.032 2302.85 330.624 2396.16C353.664 2430.34 374.016 2470.27 384.768 2512.51C400.512 2573.18 403.2 2631.94 418.56 2685.7C419.712 2689.92 420.864 2694.14 422.4 2698.37C443.136 2761.73 482.688 2815.49 536.064 2854.27C592.896 2895.74 667.392 2919.94 743.808 2908.42" stroke="#9B9B9B" stroke-miterlimit="10"/>
<path d="M-546.816 610.176C-489.6 649.344 -440.448 698.112 -398.976 753.024C-380.544 777.6 -364.032 803.328 -350.208 830.592C-322.56 885.12 -307.584 944.256 -301.056 1003.78C-299.136 1020.29 -297.984 1036.8 -297.216 1053.31C-294.528 1123.2 -301.44 1193.47 -316.8 1262.21C-331.776 1330.18 -355.2 1396.22 -380.544 1462.66C-412.8 1548.67 -453.888 1632.77 -474.24 1722.24C-491.52 1798.27 -492.288 1881.6 -460.032 1951.49C-454.272 1964.16 -447.36 1976.45 -438.912 1987.97C-388.608 2059.78 -305.664 2095.87 -219.648 2121.6C-192.768 2129.66 -165.504 2136.96 -138.624 2143.87C-69.12 2162.3 2.30397 2184.19 68.736 2212.99C177.024 2260.22 268.8 2328.19 329.088 2426.5C350.208 2461.06 367.872 2499.84 379.008 2540.16C395.136 2598.14 402.048 2655.36 421.632 2706.82C423.168 2711.04 424.704 2714.88 426.624 2719.1C452.352 2779.78 496.512 2830.08 552.576 2863.87C612.096 2899.97 686.208 2918.02 759.552 2903.81" stroke="#959595" stroke-miterlimit="10"/>
<path d="M-574.464 624C-518.784 662.016 -470.784 710.016 -431.232 764.16C-413.952 788.352 -397.824 813.696 -384.384 840.192C-357.504 893.184 -340.224 950.784 -331.392 1008.77C-328.704 1024.9 -326.784 1041.41 -325.632 1057.54C-319.872 1126.27 -323.712 1196.16 -335.616 1264.51C-347.52 1332.1 -367.488 1398.53 -391.296 1463.42C-423.552 1551.74 -465.792 1636.99 -487.296 1728.38C-505.344 1805.95 -506.496 1891.2 -474.24 1962.24C-468.48 1975.3 -461.184 1987.97 -453.12 1999.87C-402.432 2073.6 -317.568 2110.08 -230.016 2136.96C-202.368 2145.41 -174.72 2152.7 -147.456 2160.38C-76.4159 2179.58 -3.83993 2203.01 63.7441 2233.73C173.952 2284.03 268.8 2355.07 326.784 2458.75C345.984 2493.31 360.96 2530.94 372.48 2569.73C388.992 2625.41 400.128 2680.32 423.552 2730.24C425.472 2734.08 427.392 2737.92 429.312 2741.76C459.648 2800.13 508.8 2846.21 567.552 2875.39C630.144 2906.5 703.488 2918.02 773.76 2901.12" stroke="#909090" stroke-miterlimit="10"/>
<path d="M-601.728 637.824C-475.392 723.456 -392.064 864.384 -361.728 1013.76C-331.392 1163.14 -350.976 1320.19 -401.664 1464.19C-433.536 1554.43 -477.312 1641.22 -499.584 1734.14C-521.856 1827.46 -520.32 1932.29 -466.176 2011.39C-398.592 2110.46 -270.336 2143.49 -154.752 2175.74C35.3278 2228.74 237.312 2313.98 325.632 2490.24C369.792 2578.18 380.544 2680.7 433.152 2764.03C505.728 2879.23 658.944 2936.83 789.504 2898.05" stroke="#8A8A8A" stroke-miterlimit="10"/>
<path d="M2154.62 -1014.91C2225.28 -941.184 2291.33 -863.232 2352.38 -781.824C2379.65 -745.728 2406.14 -707.712 2418.43 -663.936C2449.54 -552.192 2378.5 -438.528 2300.54 -353.28C2228.35 -274.56 2146.94 -204.672 2058.62 -145.152C1970.69 -86.0161 1874.69 -36.48 1803.26 41.472C1731.46 119.424 1688.83 236.16 1733.38 332.16C1759.87 389.376 1813.25 430.464 1872 453.12C1930.75 475.776 1994.5 481.536 2057.47 483.072C2129.66 484.608 2205.31 481.536 2268.67 515.712C2334.34 551.424 2375.42 627.456 2369.66 701.568C2361.6 807.168 2272.51 885.12 2199.55 962.304C2107.01 1060.22 2029.44 1179.26 2012.93 1313.28C1996.42 1446.91 2052.86 1595.52 2171.9 1658.5" stroke="#8A8A8A" stroke-miterlimit="10"/>
<path d="M2125.06 -1006.08C2194.56 -933.888 2259.07 -857.088 2318.59 -776.448C2345.09 -740.736 2371.2 -703.104 2383.1 -660.48C2407.3 -574.464 2370.82 -486.912 2317.82 -412.032C2303.23 -391.68 2287.87 -372.096 2271.74 -354.048C2203.01 -275.712 2124.67 -205.824 2039.42 -146.304C1954.94 -87.1681 1861.63 -37.2481 1792.13 39.9359C1753.34 83.3279 1722.24 137.472 1708.03 193.536C1695.74 242.688 1696.51 293.76 1717.25 339.84C1721.09 348.288 1725.31 355.968 1729.92 363.648C1759.1 410.88 1807.49 445.056 1859.33 465.408C1876.22 471.936 1893.12 477.312 1910.4 481.92C1955.71 493.44 2002.56 498.432 2049.02 501.504C2122.37 506.496 2198.02 508.8 2260.61 546.048C2322.82 582.912 2363.14 655.872 2357.76 728.448C2350.46 831.744 2265.98 908.544 2197.25 984.576C2191.87 990.72 2186.5 996.48 2181.12 1002.62C2101.25 1095.17 2037.5 1204.99 2025.6 1326.34C2012.54 1455.36 2069.76 1597.82 2186.5 1657.34" stroke="#909090" stroke-miterlimit="10"/>
<path d="M2095.49 -997.248C2163.84 -926.208 2227.2 -850.56 2285.18 -771.072C2310.91 -735.744 2336.26 -698.88 2347.78 -656.64C2371.58 -572.16 2337.41 -486.144 2287.1 -412.032C2273.28 -392.064 2258.69 -372.48 2243.33 -354.432C2177.66 -276.864 2102.78 -206.976 2020.61 -146.688C1939.2 -87.1682 1848.96 -36.8642 1781.76 39.5518C1742.21 84.4798 1709.95 140.16 1694.59 197.76C1681.15 248.064 1681.15 300.672 1701.89 348.672C1705.73 357.12 1709.95 365.568 1714.56 373.248C1744.13 422.016 1794.05 457.344 1847.42 478.848C1864.7 485.76 1881.98 491.52 1900.03 496.512C1946.5 509.184 1994.5 515.712 2041.34 520.704C2116.22 529.152 2191.1 537.216 2253.31 577.152C2312.06 615.168 2351.23 685.44 2346.62 756.096C2339.71 857.088 2259.84 932.736 2195.71 1007.62C2190.72 1013.38 2185.73 1019.52 2180.74 1025.66C2106.24 1116.67 2047.87 1223.42 2039.04 1340.54C2029.44 1464.96 2087.42 1601.28 2201.86 1657.34" stroke="#959595" stroke-miterlimit="10"/>
<path d="M2065.92 -988.416C2133.12 -918.912 2194.94 -844.032 2251.39 -765.696C2276.35 -730.752 2300.93 -694.272 2312.45 -653.184C2335.87 -570.24 2304 -485.376 2256.38 -412.416C2243.33 -392.448 2229.5 -373.248 2214.91 -355.584C2152.7 -278.4 2080.89 -208.512 2002.17 -148.224C1923.84 -88.3201 1836.67 -38.0161 1771.39 38.0159C1731.07 84.8639 1697.66 141.696 1681.15 201.216C1666.94 252.672 1665.79 307.2 1686.14 356.736C1689.98 365.568 1694.21 374.016 1698.82 382.464C1728.77 433.152 1780.22 469.248 1835.14 491.904C1852.8 499.2 1870.85 505.344 1888.89 510.336C1936.51 523.776 1985.66 532.224 2033.28 539.52C2109.31 551.04 2184.19 564.864 2245.63 607.872C2301.31 646.656 2339.33 714.24 2335.1 783.36C2328.96 882.048 2253.69 956.544 2193.79 1029.89C2189.18 1035.65 2184.57 1041.41 2179.97 1047.55C2110.46 1137.02 2057.85 1241.09 2052.48 1353.6C2046.72 1473.41 2105.09 1603.58 2217.21 1656.19" stroke="#9B9B9B" stroke-miterlimit="10"/>
<path d="M2035.97 -979.968C2102.02 -911.616 2162.69 -838.272 2217.22 -760.704C2241.41 -726.528 2265.22 -690.432 2276.35 -649.728C2299.39 -568.32 2269.82 -484.992 2224.9 -412.8C2212.61 -393.216 2199.55 -374.016 2185.73 -356.352C2126.59 -279.552 2058.24 -210.048 1982.59 -149.376C1907.71 -89.472 1823.23 -38.4 1760.26 36.864C1719.55 85.632 1684.61 143.616 1666.94 204.672C1651.58 257.28 1649.66 313.728 1670.02 364.8C1673.47 374.016 1678.08 382.848 1683.07 391.296C1713.41 443.904 1766.4 480.768 1822.85 504.576C1840.9 512.256 1859.33 518.784 1878.14 524.16C1926.91 538.752 1976.83 548.736 2025.6 557.952C2103.17 572.928 2177.28 591.744 2238.34 637.824C2290.94 677.376 2327.81 742.656 2323.97 810.24C2318.59 906.24 2247.55 979.968 2192.26 1052.16C2188.03 1057.92 2183.42 1063.68 2179.2 1069.44C2115.07 1157.38 2067.84 1258.37 2065.92 1366.66C2063.62 1481.86 2123.14 1605.89 2232.58 1655.42" stroke="#A0A0A0" stroke-miterlimit="10"/>
<path d="M2006.4 -971.136C2071.3 -903.936 2130.43 -831.744 2183.42 -755.328C2206.85 -721.536 2229.89 -685.824 2241.02 -646.272C2263.68 -566.4 2236.42 -484.608 2194.18 -413.184C2182.66 -393.6 2169.98 -374.784 2157.31 -357.12C2101.63 -281.088 2036.35 -211.584 1963.78 -150.528C1891.97 -90.24 1810.56 -38.7841 1749.5 35.7119C1708.03 86.3999 1672.32 145.536 1653.12 208.128C1636.61 262.272 1633.92 319.872 1654.27 372.48C1657.73 382.08 1662.34 390.912 1667.33 399.744C1698.05 454.272 1752.58 491.904 1810.56 516.864C1828.99 524.928 1848.19 531.84 1867.01 537.6C1916.54 553.344 1968 564.864 2017.15 576C2095.87 594.432 2169.6 618.624 2230.27 667.776C2279.42 708.096 2315.52 770.688 2312.06 836.736C2307.46 930.432 2241.02 1003.01 2189.95 1074.05C2185.73 1079.81 2181.89 1085.18 2178.05 1090.94C2119.3 1177.34 2077.44 1275.26 2078.59 1379.33C2080.13 1489.92 2140.03 1607.81 2247.55 1653.89" stroke="#A6A6A6" stroke-miterlimit="10"/>
<path d="M1976.83 -962.304C2040.57 -896.64 2098.56 -825.216 2150.01 -749.952C2173.05 -716.544 2194.94 -681.6 2206.08 -642.432C2228.35 -564.096 2203.39 -483.84 2163.84 -413.184C2153.09 -393.984 2141.18 -375.168 2129.28 -357.504C2076.67 -281.856 2014.85 -212.352 1945.73 -151.296C1876.99 -90.6243 1799.04 -38.7842 1739.9 34.9438C1697.66 87.5517 1660.8 148.224 1640.45 211.968C1623.17 267.264 1619.33 326.784 1639.68 380.928C1643.13 390.528 1647.74 400.128 1652.73 409.344C1683.84 465.408 1739.9 504.192 1799.42 530.304C1818.62 538.752 1837.82 546.048 1857.41 552.192C1908.09 569.088 1960.7 582.144 2010.62 595.584C2090.88 617.088 2163.84 646.272 2223.74 699.264C2270.21 739.968 2304.77 800.64 2301.69 864.767C2297.85 956.159 2236.03 1027.58 2189.18 1097.47C2185.34 1102.85 2181.89 1108.61 2178.43 1113.98C2124.67 1198.85 2088.57 1294.08 2093.18 1393.54C2098.17 1499.52 2158.85 1611.26 2264.06 1653.89" stroke="#ABABAB" stroke-miterlimit="10"/>
<path d="M1947.26 -953.472C2009.86 -888.96 2066.3 -819.072 2116.22 -744.576C2138.5 -711.552 2159.62 -677.376 2170.37 -638.976C2192.26 -561.792 2169.22 -483.456 2132.74 -413.568C2122.75 -394.368 2111.62 -375.936 2100.48 -358.272C2051.33 -283.008 1992.58 -213.888 1926.53 -152.448C1861.25 -91.776 1785.98 -39.168 1728.77 33.792C1686.14 88.32 1647.74 150.144 1626.24 215.808C1607.81 272.256 1603.2 333.696 1623.17 389.376C1626.62 399.36 1631.23 409.344 1636.22 418.56C1667.71 476.544 1724.93 516.096 1786.37 543.744C1805.95 552.576 1825.92 559.872 1845.5 566.784C1897.34 584.832 1950.72 599.424 2001.79 614.784C2083.58 639.744 2155.78 673.92 2215.3 730.368C2258.69 771.072 2291.71 829.824 2289.79 892.416C2286.72 981.12 2229.12 1051.78 2186.88 1120.51C2183.42 1125.89 2180.35 1131.26 2176.9 1137.02C2128.51 1220.35 2097.41 1312.51 2105.86 1407.74C2114.69 1509.12 2175.74 1614.72 2278.66 1653.89" stroke="#B1B1B1" stroke-miterlimit="10"/>
<path d="M1917.31 -945.024C1978.75 -881.664 2034.05 -812.928 2082.43 -739.584C2103.94 -706.944 2124.29 -673.152 2135.04 -635.52C2156.54 -559.872 2135.81 -483.072 2102.02 -413.952C2092.8 -395.136 2082.43 -376.704 2071.68 -359.424C2025.6 -284.544 1970.3 -215.424 1907.71 -153.984C1845.5 -92.9282 1773.7 -39.9362 1718.4 32.2558C1675.01 88.7038 1635.84 151.68 1612.8 218.88C1593.22 276.864 1587.84 339.84 1607.81 397.056C1611.26 407.424 1615.87 417.408 1620.86 427.008C1652.74 486.912 1711.49 527.232 1774.46 556.032C1794.43 565.248 1814.78 572.928 1835.14 580.224C1888.13 599.04 1942.66 615.552 1994.11 633.216C2077.06 661.632 2148.86 700.416 2208 760.32C2248.32 801.408 2280.19 858.24 2278.66 918.912C2276.35 1005.31 2223.36 1074.82 2184.96 1142.02C2181.89 1147.39 2179.2 1152.77 2176.13 1158.14C2132.74 1239.94 2107.39 1329.02 2118.91 1420.03C2131.2 1516.8 2193.41 1615.87 2293.63 1651.97" stroke="#B7B7B7" stroke-miterlimit="10"/>
<path d="M1887.74 -936.192C1948.03 -874.368 2001.79 -806.4 2048.64 -734.208C2069.38 -702.336 2088.96 -668.928 2099.71 -632.064C2120.83 -557.952 2102.4 -482.688 2071.3 -414.336C2062.85 -395.52 2053.25 -377.472 2043.26 -360.192C2000.64 -286.08 1948.42 -216.96 1888.9 -154.752C1829.76 -93.312 1761.02 -39.5521 1707.65 31.4879C1663.87 89.8559 1623.17 153.984 1598.98 222.72C1578.62 281.856 1572.1 346.368 1592.06 405.504C1595.52 416.256 1600.13 426.624 1605.5 436.608C1637.76 498.048 1698.05 539.52 1762.56 569.472C1782.91 579.072 1804.03 587.136 1824.38 594.816C1878.53 614.784 1934.21 632.832 1986.43 652.416C2070.91 684.288 2142.34 727.68 2200.7 791.424C2238.34 832.128 2268.67 887.424 2267.52 946.56C2265.6 1030.66 2217.22 1099.01 2183.42 1165.06C2180.74 1170.43 2178.05 1175.42 2175.74 1180.8C2137.73 1261.06 2117.76 1347.46 2132.74 1433.86C2148.86 1526.02 2211.46 1618.94 2309.38 1651.97" stroke="#BCBCBC" stroke-miterlimit="10"/>
<path d="M1858.18 -927.36C1917.31 -866.688 1969.54 -799.872 2014.85 -728.832C2034.82 -697.344 2053.63 -664.32 2064 -628.224C2084.74 -555.648 2068.61 -481.536 2040.19 -414.336C2032.51 -395.904 2023.68 -377.856 2014.46 -360.576C1974.91 -286.848 1926.14 -218.112 1869.7 -155.52C1814.02 -94.08 1748.35 -39.552 1696.9 30.72C1652.74 91.008 1610.5 156.288 1585.15 226.944C1563.65 287.232 1556.35 353.664 1576.32 413.952C1579.78 424.704 1584.38 435.456 1589.76 445.824C1622.4 509.184 1684.22 551.424 1750.27 582.528C1771.01 592.128 1792.51 600.96 1813.63 609.024C1868.93 630.144 1925.38 649.728 1978.75 671.616C2064.38 706.944 2135.42 754.944 2193.41 822.528C2228.35 863.232 2257.15 916.992 2256.38 974.208C2255.23 1056 2211.46 1123.2 2181.89 1188.1C2179.58 1193.09 2177.28 1198.46 2174.98 1203.46C2142.34 1282.18 2127.74 1365.5 2146.18 1447.68C2165.76 1535.62 2229.12 1622.02 2324.74 1651.58" stroke="#C2C2C2" stroke-miterlimit="10"/>
<path d="M1828.61 -918.912C1886.59 -859.776 1937.66 -794.112 1981.06 -723.84C2000.26 -692.736 2018.3 -660.48 2028.67 -625.152C2049.02 -554.112 2035.2 -481.536 2009.47 -415.104C2002.56 -396.672 1994.5 -379.008 1986.05 -361.728C1949.95 -288.384 1904.26 -219.648 1851.26 -157.056C1798.66 -95.2319 1736.45 -40.3198 1686.53 29.1842C1641.6 91.3922 1598.21 158.208 1571.71 230.016C1549.06 291.456 1540.99 359.808 1560.58 421.632C1564.03 432.768 1568.64 443.904 1574.02 454.272C1607.04 519.552 1670.4 562.56 1737.98 594.816C1759.49 604.8 1780.99 614.016 1802.5 622.464C1858.94 644.736 1916.54 665.856 1970.69 689.664C2057.86 728.064 2128.9 780.672 2185.73 852.48C2217.98 893.184 2244.86 945.024 2244.86 1000.7C2244.48 1079.81 2204.93 1146.24 2179.97 1209.98C2178.05 1214.98 2176.13 1219.97 2174.21 1225.34C2146.56 1302.14 2137.73 1382.78 2159.62 1460.74C2182.66 1544.06 2246.78 1624.32 2340.1 1650.43" stroke="#C7C7C7" stroke-miterlimit="10"/>
<path d="M1798.65 -910.08C1855.49 -852.096 1905.02 -787.584 1946.88 -718.464C1965.31 -687.744 1982.59 -655.872 1992.57 -621.312C2012.54 -551.808 2000.64 -480.768 1977.98 -415.104C1971.45 -397.056 1964.54 -379.392 1956.86 -362.112C1924.22 -289.536 1881.6 -220.8 1831.68 -157.824C1782.14 -95.6161 1723.39 -39.9361 1675.01 28.0319C1629.69 92.1599 1585.15 160.128 1557.12 233.472C1533.69 296.448 1524.48 366.336 1544.06 429.696C1547.52 441.216 1552.13 452.352 1557.5 463.488C1590.91 530.688 1655.81 574.464 1724.93 607.872C1746.81 618.24 1769.09 627.84 1790.97 636.672C1848.57 659.712 1906.94 682.752 1961.85 708.864C2050.17 751.104 2121.21 807.552 2177.28 883.2C2206.85 923.52 2232.19 974.208 2232.57 1027.97C2232.96 1104.77 2198.01 1169.66 2177.28 1232.64C2175.74 1237.63 2174.21 1242.62 2172.67 1247.62C2150.4 1322.88 2146.56 1400.83 2171.9 1474.56C2198.78 1553.28 2263.68 1627.39 2354.3 1650.05" stroke="#CDCDCD" stroke-miterlimit="10"/>
<path d="M1769.09 -901.248C1824.77 -844.8 1873.15 -781.056 1913.47 -713.088C1931.52 -683.136 1948.03 -651.648 1957.63 -617.856C1977.22 -549.888 1967.62 -480.384 1947.26 -415.488C1941.5 -397.44 1935.36 -380.16 1928.45 -363.264C1898.88 -291.072 1859.71 -222.336 1813.25 -159.36C1767.17 -96.7679 1711.49 -40.7039 1665.02 26.4961C1619.33 92.5441 1573.25 161.664 1544.06 236.544C1519.49 300.672 1509.5 372.096 1529.09 437.376C1532.54 449.28 1537.15 460.8 1542.53 471.936C1576.7 540.672 1642.75 585.6 1713.41 620.16C1735.68 630.912 1758.34 640.896 1780.99 650.112C1839.36 674.304 1899.26 698.88 1954.94 726.912C2044.8 772.608 2115.84 833.28 2170.75 913.152C2198.02 953.088 2221.44 1002.62 2222.21 1054.46C2223.36 1128.96 2193.02 1192.7 2176.51 1254.14C2175.36 1259.14 2173.82 1263.74 2173.06 1268.74C2155.78 1342.46 2157.7 1417.34 2186.5 1486.85C2216.83 1560.96 2282.5 1628.93 2371.2 1648.13" stroke="#D2D2D2" stroke-miterlimit="10"/>
<path d="M1739.52 -892.416C1794.05 -837.12 1840.9 -774.912 1879.68 -707.712C1896.96 -678.144 1912.7 -647.04 1922.3 -614.016C1941.5 -547.584 1934.21 -479.616 1916.54 -415.872C1911.55 -398.208 1906.18 -380.928 1900.03 -364.032C1873.92 -292.224 1837.82 -223.872 1794.43 -160.512C1751.42 -97.9198 1699.2 -40.7038 1654.27 25.3442C1608.19 93.6962 1560.58 163.584 1530.62 240.384C1504.9 305.664 1494.14 379.008 1513.34 445.824C1516.8 458.112 1521.41 469.632 1527.17 481.152C1561.73 551.808 1629.31 597.504 1701.5 633.216C1724.16 644.352 1747.58 654.72 1770.24 664.32C1829.76 689.664 1890.82 715.776 1947.26 746.112C2038.27 794.88 2110.08 859.776 2163.46 944.256C2188.42 983.808 2209.92 1031.81 2211.07 1082.5C2212.99 1154.3 2186.88 1217.28 2174.98 1277.57C2174.21 1282.18 2173.06 1287.17 2172.29 1291.78C2160.38 1363.97 2167.68 1435.78 2199.94 1501.06C2234.11 1570.56 2300.16 1632.38 2386.56 1648.51" stroke="#D8D8D8" stroke-miterlimit="10"/>
<path d="M1709.95 -883.968C1763.71 -830.208 1809.02 -768.768 1845.89 -703.104C1862.4 -673.92 1877.38 -643.584 1886.59 -611.328C1905.41 -546.432 1900.42 -479.616 1885.44 -417.024C1881.22 -399.744 1876.61 -382.464 1871.23 -365.568C1848.19 -294.144 1815.55 -225.792 1775.23 -162.432C1735.3 -99.4558 1686.53 -41.4717 1643.52 23.4243C1597.06 93.6963 1547.9 164.736 1516.8 243.072C1490.3 309.504 1478.4 384.768 1497.6 452.736C1501.06 465.024 1505.66 477.312 1511.42 489.216C1546.37 561.792 1615.49 608.256 1689.22 645.12C1712.26 656.64 1736.06 667.008 1759.49 677.376C1820.16 703.872 1881.98 731.904 1939.2 763.776C2031.74 816 2103.94 884.736 2155.39 973.824C2178.05 1012.99 2197.63 1059.84 2199.17 1108.61C2201.86 1178.11 2180.35 1239.94 2172.67 1299.07C2171.9 1303.68 2171.52 1308.29 2171.14 1312.9C2164.61 1383.55 2177.28 1452.29 2212.61 1513.34C2250.24 1578.24 2317.06 1633.92 2401.15 1646.59" stroke="#DEDEDE" stroke-miterlimit="10"/>
<path d="M1680 -875.136C1732.61 -822.528 1776.38 -762.24 1812.1 -697.728C1827.84 -668.928 1842.05 -638.976 1851.26 -607.488C1869.7 -544.128 1867.01 -478.848 1854.72 -417.024C1851.26 -399.744 1847.42 -382.848 1842.82 -365.952C1823.23 -295.296 1793.66 -226.944 1756.8 -162.816C1720.32 -99.456 1674.62 -41.088 1633.15 23.04C1586.3 95.616 1536 167.808 1503.36 247.296C1475.71 315.264 1462.66 392.064 1482.24 461.568C1485.7 474.24 1490.3 486.528 1496.06 498.816C1531.39 573.312 1602.05 620.928 1677.31 658.56C1701.12 670.464 1725.31 681.216 1748.74 691.968C1810.56 719.616 1873.54 749.184 1931.52 783.36C2025.6 839.04 2098.56 911.232 2148.1 1004.93C2168.45 1043.71 2185.73 1089.02 2188.03 1136.26C2191.1 1203.46 2174.21 1264.13 2171.14 1322.11C2170.75 1326.72 2170.75 1331.33 2170.75 1335.94C2169.22 1405.06 2187.65 1471.1 2226.43 1527.55C2267.9 1587.84 2335.49 1637.38 2416.9 1646.59" stroke="#E3E3E3" stroke-miterlimit="10"/>
<path d="M1650.43 -866.304C1701.89 -814.848 1744.51 -756.096 1778.3 -692.352C1793.28 -663.936 1806.72 -634.752 1815.55 -604.032C1833.6 -542.208 1833.22 -478.464 1823.62 -417.408C1820.93 -400.512 1817.47 -383.616 1813.63 -366.72C1797.12 -296.448 1771.01 -228.48 1737.22 -163.968C1703.81 -100.608 1661.95 -41.0879 1622.02 21.8881C1574.78 96.3841 1522.94 169.728 1489.15 251.136C1460.35 320.256 1446.53 398.592 1466.11 470.016C1469.57 483.072 1474.18 495.744 1479.94 508.032C1515.65 584.064 1587.84 632.832 1664.64 671.616C1688.83 683.904 1713.41 695.04 1737.6 706.176C1800.58 734.592 1864.7 766.08 1923.46 802.176C2018.69 861.312 2093.18 937.344 2140.42 1035.65C2158.85 1074.05 2173.82 1118.21 2176.51 1163.52C2180.35 1228.42 2168.06 1287.94 2169.22 1344.38C2169.22 1348.99 2169.6 1353.22 2169.6 1357.82C2173.44 1425.41 2197.25 1488.38 2239.49 1540.61C2284.42 1596.29 2352.77 1639.68 2431.87 1645.44" stroke="#E9E9E9" stroke-miterlimit="10"/>
<path d="M1620.86 -857.856C1671.17 -807.936 1712.26 -749.952 1744.51 -687.36C1758.72 -659.712 1771.39 -630.912 1780.22 -600.576C1797.89 -540.288 1799.81 -478.08 1792.9 -417.792C1790.98 -400.896 1788.29 -384.384 1785.22 -367.872C1772.16 -297.984 1749.12 -230.016 1718.78 -165.504C1688.45 -101.376 1650.05 -41.0881 1611.65 20.7359C1564.42 97.5359 1510.66 171.648 1475.71 254.592C1445.76 324.864 1431.17 405.12 1450.37 478.08C1453.82 491.52 1458.43 504.192 1464.19 516.864C1500.29 594.816 1574.02 644.352 1652.35 684.288C1676.93 696.96 1701.89 708.48 1726.46 720C1790.59 749.568 1855.49 782.592 1915.01 820.992C2011.78 883.584 2087.81 963.072 2132.35 1066.37C2148.86 1104.38 2161.54 1147.01 2164.61 1190.78C2169.22 1252.99 2161.54 1311.74 2166.91 1367.04C2167.3 1371.26 2167.68 1375.87 2168.45 1380.1C2177.28 1446.14 2206.46 1506.05 2252.16 1554.05C2300.54 1605.12 2369.66 1642.37 2446.46 1644.67" stroke="#EEEEEE" stroke-miterlimit="10"/>
<path d="M1591.3 -849.024C1640.45 -800.256 1680.38 -743.424 1710.72 -681.984C1724.16 -654.72 1736.06 -626.304 1744.9 -597.12C1762.18 -538.368 1766.4 -477.696 1762.18 -418.176C1761.02 -401.664 1759.1 -385.152 1756.8 -368.64C1746.82 -299.52 1727.23 -231.552 1699.97 -166.656C1673.09 -102.528 1637.76 -41.856 1601.28 19.2C1553.66 97.92 1498.75 173.184 1462.27 257.664C1431.55 329.088 1415.81 411.264 1435.01 485.76C1438.46 499.2 1443.07 512.64 1449.22 525.696C1485.7 605.568 1560.96 655.872 1640.83 696.96C1665.79 710.016 1691.52 721.92 1716.48 733.44C1781.76 764.16 1847.81 798.72 1908.1 839.04C2006.02 904.704 2084.35 988.416 2125.82 1096.32C2140.42 1133.95 2150.78 1175.42 2154.24 1217.28C2159.62 1277.18 2156.16 1334.78 2165.76 1388.93C2166.53 1393.15 2167.3 1397.38 2168.45 1401.6C2182.66 1466.11 2217.22 1523.33 2266.37 1566.72C2318.59 1613.18 2388.1 1644.29 2462.59 1643.14" stroke="#F4F4F4" stroke-miterlimit="10"/>
<path d="M1561.34 -840.192C1609.34 -792.96 1647.74 -736.896 1676.93 -676.608C1689.6 -649.728 1700.74 -622.08 1709.18 -593.28C1726.08 -536.064 1732.61 -476.544 1731.07 -418.176C1730.69 -401.664 1729.54 -385.536 1728 -369.024C1721.47 -300.288 1704.96 -232.32 1680.77 -167.424C1656.96 -103.296 1625.47 -41.472 1590.14 18.432C1542.53 99.456 1485.7 175.488 1448.06 261.504C1416.19 334.464 1399.68 418.176 1418.88 493.824C1422.34 507.648 1426.94 521.472 1433.09 534.528C1469.95 615.936 1546.75 667.392 1627.78 709.632C1653.5 723.072 1679.23 735.36 1704.58 747.264C1771.01 779.136 1838.21 815.232 1899.26 857.472C1998.72 926.592 2079.36 1013.76 2117.38 1126.27C2130.05 1163.52 2137.73 1203.46 2141.95 1243.78C2148.1 1301.38 2149.25 1357.82 2163.07 1410.82C2164.22 1415.04 2165.38 1419.26 2166.53 1423.49C2185.73 1486.46 2226.05 1540.61 2278.66 1579.78C2334.34 1621.63 2404.99 1646.59 2476.8 1642.37" stroke="#F9F9F9" stroke-miterlimit="10"/>
<path d="M1531.78 -831.36C1640.45 -724.224 1697.28 -570.624 1700.35 -418.176C1703.42 -265.728 1655.81 -114.816 1580.16 17.6639C1532.54 100.992 1473.79 178.176 1435.01 265.728C1396.22 353.28 1378.94 456.96 1418.11 544.512C1466.88 653.952 1586.69 709.632 1694.59 762.24C1872 848.64 2055.17 968.832 2110.46 1158.14C2138.11 1252.61 2130.43 1355.52 2166.91 1446.91C2217.6 1573.25 2357.76 1657.34 2493.31 1642.75" stroke="white" stroke-miterlimit="10"/>
<path d="M-42.6241 -162.816C87.9359 -178.944 198.144 -49.92 218.496 79.872C238.848 210.048 196.992 340.224 170.112 469.248C143.232 598.272 134.4 743.04 210.048 850.56C306.816 988.032 510.336 1019.9 601.344 1161.6C672.384 1271.81 650.88 1415.42 598.272 1528.32C568.32 1592.06 518.4 1646.59 483.456 1707.65C324.864 1984.51 1.15157 2003.33 -46.8484 2238.72C-99.0724 2493.31 24.9599 2631.55 111.36 2679.94C221.568 2741.38 508.032 2844.29 706.944 2592.77C787.968 2490.62 873.984 2389.63 980.352 2314.37C1139.71 2201.86 1383.17 2202.62 1514.88 2346.62C1605.12 2445.31 1638.14 2596.99 1753.73 2663.81C1831.68 2708.74 1931.9 2702.59 2012.93 2663.81C2093.95 2625.02 2158.08 2557.44 2210.3 2484.48" stroke="#8A8A8A" stroke-miterlimit="10"/>
<path d="M-49.1519 -157.056C85.2481 -168.192 201.216 -39.9358 224.256 93.6962C246.912 224.256 205.44 356.736 175.488 485.76C146.304 613.248 132.864 754.56 201.6 861.696C289.536 998.784 483.072 1037.18 572.544 1178.5C643.584 1291.01 630.528 1432.32 584.448 1547.9C557.952 1614.34 510.72 1673.09 475.392 1737.22C325.248 2008.32 11.9041 2030.59 -35.7119 2260.99C-86.7839 2508.67 30.7202 2646.14 115.584 2696.06C223.104 2759.42 498.816 2857.34 695.424 2619.65C776.448 2521.73 864.384 2424.58 969.984 2350.46C1125.5 2241.02 1360.51 2240.26 1491.07 2376.19C1581.31 2470.27 1618.18 2616.19 1732.22 2683.01C1810.18 2728.7 1909.25 2726.02 1991.04 2692.22C2073.6 2658.05 2141.18 2595.84 2197.25 2525.18" stroke="#909090" stroke-miterlimit="10"/>
<path d="M-55.6804 -150.912C82.5596 -157.056 204.288 -29.5678 230.016 108.288C254.592 239.616 213.504 374.4 181.248 503.04C149.76 628.992 131.712 766.464 193.92 873.6C273.408 1009.92 456.576 1055.23 544.896 1196.54C616.32 1311.36 610.944 1450.75 571.392 1568.64C548.352 1637.76 503.808 1701.12 468.096 1767.94C325.632 2032.9 23.4237 2059.01 -23.4243 2284.42C-73.3443 2524.8 37.6316 2661.5 120.96 2713.34C225.408 2778.24 491.136 2871.55 685.44 2647.68C766.848 2553.98 856.32 2460.29 961.536 2387.71C1113.22 2281.73 1339.78 2279.04 1469.18 2406.91C1559.42 2496.38 1600.13 2636.93 1713.02 2703.36C1791.36 2749.82 1888.9 2750.59 1971.07 2721.41C2055.17 2691.84 2126.21 2634.62 2186.11 2567.04" stroke="#959595" stroke-miterlimit="10"/>
<path d="M-62.2082 -145.152C79.4878 -146.304 206.976 -19.5839 235.776 122.112C262.656 254.208 221.952 390.912 186.624 519.936C152.448 644.352 130.56 778.368 185.472 885.12C256.128 1021.06 429.312 1072.51 516.096 1213.82C587.904 1330.94 590.592 1468.03 557.568 1588.99C537.984 1660.8 496.128 1728.38 459.648 1798.27C324.864 2057.09 33.7919 2087.42 -12.6721 2307.46C-61.4401 2540.54 42.6238 2676.48 124.8 2730.24C226.56 2797.06 481.92 2885.76 673.536 2675.33C755.328 2585.47 846.336 2496.38 950.784 2424.19C1099.01 2322.05 1316.74 2317.06 1444.61 2436.86C1535.23 2521.73 1579.78 2656.51 1690.75 2722.94C1769.47 2770.18 1865.47 2774.4 1948.42 2750.21C2033.66 2725.25 2108.54 2673.41 2172.29 2608.51" stroke="#9B9B9B" stroke-miterlimit="10"/>
<path d="M-68.7356 -139.392C76.8004 -135.552 209.664 -9.59983 241.536 135.936C270.336 268.8 230.4 407.424 192.384 536.448C155.904 659.328 129.408 789.888 177.408 895.872C239.232 1031.04 402.048 1089.41 487.68 1230.72C559.872 1349.76 570.624 1485.31 544.128 1608.58C528 1683.07 488.832 1755.26 451.968 1827.84C324.48 2080.13 44.5442 2114.69 -0.767747 2329.34C-48.3837 2555.52 49.1522 2690.3 129.792 2745.98C228.48 2814.34 474.24 2898.43 662.784 2702.21C744.96 2616.58 837.888 2530.94 941.184 2460.29C1085.95 2361.6 1294.85 2354.69 1421.57 2466.43C1512.58 2546.69 1560.58 2676.1 1670.02 2742.14C1749.12 2790.14 1843.97 2797.82 1926.91 2778.24C2014.08 2757.89 2092.03 2711.04 2159.62 2649.22" stroke="#A0A0A0" stroke-miterlimit="10"/>
<path d="M-75.2647 -133.632C74.1113 -124.8 212.735 0.768382 247.295 150.144C278.399 283.392 238.847 424.704 197.759 553.728C158.975 675.072 127.487 802.176 168.959 907.776C221.951 1042.56 374.783 1107.46 458.879 1248.38C531.455 1369.73 550.655 1503.36 529.919 1628.93C517.247 1706.5 480.767 1782.53 443.519 1858.18C322.943 2103.94 54.9114 2142.72 9.98337 2352.38C-36.4806 2571.26 54.5272 2705.28 133.631 2763.26C229.247 2833.15 465.407 2913.02 650.879 2730.24C733.823 2648.83 827.903 2567.04 930.815 2497.54C1071.74 2402.3 1272.58 2393.47 1397.38 2497.15C1488.38 2572.8 1540.22 2696.45 1648.13 2762.5C1727.62 2811.26 1821.31 2822.4 1904.64 2807.42C1993.34 2791.68 2074.75 2749.82 2146.18 2691.07" stroke="#A6A6A6" stroke-miterlimit="10"/>
<path d="M-81.4087 -127.872C71.8073 -114.048 215.807 10.7522 253.439 163.968C286.463 297.984 247.68 441.216 203.904 570.24C162.816 690.048 126.72 813.312 161.664 918.912C205.824 1053.31 348.288 1124.74 431.616 1265.66C504.576 1389.31 532.223 1521.41 517.631 1648.9C508.415 1729.15 474.623 1809.41 436.991 1888.51C322.943 2127.36 67.1996 2171.14 23.0396 2375.42C-22.2724 2587.01 62.2077 2720.26 139.776 2780.16C232.704 2851.58 459.264 2927.23 641.664 2757.89C724.992 2680.32 820.607 2602.75 922.751 2534.4C1059.84 2442.62 1252.22 2431.87 1375.87 2527.49C1467.26 2598.53 1522.56 2716.8 1628.93 2782.46C1708.8 2831.62 1801.34 2846.59 1885.06 2836.61C1975.3 2825.86 2060.54 2788.99 2135.42 2732.93" stroke="#ABABAB" stroke-miterlimit="10"/>
<path d="M-87.9361 -121.728C68.7359 -102.912 218.496 21.1201 259.2 178.176C294.144 312.96 256.512 458.496 209.28 587.136C166.272 705.408 125.184 825.216 153.216 930.432C188.544 1064.06 321.024 1142.4 402.816 1282.94C476.16 1408.9 512.256 1539.07 503.808 1668.86C498.432 1752.19 466.944 1836.67 428.928 1918.46C321.408 2150.4 77.9519 2198.78 34.1759 2398.08C-9.98414 2602.37 67.5838 2734.85 144 2796.67C234.24 2869.63 451.584 2941.06 630.144 2785.54C714.24 2712.19 811.008 2638.46 912.384 2570.88C1046.02 2482.18 1229.95 2469.5 1351.68 2557.44C1443.46 2623.49 1502.21 2736.38 1607.04 2802.05C1687.3 2851.97 1778.69 2870.78 1862.4 2865.02C1954.56 2858.88 2042.88 2827.01 2121.6 2773.63" stroke="#B1B1B1" stroke-miterlimit="10"/>
<path d="M-94.4639 -115.968C66.0481 -92.1597 221.184 31.1043 264.96 192.384C301.824 327.936 264.96 475.392 214.656 604.416C169.344 721.152 124.032 837.504 144.768 942.336C171.264 1075.58 293.376 1160.45 374.016 1300.99C447.36 1429.25 492.288 1557.89 489.6 1689.6C487.68 1775.62 458.88 1864.32 420.48 1949.18C319.104 2173.82 87.9359 2227.2 45.3119 2421.5C2.30393 2618.88 73.3441 2750.21 148.224 2813.95C235.392 2888.06 443.904 2956.03 618.624 2813.57C703.872 2744.06 801.408 2674.56 902.016 2608.13C1031.81 2522.88 1208.06 2508.29 1327.87 2588.16C1420.42 2649.6 1482.24 2757.12 1585.92 2822.4C1666.56 2873.09 1756.42 2895.36 1840.9 2894.59C1934.59 2893.44 2026.37 2866.18 2108.93 2815.87" stroke="#B7B7B7" stroke-miterlimit="10"/>
<path d="M-100.993 -110.208C63.3593 -81.4079 223.871 41.0881 270.719 206.208C309.503 342.528 273.407 491.904 220.415 620.928C172.799 736.128 122.879 849.024 136.703 953.472C154.367 1085.95 266.495 1177.73 345.599 1318.27C419.327 1448.83 473.087 1575.55 476.159 1709.57C478.079 1798.66 451.199 1891.2 412.799 1979.14C317.567 2196.86 99.0712 2254.85 56.8312 2444.16C14.9752 2634.24 79.4874 2764.8 153.215 2830.46C237.695 2906.11 437.759 2970.24 607.871 2840.83C693.887 2775.55 792.575 2709.5 892.799 2644.61C1018.75 2562.82 1186.94 2545.92 1305.22 2618.11C1398.14 2674.94 1463.42 2777.09 1565.57 2841.98C1646.21 2893.44 1735.3 2919.55 1820.16 2923.01C1915.78 2926.85 2010.62 2904.58 2097.02 2856.96" stroke="#BCBCBC" stroke-miterlimit="10"/>
<path d="M-107.521 -104.448C60.6713 -70.656 226.175 51.456 276.479 220.032C317.183 357.12 282.239 508.8 225.791 637.824C176.255 751.488 121.344 860.544 128.256 964.608C137.472 1096.7 238.848 1195.01 317.184 1335.17C391.296 1468.03 453.887 1592.83 462.719 1729.15C468.479 1820.93 443.903 1917.7 405.119 2008.7C315.647 2219.14 110.207 2282.5 68.7354 2466.43C28.0314 2649.22 86.0155 2778.62 158.207 2846.98C239.999 2924.16 431.616 2984.45 597.504 2868.48C684.672 2807.42 784.128 2745.22 883.584 2681.47C1005.7 2603.14 1166.59 2583.94 1282.18 2648.45C1375.87 2700.67 1444.22 2797.06 1544.83 2861.95C1625.86 2914.18 1713.79 2944.13 1798.66 2952.19C1895.81 2961.02 1994.11 2943.36 2084.35 2898.82" stroke="#C2C2C2" stroke-miterlimit="10"/>
<path d="M-114.048 -98.6878C57.5999 -59.9038 228.864 61.4402 282.24 233.856C324.864 371.712 290.688 525.312 231.552 654.336C179.712 766.848 120.192 872.064 120.576 975.744C120.96 1107.07 211.968 1212.29 289.152 1352.45C363.264 1487.62 435.072 1610.88 449.28 1749.12C459.264 1843.97 436.224 1944.19 397.056 2038.66C313.344 2241.79 120.96 2310.14 79.8719 2489.09C40.3199 2664.96 91.7759 2793.22 162.432 2863.49C241.152 2941.82 425.088 2999.42 585.984 2895.74C674.304 2838.91 774.528 2780.54 873.216 2717.57C991.488 2642.3 1144.7 2621.18 1258.37 2678.02C1352.83 2725.25 1424.64 2816.64 1523.33 2881.15C1604.74 2934.14 1691.52 2967.94 1776.77 2980.22C1875.84 2994.43 1977.22 2981.38 2071.3 2939.52" stroke="#C7C7C7" stroke-miterlimit="10"/>
<path d="M-120.576 -92.5436C54.9121 -48.7676 231.552 71.8083 288 248.448C332.544 386.688 299.52 542.976 236.928 671.616C183.168 782.592 118.656 884.352 112.128 987.648C103.68 1118.59 184.704 1230.34 260.352 1370.11C334.848 1507.58 415.488 1628.93 435.456 1769.47C449.28 1867.01 428.16 1971.46 388.992 2068.99C310.656 2264.83 131.328 2338.18 91.3919 2512.13C52.6079 2680.7 97.92 2807.81 167.04 2880.38C243.072 2960.26 418.944 3014.78 574.848 2923.39C664.704 2870.78 765.312 2815.87 863.616 2754.43C978.048 2682.62 1123.58 2658.82 1234.94 2708.35C1330.18 2750.59 1405.06 2836.99 1502.21 2901.12C1584 2954.88 1669.63 2992.9 1755.26 3009.02C1855.87 3028.22 1960.7 3019.78 2058.62 2980.99" stroke="#CDCDCD" stroke-miterlimit="10"/>
<path d="M-127.104 -86.7838C52.2242 -38.0158 233.856 82.1762 293.76 262.272C339.84 401.28 308.352 559.488 242.688 688.512C187.008 797.952 117.504 895.872 104.064 999.168C86.7844 1129.34 157.44 1248 231.936 1387.78C306.432 1527.55 396.672 1646.98 422.016 1789.82C439.68 1890.05 420.48 1998.72 381.312 2099.33C308.352 2287.49 142.08 2366.21 102.912 2535.17C65.2802 2696.45 104.064 2822.78 171.648 2897.28C244.992 2978.3 413.568 3030.53 563.712 2951.42C655.104 2903.42 756.096 2851.97 853.632 2791.68C964.608 2723.33 1102.46 2696.83 1211.52 2739.07C1307.9 2776.32 1385.47 2857.34 1481.47 2921.47C1563.65 2976 1648.13 3017.86 1733.76 3038.59C1835.9 3063.17 1944.19 3058.94 2045.95 3022.85" stroke="#D2D2D2" stroke-miterlimit="10"/>
<path d="M-133.632 -81.0239C49.5359 -27.2639 236.16 92.1601 299.52 276.096C347.52 415.872 317.184 576.384 248.064 705.024C190.08 812.928 116.352 907.392 95.6161 1010.3C69.8881 1140.1 129.792 1265.28 203.136 1404.67C278.016 1546.75 377.472 1664.26 408.192 1809.41C430.08 1912.7 412.416 2025.22 373.248 2129.28C305.664 2310.14 152.832 2394.24 114.432 2557.82C77.9519 2711.81 110.208 2836.99 176.256 2913.79C246.912 2995.97 408.192 3046.27 552.96 2978.69C645.888 2935.3 747.264 2886.91 844.032 2828.16C951.168 2762.88 1081.73 2733.7 1188.48 2769.02C1285.63 2800.9 1366.27 2877.31 1460.74 2940.67C1543.3 2995.97 1626.62 3042.05 1712.64 3066.62C1816.7 3096.58 1928.06 3096.96 2033.66 3063.55" stroke="#D8D8D8" stroke-miterlimit="10"/>
<path d="M-140.161 -75.264C46.4632 -16.512 238.847 102.528 305.279 290.304C354.815 430.848 325.631 593.28 253.823 722.304C193.919 829.056 115.199 919.68 87.5511 1022.21C52.9911 1151.23 102.527 1283.33 175.103 1422.72C249.983 1567.1 358.655 1682.69 394.751 1830.14C420.863 1936.13 404.351 2052.48 365.567 2160C302.975 2333.18 163.967 2422.66 125.951 2581.25C90.6231 2727.94 116.351 2852.35 180.863 2931.46C248.831 3015.17 402.815 3063.55 541.823 3007.1C636.671 2968.7 738.047 2923.39 834.047 2865.41C937.343 2803.58 1060.61 2771.33 1164.67 2799.74C1262.98 2826.24 1346.3 2898.05 1439.23 2961.02C1521.79 3017.09 1604.35 3067.01 1690.75 3096.19C1796.35 3131.52 1911.17 3136.13 2020.61 3105.79" stroke="#DEDEDE" stroke-miterlimit="10"/>
<path d="M-146.688 -69.5039C43.7756 -5.75991 241.152 112.512 311.04 304.128C362.496 445.44 334.464 610.176 259.2 738.816C197.376 844.032 113.664 930.816 79.4877 1032.96C36.4797 1161.6 75.2637 1300.22 146.688 1439.23C221.952 1585.92 339.84 1699.58 381.312 1849.34C411.264 1958.02 396.288 2078.59 357.888 2189.18C300.288 2354.69 175.104 2449.54 137.472 2603.14C103.68 2742.91 122.88 2865.79 185.472 2947.2C250.752 3032.06 397.824 3079.3 530.688 3033.98C627.456 3000.96 728.832 2957.95 824.448 2901.5C923.904 2842.75 1039.87 2807.81 1141.63 2829.31C1241.09 2850.43 1327.1 2917.63 1418.5 2980.22C1501.44 3037.06 1582.46 3091.2 1669.25 3124.22C1776.38 3164.93 1894.66 3173.76 2007.94 3146.5" stroke="#E3E3E3" stroke-miterlimit="10"/>
<path d="M-153.216 -63.3597C41.0877 5.37629 243.456 123.264 316.8 318.336C370.176 460.416 343.296 627.456 264.576 755.712C200.832 859.776 112.512 942.72 71.0396 1044.48C19.5836 1172.74 47.6156 1318.27 117.888 1456.9C193.152 1605.89 320.64 1717.63 367.488 1869.7C401.664 1981.06 387.84 2105.47 349.824 2219.52C297.216 2377.73 185.856 2477.95 148.992 2626.18C116.352 2758.66 129.024 2880.38 190.08 2964.1C253.056 3050.11 392.832 3096.58 519.552 3061.63C618.24 3034.37 719.616 2993.66 814.464 2938.37C910.08 2882.69 1018.75 2844.67 1117.82 2859.65C1218.05 2874.62 1307.14 2937.98 1396.99 3000.19C1480.32 3057.79 1560.19 3116.16 1647.36 3153.02C1756.03 3199.1 1877.76 3212.54 1994.88 3187.97" stroke="#E9E9E9" stroke-miterlimit="10"/>
<path d="M-159.744 -57.5998C38.3998 16.1282 245.76 133.248 322.56 332.544C377.472 475.392 352.512 644.736 270.336 772.992C204.672 875.52 111.36 955.008 62.9759 1056.38C2.68786 1183.87 20.3517 1336.32 89.4717 1474.94C164.736 1626.24 301.824 1736.06 353.664 1890.43C392.064 2004.48 379.008 2132.74 341.76 2250.24C293.76 2400.77 196.608 2506.37 160.128 2649.6C128.64 2775.17 135.168 2895.36 194.304 2981.38C254.592 3068.54 387.456 3115.01 508.416 3089.66C609.024 3068.54 710.4 3029.38 804.48 2975.62C896.256 2923.39 997.632 2881.54 1094.4 2890.37C1195.78 2899.58 1287.55 2958.34 1375.87 3020.54C1459.58 3078.91 1537.92 3141.5 1625.86 3182.59C1736.06 3234.05 1861.25 3251.71 1982.21 3230.21" stroke="#EEEEEE" stroke-miterlimit="10"/>
<path d="M-166.272 -51.8397C35.3278 26.8803 248.448 143.616 327.936 346.368C384.768 490.368 360.96 661.632 275.328 789.504C207.744 890.88 109.44 966.528 54.1439 1067.52C-14.9761 1194.62 -7.68033 1353.6 60.6717 1491.84C135.936 1645.82 282.624 1753.34 339.84 1910.02C382.464 2026.75 369.792 2158.85 333.312 2279.81C290.304 2422.66 206.976 2533.63 171.264 2671.87C140.928 2790.14 140.928 2909.18 198.528 2997.5C256.512 3086.21 381.696 3132.67 496.896 3116.93C599.04 3102.72 700.416 3064.32 794.496 3012.1C882.432 2962.94 976.512 2917.63 1070.98 2920.32C1173.12 2923.01 1267.58 2978.69 1355.14 3040.13C1438.85 3099.65 1516.03 3165.7 1604.35 3211.01C1715.71 3268.22 1844.74 3290.11 1969.54 3270.91" stroke="#F4F4F4" stroke-miterlimit="10"/>
<path d="M-172.8 -46.0798C32.6399 37.6322 250.368 153.984 333.696 360.192C391.68 504.96 369.792 678.528 281.088 806.4C211.584 906.24 108.288 978.048 46.4641 1079.04C-31.4879 1205.38 -34.5601 1371.26 32.6399 1509.5C107.904 1665.79 264.192 1771.01 326.784 1930.37C373.632 2049.79 361.728 2185.73 326.016 2310.14C287.616 2445.7 218.496 2562.05 183.168 2694.91C153.984 2805.89 147.84 2924.16 203.904 3014.78C259.2 3104.64 376.704 3151.87 486.528 3144.96C590.592 3138.43 691.968 3100.42 785.28 3048.96C868.992 3002.88 955.776 2954.11 1047.94 2950.66C1150.85 2946.82 1248.38 2998.66 1334.4 3060.1C1418.5 3120.38 1494.53 3190.66 1583.23 3240.19C1696.13 3302.78 1828.61 3328.9 1957.25 3312.77" stroke="#F9F9F9" stroke-miterlimit="10"/>
<path d="M-179.328 -40.3196C29.9518 48.7684 253.056 163.968 339.456 374.016C399.744 519.936 379.008 695.808 286.848 823.296C215.424 921.984 107.52 989.952 38.3999 1090.56C-48.0001 1216.51 -61.44 1388.93 4.22402 1526.78C79.872 1685.38 245.376 1788.67 312.96 1950.34C364.032 2072.45 352.128 2212.22 317.952 2340.1C283.776 2467.97 228.864 2589.7 194.688 2717.57C166.656 2821.25 154.368 2938.37 208.512 3031.3C261.504 3122.3 370.176 3170.69 475.392 3172.22C580.608 3173.76 682.752 3135.36 775.296 3085.44C855.168 3042.43 934.272 2989.82 1024.51 2980.61C1128.19 2969.86 1228.8 3018.62 1313.28 3079.68C1397.76 3140.74 1472.26 3215.23 1561.73 3268.61C1675.78 3336.58 1812.1 3366.91 1944.58 3353.86" stroke="white" stroke-miterlimit="10"/>
<path d="M-958.848 1482.24C-889.728 1370.5 -720 1365.12 -605.952 1430.78C-491.904 1496.45 -416.64 1610.88 -332.928 1712.26C-249.216 1814.02 -142.08 1911.55 -10.7523 1920C157.056 1930.75 309.504 1791.74 476.928 1809.79C607.104 1823.62 705.792 1929.98 761.088 2042.11C792.192 2105.47 803.328 2178.43 828.672 2244.1C945.408 2540.93 756.864 2805.12 910.08 2990.21C1075.97 3190.66 1261.44 3180.29 1352.83 3143.42C1469.95 3096.19 1729.54 2937.22 1658.11 2624.26C1628.93 2497.15 1604.35 2366.98 1612.42 2236.8C1624.32 2042.11 1777.54 1852.8 1972.61 1840.13C2106.24 1831.68 2244.86 1900.8 2369.66 1852.8C2453.38 1820.54 2511.36 1738.37 2532.1 1650.82C2552.83 1563.26 2540.16 1471.1 2515.97 1384.7" stroke="white" stroke-miterlimit="10"/>
<path d="M-958.464 1491.07C-882.816 1379.33 -710.4 1369.34 -591.744 1435.01C-475.776 1499.14 -398.592 1614.72 -316.8 1718.4C-235.776 1820.93 -134.016 1920 -7.29564 1933.44C154.752 1950.72 305.664 1824 472.32 1842.82C604.8 1857.79 706.56 1956.86 767.616 2065.15C802.944 2127.36 819.072 2201.09 846.72 2268.67C963.84 2555.52 785.28 2813.57 934.656 2995.2C1095.55 3190.27 1276.42 3184.51 1368.58 3149.95C1485.31 3105.79 1734.53 2952.19 1672.32 2649.98C1646.59 2525.18 1625.86 2396.16 1634.69 2267.14C1646.98 2077.44 1793.28 1893.5 1981.06 1876.99C2110.85 1865.47 2247.94 1928.45 2371.58 1881.22C2456.06 1848.96 2515.97 1770.24 2540.93 1685.38C2565.89 1599.74 2559.74 1507.97 2540.16 1420.03" stroke="#FBFBFB" stroke-miterlimit="10"/>
<path d="M-957.697 1499.9C-875.905 1388.54 -700.417 1373.57 -576.769 1439.62C-458.881 1502.59 -379.777 1618.94 -299.521 1724.93C-221.185 1828.61 -125.185 1928.45 -3.07267 1947.26C152.831 1971.07 302.975 1856.26 468.479 1876.22C602.879 1892.35 708.095 1983.74 775.295 2088.58C814.847 2150.02 836.351 2224.13 865.919 2294.02C983.423 2570.88 814.463 2823.17 960.383 3000.58C1116.29 3190.27 1292.54 3189.5 1385.09 3156.86C1501.06 3116.16 1740.29 2967.55 1687.68 2675.71C1665.41 2553.6 1648.51 2425.34 1657.73 2297.47C1670.4 2112.77 1809.79 1934.59 1990.66 1913.86C2116.99 1899.26 2252.16 1955.71 2374.27 1909.63C2459.52 1877.76 2521.34 1802.11 2550.14 1719.94C2579.71 1635.84 2579.71 1544.45 2564.74 1455.74" stroke="#F6F6F6" stroke-miterlimit="10"/>
<path d="M-957.311 1508.35C-869.375 1396.99 -690.815 1377.41 -562.175 1443.46C-442.367 1505.28 -361.343 1622.78 -283.007 1730.69C-207.359 1835.14 -116.735 1936.51 0.768744 1960.32C150.913 1990.27 299.521 1887.74 464.257 1908.48C600.577 1925.76 709.249 2009.47 782.593 2111.23C826.369 2171.52 852.865 2246.4 884.737 2318.59C1001.86 2585.86 843.265 2831.62 985.729 3005.57C1137.02 3189.89 1308.29 3193.73 1401.6 3163.39C1517.18 3126.14 1746.43 2982.53 1702.66 2701.44C1683.84 2581.63 1671.55 2454.53 1680.77 2328.19C1693.82 2148.48 1826.3 1976.06 1999.87 1951.1C2122.75 1933.44 2255.62 1983.36 2376.96 1938.43C2462.98 1906.56 2526.34 1834.37 2559.36 1754.5C2593.54 1672.32 2599.68 1581.31 2589.31 1491.46" stroke="#F2F2F2" stroke-miterlimit="10"/>
<path d="M-956.928 1517.18C-862.848 1406.21 -681.216 1381.63 -547.968 1448.06C-426.24 1508.74 -343.296 1627.01 -266.496 1737.6C-193.536 1842.82 -108.672 1945.34 4.2241 1974.53C148.608 2011.01 296.064 1920.77 459.648 1942.27C597.888 1960.7 710.4 2037.12 789.504 2135.04C837.504 2194.56 869.376 2269.82 902.784 2344.32C1019.52 2601.98 871.296 2841.6 1009.92 3011.71C1156.22 3190.27 1322.5 3199.1 1416.58 3171.07C1531.78 3136.9 1751.04 2998.27 1716.48 2727.94C1701.12 2610.05 1692.67 2484.48 1702.27 2359.3C1715.71 2184.58 1841.66 2017.54 2007.94 1988.74C2127.36 1968 2258.3 2011.78 2378.5 1968C2465.28 1936.13 2530.56 1867.01 2567.81 1790.21C2606.59 1709.57 2618.88 1619.33 2613.12 1527.94" stroke="#EEEEEE" stroke-miterlimit="10"/>
<path d="M-956.544 1526.02C-855.936 1415.04 -671.616 1385.86 -533.376 1452.29C-410.112 1511.81 -324.864 1630.85 -249.984 1743.74C-179.712 1849.73 -100.224 1954.18 8.06394 1987.97C146.304 2031.36 292.608 1952.64 455.424 1975.3C595.584 1994.88 711.936 2063.62 796.416 2158.08C848.64 2216.45 885.504 2292.48 921.216 2369.28C1037.18 2617.34 899.712 2850.43 1034.88 3016.7C1176.19 3189.89 1337.86 3203.33 1432.7 3177.6C1547.14 3146.5 1757.18 3012.86 1731.07 2753.66C1719.55 2638.08 1714.56 2513.66 1724.93 2389.63C1738.75 2219.9 1857.79 2058.24 2016.77 2025.6C2132.74 2001.79 2261.76 2039.04 2380.8 1996.42C2468.35 1964.93 2535.94 1898.88 2576.64 1824.77C2620.03 1746.05 2638.46 1656.19 2637.31 1563.65" stroke="#E9E9E9" stroke-miterlimit="10"/>
<path d="M-956.16 1534.85C-849.408 1424.26 -662.016 1390.08 -518.784 1456.51C-393.6 1514.88 -306.048 1634.69 -233.088 1749.89C-165.504 1856.64 -91.7758 1962.24 12.2882 2001.41C144.768 2051.33 289.536 1984.9 451.584 2008.32C593.664 2029.06 713.856 2090.11 804.096 2181.12C860.928 2238.72 902.4 2315.14 940.416 2393.86C1055.23 2632.32 928.896 2858.88 1060.61 3021.7C1197.31 3189.5 1353.98 3207.55 1449.22 3184.13C1562.88 3156.48 1764.1 3027.07 1746.43 2779.01C1738.37 2665.34 1737.6 2542.46 1748.35 2419.97C1762.56 2255.62 1874.69 2098.56 2026.75 2062.46C2139.26 2035.58 2265.98 2066.69 2384.26 2024.83C2472.58 1993.34 2542.08 1930.75 2587.01 1859.33C2635.01 1782.14 2659.58 1692.67 2663.04 1599.36" stroke="#E5E5E5" stroke-miterlimit="10"/>
<path d="M-955.392 1543.3C-842.496 1433.09 -652.032 1393.92 -504.192 1460.74C-377.088 1517.95 -287.616 1638.53 -216.576 1756.03C-151.296 1863.94 -83.7118 1970.69 15.7442 2014.85C142.08 2071.3 286.08 2016.77 446.976 2041.34C590.976 2063.23 715.008 2116.61 811.008 2204.54C872.448 2260.99 918.528 2338.18 958.464 2419.2C1071.74 2648.45 956.928 2868.48 1085.18 3027.46C1216.9 3189.89 1368.58 3212.16 1464.58 3191.42C1577.86 3166.85 1801.34 3038.59 1760.26 2805.5C1741.06 2695.3 1758.72 2572.42 1769.86 2451.07C1784.45 2291.71 1890.05 2140.03 2034.82 2100.1C2143.87 2069.76 2268.67 2094.72 2385.41 2054.02C2474.5 2022.91 2546.3 1963.39 2594.69 1894.27C2647.68 1819.01 2678.02 1729.92 2686.08 1635.07" stroke="#E1E1E1" stroke-miterlimit="10"/>
<path d="M-955.008 1552.13C-835.968 1441.92 -642.816 1398.53 -489.6 1464.96C-360.96 1521.02 -269.184 1642.37 -200.064 1762.18C-137.472 1870.85 -75.2636 1978.75 19.5844 2028.29C140.16 2090.88 282.624 2049.02 442.752 2074.37C588.672 2097.41 716.928 2142.72 817.92 2227.58C883.968 2282.88 934.656 2360.83 976.896 2444.16C1088.64 2664.19 985.344 2877.31 1110.14 3032.83C1236.86 3189.89 1383.94 3216.77 1480.7 3198.34C1593.22 3176.83 1810.94 3053.95 1775.23 2831.23C1757.95 2722.94 1781.38 2601.6 1792.9 2481.41C1807.87 2327.04 1906.56 2180.35 2044.03 2136.96C2150.02 2103.55 2272.51 2122.37 2388.1 2082.82C2477.95 2051.71 2552.06 1995.65 2603.9 1929.22C2661.89 1855.49 2697.98 1767.17 2710.66 1671.17" stroke="#DCDCDC" stroke-miterlimit="10"/>
<path d="M-954.624 1560.96C-829.056 1451.14 -633.216 1402.75 -475.392 1469.57C-344.832 1524.48 -250.752 1646.59 -183.552 1768.7C-123.264 1877.76 -67.2 1987.58 23.04 2042.11C137.472 2111.23 279.168 2081.66 438.144 2107.78C585.984 2131.97 718.464 2169.6 824.832 2251.01C895.488 2305.15 950.784 2384.26 995.328 2469.5C1105.15 2680.32 1013.76 2886.91 1134.72 3038.21C1256.83 3189.89 1398.53 3221.38 1496.06 3205.25C1607.81 3186.82 1819.39 3068.93 1789.06 2857.34C1773.7 2750.59 1802.5 2631.17 1814.4 2512.51C1829.38 2363.14 1921.92 2221.44 2052.1 2174.59C2154.62 2137.73 2275.2 2150.78 2389.63 2112C2480.26 2081.28 2556.67 2028.29 2612.35 1964.54C2675.33 1892.74 2717.18 1804.42 2734.46 1707.65" stroke="#D8D8D8" stroke-miterlimit="10"/>
<path d="M-954.24 1569.79C-822.528 1459.97 -623.616 1407.36 -460.8 1473.79C-328.704 1527.94 -232.32 1650.05 -167.04 1774.85C-109.44 1884.67 -58.7522 1996.03 26.8798 2055.55C135.552 2131.2 275.712 2113.54 433.92 2140.8C583.68 2166.14 720.384 2195.71 832.128 2274.05C907.392 2327.04 966.912 2406.91 1013.76 2494.08C1121.66 2695.68 1042.18 2895.36 1159.68 3043.2C1276.8 3189.5 1413.89 3225.6 1512.19 3211.78C1623.55 3196.42 1828.22 3083.9 1804.03 2883.07C1791.36 2777.47 1824.77 2660.35 1837.44 2542.85C1852.8 2398.46 1938.82 2261.38 2061.31 2211.46C2160.77 2171.14 2278.66 2178.05 2392.32 2140.42C2483.71 2110.08 2562.43 2060.16 2621.57 1998.72C2689.54 1928.45 2737.15 1840.9 2759.04 1742.59" stroke="#D4D4D4" stroke-miterlimit="10"/>
<path d="M-953.472 1578.24C-815.616 1468.8 -613.632 1411.2 -445.824 1478.02C-311.808 1531.01 -213.12 1653.89 -149.76 1780.99C-94.4638 1891.58 -49.9196 2004.1 31.1044 2068.99C133.632 2151.17 272.64 2145.79 430.08 2173.44C581.76 2200.32 723.072 2221.44 839.808 2297.09C919.68 2348.93 983.808 2429.57 1032.96 2519.04C1138.56 2711.42 1071.36 2904.58 1185.41 3048.58C1297.54 3189.5 1429.63 3229.82 1528.7 3218.69C1639.3 3206.4 1799.04 3099.26 1819.01 2908.8C1830.14 2804.35 1847.42 2689.54 1860.1 2573.18C1875.84 2433.79 1954.94 2301.31 2070.53 2248.32C2166.53 2204.16 2282.5 2205.7 2394.62 2168.83C2487.17 2138.5 2567.81 2092.03 2630.78 2033.28C2703.74 1964.93 2757.12 1877.76 2783.62 1778.3" stroke="#CFCFCF" stroke-miterlimit="10"/>
<path d="M-953.088 1587.07C-809.088 1477.63 -604.416 1415.81 -431.616 1482.24C-296.064 1534.46 -195.072 1657.73 -133.632 1787.14C-81.0239 1898.5 -41.8559 2012.54 34.56 2082.43C131.328 2171.14 269.184 2178.05 425.472 2206.46C579.072 2234.5 724.608 2247.55 846.336 2320.13C931.2 2370.43 999.168 2452.61 1051.01 2544C1154.3 2727.55 1099.39 2913.79 1209.98 3053.57C1317.12 3189.12 1444.61 3233.66 1544.45 3225.22C1654.27 3216 1807.1 3112.7 1833.6 2934.53C1848.96 2831.62 1869.31 2718.72 1882.75 2603.9C1898.5 2469.5 1971.07 2341.25 2079.36 2285.57C2171.9 2237.57 2285.95 2233.73 2396.93 2198.02C2490.24 2168.06 2573.18 2124.67 2639.62 2068.61C2717.57 2002.18 2776.7 1915.39 2807.81 1814.4" stroke="#CBCBCB" stroke-miterlimit="10"/>
<path d="M-952.704 1595.9C-802.176 1486.85 -594.816 1420.42 -417.024 1486.85C-279.552 1537.92 -176.256 1661.95 -117.12 1793.66C-66.8159 1905.79 -33.7918 2020.99 38.0162 2096.26C129.024 2191.1 265.344 2210.69 420.864 2239.87C576.384 2269.06 726.144 2274.05 853.248 2343.55C942.72 2392.7 1014.91 2475.65 1069.06 2569.34C1170.05 2744.06 1127.42 2923.01 1234.56 3059.33C1336.7 3189.5 1459.2 3238.66 1559.81 3232.51C1668.86 3225.98 1815.17 3127.3 1847.81 2960.64C1867.39 2859.26 1890.82 2748.29 1905.02 2634.62C1921.15 2505.22 1987.2 2381.18 2088.19 2322.82C2177.66 2270.98 2289.41 2261.38 2399.23 2226.82C2493.31 2196.86 2578.94 2157.31 2648.45 2103.17C2731.78 2038.66 2796.29 1951.87 2832 1850.11" stroke="#C7C7C7" stroke-miterlimit="10"/>
<path d="M-952.319 1604.74C-795.647 1495.68 -585.6 1425.02 -402.432 1491.07C-263.424 1541.38 -157.44 1665.41 -100.224 1799.81C-52.2237 1912.7 -25.3438 2029.44 42.2402 2109.7C127.104 2211.07 262.272 2242.94 417.024 2272.9C574.464 2303.62 728.448 2299.78 860.928 2366.98C955.008 2414.59 1031.42 2499.07 1088.26 2594.3C1186.56 2760.19 1156.61 2931.84 1259.9 3064.7C1357.06 3189.5 1474.94 3242.88 1576.32 3239.81C1684.99 3236.35 1824.77 3141.89 1862.78 2987.14C1887.36 2887.68 1913.09 2778.24 1927.68 2665.73C1943.81 2541.31 2003.33 2421.5 2097.41 2360.45C2183.42 2304.77 2293.25 2289.79 2401.92 2256C2496.77 2226.43 2584.7 2189.95 2658.05 2138.5C2746.37 2076.29 2816.64 1989.5 2856.96 1886.59" stroke="#C2C2C2" stroke-miterlimit="10"/>
<path d="M-951.936 1613.18C-789.12 1504.51 -576 1429.25 -388.224 1494.91C-247.296 1544.45 -139.008 1668.86 -84.0962 1805.57C-38.4002 1918.85 -17.2804 2037.12 45.3116 2122.75C124.416 2230.66 258.432 2274.82 412.032 2305.54C571.392 2337.41 729.984 2325.5 867.456 2389.63C966.528 2435.71 1046.78 2521.34 1106.3 2618.88C1202.3 2776.32 1184.64 2940.67 1284.48 3069.7C1377.02 3189.12 1489.54 3246.72 1591.68 3246.34C1699.58 3245.57 1833.6 3155.71 1876.99 3012.48C1906.56 2914.56 1934.59 2807.04 1949.95 2696.06C1966.46 2576.64 2018.69 2460.67 2105.86 2397.31C2188.03 2337.41 2296.32 2317.44 2403.84 2284.42C2499.46 2255.23 2590.08 2222.21 2666.5 2173.06C2760.19 2112.77 2835.84 2026.37 2880.77 1921.92" stroke="#BEBEBE" stroke-miterlimit="10"/>
<path d="M-951.168 1622.02C-781.824 1513.73 -566.4 1433.86 -373.248 1499.52C-230.784 1547.9 -119.808 1673.09 -66.8161 1812.1C-23.4241 1926.14 -8.0642 2045.95 49.9198 2136.58C123.264 2250.62 255.744 2307.46 408.96 2338.94C570.24 2372.35 733.056 2351.62 875.52 2413.06C979.2 2457.6 1063.3 2544.77 1125.5 2644.22C1218.43 2792.83 1213.82 2949.89 1310.21 3075.07C1397.76 3189.12 1505.66 3250.94 1608.58 3253.25C1715.71 3255.55 1844.74 3170.3 1892.35 3038.59C1927.3 2942.59 1957.25 2836.61 1972.99 2726.78C1989.5 2612.74 2035.2 2499.84 2115.46 2434.18C2194.18 2370.05 2300.16 2345.09 2406.53 2312.83C2502.91 2283.65 2595.84 2254.46 2676.1 2207.62C2774.78 2149.63 2856.19 2063.23 2905.73 1957.63" stroke="#BABABA" stroke-miterlimit="10"/>
<path d="M-950.784 1630.85C-775.296 1522.56 -556.8 1438.46 -359.04 1503.74C-214.656 1551.36 -101.376 1676.54 -50.6876 1818.24C-9.59963 1933.06 0.000508633 2054.02 53.3765 2150.02C120.96 2270.59 251.904 2339.71 404.352 2371.97C567.552 2406.53 734.592 2377.34 882.432 2436.1C990.72 2479.1 1078.66 2568.19 1143.94 2669.18C1234.18 2809.34 1242.62 2958.72 1335.17 3080.45C1418.11 3188.74 1521.02 3255.17 1624.32 3260.16C1730.69 3265.15 1854.72 3185.28 1906.94 3064.32C1947.26 2970.62 1979.14 2865.79 1995.65 2757.12C2012.16 2648.06 2050.56 2539.01 2124.29 2471.04C2199.17 2402.3 2303.62 2372.74 2408.83 2341.63C2505.98 2312.83 2601.22 2287.1 2684.93 2242.18C2788.99 2186.5 2875.78 2099.71 2929.92 1993.34" stroke="#B5B5B5" stroke-miterlimit="10"/>
<path d="M-950.399 1639.68C-768.767 1531.78 -547.584 1443.07 -344.448 1508.35C-198.528 1555.2 -82.5596 1680.77 -33.7916 1825.15C4.99242 1940.74 8.44847 2063.23 57.2165 2164.22C119.04 2291.33 248.832 2372.74 400.128 2405.76C565.248 2441.86 736.512 2403.84 889.728 2460.29C1002.62 2501.76 1094.4 2592.38 1162.75 2695.3C1250.3 2827.01 1271.42 2968.7 1360.51 3086.98C1438.46 3189.89 1536.38 3260.54 1640.83 3268.22C1746.82 3275.9 1865.86 3201.41 1921.92 3091.58C1968.38 3000.19 2001.41 2896.51 2018.69 2789.38C2035.2 2685.31 2066.69 2579.71 2133.89 2509.82C2204.54 2436.48 2307.84 2402.3 2411.9 2371.97C2509.82 2343.55 2607.74 2321.28 2694.53 2278.66C2803.58 2225.28 2896.13 2138.5 2954.88 2030.59" stroke="#B1B1B1" stroke-miterlimit="10"/>
<path d="M-950.016 1648.13C-762.24 1540.22 -537.984 1447.3 -329.856 1512.19C-182.4 1558.27 -63.3599 1683.84 -17.2799 1830.91C19.2001 1946.88 16.8962 2070.91 61.0562 2177.28C116.736 2310.53 245.376 2404.61 395.904 2438.02C562.944 2475.65 738.432 2428.8 896.64 2482.56C1014.53 2522.5 1109.76 2615.04 1180.8 2719.1C1265.28 2842.37 1299.46 2976.77 1384.7 3091.2C1458.05 3188.74 1550.98 3263.62 1655.81 3273.98C1761.02 3284.35 1875.84 3216 1935.74 3116.16C1988.74 3027.46 2022.53 2924.54 2040.19 2818.56C2056.7 2719.49 2080.51 2617.73 2141.57 2545.54C2207.62 2467.58 2310.14 2428.8 2413.06 2399.23C2511.74 2371.2 2611.97 2352.38 2702.59 2312.06C2817.02 2260.99 2914.94 2174.21 2978.3 2065.15" stroke="#ADADAD" stroke-miterlimit="10"/>
<path d="M-949.631 1656.96C-755.327 1549.44 -528.767 1452.67 -315.647 1516.8C-166.271 1562.11 -44.9273 1688.06 -1.15135 1837.44C33.4086 1954.18 24.5766 2079.74 64.1286 2191.1C114.049 2330.88 241.153 2437.25 390.913 2471.42C559.873 2510.59 739.969 2454.91 903.169 2505.98C1025.66 2544.38 1123.97 2638.85 1198.85 2744.45C1280.26 2859.26 1327.49 2985.98 1409.28 3096.58C1477.63 3188.74 1565.57 3267.46 1671.55 3280.9C1776.38 3293.95 1886.59 3232.13 1949.95 3142.27C2009.86 3057.02 2043.65 2954.11 2062.46 2849.28C2078.98 2755.2 2095.49 2656.9 2150.4 2582.78C2211.84 2500.22 2313.6 2456.83 2414.98 2428.03C2514.43 2400.38 2616.96 2385.02 2711.04 2346.62C2830.46 2297.86 2933.76 2211.07 3002.11 2100.86" stroke="#A8A8A8" stroke-miterlimit="10"/>
<path d="M-948.864 1665.79C-748.416 1558.27 -518.784 1456.9 -300.672 1521.02C-149.76 1565.18 -25.7279 1691.9 16.1281 1843.58C48.3841 1961.09 33.7921 2087.81 68.7361 2204.54C112.512 2350.85 238.848 2469.5 387.456 2504.45C558.336 2544.77 742.656 2480.64 911.232 2529.02C1038.34 2565.89 1140.1 2662.66 1218.43 2769.41C1296.77 2876.16 1357.06 2995.2 1435.39 3101.95C1498.75 3188.74 1582.08 3271.68 1688.45 3287.81C1792.51 3303.55 1898.5 3249.02 1965.7 3168C2032.9 3086.98 2066.69 2983.3 2085.89 2880C2102.4 2790.91 2110.85 2696.45 2160.38 2620.03C2216.83 2532.48 2318.21 2484.48 2418.43 2457.22C2518.66 2429.57 2623.87 2418.43 2721.41 2381.95C2845.82 2335.49 2954.88 2248.32 3027.84 2136.96" stroke="#A4A4A4" stroke-miterlimit="10"/>
</g>
</g>
</g>
</svg>
