
<svg width="30" height="30" viewBox="0 0 30 30" fill="none" xmlns="http://www.w3.org/2000/svg">
<g clip-path="url(#clip0_1218_177)">
<path d="M13.9422 0C14.6493 0 15.3565 0 16.0577 0C16.0813 0.0176471 16.1048 0.0411765 16.1284 0.0470588C18.4796 0.547059 20.0471 1.94118 20.878 4.18235C20.9074 4.26471 20.9722 4.35882 21.043 4.40588C21.2374 4.53529 21.4437 4.64706 21.6794 4.78235C22.1213 4.33529 22.5574 3.88824 22.9994 3.44706C23.4885 2.95882 23.9717 2.95882 24.4549 3.44118C25.2209 4.2 25.987 4.95882 26.7471 5.71765C27.2304 6.2 27.2245 6.68235 26.7413 7.17059C26.2993 7.61176 25.8632 8.05882 25.4213 8.50588C25.4272 8.52941 25.4272 8.54706 25.439 8.56471C26.1638 9.72941 26.7059 10.9647 27.0064 12.3059C27.0418 12.4706 27.142 12.4882 27.2834 12.4882C27.8491 12.4824 28.4207 12.4824 28.9864 12.4882C29.6346 12.4941 29.9823 12.8412 29.9882 13.4882C29.9882 14.5765 29.9882 15.6588 29.9882 16.7471C29.9882 17.4118 29.6464 17.7529 28.9687 17.7529C28.3323 17.7529 27.6959 17.7529 27.0536 17.7529C26.7295 19.1882 26.1755 20.5059 25.3977 21.7235C25.8632 22.1882 26.3111 22.6412 26.7589 23.0941C27.2127 23.5529 27.2127 24.0471 26.753 24.5059C25.9752 25.2824 25.1974 26.0529 24.4195 26.8235C23.9658 27.2706 23.4826 27.2706 23.0288 26.8294C22.6163 26.4235 22.2097 26.0118 21.7913 25.6176C21.7324 25.5588 21.5674 25.5235 21.5026 25.5647C20.3064 26.2882 19.0217 26.8059 17.6311 27.1176C17.6311 27.7588 17.6311 28.3941 17.6311 29.0294C17.6311 29.6765 17.2775 30.0235 16.6352 30.0294C15.545 30.0294 14.4608 30.0294 13.3706 30.0294C12.6811 30.0294 12.3394 29.6882 12.3394 29.0059C12.3394 28.3824 12.3394 27.7588 12.3394 27.1647C11.6499 26.9353 10.9722 26.7588 10.3358 26.4882C9.68763 26.2176 9.08068 25.8588 8.44426 25.5529C8.37944 25.5235 8.23801 25.5647 8.17908 25.6176C7.76659 26.0059 7.37178 26.4118 6.96518 26.8118C6.48197 27.2882 6.01055 27.2824 5.53324 26.8118C4.77307 26.0588 4.0188 25.3118 3.25864 24.5588C2.73418 24.0353 2.74007 23.5765 3.27042 23.0471C3.70649 22.6118 4.13666 22.1765 4.53736 21.7706C4.20737 21.1059 3.8538 20.4824 3.58274 19.8235C3.30578 19.1588 3.10542 18.4647 2.86971 17.7647C2.26276 17.7647 1.63813 17.7647 1.00761 17.7647C0.329939 17.7647 -0.0118408 17.4294 -0.0118408 16.7647C-0.0118408 15.6765 -0.0118408 14.5941 -0.0118408 13.5059C-0.0118408 12.8588 0.335832 12.5118 0.984034 12.5059C1.54385 12.5 2.10366 12.4941 2.65758 12.5118C2.86971 12.5176 2.94632 12.4353 2.98757 12.2471C3.06418 11.9235 3.13489 11.5941 3.26453 11.2941C3.65934 10.3588 4.07184 9.43529 4.49611 8.47647C4.09541 8.07059 3.63577 7.61176 3.17614 7.14118C2.76954 6.72941 2.76365 6.22353 3.16435 5.81765C3.98344 4.97647 4.79075 4.17647 5.59806 3.37647C6.00466 2.97647 6.51733 2.97647 6.92982 3.37647C7.24803 3.68235 7.55445 4 7.86677 4.31176C8.21444 4.65882 8.20265 4.63529 8.6564 4.44118C8.97461 4.30588 9.15139 4.10588 9.28692 3.77647C9.89388 2.28235 10.9487 1.18235 12.4219 0.517647C12.9051 0.294118 13.4354 0.170588 13.9422 0ZM28.2203 14.2353C27.6487 14.2353 27.1007 14.2353 26.5527 14.2353C25.8161 14.2353 25.5509 14.0118 25.4213 13.2824C25.1561 11.7529 24.5668 10.3647 23.677 9.09412C23.2351 8.46471 23.2704 8.12941 23.8184 7.58235C24.1956 7.20588 24.5727 6.81765 24.9322 6.45882C24.5256 6.04118 24.1308 5.63529 23.6947 5.19412C23.3235 5.57647 22.9463 5.96471 22.5692 6.34706C22.0565 6.85882 21.8503 6.9 21.1903 6.62353C20.7248 9.72353 18.9569 11.6059 15.8986 12.2706C15.8986 13.2529 15.8986 14.2294 15.8986 15.2529C16.6823 14.6118 17.5427 14.1941 18.5091 14.1294C19.4873 14.0647 20.4655 14.0882 21.4496 14.0882C22.304 14.0882 22.9286 14.7176 22.9345 15.5765C22.9404 16.3882 22.9463 17.2 22.9345 18.0118C22.8933 20.6353 20.7306 22.8412 18.1025 22.8882C16.0341 22.9235 13.9658 22.9235 11.8974 22.8882C9.47549 22.8471 7.37767 20.9647 7.12428 18.5706C7.01232 17.5235 7.04768 16.4588 7.07714 15.4059C7.09482 14.6765 7.74891 14.1059 8.48551 14.0941C9.31049 14.0824 10.1296 14.0882 10.9546 14.0941C12.0271 14.1 12.9935 14.4412 13.8538 15.0706C13.9304 15.1235 14.007 15.1765 14.0954 15.2412C14.0954 14.2294 14.0954 13.2412 14.0954 12.2824C10.9251 11.5588 9.16317 9.60588 8.78014 6.40588C7.89623 6.77647 7.81373 6.76471 7.12428 6.07059C6.84143 5.78824 6.56447 5.5 6.28751 5.21765C5.86913 5.64706 5.47431 6.05294 5.06771 6.46471C5.06182 6.45294 5.06771 6.47647 5.0795 6.48824C5.45074 6.86471 5.82788 7.23529 6.19912 7.61176C6.71768 8.12941 6.75304 8.48823 6.33465 9.08235C6.17555 9.31765 6.01644 9.55294 5.86913 9.79412C5.19146 10.9235 4.76718 12.1412 4.53736 13.4353C4.44308 13.9824 4.14255 14.2294 3.58863 14.2412C3.31167 14.2471 3.0406 14.2412 2.76365 14.2412C2.43365 14.2412 2.10366 14.2412 1.78545 14.2412C1.78545 14.8471 1.78545 15.4118 1.78545 15.9824C2.34526 15.9824 2.88739 15.9824 3.42363 15.9824C4.16612 15.9824 4.44308 16.2118 4.57272 16.9471C4.82611 18.3941 5.34467 19.7412 6.19323 20.9353C6.82964 21.8294 6.67643 22.1941 5.99877 22.8176C5.66288 23.1235 5.35056 23.4588 5.06182 23.7529C5.4861 24.1824 5.88091 24.5882 6.2993 25.0118C6.7059 24.6 7.1125 24.1765 7.53088 23.7647C7.94337 23.3529 8.34997 23.3176 8.82139 23.6471C10.1473 24.5824 11.6087 25.1824 13.1997 25.4706C13.8892 25.5941 14.1131 25.8647 14.1131 26.5647C14.1131 27.1176 14.1131 27.6706 14.1131 28.2235C14.72 28.2235 15.2916 28.2235 15.875 28.2235C15.875 27.6235 15.875 27.0471 15.875 26.4706C15.875 25.8941 16.1402 25.5765 16.7059 25.4824C18.3146 25.2118 19.7878 24.6176 21.1255 23.6765C21.6558 23.3 22.0388 23.3353 22.5044 23.8059C22.9051 24.2059 23.2999 24.6176 23.6829 25C24.1072 24.5647 24.5079 24.1588 24.9204 23.7353C24.5315 23.3471 24.1131 22.9294 23.7006 22.5118C23.3117 22.1176 23.2645 21.6941 23.5886 21.2471C24.5374 19.9235 25.1561 18.4588 25.439 16.8529C25.5509 16.2059 25.8456 15.9765 26.5114 15.9765C27.0771 15.9765 27.6428 15.9765 28.2203 15.9765C28.2203 15.3882 28.2203 14.8353 28.2203 14.2353ZM14.9911 10.5412C17.5014 10.5235 19.4342 8.55294 19.4166 6.03529C19.3989 3.64118 17.3836 1.68235 14.9675 1.70588C12.4985 1.72941 10.5598 3.71176 10.5833 6.19412C10.601 8.58235 12.6045 10.5588 14.9911 10.5412ZM17.1773 21.0647C17.1891 21.0882 17.2068 21.1059 17.2186 21.1294C17.5191 21.1294 17.8255 21.1471 18.1261 21.1294C19.5757 21.0412 20.8426 20.0118 21.0783 18.5882C21.2256 17.7 21.1667 16.7824 21.208 15.8588C20.4301 15.8588 19.7171 15.8471 19.0041 15.8588C17.248 15.8941 15.5509 17.4471 15.9222 19.8353C15.9929 19.7706 16.0577 19.7118 16.1166 19.6529C16.6941 19.0765 17.2657 18.5059 17.8432 17.9294C18.2439 17.5294 18.7919 17.5118 19.1514 17.8706C19.5167 18.2353 19.4932 18.7647 19.0925 19.1765C18.9923 19.2824 18.8862 19.3824 18.7801 19.4882C18.2439 20.0059 17.7136 20.5353 17.1773 21.0647ZM8.79193 15.8118C8.82139 16.7588 8.75657 17.6647 8.90389 18.5294C9.19264 20.2235 10.7955 21.4059 12.8108 21.0882C12.7401 21.0118 12.6753 20.9412 12.6045 20.8706C12.0447 20.3118 11.479 19.7529 10.9251 19.1882C10.5067 18.7647 10.4773 18.2294 10.8485 17.8647C11.2139 17.5 11.756 17.5353 12.1803 17.9471C12.7578 18.5176 13.3293 19.0941 13.9068 19.6706C13.9658 19.7235 14.0247 19.7765 14.1131 19.8471C14.1131 19.4882 14.1308 19.1765 14.1131 18.8647C14.0365 17.4529 12.9581 16.1471 11.5733 15.9412C10.6776 15.8 9.75834 15.8471 8.79193 15.8118Z" fill="#18333b"/>
</g>
<defs>
<clipPath id="clip0_1218_177">
<rect width="30" height="30" fill="white"/>
</clipPath>
</defs>
</svg>
