<svg width="27" height="30" viewBox="0 0 27 30" fill="none" xmlns="http://www.w3.org/2000/svg">
<path d="M0 13.4963C0 10.6887 0 7.87281 0 5.06526C0 2.61594 1.6967 0.608164 4.18115 0.108303C4.52741 0.0416551 4.89099 0.00833102 5.24591 0.00833102C9.36646 0 13.4957 0 17.6162 0C20.5508 0 22.8448 2.20772 22.8535 5.03194C22.8621 6.66482 22.8535 8.2977 22.8535 9.93891C22.8535 10.6054 22.4293 11.0553 21.8147 11.0636C21.2001 11.0636 20.7759 10.6054 20.7759 9.94724C20.7759 8.35601 20.7759 6.76479 20.7759 5.16523C20.7759 3.28242 19.4514 1.99944 17.5037 1.99944C13.461 1.99944 9.40975 1.99944 5.3671 1.99944C3.41071 1.99944 2.07759 3.28242 2.07759 5.1569C2.07759 10.7137 2.07759 16.2788 2.07759 21.8356C2.07759 23.7101 3.41071 24.9931 5.35845 24.9931C8.05066 24.9931 10.7429 24.9931 13.4437 24.9931C14.2315 24.9931 14.7422 25.6845 14.4739 26.351C14.3094 26.7509 13.9285 26.9842 13.4178 26.9842C11.9029 26.9842 10.3879 26.9842 8.87304 26.9842C7.66977 26.9842 6.47515 26.9842 5.27188 26.9842C2.294 26.9842 0.00865662 24.7931 0 21.9272C0 19.1197 0 16.3038 0 13.4963Z" fill="#FE5B2C"/>
<path d="M16.621 26.1094C16.621 25.3096 16.6296 24.5099 16.6123 23.7018C16.6123 23.5685 16.5431 23.3935 16.4478 23.3019C14.6992 21.569 14.0932 19.5196 14.8377 17.2202C15.5822 14.9375 17.2615 13.5546 19.7114 13.088C23.1134 12.4382 26.5588 14.8959 26.957 18.2116C27.1907 20.1944 26.5588 21.8773 25.1131 23.2935C25.0179 23.3935 24.94 23.5601 24.94 23.6934C24.9313 25.2347 24.9227 26.7759 24.94 28.3171C24.9486 28.967 24.7149 29.4835 24.1176 29.8001C23.503 30.125 22.9143 30.0167 22.3516 29.6418C21.9015 29.3335 21.434 29.0503 20.9839 28.7504C20.8367 28.6504 20.7329 28.6504 20.5857 28.7504C20.1096 29.0753 19.6162 29.3752 19.1314 29.6918C18.5947 30.0417 18.032 30.1083 17.452 29.8084C16.8807 29.5085 16.621 29.0169 16.6296 28.3921C16.6296 27.6257 16.621 26.8675 16.621 26.1094ZM16.621 18.9781C16.6123 21.1775 18.4735 22.9853 20.7502 22.9936C23.0528 23.002 24.9313 21.2025 24.9313 18.9947C24.9313 16.7953 23.0701 14.9958 20.7848 14.9958C18.4994 14.9958 16.6296 16.787 16.621 18.9781ZM18.7072 27.5507C19.1747 27.2508 19.5902 26.9842 20.0144 26.7093C20.6203 26.3177 20.9406 26.3177 21.5552 26.7093C21.9708 26.9759 22.3863 27.2508 22.8364 27.534C22.8364 26.551 22.8364 25.6179 22.8364 24.6515C21.4514 25.1097 20.0836 25.093 18.7159 24.6515C18.7072 25.6346 18.7072 26.5593 18.7072 27.5507Z" fill="#FE5B2C"/>
<path d="M10.5867 10.9968C12.0237 10.9968 13.4607 10.9968 14.9063 10.9968C15.3998 10.9968 15.7893 11.2884 15.9192 11.73C16.0404 12.1548 15.8759 12.613 15.469 12.838C15.2959 12.9296 15.0795 12.9963 14.889 12.9963C12.0237 13.0046 9.15834 13.0046 6.28435 13.0046C5.65241 13.0046 5.19361 12.5631 5.20227 11.9965C5.21093 11.43 5.66973 11.0135 6.31032 11.0052C7.73 10.9968 9.15835 10.9968 10.5867 10.9968Z" fill="#FE5B2C"/>
<path d="M9.90354 5.99829C11.0635 5.99829 12.2149 5.99829 13.3748 5.99829C14.0674 5.99829 14.5348 6.39818 14.5435 6.98968C14.5435 7.58118 14.076 7.99774 13.3922 7.99774C11.0462 7.99774 8.70027 7.99774 6.34567 7.99774C5.66179 7.99774 5.19434 7.58118 5.19434 6.98968C5.20299 6.39818 5.67045 5.99829 6.36298 5.99829C7.54028 5.99829 8.72624 5.99829 9.90354 5.99829Z" fill="#FE5B2C"/>
<path d="M9.12456 14.9958C10.0422 14.9958 10.9598 14.9958 11.8774 14.9958C12.5353 14.9958 12.9941 15.4124 12.9941 15.9956C12.9941 16.5787 12.5353 16.9953 11.8774 16.9953C10.0162 16.9953 8.16368 16.9953 6.3025 16.9953C5.65326 16.9953 5.1858 16.5621 5.19445 15.9789C5.20311 15.4124 5.66191 14.9958 6.3025 14.9958C7.24607 14.9958 8.18099 14.9958 9.12456 14.9958Z" fill="#FE5B2C"/>
<path d="M8.84743 20.9941C8.00774 20.9941 7.15939 20.9941 6.3197 20.9941C5.66179 20.9941 5.19434 20.5692 5.19434 19.986C5.19434 19.4028 5.66179 18.9946 6.32835 18.9946C8.01639 18.9946 9.70444 18.9946 11.3925 18.9946C12.059 18.9946 12.5265 19.4028 12.5352 19.986C12.5438 20.5775 12.0677 20.9941 11.3838 20.9941C10.5355 20.9941 9.69578 20.9941 8.84743 20.9941Z" fill="#FE5B2C"/>
</svg>
