<svg width="30" height="30" viewBox="0 0 30 30" fill="none" xmlns="http://www.w3.org/2000/svg">
<path d="M27.8397 8.5778C26.7597 8.5778 25.6975 8.58673 24.6442 8.5778C23.5464 8.55995 22.6627 8.10473 22.02 7.21214C21.6184 6.66766 21.4309 6.04284 21.4309 5.36447C21.4309 4.41833 21.4309 3.47218 21.4309 2.51711C21.4309 2.41 21.4309 2.29396 21.4309 2.15115C21.2881 2.15115 21.1721 2.15115 21.0471 2.15115C17.3071 2.15115 13.5761 2.15115 9.83616 2.15115C8.97034 2.15115 8.5776 2.55281 8.5776 3.42755C8.5776 5.48051 8.5776 7.53347 8.5776 9.58643C8.5776 10.0684 8.37231 10.4255 7.92601 10.6308C7.50649 10.8182 7.08698 10.7557 6.79242 10.4255C6.6139 10.2291 6.45324 9.92562 6.45324 9.66677C6.42646 7.47099 6.41753 5.26629 6.45324 3.07051C6.48001 1.41029 7.89923 0.0446296 9.58623 0.0178518C11.3803 0 13.1744 0.00892591 14.9775 0.00892591C17.4232 0.00892591 19.86 0.0178518 22.3057 0C22.752 0 23.0911 0.133889 23.4125 0.446296C25.4387 2.50818 27.4827 4.56114 29.5446 6.60518C29.857 6.91758 29.9998 7.2657 29.9998 7.70306C29.9909 13.9958 29.9998 20.2886 29.9909 26.5814C29.9909 28.6343 28.6341 29.9911 26.5722 29.9911C23.8141 29.9911 21.065 29.9911 18.3069 29.9911C17.4678 29.9911 16.9233 29.2681 17.2179 28.5272C17.3875 28.0899 17.7713 27.8489 18.3069 27.8489C20.1277 27.8489 21.9397 27.8489 23.7606 27.8489C24.7424 27.8489 25.7243 27.8489 26.7061 27.8489C27.4024 27.8489 27.8487 27.4115 27.8487 26.7242C27.8487 20.7349 27.8487 14.7456 27.8487 8.7474C27.8487 8.71169 27.8397 8.66706 27.8397 8.5778ZM23.5642 3.76674C23.5642 4.29337 23.5553 4.84677 23.5642 5.39125C23.5731 5.91788 23.9748 6.38203 24.4925 6.40881C25.0727 6.44451 25.6618 6.41773 26.2241 6.41773C25.3405 5.54299 24.4568 4.65933 23.5642 3.76674Z" fill="#FE5B2C"/>
<path d="M8.58687 12.8621C13.3444 12.88 17.1557 16.727 17.1379 21.4935C17.12 26.1974 13.2462 30.0177 8.52439 29.9999C3.7758 29.9731 -0.0266372 26.1082 0.000140566 21.3239C0.0269183 16.6646 3.90076 12.8443 8.58687 12.8621ZM14.9957 21.4399C14.9867 17.8963 12.1126 15.0043 8.61365 15.0043C4.99865 15.0043 2.14236 17.8785 2.14236 21.4846C2.15129 24.9835 5.05221 27.8577 8.5958 27.8577C12.1126 27.8487 15.0046 24.9567 14.9957 21.4399Z" fill="#FE5B2C"/>
<path d="M15.0044 8.57777C13.969 8.57777 12.9336 8.57777 11.8893 8.57777C11.1841 8.57777 10.7021 8.12255 10.7111 7.48881C10.72 6.86399 11.202 6.43555 11.8893 6.43555C13.9601 6.43555 16.0398 6.43555 18.1106 6.43555C18.789 6.43555 19.271 6.88184 19.2799 7.50666C19.2799 8.13147 18.7979 8.57777 18.1196 8.57777C17.0842 8.57777 16.0398 8.57777 15.0044 8.57777Z" fill="#FE5B2C"/>
<path d="M21.4241 11.7911C22.4595 11.7911 23.4949 11.7911 24.5392 11.7911C25.2265 11.7911 25.7085 12.2374 25.7085 12.8533C25.7174 13.4781 25.2265 13.9333 24.5571 13.9333C22.4684 13.9333 20.3887 13.9333 18.3 13.9333C17.6216 13.9333 17.1396 13.4781 17.1486 12.8533C17.1575 12.2284 17.6306 11.7911 18.3179 11.7911C19.3533 11.7822 20.3887 11.7911 21.4241 11.7911Z" fill="#FE5B2C"/>
<path d="M22.4829 17.1468C23.1702 17.1468 23.8664 17.1468 24.5537 17.1468C25.2142 17.1468 25.6873 17.5931 25.6962 18.2C25.7051 18.8249 25.2231 19.2801 24.5447 19.289C23.1702 19.289 21.8045 19.289 20.4299 19.289C19.7515 19.289 19.2695 18.8338 19.2695 18.2179C19.2695 17.5931 19.7515 17.1557 20.4299 17.1468C21.1261 17.1379 21.8045 17.1468 22.4829 17.1468Z" fill="#FE5B2C"/>
<path d="M22.4935 24.6444C21.8062 24.6444 21.1099 24.6444 20.4227 24.6444C19.7711 24.6355 19.2891 24.1892 19.2891 23.5822C19.2891 22.9663 19.7621 22.5111 20.4137 22.5111C21.8062 22.5022 23.1986 22.5022 24.6 22.5111C25.2516 22.5111 25.7246 22.9842 25.7157 23.5911C25.7068 24.1892 25.2426 24.6444 24.6089 24.6533C23.8948 24.6444 23.1897 24.6444 22.4935 24.6444Z" fill="#FE5B2C"/>
<path d="M6.58004 24.6535C5.96415 24.6267 5.63389 24.4125 5.44645 24.0019C5.25901 23.5913 5.33934 23.145 5.67852 22.8058C6.49078 21.9846 7.32089 21.1635 8.14208 20.3423C8.72226 19.7621 9.30245 19.173 9.89156 18.5928C10.3736 18.1108 11.0251 18.084 11.4714 18.5303C11.9177 18.9677 11.8999 19.6282 11.4179 20.1102C10.0254 21.5116 8.633 22.9129 7.22271 24.2875C7.01741 24.4839 6.72286 24.5732 6.58004 24.6535Z" fill="#FE5B2C"/>
<path d="M6.42658 18.2178C7.00676 18.2178 7.48876 18.6998 7.49769 19.28C7.49769 19.878 7.00676 20.3689 6.40873 20.36C5.82854 20.3511 5.35547 19.8601 5.35547 19.28C5.36439 18.6908 5.84639 18.2178 6.42658 18.2178Z" fill="#FE5B2C"/>
<path d="M10.7018 22.5023C11.282 22.4934 11.7729 22.9665 11.7819 23.5556C11.7908 24.1536 11.2999 24.6445 10.7107 24.6445C10.1306 24.6445 9.64856 24.1625 9.64856 23.5734C9.63964 22.9843 10.1127 22.5023 10.7018 22.5023Z" fill="#FE5B2C"/>
</svg>
