
<svg width="30" height="30" viewBox="0 0 30 30" fill="none" xmlns="http://www.w3.org/2000/svg">
<g clip-path="url(#clip0_1219_182)">
<path d="M14.0127 29.9834C14.0127 29.3172 14.0127 28.6761 14.0127 27.985C17.7034 28.1515 20.9275 27.0608 23.5518 24.413C24.7931 23.164 25.6928 21.6986 26.2927 19.9917C25.8428 19.9917 25.4346 19.9917 25.0097 19.9917C25.0097 16.6611 25.0097 13.3555 25.0097 10.0167C25.4179 10.0167 25.8345 10.0167 26.301 10.0167C25.6595 8.20983 24.6848 6.66945 23.3268 5.37053C21.1774 3.30559 18.5948 2.18985 15.6206 2.03997C9.58896 1.7319 5.09855 5.74522 3.73226 10.0083C4.14881 10.0083 4.56536 10.0083 4.99024 10.0083C4.99024 13.3389 4.99024 16.6445 4.99024 19.9834C4.92359 19.9917 4.84028 20.0083 4.7653 20.0083C4.02384 20.0083 3.29071 20.0167 2.54925 20.0083C1.10799 20 0.0249553 18.9176 0.0166242 17.4771C0.00829322 15.8368 0.00829322 14.1882 0.0166242 12.5479C0.0249553 11.5487 0.483161 10.8077 1.34959 10.2998C1.46622 10.2331 1.58286 10.0916 1.62451 9.9667C3.24906 4.99584 6.55647 1.77353 11.6134 0.449632C18.7697 -1.43213 26.2177 2.79768 28.3587 9.89176C28.4254 10.1083 28.5254 10.2331 28.7253 10.3497C29.5501 10.8243 29.9833 11.5487 30 12.4979C30.0166 14.1715 30.0166 15.8451 30 17.5271C29.9916 18.5013 29.5251 19.2257 28.6837 19.7169C28.5587 19.7918 28.4337 19.9334 28.3921 20.0749C26.6676 25.2623 23.1519 28.4929 17.8117 29.7169C16.5704 29.9917 15.3124 30.025 14.0127 29.9834ZM2.98247 18.0017C2.98247 15.9867 2.98247 14.005 2.98247 12.0067C2.80752 12.0067 2.65756 11.9983 2.49927 12.0067C2.20768 12.0233 2.00774 12.2148 2.00774 12.5063C1.99941 14.1715 1.99941 15.8285 2.00774 17.4938C2.00774 17.8018 2.21601 17.985 2.52426 18.0017C2.67422 18.01 2.81585 18.0017 2.98247 18.0017ZM27.0091 18.0017C27.1841 18.0017 27.3257 18.01 27.4757 18.0017C27.8006 17.985 27.9922 17.7935 28.0005 17.4688C28.0088 15.8285 28.0005 14.1882 28.0005 12.5479C28.0005 12.2565 27.8506 12.0733 27.5673 12.0233C27.3924 11.9983 27.2007 12.015 27.0175 12.015C27.0091 14.0217 27.0091 15.995 27.0091 18.0017Z" fill="#FE5B2C"/>
<path d="M22.9436 15.0042C22.9436 16.3031 23.0352 17.6104 22.9269 18.901C22.652 22.3148 19.8278 25.2956 16.4454 25.8618C12.0799 26.6029 8.07273 23.8968 7.17298 19.5837C7.05634 19.0425 7.02302 18.468 7.01469 17.9101C6.99802 15.9784 7.00636 14.0383 7.00636 12.1066C7.01469 8.04334 9.82224 4.75441 13.8378 4.10496C18.0116 3.43052 22.1938 6.42802 22.8686 10.5912C22.9519 11.1158 22.9852 11.6487 22.9936 12.1732C23.0102 13.1224 23.0019 14.0633 23.0019 15.0125C22.9769 15.0042 22.9603 15.0042 22.9436 15.0042ZM9.0058 15.0125C9.0058 16.07 8.98914 17.1358 9.01413 18.1932C9.07245 21.3073 11.705 23.9384 14.8209 23.9967C18.2532 24.0633 20.9858 21.3989 21.0025 17.9684C21.0108 16.1782 21.0108 14.3881 21.0025 12.5979C21.0025 12.1399 20.9941 11.682 20.9441 11.2323C20.6276 8.40138 18.1116 6.10329 15.2541 6.02003C11.78 5.92011 9.02246 8.60121 9.0058 12.0816C8.99747 13.0558 9.0058 14.03 9.0058 15.0125Z" fill="#FE5B2C"/>
<circle cx="12.5" cy="12.5" r="1.5" fill="#FE5B2C"/>
<circle cx="17.5" cy="12.5" r="1.5" fill="#FE5B2C"/>
</g>
<defs>
<clipPath id="clip0_1219_182">
<rect width="30" height="30" fill="white"/>
</clipPath>
</defs>
</svg>
