
<svg width="30" height="30" viewBox="0 0 30 30" fill="none" xmlns="http://www.w3.org/2000/svg">
<g clip-path="url(#clip0_1217_173)">
<path d="M0 4.92181C0 4.57025 0 4.21869 0 3.86712C0.0234253 3.79681 0.0468506 3.7265 0.0624675 3.64837C0.468506 1.25775 2.80323 -0.375063 5.20042 0.0780618C7.61322 0.531187 9.21395 2.914 8.67517 5.29681C8.55804 5.82806 8.31598 6.33587 8.1442 6.80462C9.06559 7.73431 10.0026 8.67181 10.9396 9.61712C13.126 8.07806 15.4763 7.85931 17.9672 8.94525C19.0135 7.36712 20.0521 5.80462 21.0906 4.24212C21.0437 4.17181 21.0125 4.12494 20.9813 4.07806C20.4034 3.1015 20.3878 2.11712 21.0281 1.18744C21.6684 0.242124 22.5976 -0.125063 23.7298 0.0780618C25.1119 0.328062 26.0411 1.70306 25.7913 3.10931C25.5414 4.51556 24.1983 5.49212 22.8162 5.24994C22.621 5.21869 22.5195 5.25775 22.4102 5.42181C21.4654 6.86712 20.5049 8.30462 19.5523 9.74212C19.5133 9.80462 19.482 9.87494 19.4508 9.92962C20.8563 11.4062 20.95 11.5702 21.7153 14.1327C22.2462 14.1327 22.7772 14.1171 23.316 14.1406C23.5737 14.1484 23.6986 14.0781 23.8001 13.8202C24.4951 12.0624 26.5331 11.289 28.2197 12.1327C29.9141 12.9843 30.531 15.1015 29.5159 16.7031C28.8287 17.7968 27.798 18.3281 26.5174 18.2109C25.1978 18.0937 24.2842 17.3671 23.7689 16.1484C23.7298 16.0468 23.6283 15.9062 23.5502 15.8984C22.9334 15.8749 22.3243 15.8906 21.7465 15.8906C21.5669 16.4765 21.4341 17.0468 21.2155 17.5859C20.9969 18.1171 20.6767 18.6171 20.4112 19.1171C20.9969 19.7031 21.5981 20.3046 22.1994 20.914C22.1916 20.914 22.215 20.914 22.2306 20.9062C22.2775 20.8749 22.3321 20.8437 22.379 20.8124C23.3863 20.1952 24.4794 19.9452 25.6507 20.0937C27.962 20.3984 29.672 22.1562 29.9688 24.5468C30.2343 26.664 28.9068 28.8515 26.8298 29.6562C26.4159 29.8124 25.9708 29.8906 25.5414 30.0077C25.19 30.0077 24.8386 30.0077 24.4872 30.0077C24.417 29.9921 24.3389 29.9609 24.2686 29.9531C21.5122 29.5702 19.5679 26.8124 20.1301 24.0859C20.2707 23.3984 20.544 22.7734 20.8797 22.2577C20.2629 21.6171 19.6694 21.0077 19.0682 20.3827C19.037 20.4062 18.9979 20.4296 18.9511 20.4609C16.8506 21.9062 14.6174 22.1406 12.267 21.1484C12.0718 21.0624 12.0016 21.1249 11.9001 21.2734C10.9474 22.7265 9.98699 24.1718 9.02655 25.6171C8.98751 25.6718 8.95627 25.7343 8.92504 25.7812C8.9797 25.8671 9.02655 25.9452 9.0734 26.0156C9.88548 27.3906 9.29984 29.1718 7.82405 29.789C7.61322 29.8749 7.37897 29.9296 7.16033 29.9999C6.92608 29.9999 6.69183 29.9999 6.45757 29.9999C6.40291 29.9843 6.34826 29.9609 6.2936 29.9452C4.85685 29.6406 3.95888 28.3046 4.22436 26.8593C4.48204 25.4687 5.81728 24.539 7.23842 24.7656C7.41801 24.7968 7.4961 24.7343 7.5898 24.5937C8.54243 23.1562 9.49505 21.7187 10.4477 20.2734C10.4867 20.2109 10.5258 20.1406 10.5726 20.0624C9.32327 18.9296 8.57366 17.539 8.32379 15.8906C8.27694 15.8827 8.25351 15.8749 8.2379 15.8749C7.30088 15.8749 6.36387 15.8827 5.42686 15.8671C5.20822 15.8671 5.10672 15.9296 5.02082 16.1249C4.56012 17.1015 3.56065 17.6874 2.48308 17.6249C1.42113 17.5781 0.491931 16.8593 0.14836 15.8593C0.0937012 15.6952 0.054659 15.5234 0 15.3593C0 15.1249 0 14.8906 0 14.6562C0.0234253 14.5702 0.0468506 14.4921 0.0702759 14.4062C0.390422 13.2812 1.1088 12.6015 2.26445 12.3984C3.2405 12.2265 4.3493 12.6874 4.83342 13.5937C5.0911 14.0781 5.38782 14.1484 5.84852 14.1327C6.6684 14.1015 7.48048 14.1249 8.30817 14.1249C8.47215 12.9218 8.93285 11.8593 9.60437 10.9531C8.63613 9.98431 7.70692 9.04681 6.7621 8.09369C6.71525 8.11712 6.65278 8.15619 6.58251 8.19525C4.06039 9.64056 0.890161 8.31244 0.140552 5.50775C0.0937012 5.32025 0.0468506 5.12494 0 4.92181ZM19.9662 14.9999C19.9662 12.2577 17.733 10.0234 14.9922 10.0234C12.2514 10.0234 10.0182 12.2499 10.0104 14.9921C10.0026 17.7499 12.2436 19.9843 15 19.9843C17.7408 19.9765 19.974 17.7421 19.9662 14.9999ZM24.9948 28.2421C26.7673 28.2499 28.2197 26.8046 28.2275 25.0312C28.2353 23.2577 26.7907 21.8046 25.0182 21.7968C23.2457 21.789 21.7933 23.2343 21.7855 25.0077C21.7777 26.7812 23.2223 28.2343 24.9948 28.2421ZM4.38834 1.75775C2.94378 1.75775 1.7569 2.93744 1.7569 4.37494C1.74909 5.83587 2.93597 7.03119 4.38834 7.03119C5.8329 7.03119 7.01978 5.8515 7.02759 4.414C7.0354 2.95306 5.84852 1.75775 4.38834 1.75775ZM28.2275 15.0077C28.2275 14.1952 27.5716 13.539 26.7595 13.539C25.963 13.539 25.3071 14.1874 25.2993 14.9843C25.2915 15.7968 25.9396 16.4609 26.7517 16.4687C27.556 16.4765 28.2197 15.8124 28.2275 15.0077ZM23.152 3.51556C23.6205 3.539 24.0422 3.164 24.0734 2.68744C24.1046 2.21869 23.7298 1.79681 23.2535 1.75775C22.7694 1.7265 22.3399 2.11712 22.3165 2.6015C22.2931 3.07806 22.6757 3.49212 23.152 3.51556ZM2.67829 14.1249C2.20979 14.1015 1.78813 14.4765 1.7569 14.9531C1.72566 15.4374 2.11609 15.8671 2.60802 15.8827C3.07652 15.8984 3.49037 15.5156 3.51379 15.039C3.52941 14.5702 3.15461 14.1484 2.67829 14.1249ZM6.78553 26.4843C6.30921 26.4843 5.91098 26.8827 5.91098 27.3593C5.91098 27.8359 6.30141 28.2343 6.77772 28.2421C7.26184 28.2499 7.67569 27.8359 7.66788 27.3515C7.66788 26.8827 7.26184 26.4843 6.78553 26.4843Z" fill="#FE5B2C"/>
</g>
<defs>
<clipPath id="clip0_1217_173">
<rect width="30" height="30" fill="white"/>
</clipPath>
</defs>
</svg>
