<svg width="30" height="30" viewBox="0 0 30 30" fill="none" xmlns="http://www.w3.org/2000/svg">
<path d="M30 8.90625C30 15.7251 30 22.5366 30 29.3555C29.7876 29.5679 29.568 29.7876 29.3556 30C19.7852 30 10.2221 30 0.651696 30C0.146449 29.7656 0 29.3628 0 28.8208C0.00732243 19.5923 0.00732243 10.3638 0.00732243 1.13525C0.00732243 0.300293 0.307542 0 1.12765 0C3.70515 0 6.28265 0 8.86014 0C9.65829 0 9.96583 0.307617 9.96583 1.12061C9.96583 5.1123 9.96583 9.11133 9.96583 13.103C9.96583 13.2056 9.96583 13.3081 9.96583 13.4546C10.105 13.374 10.2075 13.3228 10.3027 13.2642C13.0339 11.6675 15.7579 10.0781 18.4891 8.48145C18.826 8.28369 19.1628 8.1665 19.5362 8.37891C19.9024 8.59131 19.9902 8.92822 19.9902 9.33105C19.9829 10.5981 19.9902 11.8726 19.9902 13.1396C19.9902 13.2349 19.9976 13.3228 20.0049 13.4473C20.1147 13.3887 20.2026 13.3447 20.2831 13.2935C21.8355 12.3853 23.3805 11.4844 24.9329 10.5762C26.1484 9.86572 27.3566 9.15527 28.5721 8.45215C29.0408 8.17383 29.4655 8.21045 29.773 8.55469C29.8535 8.65723 29.9195 8.78906 30 8.90625ZM1.77935 4.69482C1.77935 12.5537 1.77935 20.3906 1.77935 28.2275C10.6029 28.2275 19.4118 28.2275 28.2133 28.2275C28.2133 22.3828 28.2133 16.5527 28.2133 10.7007C28.0888 10.7666 28.001 10.8179 27.9058 10.8765C25.1599 12.4805 22.4213 14.0845 19.6754 15.6885C18.9065 16.1353 18.2255 15.7471 18.2255 14.8608C18.2255 13.5791 18.2255 12.3047 18.2255 11.0229C18.2255 10.9277 18.2255 10.8325 18.2255 10.686C18.0864 10.7666 17.9912 10.8179 17.8887 10.8765C15.1794 12.4585 12.4701 14.0479 9.75348 15.6299C9.64364 15.6958 9.5338 15.7617 9.41665 15.8057C8.93337 16.0107 8.39151 15.7617 8.25238 15.2563C8.20844 15.1099 8.20844 14.9487 8.20844 14.7949C8.20844 11.543 8.20844 8.29102 8.20844 5.03906C8.20844 4.9292 8.20844 4.81201 8.20844 4.69482C6.04833 4.69482 3.93215 4.69482 1.77935 4.69482ZM8.1938 1.77979C6.04101 1.77979 3.91018 1.77979 1.77935 1.77979C1.77935 2.16797 1.77935 2.53418 1.77935 2.91504C3.92482 2.91504 6.05565 2.91504 8.1938 2.91504C8.1938 2.53418 8.1938 2.16797 8.1938 1.77979Z" fill="#FE5B2C"/>
<path d="M13.4806 22.0679C13.4806 22.6245 13.4806 23.1812 13.4806 23.7378C13.4733 24.3237 13.1511 24.6899 12.5653 24.6973C11.4157 24.7119 10.2588 24.7119 9.10915 24.6973C8.54533 24.6899 8.20849 24.3237 8.20849 23.7598C8.20117 22.6245 8.20117 21.4966 8.20849 20.3613C8.20849 19.812 8.54533 19.4458 9.09451 19.4385C10.2661 19.4238 11.4377 19.4238 12.6093 19.4385C13.1585 19.4458 13.4806 19.8193 13.4806 20.3687C13.488 20.9326 13.4806 21.4966 13.4806 22.0679ZM11.7013 22.9321C11.7013 22.3389 11.7013 21.7676 11.7013 21.2036C11.1155 21.2036 10.559 21.2036 9.98785 21.2036C9.98785 21.7896 9.98785 22.3608 9.98785 22.9321C10.5663 22.9321 11.1228 22.9321 11.7013 22.9321Z" fill="#FE5B2C"/>
<path d="M18.2256 22.0459C18.2256 21.4893 18.2256 20.9326 18.2256 20.376C18.2329 19.79 18.5624 19.4312 19.1482 19.4238C20.2905 19.4092 21.4328 19.4092 22.5751 19.4238C23.1682 19.4312 23.4977 19.79 23.4977 20.3979C23.4977 21.5039 23.4977 22.6025 23.4977 23.7085C23.4977 24.3311 23.1609 24.6826 22.5458 24.6899C21.4255 24.7046 20.2978 24.7046 19.1775 24.6899C18.5624 24.6826 18.2256 24.3311 18.2256 23.7158C18.2256 23.1592 18.2256 22.6025 18.2256 22.0459ZM19.9903 22.9175C20.5834 22.9175 21.1546 22.9175 21.7184 22.9175C21.7184 22.3315 21.7184 21.7676 21.7184 21.2109C21.1326 21.2109 20.5688 21.2109 19.9903 21.2109C19.9903 21.7822 19.9903 22.3389 19.9903 22.9175Z" fill="#FE5B2C"/>
</svg>
