<svg width="31" height="30" viewBox="0 0 31 30" fill="none" xmlns="http://www.w3.org/2000/svg">
<path d="M0 11.0588C0.0565104 10.8851 0.104948 10.7114 0.169531 10.5377C0.686198 9.1068 2.27656 8.42855 3.62474 9.06544C3.83464 9.16469 3.95573 9.13988 4.13333 9.00754C5.61068 7.85783 7.09609 6.72466 8.58958 5.59149C8.75911 5.45915 8.77526 5.3599 8.72682 5.16139C8.4362 4.08612 8.69453 3.14319 9.5099 2.41532C10.301 1.71226 11.2294 1.5551 12.1982 1.97694C13.1911 2.40705 13.7401 3.21763 13.7562 4.31771C13.7643 4.72301 13.9177 4.85535 14.2164 5.00423C15.3224 5.55014 16.4203 6.11259 17.5424 6.68331C17.9865 5.92235 18.6242 5.44261 19.4719 5.32681C20.3276 5.21101 21.0542 5.50878 21.6839 6.12086C23.1208 5.2441 24.5497 4.37561 25.9706 3.50713C25.6799 2.41532 25.8818 1.47239 26.6729 0.711429C27.6094 -0.190142 29.0706 -0.214956 30.0797 0.636987C31.0646 1.48066 31.2906 2.96122 30.5883 4.08612C29.894 5.20274 28.4812 5.62458 27.3187 5.04559C27.1089 4.93806 26.9635 4.9546 26.7698 5.0704C25.3813 5.93062 23.9846 6.77429 22.588 7.61796C22.4427 7.70895 22.3862 7.79166 22.3781 7.9819C22.362 9.28876 21.4336 10.3806 20.1984 10.5708C18.9471 10.7693 17.7685 10.0249 17.3487 8.78421C17.3003 8.6436 17.1711 8.48645 17.0419 8.42028C15.7583 7.7503 14.4586 7.10514 13.175 6.44344C13.0297 6.369 12.9409 6.37727 12.8036 6.48479C11.9964 7.13823 11.1083 7.23748 10.1557 6.84873C10.0589 6.80738 9.8974 6.82392 9.81667 6.88182C8.26667 8.05634 6.72474 9.23087 5.18281 10.4219C5.10208 10.4798 5.0375 10.6453 5.06172 10.7445C5.41693 12.283 4.61771 13.7139 3.19687 14.0613C1.75182 14.4087 0.403646 13.5237 0.0565104 12.0018C0.0484375 11.9604 0.0242187 11.9273 0.00807292 11.8942C0 11.5965 0 11.3318 0 11.0588ZM29.2724 2.65518C29.2805 2.17545 28.893 1.76188 28.4167 1.76188C27.9484 1.76188 27.5529 2.16718 27.5529 2.64691C27.5529 3.11838 27.9323 3.50713 28.3924 3.52367C28.8687 3.53194 29.2643 3.14319 29.2724 2.65518ZM3.44714 11.4558C3.43906 10.9761 3.03542 10.5708 2.56719 10.5874C2.10703 10.6039 1.7276 10.9927 1.7276 11.4641C1.7276 11.9439 2.12318 12.3574 2.59141 12.3491C3.05964 12.3491 3.45521 11.9356 3.44714 11.4558ZM20.6586 7.93227C20.6505 7.43599 20.2711 7.05551 19.7867 7.06379C19.3185 7.07206 18.9471 7.46081 18.9471 7.93227C18.9471 8.42028 19.3346 8.8173 19.8029 8.8173C20.2792 8.8173 20.6586 8.42028 20.6586 7.93227ZM11.181 3.54021C10.7047 3.54848 10.3414 3.92069 10.3414 4.4087C10.3414 4.90498 10.7289 5.302 11.2052 5.29373C11.6815 5.28546 12.0609 4.88016 12.0529 4.38388C12.0367 3.90415 11.6573 3.53194 11.181 3.54021Z" fill="#FE5B2C"/>
<path d="M0 20.0581C0.226042 19.5536 0.621615 19.3881 1.14635 19.4047C2.13125 19.4295 3.12422 19.4129 4.10911 19.4129C4.85182 19.4129 5.15859 19.7273 5.15859 20.4799C5.15859 23.2922 5.15859 26.1044 5.15859 28.9167C5.15859 29.6859 4.8599 29.9919 4.11719 29.9919C3.13229 29.9919 2.13932 29.9671 1.15443 30.0002C0.621615 30.0168 0.242188 29.8513 0 29.3633C0 26.2616 0 23.1598 0 20.0581ZM1.75182 21.1913C1.75182 23.5569 1.75182 25.8894 1.75182 28.2136C2.33307 28.2136 2.88203 28.2136 3.43099 28.2136C3.43099 25.8646 3.43099 23.5321 3.43099 21.1913C2.86589 21.1913 2.31693 21.1913 1.75182 21.1913Z" fill="#FE5B2C"/>
<path d="M25.8395 20.2814C25.8395 17.4195 25.8395 14.5576 25.8395 11.6958C25.8395 10.8934 26.1382 10.5874 26.9132 10.5874C27.9223 10.5874 28.9315 10.5874 29.9406 10.5874C30.6913 10.5874 30.9981 10.91 30.9981 11.6875C30.9981 17.4195 30.9981 23.1598 30.9981 28.8918C30.9981 29.6858 30.6994 29.9919 29.9163 29.9919C28.8911 29.9919 27.8578 29.9919 26.8325 29.9919C26.1544 29.9919 25.8395 29.6693 25.8395 28.9662C25.8315 26.0713 25.8395 23.1763 25.8395 20.2814ZM27.5671 12.374C27.5671 17.6759 27.5671 22.9365 27.5671 28.2218C28.1322 28.2218 28.6812 28.2218 29.2544 28.2218C29.2544 22.9365 29.2544 17.6676 29.2544 12.374C28.6893 12.374 28.1403 12.374 27.5671 12.374Z" fill="#FE5B2C"/>
<path d="M13.7802 21.1745C13.7802 23.7138 13.7802 26.2614 13.7802 28.8006C13.7802 28.9247 13.7802 29.0488 13.7721 29.1729C13.7156 29.6691 13.4008 29.9834 12.9083 29.9917C11.7701 30 10.6318 30 9.48542 29.9917C8.99297 29.9917 8.65391 29.6526 8.61354 29.148C8.60547 29.0653 8.60547 28.9826 8.60547 28.8999C8.60547 23.7552 8.60547 18.6021 8.60547 13.4574C8.60547 13.3664 8.60547 13.2672 8.61354 13.1762C8.67005 12.6882 9.00104 12.3656 9.48542 12.3656C10.6237 12.3573 11.762 12.3573 12.9083 12.3656C13.4008 12.3656 13.7156 12.6799 13.7721 13.1762C13.7883 13.3002 13.7802 13.4243 13.7883 13.5484C13.7802 16.0877 13.7802 18.627 13.7802 21.1745ZM12.0365 28.2217C12.0365 23.5153 12.0365 18.8337 12.0365 14.1274C11.4714 14.1274 10.9224 14.1274 10.3573 14.1274C10.3573 18.8337 10.3573 23.5153 10.3573 28.2217C10.9224 28.2217 11.4714 28.2217 12.0365 28.2217Z" fill="#FE5B2C"/>
<path d="M17.2188 22.9199C17.2188 20.9678 17.2188 19.0158 17.2188 17.0638C17.2188 16.9397 17.2187 16.8156 17.2349 16.6916C17.2914 16.2118 17.5982 15.8975 18.0745 15.8893C19.2208 15.881 20.3753 15.881 21.5216 15.8893C22.0221 15.8975 22.3451 16.2284 22.3854 16.7412C22.3935 16.8239 22.3935 16.9066 22.3935 16.9893C22.3935 20.9596 22.3935 24.9215 22.3935 28.8917C22.3935 29.0158 22.3935 29.1399 22.3693 29.2639C22.2885 29.6941 21.9818 29.9836 21.5539 29.9918C20.3914 30.0001 19.237 30.0001 18.0745 29.9918C17.6143 29.9918 17.2995 29.6775 17.2349 29.2226C17.2187 29.0903 17.2188 28.9579 17.2188 28.8173C17.2188 26.8487 17.2188 24.8884 17.2188 22.9199ZM18.9625 17.651C18.9625 21.1912 18.9625 24.6982 18.9625 28.2218C19.5276 28.2218 20.0766 28.2218 20.6336 28.2218C20.6336 24.6899 20.6336 21.1829 20.6336 17.651C20.0766 17.651 19.5357 17.651 18.9625 17.651Z" fill="#FE5B2C"/>
</svg>
