<svg width="30" height="30" viewBox="0 0 30 30" fill="none" xmlns="http://www.w3.org/2000/svg">
<g clip-path="url(#clip0_490_181)">
<path d="M6.5625 0C6.95068 0.168498 7.36816 0.29304 7.72705 0.505495C8.31299 0.864469 8.62061 1.44322 8.78906 2.09524C9.33105 4.24908 9.86572 6.41026 10.3931 8.57143C10.4517 8.79854 10.5396 8.85714 10.7666 8.85714C14.4653 8.84982 18.1714 8.84982 21.8701 8.84982C22.998 8.84982 23.8843 9.31136 24.3823 10.3443C24.5508 10.696 24.624 11.1062 24.6533 11.4945C24.6899 11.9487 24.2871 12.3297 23.833 12.359C23.3789 12.381 22.9834 12.0513 22.9175 11.5897C22.8076 10.8205 22.5586 10.6081 21.7822 10.6081C21.5845 10.6081 21.394 10.6081 21.167 10.6081C21.1597 10.7033 21.1523 10.7839 21.1523 10.8645C21.1523 11.9194 21.1523 12.9744 21.1523 14.0293C21.1523 14.1905 21.1743 14.2857 21.3428 14.3663C22.3608 14.8425 22.8735 15.663 22.9102 16.7766C22.9248 17.2967 22.9175 17.8095 22.9102 18.3297C22.9102 19.0256 22.6465 19.326 21.9214 19.4139C22.478 20.2564 23.02 21.0842 23.5986 21.9634C24.2212 21.3993 24.8291 20.8718 25.415 20.315C26.2354 19.5385 27.1655 19.2601 28.2642 19.6264C29.9048 20.1685 30.5713 22.3517 29.4653 23.6703C28.4326 24.9084 27.1729 25.9048 25.8325 26.7839C23.3936 28.3883 20.7202 29.4212 17.8271 29.8022C12.356 30.5275 7.39014 29.2601 2.98096 25.9048C2.39502 25.4579 1.85303 24.9451 1.29639 24.4542C0.644531 23.8974 0.124512 23.2601 0 22.3883C0 22.1905 0 22 0 21.8022C0.0146484 21.7363 0.0366211 21.6703 0.0512695 21.6044C0.27832 20.5861 0.878906 19.8901 1.875 19.5824C2.91504 19.2674 3.80859 19.5678 4.58496 20.3077C5.1709 20.8645 5.77881 21.3993 6.40869 21.9634C7.0752 20.9524 7.7124 19.9853 8.35693 18.9963C7.5 18.4762 7.19238 17.663 7.00928 16.7692C6.94336 16.4322 6.84082 16.1099 6.76025 15.7729C5.73486 11.6484 4.70947 7.50916 3.68408 3.37729C3.41309 2.28571 3.69873 1.35531 4.54834 0.608059C4.94385 0.263736 5.42725 0.117216 5.91797 0C6.13037 0 6.3501 0 6.5625 0ZM7.91748 22.8718C12.2168 25.3919 18.0029 25.2894 22.0825 22.8645C21.3794 21.7949 20.6763 20.7326 19.9805 19.663C19.856 19.4725 19.7314 19.3919 19.4897 19.3919C16.6626 19.3993 13.8281 19.4139 11.001 19.3846C10.4077 19.3773 10.0562 19.5311 9.74854 20.0586C9.18457 21.0183 8.53271 21.9341 7.91748 22.8718ZM15.0659 28.2564C15.5347 28.2344 16.0693 28.2125 16.604 28.1758C16.9556 28.1538 17.3071 28.1099 17.6514 28.0586C21.6504 27.4432 25.0708 25.6777 27.9053 22.7912C28.3228 22.3663 28.3447 21.8315 27.9712 21.4652C27.605 21.1062 27.085 21.1355 26.6675 21.5385C26.3599 21.8388 26.0596 22.1465 25.7373 22.4249C22.9761 24.8498 19.7534 26.1905 16.084 26.4396C13.7988 26.5934 11.5869 26.2857 9.44092 25.5092C7.10449 24.6667 5.09033 23.3333 3.35449 21.5604C2.92969 21.1282 2.40967 21.0989 2.02881 21.4579C1.64795 21.8315 1.67725 22.3663 2.10938 22.8059C5.66162 26.3956 9.96826 28.1832 15.0659 28.2564ZM21.1523 17.641C21.1523 17.3993 21.1523 17.1868 21.1523 16.9744C21.1523 16.2051 20.8374 15.8828 20.0757 15.8828C17.146 15.8828 14.2163 15.8828 11.2866 15.8828C10.6494 15.8828 10.3564 15.6557 10.2026 15.0403C9.375 11.7216 8.55469 8.39561 7.72705 5.07692C7.50732 4.20513 7.30225 3.33333 7.0752 2.46886C6.95801 2.02198 6.59912 1.75092 6.18896 1.76557C5.78613 1.78022 5.42725 2.06593 5.36133 2.46886C5.33203 2.64469 5.36133 2.84249 5.39795 3.01832C6.54053 7.6044 7.68311 12.1978 8.82568 16.7839C8.99414 17.4432 9.25781 17.6484 9.94629 17.6484C13.5718 17.6484 17.1899 17.6484 20.8154 17.6484C20.9106 17.641 21.0059 17.641 21.1523 17.641ZM15.8936 14.1026C17.0728 14.1026 18.2227 14.1026 19.3726 14.1026C19.3726 12.9304 19.3726 11.7729 19.3726 10.6227C18.2007 10.6227 17.0508 10.6227 15.8936 10.6227C15.8936 11.7875 15.8936 12.9377 15.8936 14.1026ZM14.1064 10.63C13.0298 10.63 11.9897 10.63 10.9131 10.63C11.2061 11.8095 11.499 12.967 11.7847 14.1099C12.583 14.1099 13.3374 14.1099 14.1064 14.1099C14.1064 12.9451 14.1064 11.7949 14.1064 10.63Z" fill="#FE5B2C"/>
</g>
<defs>
<clipPath id="clip0_490_181">
<rect width="30" height="30" fill="white"/>
</clipPath>
</defs>
</svg>
