<svg width="26" height="30" viewBox="0 0 26 30" fill="none" xmlns="http://www.w3.org/2000/svg">
<path d="M12.704 30C10.6446 29.373 8.72291 28.4648 6.96284 27.2461C3.92162 25.1426 1.95201 22.3008 0.922311 18.8145C0.359567 16.9102 0.0841812 14.959 0.0303014 12.9844C-0.0235784 11.1328 0.036288 9.27539 0.00635482 7.41797C-0.0235784 5.61914 1.30546 4.14258 3.28105 4.04297C4.72982 3.97266 6.14267 3.69141 7.50164 3.16992C8.79475 2.67773 9.96813 1.98047 11.0098 1.08398C11.5127 0.65625 11.9737 0.181641 12.6442 -0.00585938C12.8836 -0.00585938 13.1231 -0.00585938 13.3626 -0.00585938C14.0151 0.181641 14.4821 0.638672 14.973 1.06055C16.739 2.58398 18.8044 3.49805 21.1213 3.85547C21.7618 3.95508 22.4084 4.00195 23.049 4.07812C24.7911 4.28906 25.9824 5.56641 25.9884 7.28906C25.9944 9.47461 26.0363 11.666 25.9166 13.8457C25.7609 16.7344 25.1383 19.5234 23.7135 22.1016C22.4623 24.3633 20.7142 26.1738 18.523 27.5859C17.0503 28.5352 15.4699 29.2617 13.8056 29.8418C13.6379 29.9004 13.4643 29.9414 13.2967 29.9941C13.1051 30 12.9016 30 12.704 30ZM1.80834 10.5762C1.75446 12.9492 1.88616 15.3105 2.46088 17.6367C3.1254 20.3086 4.37661 22.6465 6.43003 24.5508C8.27391 26.2617 10.465 27.3867 12.8417 28.1953C12.9674 28.2363 13.1411 28.2129 13.2728 28.166C14.6497 27.6914 15.9667 27.0996 17.206 26.3379C19.5228 24.9141 21.3188 23.0273 22.4862 20.584C23.3483 18.7793 23.7913 16.8691 24.0308 14.9004C24.3421 12.334 24.2642 9.75586 24.1924 7.17773C24.1744 6.47461 23.6716 5.94727 22.9532 5.84766C22.2946 5.75391 21.6241 5.71289 20.9656 5.61914C18.9242 5.32617 17.0204 4.6582 15.3142 3.52148C14.5898 3.04102 13.9373 2.4668 13.2608 1.91602C13.0692 1.75781 12.9315 1.74023 12.7579 1.91602C12.5963 2.07422 12.4167 2.21484 12.249 2.36719C10.4231 3.9668 8.29786 4.98633 5.9032 5.46094C4.98724 5.64258 4.04734 5.70117 3.11941 5.83594C2.29924 5.95312 1.82031 6.48633 1.81432 7.28906C1.79636 8.39062 1.80834 9.48047 1.80834 10.5762Z" fill="#18333B"/>
<path d="M20.6422 15.0116C20.6003 19.1483 17.1759 22.4999 12.9972 22.4706C8.69882 22.4413 5.3463 19.0663 5.37024 14.9706C5.39419 10.7401 8.88441 7.50574 13.0212 7.52918C17.2657 7.55262 20.6781 10.9393 20.6422 15.0116ZM18.8402 14.9882C18.8222 11.83 16.1702 9.24598 12.9853 9.28113C9.75247 9.31629 7.17222 11.8475 7.16624 14.994C7.15426 18.1288 9.80036 20.7186 13.0092 20.7128C16.224 20.7128 18.8582 18.1229 18.8402 14.9882Z" fill="#18333B"/>
<path d="M11.6388 16.1777C12.0518 15.7675 12.423 15.3984 12.7942 15.0351C13.5784 14.2675 14.3567 13.4999 15.141 12.7382C15.56 12.3339 16.0988 12.3222 16.47 12.6913C16.8232 13.0429 16.8112 13.5878 16.4161 13.9745C15.0571 15.3105 13.6982 16.6406 12.3392 17.9706C11.9022 18.3925 11.4053 18.3984 10.9683 17.9823C10.4594 17.496 9.9625 17.0097 9.46561 16.5116C9.07049 16.1191 9.05253 15.5859 9.40575 15.2284C9.77692 14.8534 10.3157 14.8652 10.7348 15.2695C11.0341 15.5507 11.3155 15.8495 11.6388 16.1777Z" fill="#18333B"/>
</svg>
