<svg width="30" height="29" viewBox="0 0 30 29" fill="none" xmlns="http://www.w3.org/2000/svg">
<path d="M30 4.17391C30 4.31318 30 4.44512 30 4.58439C29.8608 4.81895 29.7217 5.05351 29.5752 5.27341C28.6378 6.66612 27.7003 8.0515 26.7482 9.43688C26.6383 9.59814 26.6383 9.70809 26.7482 9.86935C27.5026 10.9615 28.2423 12.061 28.982 13.1605C29.3262 13.6736 29.6631 14.2014 30 14.7218C30 14.8611 30 14.993 30 15.1323C29.8462 15.5281 29.5386 15.7261 29.1431 15.8507C28.3228 16.0999 27.5172 16.3931 26.6969 16.6496C26.4845 16.7156 26.4186 16.8109 26.4186 17.0308C26.4259 19.2005 26.4259 21.3702 26.4259 23.5399C26.4259 24.2216 26.2502 24.4708 25.613 24.6834C22.2513 25.8049 18.8823 26.9263 15.5207 28.0552C15.1691 28.1725 14.8469 28.1798 14.4953 28.0552C11.1337 26.9263 7.76466 25.8049 4.403 24.6834C3.75849 24.4708 3.58272 24.2216 3.58272 23.5472C3.58272 21.3775 3.5754 19.2078 3.59004 17.0381C3.59004 16.8182 3.53145 16.7156 3.31906 16.6496C2.48414 16.3858 1.64921 16.1072 0.821613 15.8287C-0.0133106 15.5501 -0.211056 14.9857 0.286969 14.2527C1.2464 12.8234 2.22048 11.3867 3.19455 9.94998C3.26047 9.85469 3.31906 9.7594 3.38498 9.65678C2.34498 8.11747 1.30499 6.58549 0.272321 5.06084C-0.225704 4.32784 -0.0352823 3.7561 0.799641 3.47755C4.18328 2.35606 7.57424 1.23456 10.9579 0.113067C11.6537 -0.114164 11.9466 -0.0188739 12.3494 0.582189C13.1697 1.81364 13.9973 3.05241 14.8176 4.28386C14.8688 4.36449 14.9274 4.43779 15.0007 4.53308C15.0739 4.43779 15.1325 4.35716 15.1838 4.28386C16.004 3.05241 16.8316 1.81364 17.6519 0.582189C18.0401 -0.00421382 18.355 -0.114164 19.0142 0.105737C22.3905 1.22723 25.7668 2.34873 29.1431 3.46289C29.5386 3.58751 29.8462 3.77809 30 4.17391ZM14.1145 16.1145C14.0119 16.2538 13.9534 16.3271 13.9021 16.4077C13.3748 17.1921 12.8548 17.9837 12.3274 18.768C11.9613 19.3178 11.6317 19.4277 11.0091 19.2225C9.23677 18.6361 7.45706 18.0423 5.68468 17.4559C5.57482 17.4193 5.47228 17.39 5.34778 17.3533C5.34778 19.3104 5.34778 21.2309 5.34778 23.1587C8.27001 24.1336 11.1849 25.1012 14.1145 26.0834C14.1145 22.7556 14.1145 19.479 14.1145 16.1145ZM24.6462 23.166C24.6462 21.2236 24.6462 19.3031 24.6462 17.3606C24.5217 17.3973 24.4265 17.4266 24.324 17.4559C22.537 18.0497 20.7572 18.6434 18.9702 19.2371C18.3623 19.435 18.0254 19.3178 17.6739 18.79C17.1392 17.9984 16.6119 17.1994 16.0846 16.4004C16.0333 16.3271 15.9747 16.2538 15.8869 16.1365C15.8869 19.479 15.8869 22.7702 15.8869 26.0907C18.8237 25.1085 21.7386 24.1336 24.6462 23.166ZM2.26442 4.84827C2.33033 4.95822 2.37428 5.03152 2.42555 5.10482C3.16526 6.197 3.90497 7.28185 4.63736 8.38135C4.76187 8.57193 4.87173 8.60125 5.08412 8.52795C7.84523 7.59704 10.6063 6.68078 13.3674 5.7572C13.448 5.72788 13.5212 5.69123 13.6091 5.65458C12.7962 4.43779 11.9979 3.24299 11.2142 2.0482C11.1117 1.89427 11.0091 1.94558 10.892 1.98956C9.80803 2.34873 8.73142 2.7079 7.64748 3.06707C5.86777 3.65348 4.08075 4.24721 2.26442 4.84827ZM16.3922 5.65458C16.4288 5.6839 16.4362 5.69123 16.4435 5.69123C19.2998 6.64413 22.1488 7.59704 25.0051 8.55727C25.1809 8.61591 25.2468 8.53528 25.3274 8.41067C25.9719 7.45044 26.631 6.4902 27.2755 5.52264C27.422 5.30273 27.5685 5.09016 27.7223 4.8556C27.6637 4.83361 27.6344 4.81162 27.5978 4.80429C24.7561 3.85872 21.9071 2.92047 19.0654 1.96757C18.8897 1.90893 18.8237 1.98223 18.7432 2.10684C18.0035 3.22833 17.2491 4.34983 16.5094 5.47133C16.4654 5.52264 16.4288 5.58128 16.3922 5.65458ZM2.26442 14.458C2.32301 14.4873 2.33766 14.4946 2.35231 14.5019C5.20862 15.4475 8.06494 16.4004 10.9213 17.3533C11.0897 17.412 11.163 17.3533 11.2508 17.2214C11.9906 16.0999 12.7449 14.9784 13.4846 13.8569C13.5286 13.7983 13.5579 13.7249 13.5945 13.659C13.5505 13.637 13.5212 13.6223 13.4993 13.615C10.6649 12.6694 7.83058 11.7165 4.99623 10.7636C4.82778 10.705 4.75454 10.7709 4.66666 10.9029C3.97821 11.9291 3.28244 12.9553 2.58667 13.9815C2.48414 14.1281 2.3816 14.282 2.26442 14.458ZM16.3776 13.6443C16.4581 13.7689 16.5094 13.8496 16.5607 13.9302C17.2711 14.993 17.9815 16.0559 18.6773 17.1261C18.8164 17.346 18.9336 17.3973 19.1899 17.3093C21.951 16.3858 24.7195 15.4695 27.4806 14.5532C27.5611 14.5239 27.6344 14.4946 27.7149 14.4653C27.693 14.414 27.6783 14.3847 27.6637 14.3627C26.88 13.1972 26.089 12.039 25.3054 10.8662C25.1882 10.6903 25.0783 10.7416 24.9392 10.7856C23.1961 11.372 21.4457 11.9511 19.7026 12.5302C18.604 12.904 17.5054 13.2705 16.3776 13.6443ZM22.7347 9.67144C22.6468 9.63479 22.6029 9.60547 22.5589 9.59081C20.0981 8.76984 17.6446 7.94888 15.1838 7.13524C15.0593 7.09126 14.8908 7.11325 14.7663 7.15723C12.3641 7.94888 9.96183 8.75518 7.55959 9.55416C7.47903 9.58348 7.39847 9.6128 7.28129 9.65678C7.35453 9.69343 7.39114 9.70809 7.42776 9.72275C9.89592 10.5437 12.3641 11.372 14.8322 12.1856C14.9494 12.2223 15.1032 12.2076 15.2204 12.171C16.9781 11.5919 18.7359 11.0055 20.4863 10.4191C21.226 10.1699 21.9584 9.92799 22.7347 9.67144Z" fill="#18333B"/>
</svg>
