<svg width="30" height="28" viewBox="0 0 30 28" fill="none" xmlns="http://www.w3.org/2000/svg">
<path d="M27.8561 11.207C19.271 11.207 10.7033 11.207 2.11819 11.207C2.10947 11.3033 2.09204 11.3909 2.09204 11.4785C2.10076 14.3327 2.10947 17.187 2.13562 20.0501C2.13562 20.4878 2.19663 20.9256 2.28379 21.3546C2.57142 22.7467 3.2774 23.4472 4.68937 23.6486C5.56967 23.7711 6.46741 23.8149 7.35642 23.8237C9.65741 23.8499 11.9497 23.8324 14.2507 23.8324C14.9915 23.8324 15.4622 24.314 15.4012 24.9881C15.3663 25.4434 15.0002 25.8287 14.5557 25.8987C14.5034 25.9075 14.4511 25.9075 14.3901 25.9075C11.5836 25.8987 8.76839 25.9162 5.96189 25.8724C5.23847 25.8637 4.50634 25.7236 3.80035 25.566C1.85671 25.1282 0.680073 23.8937 0.305291 21.9412C0.122258 21.0044 0.0176677 20.0325 0.00895188 19.0782C-0.0171957 14.9194 -0.00847985 10.7605 0.0176677 6.60165C0.0263836 5.77864 0.104826 4.93811 0.252996 4.12385C0.64521 1.97001 1.97002 0.682952 4.07926 0.297711C5.13388 0.105091 6.22336 0.0262914 7.29541 0.0262914C12.5772 2.49827e-05 17.859 2.49827e-05 23.1409 0.0350469C24.1257 0.0438023 25.1194 0.166379 26.0868 0.350244C28.1089 0.74424 29.3204 2.03129 29.6952 4.05381C29.8608 4.95562 29.9567 5.87495 29.9654 6.78552C30.009 8.94812 29.9828 11.1195 29.9828 13.2821C29.9828 13.965 29.5557 14.429 28.9543 14.4378C28.3529 14.4466 27.8997 13.9475 27.891 13.2733C27.8823 12.6167 27.8823 11.96 27.8823 11.3033C27.891 11.2771 27.8823 11.2596 27.8561 11.207ZM27.9694 9.07945C27.891 7.58226 27.891 6.11135 27.708 4.66669C27.5249 3.22204 26.8189 2.56538 25.3808 2.31147C24.7184 2.18889 24.0386 2.1276 23.3675 2.1276C17.9985 2.10134 12.6295 2.10134 7.26055 2.11009C6.46741 2.11009 5.67426 2.15387 4.88112 2.25018C3.31226 2.4428 2.47554 3.16075 2.29251 4.69296C2.12691 6.1201 2.15305 7.57351 2.10076 9.00941C2.10076 9.02692 2.12691 9.04443 2.14434 9.07945C10.712 9.07945 19.2797 9.07945 27.9694 9.07945Z" fill="#18333B"/>
<path d="M23.3761 14.7092C27.028 14.7092 29.9914 17.6774 29.9914 21.3371C29.9914 25.0232 27.0368 28.0001 23.3761 28.0001C19.7242 28.0001 16.7608 25.0144 16.7608 21.3284C16.752 17.6774 19.7242 14.7005 23.3761 14.7092ZM23.3935 16.8106C20.9008 16.8018 18.87 18.8156 18.8526 21.3021C18.8351 23.8324 20.8485 25.89 23.3587 25.8987C25.8601 25.9075 27.8822 23.8937 27.8996 21.3722C27.9171 18.8593 25.895 16.8193 23.3935 16.8106Z" fill="#18333B"/>
<path d="M9.42208 19.5947C8.51563 19.5947 7.6179 19.6035 6.71145 19.5947C6.06648 19.5947 5.59582 19.1569 5.59582 18.5616C5.5871 17.9574 6.06648 17.5021 6.72017 17.4934C8.52435 17.4846 10.3372 17.4846 12.1414 17.4934C12.708 17.4934 13.1438 17.8436 13.2396 18.3339C13.3355 18.8417 13.0653 19.3408 12.5859 19.5159C12.4291 19.5772 12.246 19.5859 12.0717 19.5859C11.1914 19.6035 10.3024 19.5947 9.42208 19.5947Z" fill="#18333B"/>
<path d="M22.5744 21.3107C23.3588 20.584 24.0735 19.9011 24.8144 19.2357C25.4245 18.6841 26.3397 18.938 26.5401 19.691C26.6447 20.0937 26.5576 20.4615 26.2525 20.7416C25.2676 21.6697 24.2827 22.5978 23.2804 23.4996C22.8185 23.9111 22.2519 23.8849 21.8161 23.4558C21.3629 23.0093 20.9184 22.5628 20.4739 22.1075C20.0468 21.6697 20.0468 21.0131 20.4565 20.6103C20.8661 20.1988 21.5024 20.2076 21.9469 20.6366C22.1735 20.838 22.3565 21.0656 22.5744 21.3107Z" fill="#18333B"/>
</svg>
