<svg width="30" height="30" viewBox="0 0 30 30" fill="none" xmlns="http://www.w3.org/2000/svg">
<path d="M27.8397 8.57779C26.7596 8.57779 25.6975 8.58671 24.6442 8.57779C23.5463 8.55993 22.6627 8.10471 22.02 7.21212C21.6183 6.66764 21.4309 6.04283 21.4309 5.36446C21.4309 4.41832 21.4309 3.47217 21.4309 2.5171C21.4309 2.40999 21.4309 2.29396 21.4309 2.15114C21.2881 2.15114 21.172 2.15114 21.0471 2.15114C17.3071 2.15114 13.5761 2.15114 9.83615 2.15114C8.97034 2.15114 8.5776 2.55281 8.5776 3.42754C8.5776 5.4805 8.5776 7.53346 8.5776 9.58641C8.5776 10.0684 8.3723 10.4254 7.92601 10.6307C7.50649 10.8182 7.08697 10.7557 6.79242 10.4254C6.6139 10.2291 6.45324 9.9256 6.45324 9.66675C6.42646 7.47098 6.41753 5.26628 6.45324 3.07051C6.48001 1.41029 7.89923 0.0446295 9.58623 0.0178518C11.3803 0 13.1744 0.0089259 14.9775 0.0089259C17.4232 0.0089259 19.8599 0.0178518 22.3056 0C22.7519 0 23.0911 0.133888 23.4124 0.446295C25.4386 2.50818 27.4826 4.56113 29.5445 6.60516C29.8569 6.91757 29.9998 7.26568 29.9998 7.70305C29.9908 13.9958 29.9998 20.2886 29.9908 26.5813C29.9908 28.6343 28.6341 29.991 26.5722 29.991C23.8141 29.991 21.0649 29.991 18.3068 29.991C17.4678 29.991 16.9233 29.268 17.2179 28.5272C17.3875 28.0898 17.7713 27.8488 18.3068 27.8488C20.1277 27.8488 21.9397 27.8488 23.7605 27.8488C24.7424 27.8488 25.7242 27.8488 26.7061 27.8488C27.4023 27.8488 27.8486 27.4114 27.8486 26.7241C27.8486 20.7349 27.8486 14.7456 27.8486 8.74738C27.8486 8.71167 27.8397 8.66704 27.8397 8.57779ZM23.5642 3.76673C23.5642 4.29336 23.5553 4.84676 23.5642 5.39124C23.5731 5.91787 23.9748 6.38202 24.4925 6.40879C25.0727 6.4445 25.6618 6.41772 26.2241 6.41772C25.3404 5.54298 24.4568 4.65932 23.5642 3.76673Z" fill="white"/>
<path d="M8.58685 12.8621C13.3444 12.88 17.1557 16.727 17.1379 21.4935C17.12 26.1974 13.2462 30.0177 8.52437 29.9998C3.77579 29.9731 -0.0266371 26.1082 0.000140566 21.3239C0.0269183 16.6646 3.90076 12.8443 8.58685 12.8621ZM14.9956 21.4399C14.9867 17.8963 12.1126 15.0043 8.61363 15.0043C4.99864 15.0043 2.14236 17.8785 2.14236 21.4845C2.15128 24.9835 5.0522 27.8576 8.59578 27.8576C12.1126 27.8487 15.0046 24.9567 14.9956 21.4399Z" fill="white"/>
<path d="M15.0044 8.57776C13.969 8.57776 12.9336 8.57776 11.8893 8.57776C11.1841 8.57776 10.7021 8.12254 10.7111 7.4888C10.72 6.86399 11.202 6.43555 11.8893 6.43555C13.9601 6.43555 16.0398 6.43555 18.1106 6.43555C18.789 6.43555 19.271 6.88184 19.2799 7.50665C19.2799 8.13147 18.7979 8.57776 18.1196 8.57776C17.0841 8.57776 16.0398 8.57776 15.0044 8.57776Z" fill="white"/>
<path d="M21.4221 11.7911C22.4575 11.7911 23.4929 11.7911 24.5372 11.7911C25.2245 11.7911 25.7065 12.2374 25.7065 12.8533C25.7155 13.4781 25.2245 13.9333 24.5551 13.9333C22.4664 13.9333 20.3867 13.9333 18.298 13.9333C17.6197 13.9333 17.1377 13.4781 17.1466 12.8533C17.1555 12.2284 17.6286 11.7911 18.3159 11.7911C19.3513 11.7822 20.3867 11.7911 21.4221 11.7911Z" fill="white"/>
<path d="M22.4848 17.1465C23.1721 17.1465 23.8683 17.1465 24.5556 17.1465C25.2161 17.1465 25.6892 17.5928 25.6981 18.1998C25.7071 18.8246 25.2251 19.2798 24.5467 19.2888C23.1721 19.2888 21.8064 19.2888 20.4319 19.2888C19.7535 19.2888 19.2715 18.8335 19.2715 18.2177C19.2715 17.5928 19.7535 17.1555 20.4319 17.1465C21.1281 17.1376 21.8064 17.1465 22.4848 17.1465Z" fill="white"/>
<path d="M22.4935 24.6439C21.8062 24.6439 21.1099 24.6439 20.4227 24.6439C19.7711 24.635 19.2891 24.1887 19.2891 23.5817C19.2891 22.9658 19.7621 22.5106 20.4137 22.5106C21.8062 22.5017 23.1986 22.5017 24.6 22.5106C25.2516 22.5106 25.7246 22.9837 25.7157 23.5906C25.7068 24.1887 25.2426 24.6439 24.6089 24.6528C23.8948 24.6439 23.1897 24.6439 22.4935 24.6439Z" fill="white"/>
<path d="M6.57809 24.6537C5.9622 24.627 5.63194 24.4127 5.4445 24.0021C5.25705 23.5915 5.33739 23.1453 5.67657 22.8061C6.48883 21.9849 7.31894 21.1637 8.14012 20.3425C8.7203 19.7623 9.30048 19.1732 9.88959 18.593C10.3716 18.111 11.0232 18.0843 11.4695 18.5306C11.9158 18.9679 11.8979 19.6284 11.4159 20.1104C10.0235 21.5118 8.63104 22.9132 7.22075 24.2878C7.01546 24.4841 6.7209 24.5734 6.57809 24.6537Z" fill="white"/>
<path d="M6.42658 18.2178C7.00676 18.2178 7.48876 18.6998 7.49768 19.28C7.49768 19.878 7.00676 20.3689 6.40872 20.36C5.82854 20.3511 5.35547 19.8601 5.35547 19.28C5.36439 18.6908 5.84639 18.2178 6.42658 18.2178Z" fill="white"/>
<path d="M10.7018 22.5021C11.282 22.4932 11.7729 22.9662 11.7819 23.5553C11.7908 24.1534 11.2999 24.6443 10.7107 24.6443C10.1306 24.6443 9.64856 24.1623 9.64856 23.5732C9.63964 22.9841 10.1127 22.5021 10.7018 22.5021Z" fill="white"/>
</svg>
