<svg width="31" height="30" viewBox="0 0 31 30" fill="none" xmlns="http://www.w3.org/2000/svg">
<path d="M0.0078125 19.9815C0.0390625 19.8955 0.078125 19.8018 0.109375 19.7158C0.382812 18.8718 1.13281 18.2936 2.01562 18.2857C3.23438 18.2779 4.45312 18.2779 5.67969 18.2857C6.32031 18.2857 6.84375 18.5671 7.27344 19.0516C8.09375 18.6608 8.94531 18.4342 9.84375 18.3795C11.2109 18.3014 12.4766 18.6218 13.6562 19.3095C13.8047 19.3954 14 19.4501 14.1719 19.4501C15.4766 19.4579 16.7891 19.4579 18.0938 19.4579C19.625 19.4579 20.5859 20.2394 20.9141 21.732C20.9219 21.771 20.9375 21.8101 20.9531 21.8804C21.0547 21.7945 21.1406 21.7163 21.2266 21.646C22.7891 20.2316 24.3516 18.8093 25.9219 17.4027C26.8359 16.5822 28.0234 16.4806 28.9609 17.1292C30.2109 17.9888 30.3828 19.6533 29.3281 20.8098C28.2656 21.9742 27.1875 23.1151 26.1172 24.2717C25.2891 25.1625 24.4531 26.0534 23.625 26.9521C22.4531 28.2258 21.0078 28.8432 19.2812 28.8354C15.4609 28.8276 11.6484 28.8354 7.82812 28.8276C7.61719 28.8276 7.5 28.8744 7.39062 29.062C7.07812 29.5856 6.57031 29.8434 6 29.9997C4.57031 29.9997 3.14844 29.9997 1.71875 29.9997C1.44531 29.8747 1.15625 29.7809 0.90625 29.6246C0.414062 29.3199 0.179688 28.8276 0.0234375 28.2962C0.0078125 25.5298 0.0078125 22.7557 0.0078125 19.9815ZM7.71875 27.0693C7.85937 27.0693 7.96875 27.0693 8.07031 27.0693C11.7969 27.0693 15.5312 27.0615 19.2578 27.0693C20.4922 27.0693 21.5156 26.6317 22.3438 25.7252C23.4062 24.5686 24.4844 23.4199 25.5469 22.2712C26.3672 21.3881 27.1797 20.5129 27.9922 19.6298C28.2578 19.3407 28.3047 19.0828 28.1562 18.8093C27.9375 18.403 27.4609 18.3561 27.0625 18.7155C25.2734 20.3332 23.4844 21.9508 21.6953 23.5684C20.9297 24.2639 20.0312 24.6937 19.0078 24.7171C17 24.7562 14.9844 24.7406 12.9766 24.7327C12.5234 24.7327 12.1641 24.3576 12.1328 23.92C12.1016 23.4902 12.3984 23.0917 12.8359 23.0057C12.9453 22.9823 13.0703 22.9823 13.1875 22.9823C14.8594 22.9823 16.5234 22.9823 18.1953 22.9823C18.5938 22.9823 18.8984 22.8338 19.0781 22.4743C19.3672 21.8804 18.9297 21.2318 18.2344 21.224C16.7812 21.2162 15.3281 21.2162 13.8672 21.224C13.5078 21.224 13.2109 21.1302 12.9062 20.9427C11.3281 19.9581 9.6875 19.8721 8 20.6536C7.78906 20.7473 7.70312 20.8724 7.70312 21.1224C7.71875 22.529 7.71094 23.9357 7.71094 25.3423C7.71875 25.8971 7.71875 26.4598 7.71875 27.0693ZM1.76562 24.1154C1.76562 25.3423 1.76562 26.577 1.76562 27.8039C1.76562 28.1555 1.85156 28.2415 2.1875 28.2415C3.29688 28.2415 4.41406 28.2415 5.52344 28.2415C5.85938 28.2415 5.94531 28.1633 5.94531 27.8351C5.94531 25.3735 5.94531 22.912 5.94531 20.4504C5.94531 20.1222 5.85156 20.044 5.51562 20.044C4.41406 20.044 3.3125 20.044 2.20312 20.044C1.82031 20.044 1.75 20.1222 1.75 20.5129C1.76562 21.7085 1.76562 22.912 1.76562 24.1154Z" fill="white"/>
<path d="M0.0078125 28.3047C0.171875 28.8361 0.40625 29.3284 0.890625 29.6332C1.14062 29.7894 1.42969 29.8832 1.70313 30.0083C1.14063 30.0083 0.578125 30.0083 0 30.0083C0.0078125 29.4378 0.0078125 28.8673 0.0078125 28.3047Z" fill="white"/>
<path d="M16.8589 16.8716C14.773 16.8716 12.6793 16.8716 10.5933 16.8716C8.41363 16.8716 7.16363 14.7695 8.21831 12.8627C10.3121 9.06486 12.4136 5.25918 14.5074 1.46132C15.0152 0.523574 15.7886 0 16.8589 0C17.9293 0 18.7105 0.515759 19.2261 1.44569C21.3199 5.24355 23.4214 9.04142 25.5074 12.8471C26.5699 14.7695 25.3199 16.8638 23.1246 16.8638C21.0386 16.8716 18.9527 16.8716 16.8589 16.8716ZM16.8668 15.1133C18.9371 15.1133 21.0074 15.1133 23.0777 15.1133C24.0152 15.1133 24.398 14.4647 23.9527 13.6442C21.8746 9.87757 19.7964 6.11097 17.7261 2.34436C17.5308 1.99271 17.2886 1.75046 16.8668 1.75046C16.4527 1.75827 16.2183 2.00052 16.0308 2.33655C13.9527 6.11097 11.8668 9.88539 9.78863 13.6598C9.35894 14.4413 9.74956 15.0977 10.6402 15.0977C12.7105 15.1133 14.7886 15.1133 16.8668 15.1133Z" fill="white"/>
<path d="M15.9922 7.61924C15.9922 7.01752 15.9922 6.40799 15.9922 5.80627C15.9922 5.25144 16.3438 4.86853 16.8516 4.86071C17.3672 4.8529 17.75 5.24362 17.75 5.79845C17.7578 7.01752 17.7578 8.23659 17.75 9.45566C17.75 10.0183 17.375 10.4247 16.875 10.4247C16.3594 10.4247 16 10.0339 16 9.46347C15.9922 8.84612 15.9922 8.22878 15.9922 7.61924Z" fill="white"/>
<path d="M16.0001 12.4719C16.0001 11.9874 16.3829 11.6045 16.8673 11.5967C17.3439 11.5967 17.7423 11.9874 17.7501 12.4563C17.7579 12.933 17.3361 13.355 16.8595 13.3471C16.3829 13.3471 15.9923 12.9486 16.0001 12.4719Z" fill="white"/>
</svg>
