<svg width="29" height="29" viewBox="0 0 29 29" fill="none" xmlns="http://www.w3.org/2000/svg">
<path d="M6.34375 0C6.71899 0.162882 7.12256 0.283272 7.46948 0.488645C8.03589 0.835653 8.33325 1.39512 8.49609 2.0254C9.02002 4.10745 9.53687 6.19658 10.0466 8.28571C10.1033 8.50525 10.1882 8.5619 10.4077 8.5619C13.9832 8.55482 17.5657 8.55482 21.1411 8.55482C22.2314 8.55482 23.0881 9.00098 23.5696 9.99951C23.7324 10.3394 23.8032 10.736 23.8315 11.1114C23.8669 11.5504 23.4775 11.9187 23.0386 11.947C22.5996 11.9683 22.2173 11.6496 22.1536 11.2034C22.0474 10.4598 21.8066 10.2545 21.0562 10.2545C20.865 10.2545 20.6809 10.2545 20.4614 10.2545C20.4543 10.3465 20.4473 10.4244 20.4473 10.5023C20.4473 11.5221 20.4473 12.5419 20.4473 13.5617C20.4473 13.7175 20.4685 13.8095 20.6313 13.8874C21.6155 14.3477 22.1111 15.1409 22.1465 16.2173C22.1606 16.7201 22.1536 17.2159 22.1465 17.7187C22.1465 18.3915 21.8916 18.6818 21.1907 18.7668C21.7288 19.5812 22.2527 20.3814 22.812 21.2313C23.4138 20.686 24.0015 20.1761 24.5679 19.6378C25.3608 18.8872 26.26 18.6181 27.322 18.9722C28.908 19.4962 29.5522 21.6066 28.4832 22.8813C27.4849 24.0781 26.2671 25.0413 24.9714 25.8911C22.6138 27.442 20.0295 28.4405 17.2329 28.8088C11.9441 29.5099 7.1438 28.2847 2.88159 25.0413C2.31519 24.6093 1.79126 24.1136 1.25317 23.6391C0.623047 23.1009 0.120361 22.4847 0 21.642C0 21.4508 0 21.2667 0 21.0755C0.0141602 21.0117 0.0354004 20.948 0.0495606 20.8842C0.269043 19.8999 0.849609 19.2271 1.8125 18.9297C2.81787 18.6252 3.68164 18.9155 4.43213 19.6308C4.99854 20.169 5.58618 20.686 6.19507 21.2313C6.83936 20.254 7.45532 19.3192 8.07837 18.3631C7.25 17.8603 6.95264 17.0742 6.77564 16.2103C6.71191 15.8845 6.61279 15.5729 6.53491 15.2471C5.5437 11.2601 4.55249 7.25885 3.56128 3.26471C3.29932 2.20952 3.57544 1.31013 4.39673 0.58779C4.77905 0.254945 5.24634 0.113309 5.7207 0C5.92603 0 6.13843 0 6.34375 0ZM7.65356 22.1094C11.8096 24.5455 17.4028 24.4464 21.3464 22.1023C20.6667 21.0684 19.9871 20.0415 19.3145 19.0076C19.1941 18.8234 19.0737 18.7455 18.8401 18.7455C16.1072 18.7526 13.3672 18.7668 10.6343 18.7385C10.0608 18.7314 9.72095 18.8801 9.42358 19.39C8.87842 20.3177 8.24829 21.2029 7.65356 22.1094ZM14.5637 27.3145C15.0168 27.2933 15.5337 27.272 16.0505 27.2366C16.3904 27.2154 16.7302 27.1729 17.063 27.1233C20.9287 26.5284 24.2351 24.8217 26.9751 22.0315C27.3787 21.6208 27.3999 21.1038 27.0388 20.7497C26.6848 20.4027 26.1821 20.431 25.7786 20.8205C25.4812 21.1109 25.1909 21.4083 24.8794 21.6774C22.2102 24.0215 19.095 25.3175 15.5479 25.5582C13.3389 25.707 11.2007 25.4095 9.12622 24.6589C6.86768 23.8444 4.92065 22.5556 3.24268 20.8418C2.83203 20.4239 2.32935 20.3956 1.96118 20.7426C1.59302 21.1038 1.62134 21.6208 2.03906 22.0457C5.4729 25.5157 9.63599 27.2437 14.5637 27.3145ZM20.4473 17.053C20.4473 16.8193 20.4473 16.6139 20.4473 16.4085C20.4473 15.665 20.1428 15.3534 19.4065 15.3534C16.5745 15.3534 13.7424 15.3534 10.9104 15.3534C10.2944 15.3534 10.0112 15.1338 9.86255 14.5389C9.0625 11.3309 8.26953 8.11575 7.46948 4.90769C7.25708 4.06496 7.05884 3.22222 6.83936 2.38657C6.72607 1.95458 6.37915 1.69255 5.98267 1.70672C5.59326 1.72088 5.24634 1.99707 5.18262 2.38657C5.1543 2.55653 5.18262 2.74774 5.21802 2.9177C6.32251 7.35092 7.427 11.7912 8.5315 16.2244C8.69434 16.8618 8.94922 17.0601 9.61475 17.0601C13.1194 17.0601 16.6169 17.0601 20.1216 17.0601C20.2136 17.053 20.3057 17.053 20.4473 17.053ZM15.3638 13.6325C16.5037 13.6325 17.6152 13.6325 18.7268 13.6325C18.7268 12.4994 18.7268 11.3805 18.7268 10.2686C17.594 10.2686 16.4824 10.2686 15.3638 10.2686C15.3638 11.3946 15.3638 12.5065 15.3638 13.6325ZM13.6362 10.2757C12.5955 10.2757 11.5901 10.2757 10.5493 10.2757C10.8325 11.4159 11.1157 12.5348 11.3918 13.6396C12.1636 13.6396 12.8928 13.6396 13.6362 13.6396C13.6362 12.5136 13.6362 11.4017 13.6362 10.2757Z" fill="white"/>
</svg>
