<svg width="190" height="40" viewBox="0 0 190 40" fill="none" xmlns="http://www.w3.org/2000/svg" role="img" aria-label="HealthStrat">
  <g fill="#FE5B2C">
    <path d="M7.2 8c.5.12 1.03.19 1.52.37 1.74.66 2.99 1.82 3.53 3.64.11.38.16.78.16 1.17.02 2.03.01 4.05.01 6.08v.15H6.44c-1.8.03-3.19-.76-4.24-2.15C1.27 16.03.88 14.65 1.03 13.11 1.28 10.57 3.28 8.47 5.81 8.08L6.25 8h.95Z"/>
    <path d="M24 26.22c-.11.48-.19.97-.36 1.43-.82 2.27-3.26 3.67-5.65 3.26-1.7-.3-3.02-1.18-3.86-2.7-.36-.64-.5-1.33-.5-2.05v-5.29c0-.18.05-.24.24-.24 1.76.01 3.53-.01 5.3.01 1.83 0 3.13.92 4.06 2.42.4.65.64 1.37.72 2.13.01.05.04.09.05.14v.89Z"/>
    <path d="M12.42 20.64v5.35c.03 1.86-.83 3.23-2.37 4.17-1.65 1.01-3.4 1.11-5.14.24-1.56-.79-2.52-2.07-2.77-3.8-.31-2.19.48-3.96 2.3-5.25.71-.5 1.52-.73 2.38-.73h5.46c.03.01.06.02.14.02Z"/>
    <path d="M13.64 19.39v-4.34c-.09-2.37 1.87-3.89 3.6-4.13 2.12-.31 4.03.84 4.74 2.86.79 2.22-.53 4.86-2.77 5.5-.28.08-.58.12-.87.12H13.78c-.03 0-.07 0-.14-.01Z"/>
  </g>
  <text x="34" y="27.5" fill="#FFFFFF" font-family="Georgia, 'Times New Roman', serif" font-size="25" font-weight="700">HealthStrat</text>
</svg>
