<svg width="197" height="183" viewBox="0 0 197 183" fill="none" xmlns="http://www.w3.org/2000/svg">
<path d="M0 178.452C0.871842 176.811 2.25653 176.401 4.00021 176.452C11.0262 176.503 18.1035 176.503 25.4373 176.503C25.4373 173.17 25.5398 169.939 25.386 166.708C25.2834 165.118 21.5909 162.605 19.9498 162.759C13.0263 163.374 7.38501 160.964 3.12837 155.476C-0.410278 150.963 0.051285 145.014 4.00021 140.963C8.00043 136.86 14.1033 136.347 18.6677 139.886C24.2577 144.245 26.822 149.989 25.8988 157.066C25.6424 159.22 27.3861 159.682 28.2579 160.964C30.0529 159.784 31.0786 158.605 30.8735 156.194C30.2067 149.425 32.8223 143.937 38.2585 139.835C42.7715 136.398 48.7718 136.911 52.7721 140.912C56.721 144.912 57.2338 150.758 53.849 155.271C49.6437 160.861 43.9511 163.374 36.9251 162.759C34.4634 162.554 31.2837 165.426 31.2837 167.939C31.2837 170.503 31.2837 173.067 31.2837 175.631C31.2837 175.836 31.335 175.99 31.4376 176.503C32.2581 176.503 33.13 176.503 34.0018 176.503C36.5148 176.503 38.9765 176.452 41.4894 176.554C43.3357 176.606 44.4639 177.785 44.4126 179.426C44.4126 180.965 43.3357 182.093 41.6433 182.298C41.1817 182.35 40.7714 182.298 40.3099 182.298C28.2579 182.298 16.206 182.298 4.15407 182.35C2.41039 182.35 1.0257 181.939 0.0512848 180.452C0 179.734 0 179.067 0 178.452ZM37.0789 152.451C38.5149 151.015 39.8996 149.527 41.3868 148.091C42.9254 146.604 44.5152 146.502 45.7973 147.732C47.0282 148.963 46.9769 150.656 45.4896 152.143C44.0024 153.63 42.4125 155.015 40.874 156.451C40.9766 156.605 41.1304 156.707 41.233 156.861C44.5665 156.246 47.2333 154.605 49.2334 151.835C50.9258 149.476 50.6694 146.861 48.618 144.86C46.6692 142.963 44.0536 142.706 41.7971 144.348C39.0277 146.296 37.3353 148.912 37.0789 152.451ZM19.4882 152.656C19.6934 152.502 19.8472 152.297 20.0524 152.143C19.1805 148.399 17.3343 145.373 13.7443 143.63C11.6929 142.655 9.69283 143.322 8.15428 144.912C6.66702 146.45 6.05161 148.245 6.82088 150.348C7.94914 153.425 12.2571 156.502 16.0521 156.605C14.3597 154.964 12.8212 153.63 11.3852 152.143C9.84668 150.604 9.74411 149.015 10.9237 147.732C12.1545 146.399 13.8982 146.502 15.4367 148.091C16.8727 149.579 18.1548 151.168 19.4882 152.656Z" fill="#88A5AD"/>
<path d="M154.675 109.884C156.931 108.91 156.675 107.166 156.521 105.422C155.239 89.9344 165.342 76.4465 180.573 73.2668C184.625 72.4463 188.728 72.5488 192.779 73.4207C194.369 73.7797 195.241 74.6515 195.549 76.19C197.138 83.9341 195.959 91.2165 191.959 98.0374C190.984 99.7298 189.343 100.191 187.907 99.3195C186.471 98.4989 186.01 96.8578 187.035 95.1654C189.651 90.6524 190.728 85.8316 190.471 80.6005C190.42 79.2671 189.959 78.703 188.574 78.5492C175.24 77.0619 162.47 88.242 162.213 101.679C162.213 101.832 162.316 102.038 162.47 102.756C163.29 101.832 163.855 101.063 164.521 100.448C168.675 96.2424 172.829 92.0883 177.035 87.9343C178.419 86.6009 180.163 86.5496 181.291 87.6778C182.471 88.8061 182.368 90.5498 181.086 91.9858C180.779 92.2935 180.471 92.6012 180.163 92.9602C176.06 97.063 172.009 101.114 167.906 105.217C167.496 105.679 167.086 106.14 166.419 106.858C170.214 106.858 173.394 106.038 176.522 104.653C177.035 104.397 177.548 104.14 178.06 103.884C179.753 103.115 181.24 103.525 182.061 104.961C182.881 106.448 182.368 108.038 180.676 108.961C175.445 111.833 169.804 113.166 163.855 112.5C161.701 112.243 160.419 112.961 158.829 114.243C155.444 117.013 154.469 120.244 154.521 124.552C154.777 141.014 154.572 157.476 154.572 173.99C154.572 174.759 154.572 175.529 154.572 176.554C155.495 176.554 156.264 176.554 156.982 176.554C168.829 176.554 180.676 176.554 192.574 176.554C193.292 176.554 194.01 176.503 194.677 176.606C196.113 176.862 197.138 177.837 196.985 179.221C196.831 180.247 195.959 181.273 195.138 181.991C194.677 182.401 193.651 182.298 192.933 182.298C147.546 182.298 102.159 182.298 56.7719 182.298C56.3104 182.298 55.8488 182.298 55.4385 182.298C53.6435 182.144 52.464 180.965 52.5153 179.324C52.5666 177.734 53.7461 176.554 55.5411 176.554C60.1054 176.503 64.6185 176.554 69.1828 176.554C73.901 176.554 78.6705 176.554 83.6964 176.554C83.6964 175.631 83.6964 174.811 83.6964 173.99C83.6964 170.452 83.6964 166.964 83.6964 163.425C83.6964 160.707 84.7221 159.323 86.6197 159.323C88.4659 159.323 89.4403 160.707 89.4403 163.323C89.4403 167.015 89.4403 170.759 89.4403 174.452C89.4403 175.067 89.4916 175.683 89.5429 176.401C109.288 176.401 128.878 176.401 148.674 176.401C148.726 175.734 148.777 175.067 148.777 174.4C148.777 156.194 148.777 137.988 148.726 119.782C148.726 118.756 148.11 117.628 147.495 116.808C145.033 113.525 142.11 112.397 137.648 112.5C118.621 112.961 104.108 94.7551 108.262 76.2926C108.621 74.7541 109.441 73.8822 110.98 73.472C127.289 69.5743 144.623 81.1134 146.982 97.7297C147.392 100.755 147.033 103.833 147.187 106.91C147.238 107.833 147.802 108.705 148.11 109.576C148.315 109.525 148.572 109.474 148.777 109.371C148.828 108.756 148.879 108.14 148.879 107.576C148.879 96.704 148.879 85.7803 148.879 74.9079C148.879 71.9847 145.443 68.7538 142.571 68.9076C127.289 69.7794 115.288 58.3429 115.955 43.2652C116.211 36.5469 116.878 36.5982 122.622 35.9828C136.725 34.4955 149.546 46.7013 148.828 61.42C148.674 64.4971 149.751 66.1382 151.957 67.7281C154.162 66.2408 155.29 64.4971 155.085 61.42C154.264 45.5217 169.24 32.957 184.522 36.4443C186.266 36.8546 187.138 37.7264 187.497 39.4701C190.933 54.753 178.522 69.6769 162.624 68.805C158.572 68.5999 157.085 71.2154 154.828 73.2155C154.572 73.472 154.572 74.0361 154.572 74.4976C154.572 86.0367 154.572 97.5758 154.572 109.115C154.521 109.32 154.623 109.525 154.675 109.884ZM137.392 106.705C132.417 101.73 127.699 97.0117 122.981 92.2935C121.288 90.6011 121.134 88.9087 122.468 87.6266C123.75 86.3957 125.391 86.6009 127.032 88.1907C131.34 92.4986 135.648 96.8065 139.956 101.114C140.366 101.525 140.879 101.935 141.392 102.448C141.802 87.4214 126.724 75.9336 113.595 78.9594C110.98 92.755 122.468 106.858 137.392 106.705ZM138.725 62.9586C138.058 62.2919 137.648 61.8303 137.187 61.3687C134.212 58.3942 131.186 55.4197 128.212 52.3939C126.724 50.8554 126.622 49.2655 127.904 47.9834C129.083 46.8039 130.827 46.9064 132.314 48.3424C134.212 50.1887 136.058 52.0349 137.853 53.9324C139.392 55.5223 140.828 57.2147 142.315 58.8558C142.52 58.7019 142.725 58.5481 142.879 58.4455C142.674 57.3172 142.469 56.2403 142.161 55.112C139.802 46.9577 131.853 41.2138 123.493 41.6241C122.622 41.6754 121.596 41.419 121.391 42.9575C120.365 52.4452 128.725 62.4457 138.725 62.9586ZM181.804 41.9831C171.958 39.8804 161.085 48.6501 160.931 58.7019C161.495 58.1891 161.957 57.7788 162.367 57.3172C165.342 54.3427 168.316 51.3169 171.342 48.3424C172.829 46.9064 174.522 46.8039 175.753 48.0347C176.984 49.2655 176.83 50.9066 175.394 52.4452C174.265 53.5735 173.137 54.753 172.009 55.83C169.701 58.0865 167.342 60.343 164.726 62.856C175.137 62.6509 183.856 51.9836 181.804 41.9831Z" fill="#88A5AD"/>
<path d="M90.1072 135.065C90.4662 134.193 91.0816 133.373 91.1329 132.45C91.697 124.244 95.4408 118.09 102.775 114.295C108.313 111.423 114.621 113.013 118.314 118.09C122.006 123.167 121.596 129.68 117.083 134.039C111.288 139.681 104.313 141.424 96.5178 139.219C94.9792 138.809 94.0048 139.117 92.6714 139.886C89.9533 141.424 88.6712 143.424 89.2866 146.553C89.3892 147.22 89.3379 147.938 89.2866 148.655C89.1841 150.348 88.0558 151.476 86.5173 151.527C84.9787 151.579 83.6966 150.45 83.594 148.809C83.4915 147.22 83.4402 145.578 83.5427 143.989C83.6453 142.758 83.235 141.886 82.158 141.322C82.0555 141.27 81.9529 141.168 81.8503 141.117C79.799 139.168 77.6963 138.86 74.773 139.578C67.4393 141.322 60.9261 139.168 55.6438 133.834C51.3359 129.526 50.9769 123.218 54.5668 118.192C58.0542 113.269 64.1571 111.423 69.542 113.987C77.1321 117.628 81.1836 123.731 81.6452 132.142C81.6965 133.373 81.7991 134.45 83.4402 134.809C83.4915 134.244 83.594 133.732 83.594 133.219C83.594 128.757 83.5427 124.244 83.6453 119.782C83.6453 118.654 83.2863 117.936 82.4145 117.218C75.85 112.038 73.1832 105.269 74.414 97.063C75.3372 90.9088 80.8246 86.5496 87.184 86.9086C93.7997 87.2676 98.5179 91.9345 98.9795 98.6015C99.5436 106.346 96.7742 112.602 90.62 117.423C90.1072 117.833 89.4918 118.449 89.4918 119.013C89.3892 124.244 89.4405 129.526 89.4405 134.757C89.5943 134.86 89.8508 134.962 90.1072 135.065ZM83.5427 110.038C83.5427 107.166 83.4914 104.294 83.5427 101.473C83.594 98.9605 85.7993 97.422 87.6455 98.6528C88.4661 99.2169 89.1328 100.602 89.1841 101.627C89.3892 104.448 89.2354 107.269 89.2354 110.397C92.7227 107.064 94.1074 100.499 92.415 96.5501C91.3893 94.0885 88.6199 92.4986 85.8506 92.7551C82.9273 93.0115 80.5682 94.8065 80.0041 97.5246C79.1322 102.191 80.2092 106.397 83.5427 110.038ZM101.185 133.988C106.108 135.321 112.929 131.373 114.467 128.039C115.544 125.68 114.98 122.859 113.031 120.757C111.134 118.756 108.518 118.09 106.005 119.167C101.903 120.962 99.1846 124.039 97.7486 128.244C97.6461 128.501 97.7486 128.757 97.7486 129.27C100.313 127.424 102.672 125.731 105.031 124.141C106.723 123.013 108.416 123.372 109.339 124.911C110.16 126.244 109.749 127.783 108.262 128.911C105.954 130.603 103.595 132.244 101.185 133.988ZM71.6447 133.885C69.4394 132.296 67.1829 130.757 64.9776 129.116C63.1314 127.783 62.7211 126.193 63.7468 124.705C64.7725 123.218 66.4136 123.064 68.3111 124.398C70.619 125.988 72.8755 127.629 75.2859 129.321C74.773 124.757 69.8497 119.474 65.6443 118.756C62.9775 118.295 60.4646 119.526 58.9773 121.936C57.5413 124.346 57.5926 127.27 59.3876 129.27C62.5673 132.962 66.67 134.552 71.6447 133.885Z" fill="#88A5AD"/>
<path d="M148.367 10.2378C147.085 11.5712 145.854 13.0072 144.572 14.2893C143.187 15.674 141.495 15.7253 140.315 14.6483C139.033 13.4175 139.033 11.7764 140.52 10.2378C143.546 7.16072 146.572 4.13492 149.649 1.10912C151.188 -0.378144 152.624 -0.378144 154.213 1.1604C157.291 4.1862 160.316 7.21201 163.342 10.2891C164.727 11.6738 164.727 13.3662 163.547 14.5457C162.368 15.7253 160.675 15.674 159.291 14.3406C157.906 13.0072 156.573 11.6225 154.931 9.9301C154.88 10.8532 154.778 11.3661 154.778 11.8789C154.778 18.3408 154.778 24.8027 154.778 31.3159C154.778 33.7775 153.803 35.0084 151.854 35.0084C150.008 34.9571 148.982 33.7262 148.982 31.2133C148.982 25.0078 148.982 18.8024 148.982 12.5456C148.982 11.8789 148.982 11.1609 148.982 10.4942C148.726 10.4429 148.572 10.3404 148.367 10.2378Z" fill="#88A5AD"/>
<path d="M89.2867 55.471C89.2867 60.7021 89.2867 65.9331 89.2867 71.1642C89.2867 73.0617 89.338 75.0105 89.2867 76.9081C89.2354 78.8056 88.2098 79.9339 86.5686 79.9851C84.8762 80.0364 83.5941 78.9082 83.5941 76.9593C83.5428 73.3181 83.5428 69.6769 83.5428 65.9844C83.5428 62.497 83.5428 59.0097 83.0813 55.2146C81.7991 56.548 80.5683 57.8814 79.2862 59.1635C77.7989 60.6508 76.1065 60.7533 74.8757 59.5738C73.5423 58.2917 73.6449 56.6506 75.2347 55.0094C78.1066 52.0862 81.0299 49.2143 83.9531 46.291C85.7481 44.5473 87.1328 44.4961 88.9277 46.2397C91.9023 49.163 94.8255 52.1375 97.7487 55.0607C99.236 56.548 99.2873 58.2404 98.0564 59.4712C96.8256 60.7021 95.1332 60.5482 93.6459 59.1122C92.3125 57.8301 91.0817 56.4454 89.7996 55.112C89.6457 55.3172 89.4919 55.3684 89.2867 55.471Z" fill="#88A5AD"/>
<path d="M24.9761 110.294C23.6939 111.628 22.4631 112.961 21.1297 114.243C19.6424 115.679 17.8988 115.782 16.7192 114.551C15.4884 113.269 15.5909 111.679 17.0782 110.141C20.0014 107.166 22.9247 104.243 25.8992 101.32C27.6429 99.5759 29.0788 99.6272 30.8738 101.371C33.7971 104.243 36.669 107.166 39.5922 110.089C41.1308 111.628 41.2333 113.423 39.9512 114.654C38.7204 115.833 37.028 115.679 35.5407 114.141C34.2586 112.859 33.0278 111.474 31.7969 110.141C31.6431 110.243 31.4892 110.294 31.3354 110.397C31.2841 110.961 31.2328 111.474 31.2328 112.038C31.2328 118.244 31.2328 124.449 31.2328 130.706C31.2328 133.783 30.4123 135.014 28.4121 135.065C26.3608 135.065 25.4889 133.732 25.4889 130.603C25.4889 124.654 25.4889 118.705 25.4889 112.705C25.4889 111.987 25.4889 111.32 25.4889 110.602C25.2838 110.5 25.1299 110.397 24.9761 110.294Z" fill="#88A5AD"/>
</svg>
