<svg width="66" height="61" viewBox="0 0 66 61" fill="none" xmlns="http://www.w3.org/2000/svg">
<path d="M3.31527 41.9286C3.02452 41.6375 2.87915 41.4919 2.73378 41.3463C2.0069 40.6184 1.28003 39.7449 0.553159 39.0169C0.117035 38.5802 -0.173714 38.1434 0.117035 37.5611C0.407784 36.9788 0.989282 36.9788 1.71615 37.1243C3.60602 37.5611 5.49589 37.5611 7.38576 36.9788C11.0201 35.9597 13.4915 33.4847 15.236 30.4275C15.3814 30.2819 15.236 29.8451 15.0906 29.5539C14.5091 28.6804 13.6369 28.3893 12.6192 28.0981C11.4562 27.6613 10.0025 27.5158 8.69413 27.3702C6.80426 27.2246 5.05977 26.6423 3.60602 25.6232C2.29765 24.7496 1.42541 23.4394 0.843908 21.9835C0.407784 20.5277 0.843908 19.9454 2.29765 20.0909C2.29765 20.0909 2.44303 20.0909 2.5884 20.0909C2.29765 19.7998 2.15228 19.6542 2.0069 19.363C-0.028339 17.0337 -0.464462 14.122 0.843908 11.2103C1.57078 9.75442 1.86153 9.60884 3.46065 10.3368C3.31527 10.1912 3.31527 9.90001 3.1699 9.75442C2.0069 6.1148 3.46065 2.47518 6.07739 0.291414C6.22276 0.000244141 6.80426 0.000244141 7.09501 0.000244141C7.38576 0.145829 7.82188 0.582583 7.82188 0.873753C7.82188 2.47518 8.69413 3.63986 9.71175 4.51337C11.1655 5.82363 12.91 7.1339 14.3637 8.44416C15.5267 9.46325 16.8351 10.4823 17.9981 11.647C19.3065 12.9573 20.3241 14.4131 20.0333 16.3057C19.888 17.0337 19.5972 17.7616 19.4518 18.4895C19.1611 19.5086 19.0157 20.6733 19.3065 21.9835C19.5972 21.5468 19.7426 21.2556 20.0333 20.8189C23.5223 15.5778 28.0289 11.647 33.9893 9.17208C35.443 8.58974 36.4606 8.73533 37.6236 9.75442C42.8571 14.5587 48.236 19.2174 53.6148 23.8761C54.7778 24.8952 54.6325 25.6232 53.1787 26.2055C52.7426 26.3511 52.4518 26.4967 51.8703 26.7878C52.5972 27.3702 53.1787 27.9525 53.7602 28.5349C53.9056 28.6804 54.1963 28.826 54.3417 29.1172C55.0686 29.8451 54.9232 30.7186 53.9056 31.0098C51.8703 31.7377 49.9805 32.7568 48.3814 34.0671C47.073 35.0862 45.7646 36.2508 44.4562 37.2699L44.6016 37.4155C44.747 37.4155 44.747 37.2699 44.8924 37.2699C46.3461 36.1053 47.7999 35.9597 49.5443 36.542C51.4342 37.1244 53.0333 38.1434 54.7778 39.3081C56.3769 40.3272 58.1214 41.4919 59.7206 42.511C60.5928 42.9477 61.6104 43.3845 62.628 43.5301C63.0642 43.6757 63.6457 43.5301 64.2272 43.3845C64.8087 43.2389 65.2448 43.2389 65.5355 43.6757C65.9717 44.1124 65.8263 44.5492 65.6809 44.9859C64.0818 48.48 61.1743 50.5181 56.9585 50.5181C57.1038 50.6637 57.1038 50.8093 57.2492 50.8093C57.9761 51.5372 58.1214 51.974 57.3946 52.8475C55.214 55.3224 52.0157 56.0504 48.9629 54.5945C48.6721 54.4489 48.5267 54.3033 48.0906 54.1578C48.236 54.4489 48.236 54.5945 48.236 54.7401C48.6721 55.7592 48.236 56.4871 47.073 56.6327C44.6016 56.7783 42.7118 55.7592 41.1126 54.0122C39.9496 52.8475 39.3681 51.3917 38.6413 49.7902C38.3505 49.2079 38.0598 48.6255 37.769 47.8976C37.4783 48.48 37.1875 49.0623 37.0421 49.6446C33.8439 55.9048 28.9012 59.8356 21.7778 60.7091C20.3241 60.8547 19.0157 60.8547 17.562 60.8547C17.2712 60.8547 16.8351 60.5635 16.5443 60.4179C11.3109 54.7401 6.07739 49.2079 0.698533 43.5301C0.26241 43.0933 0.117035 42.6566 0.407784 42.0742C0.698533 41.4919 1.13466 41.4919 1.71615 41.6375C2.44303 41.7831 2.73378 41.7831 3.31527 41.9286ZM8.11263 43.8212C8.11263 43.9668 8.11263 43.9668 8.11263 43.9668C10.0025 46.005 12.0377 48.1888 13.9276 50.227C14.073 50.3726 14.5091 50.5181 14.6545 50.5181C18.2888 50.227 21.6325 50.9549 24.6853 52.9931C24.8307 53.1387 25.2668 53.1387 25.5576 52.9931C28.1743 51.5372 30.0642 49.3535 31.3725 46.7329C32.3902 44.6948 33.2624 42.6566 34.28 40.6184C36.8968 35.6685 40.6765 31.5921 45.1831 28.2437C45.6192 27.9525 45.7646 27.6613 45.6192 27.079C45.4739 26.3511 45.4739 25.6232 45.4739 24.8952C45.4739 23.585 46.0554 22.4203 46.7822 21.2556C44.3109 19.0718 41.9849 17.0337 39.5135 14.8499C39.3681 14.7043 39.0774 14.7043 38.932 14.8499C35.8792 15.7234 33.117 15.4322 30.3549 13.9764C30.0642 13.8308 29.7734 13.8308 29.4827 13.9764C27.8836 15.2866 26.2844 16.4513 24.8307 17.9072C21.9232 20.8189 20.0333 24.3129 18.4342 27.9525C17.1258 31.0098 15.3814 33.7759 12.91 35.8141C12.3285 36.2508 12.1831 36.6876 12.1831 37.2699C12.0377 40.3272 10.8747 42.511 8.11263 43.8212ZM35.5884 43.3845C37.3329 43.8212 38.4959 44.8403 39.3681 46.1506C40.095 47.3153 40.6765 48.6255 41.258 49.7902C41.8395 51.1005 42.421 52.2652 43.584 53.1387C44.1655 53.721 44.8924 54.1578 45.91 54.4489C45.91 54.3033 45.7646 54.1578 45.7646 54.0122C45.3285 52.8475 44.747 51.8284 44.3109 50.6637C44.0201 50.0814 44.1655 49.6446 44.747 49.3535C45.1831 49.0623 45.7646 49.0623 46.2007 49.4991C46.4915 49.7902 46.6369 50.0814 46.9276 50.3726C48.0906 51.6828 49.399 52.7019 51.1435 53.2843C52.7426 53.721 54.1963 53.2843 55.5047 52.2652C55.3593 52.1196 55.0686 51.974 54.9232 51.6828C54.051 50.8093 53.0333 50.0814 52.1611 49.2079C51.5796 48.7711 51.5796 48.1888 51.8703 47.752C52.1611 47.3153 52.7426 47.1697 53.3241 47.4609C53.6148 47.6064 53.7602 47.6064 54.051 47.752C55.5047 48.3344 56.9585 48.7711 58.4122 48.6255C60.3021 48.48 61.6104 47.6064 62.9188 46.005C61.0289 45.7138 59.4298 44.9859 57.9761 43.9668C57.1038 43.3845 56.3769 42.8022 55.5047 42.3654C53.7602 41.3463 52.0157 40.1816 50.2712 39.1625C48.9628 38.4346 47.5091 38.4346 46.2007 39.4537C44.6016 40.6184 42.7118 41.2007 40.6765 40.764C39.6589 40.6184 38.7866 40.1816 37.6236 39.7449C36.8968 40.9095 36.3153 42.0742 35.5884 43.3845ZM6.07739 3.49428C6.07739 3.63986 5.93201 3.78545 5.93201 3.78545C4.76902 5.82363 4.62364 8.0074 5.78664 10.0456C6.36814 11.0647 7.09501 11.9382 7.82188 12.8117C8.258 13.5396 8.40338 13.9764 8.11263 14.5587C7.67651 14.9955 7.24038 15.1411 6.51351 14.7043C5.78664 14.2675 5.05977 13.8308 4.18752 13.394C3.7514 13.1029 3.1699 12.8117 2.5884 12.5205C2.44303 13.1029 2.29765 13.5396 2.29765 13.9764C2.15228 15.5778 2.73378 17.0337 3.89677 18.0527C4.91439 18.9263 6.07739 19.5086 7.24038 20.2365C7.53113 20.3821 7.82188 20.3821 7.96726 20.5277C8.69413 20.8189 8.98488 21.4012 8.8395 21.838C8.69413 22.4203 8.11263 22.7115 7.53113 22.5659C6.22276 22.4203 4.91439 22.2747 3.60602 22.2747C3.60602 22.2747 3.60602 22.4203 3.46065 22.4203C3.89677 22.857 4.18752 23.2938 4.62364 23.585C5.93201 24.6041 7.38576 25.0408 8.98488 25.1864C11.747 25.4776 14.5091 25.4776 16.6897 27.5158C16.9805 26.6422 17.2712 25.9143 17.7073 25.1864C17.9981 24.6041 18.1435 24.1673 17.7073 23.585C17.4166 23.2938 17.2712 22.7115 17.2712 22.2747C16.8351 20.3821 17.1258 18.4895 17.7073 16.7425C17.9981 15.869 17.9981 14.9955 17.4166 14.2675C16.8351 13.5396 16.2536 12.8117 15.5267 12.0838C14.073 10.7735 12.4739 9.60884 10.8747 8.29857C8.98488 7.1339 7.24038 5.67805 6.07739 3.49428ZM4.76902 44.258C4.76902 44.4036 4.76902 44.4036 4.76902 44.4036C9.13025 49.0623 13.6369 53.8666 17.9981 58.5253C18.1435 58.6709 18.4342 58.8165 18.5796 58.8165C22.214 58.9621 25.5576 58.2341 28.6104 56.3415C32.3902 54.0122 34.5708 50.5181 36.1699 46.4418C36.1699 46.2962 36.1699 46.1506 36.1699 46.1506C35.7338 46.005 35.2977 45.7138 34.8615 45.5683C34.7162 45.5683 34.4254 45.8594 34.28 46.005C33.4078 47.3153 32.8263 48.7711 31.8087 50.0814C28.4651 54.5945 23.9584 56.9239 18.2888 56.3415C17.2712 56.1959 16.399 56.0504 15.6721 55.3224C12.3285 51.6828 8.98488 48.1888 5.78664 44.6948C5.49589 44.258 5.20514 44.1124 4.76902 44.258ZM38.932 37.8523C39.3681 37.9979 39.8043 38.289 40.2404 38.4346C40.6765 38.7258 41.1126 38.5802 41.4034 38.1434C43.2932 35.6685 45.6192 33.6303 48.0906 31.8833C49.2536 31.1554 50.562 30.4275 51.725 29.6995C51.2888 29.2628 50.7073 28.826 50.1258 28.3893C49.9805 28.2437 49.6897 28.2437 49.5443 28.3893C48.9628 28.6804 48.3814 29.1172 47.7999 29.5539C44.3109 31.7377 41.4034 34.5038 38.932 37.8523ZM10.0025 38.289C8.11263 38.7258 6.07739 39.1625 4.18752 39.5993C4.76902 40.3272 5.49589 41.0551 6.22276 41.7831C6.36814 41.9286 6.65889 41.9286 6.80426 41.9286C8.40338 41.4919 9.85712 39.8905 10.0025 38.289ZM22.5047 54.0122C20.6148 52.9931 18.5796 52.4107 16.2536 52.5563C16.8351 53.1387 17.2712 53.8666 17.8527 54.0122C19.3065 54.5945 20.9056 54.4489 22.5047 54.0122ZM48.8175 22.857C48.0906 24.0217 47.6545 25.332 48.0906 26.6422C49.1082 26.0599 50.1258 25.4776 51.2888 24.8952C50.4166 24.1673 49.5443 23.585 48.8175 22.857ZM37.6236 12.9573C36.8968 12.3749 36.3153 11.7926 35.7338 11.3559C35.5884 11.2103 35.443 11.2103 35.443 11.2103C34.4254 11.647 33.4078 12.0838 32.3902 12.5205C33.9893 13.2485 36.1699 13.394 37.6236 12.9573Z" fill="#18333B"/>
<path d="M22.505 54.0121C20.9059 54.4489 19.4521 54.4489 17.853 54.0121C17.2715 53.8665 16.8354 53.1386 16.2539 52.5563C18.5799 52.5563 20.6151 52.993 22.505 54.0121Z" fill="white"/>
<path d="M30.791 38.5802C29.7734 39.3081 28.7557 39.8904 27.4474 39.4537C27.0113 39.3081 26.5751 39.1625 26.2844 38.8713C25.8483 38.5802 25.7029 37.9978 25.9936 37.4155C26.2844 36.9787 26.7205 36.8332 27.302 36.9787C28.465 37.4155 29.0465 37.2699 29.7734 36.2508C30.2095 35.8141 30.5002 35.2317 30.6456 34.795C30.791 34.5038 30.6456 33.9215 30.5002 33.7759C30.3549 33.6303 29.7734 33.4847 29.4826 33.6303C28.7557 33.9215 28.1743 34.3582 27.4474 34.6494C27.0113 34.9406 26.7205 35.2317 26.2844 35.3773C24.8306 36.2508 23.3769 36.2508 22.2139 35.3773C21.0509 34.5038 20.6148 32.9024 21.0509 31.3009C21.1963 30.7186 21.487 30.1363 20.7602 29.6995C20.324 29.4083 20.4694 28.826 20.9055 28.3892C21.1963 27.9525 21.7778 27.9525 22.2139 28.0981C22.5046 28.2437 22.65 28.3892 22.9408 28.6804C23.813 28.0981 24.976 27.6613 26.139 27.8069C26.8659 27.9525 27.302 28.3892 27.302 28.9716C27.302 29.5539 26.7205 29.9907 25.9936 29.9907C25.8483 29.9907 25.7029 29.9907 25.7029 29.9907C24.5399 29.9907 23.2315 31.1554 23.2315 32.1744C23.2315 32.7568 23.2315 33.3391 23.813 33.6303C24.2491 33.9215 24.8306 33.7759 25.2668 33.4847C25.8483 33.1935 26.4298 32.7568 27.0113 32.32C27.7381 31.8833 28.465 31.4465 29.3372 31.3009C31.5179 30.573 33.5531 32.4656 33.117 34.795C32.9716 35.3773 32.6809 35.9596 32.5355 36.6876C32.8262 36.9787 33.117 37.1243 33.4077 37.4155C33.9892 37.9978 34.1346 38.5802 33.6985 39.0169C33.2624 39.4537 32.6809 39.4537 32.0994 39.0169C31.3725 39.1625 31.0817 38.8713 30.791 38.5802Z" fill="#18333B"/>
<path d="M33.5527 22.4203C35.2972 22.4203 36.751 23.8761 36.751 25.6232C36.751 27.3702 35.2972 28.826 33.5527 28.826C31.8082 28.826 30.3545 27.3702 30.3545 25.6232C30.3545 23.8761 31.8082 22.4203 33.5527 22.4203ZM33.5527 26.6422C34.1342 26.6422 34.5704 26.2055 34.5704 25.6232C34.5704 25.0408 34.1342 24.6041 33.5527 24.6041C32.9712 24.6041 32.5351 25.0408 32.5351 25.6232C32.5351 26.0599 32.9712 26.6422 33.5527 26.6422Z" fill="#18333B"/>
<path d="M20.0334 44.8403C18.2889 44.8403 16.8352 43.3845 16.8352 41.6374C16.8352 39.8904 18.2889 38.4346 20.0334 38.4346C21.7779 38.4346 23.2317 39.8904 23.2317 41.6374C23.2317 43.3845 21.7779 44.8403 20.0334 44.8403ZM21.0511 41.6374C21.0511 41.0551 20.6149 40.6183 20.0334 40.6183C19.4519 40.6183 19.0158 41.0551 19.0158 41.6374C19.0158 42.2198 19.4519 42.6565 20.0334 42.6565C20.6149 42.6565 21.0511 42.2198 21.0511 41.6374Z" fill="#18333B"/>
</svg>
