<svg width="70" height="69" viewBox="0 0 70 69" fill="none" xmlns="http://www.w3.org/2000/svg">
<path d="M0.0182482 15.7516C0.364963 15.3678 0.693431 14.9658 1.05839 14.6003C5.36496 10.2878 9.67153 5.99361 13.9599 1.68111C14.9818 0.657808 15.4562 0.657808 16.4599 1.66284C18.3394 3.54499 20.2372 5.44541 22.1168 7.32756C23.2847 8.49706 23.2847 8.84425 22.1533 10.032C22.062 10.1234 21.9708 10.233 21.7883 10.434C22.1715 10.7812 22.5182 11.1284 22.938 11.4208C23.1387 11.567 23.4307 11.6218 23.6861 11.6401C25.438 11.7497 27.208 11.6949 28.9234 11.969C31.3686 12.371 33.4307 13.6501 35.1642 15.4044C35.7664 16.0257 36.3686 16.6469 37.208 17.5058C37.3905 17.1951 37.4817 16.8845 37.6825 16.6835C39.3431 15.112 40.9489 13.5039 42.7007 12.0604C43.9599 11.0188 45.5109 10.5071 47.0985 10.1051C47.4818 10.0137 47.8285 9.75791 48.1934 9.57518C48.2117 9.48381 48.2482 9.37417 48.2664 9.28281C47.9927 9.0818 47.6825 8.91734 47.4453 8.66152C46.8796 8.0585 46.8613 7.47375 47.427 6.90728C49.562 4.73276 51.7336 2.57651 53.9051 0.420255C54.5255 -0.182764 55.146 -0.127944 55.8212 0.529895C57.354 2.04658 58.8869 3.59981 60.4197 5.11649C63.3759 8.07677 66.3504 11.0553 69.3066 14.0156C70.2372 14.9475 70.2372 15.4592 69.3066 16.3729C67.3905 18.2915 65.4744 20.2102 63.5584 22.1289C62.427 23.2619 62.0438 23.2802 60.9124 22.1655C60.8212 22.0741 60.7117 21.9828 60.6022 21.8731C59.7445 22.5127 59.1606 23.1888 59.2336 24.3948C59.3613 26.4232 59.2518 28.4515 58.5219 30.3885C57.8467 32.2523 56.8066 33.8421 55.4197 35.2309C53.6314 37.0217 51.8613 38.8307 50.0365 40.585C49.562 41.0418 48.9599 41.4255 48.3394 41.6631C47.8832 41.8276 47.8102 42.0286 47.8102 42.4306C47.8285 44.3858 47.8102 46.3593 47.8285 48.3146C47.8467 51.1104 47.2263 53.7235 45.7117 56.1173C45.5292 56.3914 45.5292 56.7751 45.4015 57.2685C45.8759 57.2685 46.2044 57.2502 46.5328 57.2685C47.3723 57.3233 47.8102 57.7253 47.8102 58.5659C47.8285 61.5993 47.8285 64.6326 47.8102 67.666C47.8102 68.5249 47.3175 68.9634 46.4599 68.9634C39.9635 68.9634 33.4672 68.9634 26.9708 68.9634C26.0949 68.9634 25.6387 68.5431 25.6204 67.666C25.6022 64.6326 25.6022 61.5993 25.6204 58.5659C25.6204 57.7253 26.0584 57.3416 26.8978 57.2685C27.208 57.2502 27.5182 57.2685 27.865 57.2685C27.9927 56.2452 28.0657 55.4046 27.1898 54.6189C25.5474 53.157 24.0693 51.549 23.1934 49.4841C22.573 48.0222 22.1533 46.5055 22.135 44.9158C22.1168 43.0884 22.0985 41.2611 22.135 39.4338C22.135 38.9038 21.9708 38.5566 21.6058 38.1912C19.0876 35.706 16.6241 33.1843 14.1058 30.6991C12.0985 28.7073 10.6752 26.4049 10.0547 23.6274C9.98175 23.2984 9.70803 23.0243 9.48905 22.6406C9.21533 22.8781 9.03285 23.0426 8.86861 23.2253C8.0292 24.0294 7.48175 24.0476 6.66058 23.2253C5.5292 22.0924 4.39781 20.9594 3.28467 19.8448C2.48175 19.0408 1.66058 18.2367 0.875912 17.4144C0.565693 17.0855 0.291971 16.72 0 16.3729C0.0182482 16.2084 0.0182482 15.9891 0.0182482 15.7516ZM49.9453 11.2563C49.3431 11.6218 48.8139 12.1517 48.1934 12.2796C45.7664 12.7913 43.7409 13.9242 42.0073 15.6785C37.9015 19.8265 33.7591 23.938 29.635 28.0678C29.4526 28.2505 29.2701 28.415 29.1241 28.616C28.7774 29.1276 28.8321 29.7124 29.2518 30.1144C29.6533 30.4981 30.2737 30.5529 30.7482 30.2057C30.9307 30.0778 31.0949 29.8951 31.2409 29.7489C32.9197 28.0678 34.5985 26.3866 36.2774 24.7237C36.4599 24.541 36.6423 24.3766 36.8431 24.2304C37.354 23.8832 37.8467 23.9563 38.2847 24.3583C38.6861 24.7237 38.7409 25.3816 38.4124 25.8567C38.2664 26.0577 38.0839 26.2404 37.9015 26.4049C35.6934 28.616 33.4854 30.827 31.2774 33.0381C31.0766 33.2391 30.8942 33.4218 30.7482 33.6594C30.4015 34.1711 30.4927 34.6827 30.9124 35.0847C31.3321 35.505 31.8431 35.5415 32.3358 35.2126C32.5365 35.0847 32.719 34.8837 32.9015 34.7192C35.1825 32.4534 37.4635 30.1875 39.7263 27.9216C40.438 27.2089 41.1131 27.1358 41.6423 27.684C42.1715 28.2322 42.0803 28.8718 41.3686 29.6027C41.2774 29.6941 41.1679 29.8037 41.0766 29.8951C38.9234 32.0513 36.7518 34.2259 34.5985 36.3821C34.4343 36.5466 34.2701 36.6928 34.1423 36.8755C33.7956 37.3506 33.8139 37.9719 34.1971 38.3739C34.5985 38.7942 35.1825 38.8673 35.6752 38.5201C35.8759 38.3739 36.0584 38.1912 36.2409 38.0267C38.4672 35.7974 40.6934 33.568 42.9197 31.357C43.1204 31.1742 43.3029 30.9549 43.5401 30.827C43.9963 30.5712 44.4708 30.6078 44.8723 30.9732C45.2737 31.357 45.3832 31.8321 45.1095 32.3437C44.9818 32.5813 44.781 32.7823 44.5985 32.965C42.3723 35.2126 40.1277 37.4602 37.8832 39.6896C37.6825 39.8906 37.4818 40.0733 37.354 40.3109C37.062 40.8043 37.135 41.2976 37.5182 41.6814C37.9015 42.0834 38.3942 42.1748 38.8869 41.8824C39.1241 41.7362 39.3066 41.5352 39.5073 41.3525C43.1022 37.7526 46.6971 34.1528 50.292 30.5712C50.4927 30.3702 50.6752 30.1692 50.9124 30.0413C51.4234 29.7306 51.9343 29.7672 52.3358 30.2057C52.7555 30.626 52.8102 31.1377 52.4635 31.6493C52.3358 31.8321 52.1715 31.9965 52.0073 32.161C50.3467 33.8239 48.6861 35.4867 47.0255 37.1496C46.9161 37.2592 46.7883 37.3689 46.6971 37.4968C46.1314 38.0998 46.0949 38.7576 46.5876 39.251C47.0803 39.7627 47.7372 39.7444 48.3394 39.1414C50.3102 37.1861 52.281 35.2126 54.2153 33.2208C55.6569 31.7407 56.5693 29.9499 56.7883 27.9033C56.9526 26.3683 56.9343 24.8151 56.9343 23.2619C56.9343 22.5858 57.0985 22.0193 57.6277 21.5625C58.0839 21.1605 58.5219 20.7219 58.9416 20.3382C55.8759 17.2134 52.8832 14.2166 49.9453 11.2563ZM20.2007 11.8959C17.0985 14.9841 14.0876 17.9992 11.1861 20.9046C11.6241 21.6173 12.1533 22.1472 12.281 22.7685C12.792 25.2171 13.9599 27.2637 15.7117 29.018C19.0146 32.2889 22.281 35.5964 25.5839 38.8856C25.7847 39.0866 25.9672 39.2876 26.2044 39.4155C26.6971 39.7079 27.1898 39.6165 27.573 39.2328C27.938 38.8673 28.0657 38.3922 27.792 37.9171C27.6642 37.6795 27.4635 37.4785 27.281 37.2775C25.9307 35.9253 24.5803 34.5731 23.2299 33.2026C22.5912 32.563 22.5365 31.8503 23.0474 31.3387C23.5401 30.8636 24.2336 30.9184 24.854 31.5397C25.8212 32.5082 26.7883 33.4767 27.7555 34.4451C27.865 34.5548 28.0109 34.6462 28.0839 34.7192C28.2299 33.9518 28.3759 33.2391 28.5401 32.4716C28.4124 32.3803 28.2299 32.2889 28.0657 32.161C26.4963 31.0829 26.0584 28.9632 27.1168 27.3917C27.354 27.0262 27.6642 26.7155 27.9745 26.4232C29.3431 25.0527 30.7117 23.6822 32.1533 22.2386C31.5146 21.6356 30.9124 21.0691 30.3285 20.5026C29.6715 19.8448 29.5803 19.1687 30.0912 18.6387C30.6204 18.0905 31.2956 18.1636 31.989 18.858C32.5547 19.4428 33.1022 20.0458 33.6314 20.6305C34.2701 19.9727 34.781 19.461 35.3285 18.9128C34.6533 18.2367 33.9781 17.5241 33.2664 16.848C31.6423 15.2947 29.708 14.2897 27.4453 14.0887C25.9489 13.9608 24.4343 14.0521 22.938 13.9425C22.4817 13.906 21.9708 13.6867 21.6058 13.3943C21.1314 13.0106 20.7299 12.4624 20.2007 11.8959ZM30.3285 57.2502C30.5109 57.2868 30.5657 57.305 30.6387 57.305C34.6533 57.305 38.6496 57.305 42.6642 57.3233C43.0474 57.3233 43.2117 57.1954 43.1752 56.8117C43.1022 56.099 43.3577 55.496 43.7409 54.9112C44.7263 53.4311 45.365 51.7682 45.4197 49.9957C45.5109 47.2365 45.4927 44.4772 45.4927 41.7179C45.4927 41.5352 45.3832 41.3342 45.2737 41.188C44.9453 40.786 44.5803 40.4205 44.1788 40.0002C44.0328 40.1464 43.8504 40.3109 43.6679 40.4753C42.6277 41.4986 41.6423 42.5768 40.5474 43.5453C38.5584 45.2995 35.4197 44.2214 34.8905 41.6083C34.8175 41.2245 34.6898 41.0784 34.3248 40.987C32.8102 40.6581 31.9161 39.7079 31.5693 38.2094C31.5328 38.0267 31.3686 37.7892 31.2044 37.7343C30.8759 37.5882 30.5109 37.5516 30.146 37.4602C30.4745 39.0866 30.073 40.4388 28.6861 41.3525C27.2993 42.2661 25.8942 42.0834 24.4891 41.1515C24.4891 42.4123 24.4708 43.5635 24.4891 44.733C24.5255 46.8527 25.146 48.808 26.4599 50.4343C27.4453 51.6586 28.5949 52.7367 29.6898 53.8697C30.1277 54.3082 30.3285 54.7833 30.3285 55.3864C30.3102 55.9894 30.3285 56.6107 30.3285 57.2502ZM67.062 15.2947C62.938 11.165 58.8321 7.05346 54.781 2.99679C53.2117 4.5683 51.5876 6.19462 50.073 7.7113C54.1423 11.7863 58.2482 15.8977 62.354 20.0092C63.9051 18.4743 65.5109 16.8662 67.062 15.2947ZM15.2555 3.91046C11.2044 7.96713 7.08029 12.0969 3.0292 16.1536C4.59854 17.7251 6.22263 19.3514 7.79197 20.9229C11.8431 16.8662 15.9489 12.7547 20.0182 8.67979C18.4489 7.10828 16.8248 5.48196 15.2555 3.91046ZM45.5109 59.7354C39.6168 59.7354 33.8139 59.7354 28.0292 59.7354C28.0292 62.0744 28.0292 64.3403 28.0292 66.6427C33.8686 66.6427 39.6533 66.6427 45.5109 66.6427C45.5109 66.3503 45.5109 66.0945 45.5109 65.857C45.5109 63.8286 45.5109 61.8003 45.5109 59.7354Z" fill="#FE5B2C"/>
</svg>
