<svg width="227" height="197" viewBox="0 0 227 197" fill="none" xmlns="http://www.w3.org/2000/svg">
<path d="M127.845 69.8927C133.8 66.4135 139.684 63.0053 145.498 59.455C146.065 59.1 146.348 57.9639 146.419 57.1828C147.27 47.1712 148.263 37.2305 148.759 27.2188C148.972 23.1715 150.319 20.7573 154.147 18.8402C165.207 13.2308 175.983 7.05335 186.829 1.15994C190.587 -0.899202 191.863 -0.331162 192.43 3.78713C192.501 4.21315 192.643 4.63918 192.785 5.06521C196.117 14.7929 195.62 24.9466 196.188 34.8873C196.329 37.2305 195.266 39.7156 194.841 41.8458C201.505 44.757 208.098 47.8102 214.904 50.4374C217.74 51.5735 220.93 51.8575 223.978 52.3545C226.743 52.7805 227.452 54.0586 226.743 56.7568C226.247 58.674 226.247 60.7331 226.105 62.7922C226.034 64.4964 225.467 65.6324 223.908 66.6975C215.471 72.1649 207.885 78.6973 201.008 86.0109C199.52 87.644 198.031 87.999 196.117 87.431C185.341 84.5908 174.494 81.8926 163.789 78.7684C159.819 77.6323 156.77 77.8453 153.367 80.5435C148.617 84.3777 143.371 87.573 138.621 90.8392C140.322 97.8687 142.378 104.685 143.654 111.644C146.632 128.188 146.207 144.519 139.472 160.211C127.207 188.755 96.1548 203.027 66.0954 193.796C40.0769 185.773 21.9278 168.377 10.372 144.235C-1.89287 118.602 -3.80703 92.0463 7.46527 65.4194C13.9167 50.1534 24.2674 38.5085 40.2187 32.4021C63.1887 23.5265 83.8191 28.2838 102.89 42.5558C112.177 49.4433 119.763 57.9639 126.143 67.5496C126.711 68.1886 127.207 68.8987 127.845 69.8927ZM133.942 93.8214C129.83 96.3066 126.711 98.2947 123.449 100.141C122.032 100.922 122.032 101.774 122.244 103.123C123.095 108.093 124.229 113.064 124.584 118.034C125.293 128.401 123.804 138.413 118.558 147.572C112.39 158.081 103.244 164.116 90.9795 164.897C79.2819 165.678 69.2857 160.992 60.4947 153.821C43.8344 140.188 34.5471 122.436 32.4912 101.064C31.3569 89.5611 33.0583 78.4133 39.1553 68.2596C46.812 55.6207 60.1402 49.5853 74.6028 52.3545C88.0728 54.9107 98.2817 62.6502 106.86 72.8749C108.491 74.7921 109.979 76.9222 111.61 79.0524C115.367 76.9222 119.054 74.8631 122.811 72.7329C111.752 56.1888 98.2817 43.0529 79.6363 36.3074C56.241 27.8578 33.9091 37.3725 23.4875 59.952C19.7301 68.1176 17.8868 76.7092 17.4615 85.6558C16.5398 104.472 20.9353 122.081 29.6554 138.626C38.2337 154.957 49.5769 168.803 65.8827 177.962C77.3677 184.424 89.5616 187.477 102.677 184.921C118.983 181.726 128.979 171.146 134.934 156.235C139.968 143.596 140.96 130.318 138.905 116.969C137.77 109.3 135.714 101.916 133.942 93.8214ZM106.576 81.8216C100.054 72.4489 92.3974 64.9934 82.1885 60.5201C75.6662 57.6089 68.7894 56.3308 61.7708 58.0349C49.7187 61.0171 43.0545 69.3957 39.8643 80.7565C35.1143 97.8687 38.659 113.987 47.0955 129.182C53.9724 141.679 63.4723 151.69 77.0132 157.016C93.3899 163.477 109.412 156.377 115.722 139.904C120.259 128.188 119.834 116.33 116.714 104.188C113.311 106.034 110.05 107.809 106.789 109.514C105.513 110.153 105.159 110.934 105.159 112.425C105.159 115.762 105.229 119.241 104.52 122.436C101.897 135.146 90.8377 141.679 78.9983 137.773C61.4872 131.951 50.4276 108.164 57.2335 91.0522C61.3454 80.8275 70.9871 76.2832 81.4087 79.6204C85.946 81.1115 89.7743 83.7387 93.2482 87.0049C93.8153 87.573 95.2332 88.07 95.8004 87.786C99.4869 85.9399 102.89 83.9517 106.576 81.8216ZM217.669 57.6089C214.053 56.1178 210.721 54.9817 207.531 53.4196C201.647 50.5794 195.762 47.6682 189.027 47.4552C186.829 47.3842 186.05 45.7511 186.333 43.7629C186.9 40.2127 187.751 36.5914 187.538 33.0412C187.042 24.8756 186.05 16.71 185.199 8.40245C180.803 10.8166 176.266 13.2308 171.871 15.716C171.233 16.071 170.665 17.0651 170.595 17.8461C170.027 21.3964 169.46 25.0176 169.106 28.6389C168.893 30.698 168.539 32.5441 166.057 32.4731C163.576 32.4021 163.151 30.556 163.292 28.4968C163.505 25.7987 163.718 23.1005 164.001 20.0473C161.236 21.5384 158.684 22.8165 156.345 24.3076C155.565 24.8046 154.785 25.9407 154.714 26.8637C154.076 32.6151 153.651 38.3665 153.225 44.1179C152.942 47.6682 152.729 51.2894 152.445 55.3367C154.218 54.2006 155.565 53.4196 156.912 52.5675C158.401 51.6445 159.889 51.7865 160.882 53.2776C161.945 54.8397 161.449 56.3308 159.889 57.3959C159.322 57.8219 158.684 58.1769 158.117 58.5319C137.345 70.5318 116.573 82.5316 95.8713 94.6025C94.8078 95.2415 93.7444 95.8095 92.5392 96.5196C93.6735 99.4308 94.737 102.2 95.8004 105.111C96.8638 104.543 97.5728 104.188 98.2108 103.762C110.83 96.5196 123.449 89.3481 135.998 82.1056C144.86 76.9932 153.722 71.8099 162.583 66.6265C164.356 65.5614 166.199 64.2833 167.901 66.6975C169.035 68.4016 168.326 69.7507 165.632 71.4548C165.065 71.8099 164.568 72.2359 163.789 72.8039C170.949 74.8631 177.755 76.8512 184.49 78.8394C186.191 79.3364 187.893 79.7624 189.665 80.1174C190.232 80.2595 191.083 80.3305 191.438 80.0464C194.203 77.7033 196.897 75.2181 199.803 72.5909C194.77 71.5259 190.232 70.6028 185.695 69.6087C183.852 69.2537 182.718 68.1886 183.143 66.2715C183.568 64.2123 185.057 63.6443 186.971 64.1413C187.468 64.2833 188.035 64.4254 188.531 64.4964C193.777 65.4904 198.953 66.4845 204.199 67.3366C205.049 67.4786 206.184 67.2656 206.822 66.7685C210.438 63.7863 213.982 60.7331 217.669 57.6089ZM90.4833 107.241C88.0019 108.59 85.7333 109.727 83.4646 110.934C81.6923 111.857 79.9199 112.07 78.9274 110.011C78.0057 108.093 78.9983 106.886 80.6998 105.963C83.1811 104.685 85.6624 103.336 88.2146 101.916C87.6475 99.8568 86.6549 97.9397 86.6549 96.0226C86.7258 94.3184 87.931 92.6143 88.8527 90.4132C87.1512 89.2771 85.0243 87.502 82.6848 86.2239C73.0431 81.2535 63.7559 85.5138 61.5581 96.1646C59.2186 107.454 62.9051 117.111 70.3491 125.561C73.2558 128.898 76.8005 131.312 81.1251 132.59C88.4273 134.791 95.1623 131.88 97.7145 124.709C98.9907 121.087 99.1324 116.969 99.4869 113.064C99.6996 110.721 98.4944 110.153 96.2966 111.218C94.0989 112.283 92.3265 111.644 91.4049 109.3C91.1922 108.661 90.9086 108.093 90.4833 107.241Z" fill="black"/>
<path d="M72.9002 4.78114C72.333 10.1775 71.7659 15.5029 71.1278 20.8993C70.9151 22.6744 69.8517 23.9525 67.9375 23.6685C65.9525 23.3844 65.2435 21.9643 65.4562 20.1182C66.0234 14.8638 66.6614 9.53847 67.2286 4.28411C67.4413 2.36698 68.2211 0.946877 70.348 1.08889C72.4748 1.3019 73.1129 2.79301 72.9002 4.78114Z" fill="black"/>
<path d="M78.22 25.9406C75.6678 26.0116 74.179 24.0234 75.1715 22.1063C77.2984 17.775 79.6379 13.4437 82.1192 9.32541C82.6155 8.54435 84.7424 8.18933 85.664 8.61536C86.3729 8.97038 87.1528 11.1005 86.7274 11.8816C84.6715 16.2839 82.261 20.4732 79.8506 24.7335C79.567 25.4435 78.5745 25.7275 78.22 25.9406Z" fill="black"/>
<path d="M61.6296 22.1066C61.1333 22.6746 60.5661 23.9527 59.7154 24.0947C58.7229 24.3077 57.0214 23.9527 56.5251 23.2427C54.1147 19.5504 51.8461 15.7871 49.861 11.8109C49.5065 11.1008 50.2155 9.18367 51.0662 8.54463C51.7043 8.04759 53.8311 8.33161 54.2565 8.97066C56.8087 12.8759 59.0773 16.9232 61.4169 20.9705C61.4878 21.1835 61.4878 21.3965 61.6296 22.1066Z" fill="black"/>
</svg>
