<svg width="179" height="45" viewBox="0 0 179 45" fill="none" xmlns="http://www.w3.org/2000/svg">
<g clip-path="url(#clip0_628_228)">
<path d="M66.6124 44.0082C62.8246 43.5743 59.7629 42.189 57.3031 39.7971C54.2614 36.8409 52.6468 32.8551 52.6468 28.3008C52.6468 19.1464 59.3055 12.4349 68.3714 12.4495C70.7617 12.4537 73.1457 13.0055 75.2504 14.0444C76.2537 14.5399 77.5374 15.3859 78.2161 15.9992C78.4733 16.2319 78.7083 16.4217 78.7378 16.4217C78.7673 16.4217 78.7926 15.6467 78.7926 14.7006V12.9773H82.7185V43.6243H78.7926V40.0767L78.4343 40.3708C75.8016 42.5301 73.405 43.5816 70.2284 43.9727C69.5328 44.0583 67.2427 44.0812 66.6124 44.0082ZM70.2326 39.9515C74.9785 39.1629 78.2688 35.8447 79.2068 30.9003C79.425 29.7539 79.4303 26.8697 79.2174 25.7399C78.9686 24.4225 78.6356 23.4117 78.0823 22.2956C76.4487 19.0014 73.5704 17.0048 69.7352 16.5041C68.4072 16.3299 66.468 16.4415 65.1991 16.7639C61.4987 17.7037 58.6447 20.3574 57.3526 24.0616C56.8161 25.6002 56.7076 26.3137 56.7076 28.3008C56.7076 29.829 56.736 30.191 56.9152 30.9869C57.9902 35.7404 61.4366 39.1316 66.0254 39.9546C66.9781 40.1246 69.1977 40.1236 70.2326 39.9515ZM32.3703 43.8851C29.746 43.6129 27.322 42.769 25.2489 41.4077C24.0896 40.6462 22.2769 38.8416 21.4864 37.6629C19.5556 34.7818 18.6292 31.3248 18.7652 27.506C18.8895 24.0344 19.8655 21.0699 21.7604 18.4099C22.0366 18.0208 22.7459 17.2239 23.3339 16.6376C25.4365 14.5472 27.9681 13.2235 31.0192 12.6195C32.2481 12.3765 34.9977 12.2847 36.2762 12.4432C42.1655 13.1776 46.5772 17.081 48.0928 22.9006C48.4617 24.3182 48.6282 25.5251 48.6925 27.2629L48.7483 28.7859H22.7269L22.7859 29.6913C23.0494 33.7167 25.4091 37.3228 28.9324 39.0836C30.5976 39.916 32.1859 40.278 34.1831 40.2801C37.6083 40.2842 40.1957 39.2369 42.351 36.9775C42.8896 36.4132 44.1047 34.7974 44.3145 34.3687C44.3408 34.3155 47.7397 36.5175 47.7397 36.5874C47.7397 36.8012 46.3475 38.6351 45.5792 39.431C42.742 42.3726 39.2261 43.8225 34.6668 43.93C33.8321 43.9508 32.7993 43.93 32.3703 43.8851ZM44.6612 24.967C43.9224 20.3626 40.748 17.0246 36.273 16.1474C35.3308 15.9627 32.8952 15.9836 31.9456 16.1849C29.6902 16.6637 27.8089 17.6297 26.2459 19.113C24.5913 20.6839 23.4889 22.6565 22.8987 25.0995L22.8397 25.3425H44.7202L44.6612 24.967ZM162.716 43.8788C155.879 43.2488 150.803 38.6632 149.428 31.8777C148.493 27.2598 149.36 22.4447 151.771 18.8856C154.079 15.4746 157.368 13.3654 161.624 12.5622C162.825 12.3358 166.398 12.3368 167.534 12.5653C170.374 13.1359 172.722 14.3595 174.677 16.2892C177.496 19.0702 179 23.0038 179 27.5905V28.7859L166.039 28.8088L153.079 28.8307L153.102 29.538C153.197 32.32 154.525 35.2293 156.61 37.2185C158.227 38.7613 160.188 39.7376 162.477 40.1413C163.494 40.3197 165.678 40.3187 166.702 40.1413C169.873 39.5843 172.17 38.0415 174.134 35.1458C174.414 34.7327 174.677 34.4041 174.718 34.4156C174.823 34.4427 177.864 36.3788 177.994 36.5019C178.131 36.6302 177.294 37.8788 176.315 39.0075C173.188 42.6052 168.215 44.3868 162.716 43.8788ZM174.983 25.0995C174.983 24.966 174.906 24.5351 174.811 24.1419C173.738 19.7128 170.578 16.7639 166.196 16.0994C164.525 15.8459 162.532 16.0201 160.842 16.5688C157.186 17.7548 154.359 20.7538 153.389 24.4736C153.292 24.846 153.213 25.1934 153.213 25.2455C153.213 25.3144 156.343 25.3425 164.099 25.3425H174.986L174.985 25.0995H174.983ZM0 28.256V12.8897H18.5607V16.5093L11.2654 16.5323L3.9712 16.5542L3.94801 30.0898L3.92588 43.6243H0V28.256ZM89.5891 22.0734V0.613159H93.6045V43.5357H89.5891V22.0734ZM100.476 28.2111V12.8876H104.402L104.406 14.8977L104.41 16.9068L104.741 16.5104C105.832 15.1981 106.957 14.275 108.23 13.646C109.748 12.8949 111.083 12.5674 112.968 12.4777C115.144 12.3765 116.913 12.7103 118.635 13.5469C120.462 14.4335 121.776 15.7082 123.014 17.7955C123.099 17.9395 123.151 17.8998 123.473 17.4325C125.16 14.9864 127.671 13.3685 130.816 12.7009C132.062 12.4359 134.801 12.4088 136.009 12.6487C138.217 13.09 139.956 13.9777 141.395 15.4005C142.926 16.9151 143.866 18.7395 144.444 21.3129L144.683 22.3821L144.713 32.9594L144.741 43.5346H140.809V34.0943C140.809 28.208 140.774 24.3098 140.716 23.7392C140.349 20.1133 138.453 17.493 135.49 16.5146C134.327 16.1354 133.095 16.0094 131.878 16.1453C128.055 16.5552 125.585 18.6018 124.722 22.0734C124.538 22.8098 124.534 23.0247 124.504 33.1795L124.472 43.5346H120.553V34.2748C120.553 28.74 120.517 24.5664 120.462 23.9009C120.097 19.4489 117.628 16.6272 113.683 16.1526C110.084 15.7186 106.348 17.7986 104.992 20.9927C104.425 22.3248 104.458 21.6342 104.425 33.0929L104.396 43.5357H100.475V28.2122L100.476 28.2111Z" fill="#18333B"/>
</g>
<defs>
<clipPath id="clip0_628_228">
<rect width="179" height="45" fill="white"/>
</clipPath>
</defs>
</svg>
