<svg width="209" height="34" viewBox="0 0 209 34" fill="none" xmlns="http://www.w3.org/2000/svg">
<path fill-rule="evenodd" clip-rule="evenodd" d="M113.819 14.4105H106.492C106.382 13.1418 105.958 12.156 105.216 11.4521C104.474 10.7493 103.503 10.3985 102.305 10.3985C100.93 10.3985 99.8623 11.005 99.0989 12.2178C98.3355 13.4307 97.9538 15.2037 97.9538 17.5391C97.9538 19.5807 98.2154 21.0992 98.7386 22.0957C99.4366 23.4096 100.679 24.0672 102.469 24.0672C103.669 24.0672 104.612 23.7212 105.298 23.0315C105.985 22.3395 106.406 21.3917 106.557 20.1908H113.984C113.636 23.3419 112.463 25.795 110.468 27.5525C108.47 29.3088 105.892 30.1887 102.73 30.1887C98.848 30.1887 95.7944 29.0317 93.5707 26.7189C91.3459 24.4085 90.2341 21.2562 90.2341 17.2668C90.2341 13.3903 91.3519 10.2796 93.5874 7.93351C95.8229 5.58741 98.6197 4.41496 101.979 4.41496C105.534 4.41496 108.32 5.28181 110.337 7.01671C112.353 8.74923 113.514 11.2142 113.819 14.4105ZM123.739 29.5406H116.19V5.05945H123.739V13.6626H130.872V5.05945H138.42V29.5406H130.872V20.3953H123.739V29.5406ZM151.885 4.41376C155.803 4.41376 158.871 5.72772 161.089 8.35801C163.091 10.7148 164.092 13.6507 164.092 17.1645C164.092 21.2015 162.919 24.4085 160.573 26.7867C158.334 29.0531 155.438 30.1887 151.884 30.1887C148.183 30.1887 145.244 29.0531 143.068 26.7867C140.829 24.4525 139.71 21.2217 139.71 17.0979C139.71 13.2666 140.829 10.1952 143.068 7.88237C145.307 5.56957 148.249 4.41376 151.885 4.41376ZM151.821 10.3985C150.252 10.3985 149.076 11.1358 148.303 12.6079C147.657 13.8314 147.335 15.3511 147.335 17.1645C147.335 19.0694 147.634 20.6319 148.238 21.8579C149.014 23.4203 150.229 24.204 151.887 24.204C153.308 24.204 154.428 23.5511 155.245 22.2479C156.064 20.9446 156.473 19.2502 156.473 17.1645C156.473 15.3059 156.117 13.7649 155.408 12.5401C154.566 11.112 153.372 10.3985 151.821 10.3985ZM173.004 29.5406H165.593V5.05945H184.115V10.7719H173.004V15.2263H181.481V20.9387H173.004V29.5406ZM185.418 18.8649V5.05945H193.442V19.7139C193.442 21.142 193.659 22.1968 194.088 22.8769C194.657 23.7592 195.698 24.2028 197.216 24.2028C198.6 24.2028 199.585 23.7937 200.175 22.9792C200.697 22.2527 200.957 21.1658 200.957 19.7139V5.05945H208.981V18.8994C208.981 22.7984 208.041 25.6535 206.16 27.4668C204.278 29.2802 201.296 30.1887 197.216 30.1887C193.273 30.1887 190.36 29.3599 188.479 27.7059C186.437 25.8925 185.418 22.9447 185.418 18.8649ZM55.2413 2.6218C47.3671 1.78229 39.2384 1.65267 30.118 4.34599C15.8024 8.57443 12.0508 16.1977 23.3853 21.7508C29.2381 24.619 36.4951 25.1184 42.4335 25.2813C42.5155 25.8021 42.16 26.3217 41.3669 26.8414C31.5413 29.3516 21.6159 28.9176 11.8915 25.034C-0.38243 20.136 -5.14715 13.5639 7.2944 6.97271C14.1293 3.3519 22.132 1.68835 31.1858 0.650271C39.5535 -0.308144 47.7714 -0.279613 55.8989 1.2246L55.2413 2.6218Z" fill="#18333B"/>
<path fill-rule="evenodd" clip-rule="evenodd" d="M54.5841 3.93455L54.1726 4.92032C44.0891 4.7693 38.4409 9.97043 45.8811 13.1299C50.2581 14.9884 54.0442 15.6638 56.7185 17.7281C61.0563 21.0766 60.878 24.6796 56.2262 28.4835C43.0522 35.523 27.6985 33.2934 11.8906 29.1411L12.0547 28.2374C24.8637 31.2862 37.7191 33.1079 48.3449 26.43C51.8028 24.2587 50.9264 20.2169 46.2925 18.5498L40.1341 16.3321C32.1279 13.4497 32.0744 9.01915 39.3137 5.5767C44.1925 3.25677 49.4186 3.04511 54.5841 3.93455ZM60.5771 2.04626C62.1598 2.04626 63.4512 3.33763 63.4512 4.92032C63.4512 6.50301 62.161 7.79437 60.5771 7.79437C58.9933 7.79437 57.7031 6.5042 57.7031 4.92032C57.7031 3.33644 58.9944 2.04626 60.5771 2.04626Z" fill="#18333B"/>
<path fill-rule="evenodd" clip-rule="evenodd" d="M61.645 3.03204C62.368 3.03204 62.959 3.62302 62.959 4.34599C62.959 5.06897 62.368 5.65877 61.645 5.65877C60.922 5.65877 60.3311 5.06897 60.3311 4.34599C60.3311 3.62302 60.9208 3.03204 61.645 3.03204Z" fill="#18333B"/>
<path fill-rule="evenodd" clip-rule="evenodd" d="M70.1018 3.60635C71.1028 3.60824 72.0623 4.00673 72.7701 4.71457C73.478 5.42241 73.8765 6.3819 73.8784 7.38293C73.8784 9.46267 72.1827 11.1595 70.1018 11.1595C68.0209 11.1595 66.3252 9.46267 66.3252 7.38293C66.3271 6.3819 66.7256 5.42241 67.4334 4.71457C68.1413 4.00673 69.1007 3.60824 70.1018 3.60635Z" fill="#18333B"/>
<path fill-rule="evenodd" clip-rule="evenodd" d="M71.5049 4.9025C72.4562 4.9025 73.2315 5.67779 73.2315 6.62907C73.2315 7.58035 72.4562 8.35564 71.5049 8.35564C70.5536 8.35564 69.7783 7.58035 69.7783 6.62907C69.7783 5.67779 70.5536 4.9025 71.5049 4.9025Z" fill="#18333B"/>
<path fill-rule="evenodd" clip-rule="evenodd" d="M82.4581 0.241211C83.7529 0.243412 84.9941 0.758764 85.9097 1.67437C86.8253 2.58997 87.3407 3.83118 87.3429 5.12604C87.3429 7.81697 85.1478 10.0109 82.4581 10.0109C79.7683 10.0109 77.5732 7.81697 77.5732 5.12604C77.5754 3.83118 78.0908 2.58997 79.0064 1.67437C79.922 0.758764 81.1632 0.243412 82.4581 0.241211Z" fill="#18333B"/>
<path fill-rule="evenodd" clip-rule="evenodd" d="M84.2722 1.91547C85.5017 1.91547 86.5053 2.91906 86.5053 4.14859C86.5044 4.74057 86.2688 5.30803 85.8502 5.72662C85.4316 6.14521 84.8642 6.38079 84.2722 6.38173C83.6802 6.38079 83.1128 6.14521 82.6942 5.72662C82.2756 5.30803 82.04 4.74057 82.0391 4.14859C82.0391 2.91906 83.0415 1.91547 84.2722 1.91547Z" fill="#18333B"/>
</svg>
