<svg width="139" height="45" viewBox="0 0 139 45" fill="none" xmlns="http://www.w3.org/2000/svg">
<g clip-path="url(#clip0_628_144)">
<path d="M17.1182 0.00372314H18.3542C22.6455 0.0962518 26.8668 1.80803 29.8987 4.83834C28.7792 5.97182 27.6364 7.05903 26.5403 8.19251C24.8378 6.66578 22.7854 5.48604 20.5465 5.06967C17.2348 4.3757 13.6665 5.00027 10.8911 6.87397C7.85927 8.84021 5.80692 12.1712 5.3638 15.7336C4.87403 19.2497 5.87688 22.9508 8.18578 25.6804C10.4014 28.3406 13.7831 30.0061 17.2814 30.1218C20.5465 30.3068 23.9515 29.3122 26.3304 27.0452C28.1962 25.4491 29.0591 23.0202 29.339 20.6607C25.4675 20.6607 21.596 20.6839 17.7245 20.6607V15.8955H34.0267C34.8663 21.0077 33.6536 26.7676 29.7354 30.4225C27.1234 33.0133 23.5084 34.54 19.8235 34.8408C16.2552 35.1877 12.5703 34.5169 9.39853 32.8051C5.59702 30.7926 2.56514 27.3922 1.07252 23.3903C-0.326808 19.7123 -0.35013 15.5485 0.95591 11.8474C2.14534 8.47009 4.43091 5.48604 7.3695 3.40415C10.1915 1.34539 13.6198 0.211913 17.1182 0.00372314Z" fill="#18333B"/>
<path d="M110.641 1.20685H115.632V34.2396C113.976 34.2396 112.296 34.2627 110.641 34.2164C110.664 23.2287 110.641 12.2178 110.641 1.20685Z" fill="#18333B"/>
<path d="M45.1286 12.6573C48.2071 12.079 51.5422 12.7267 54.0843 14.5541C56.3932 16.1733 58.0024 18.7179 58.4922 21.4937C59.1219 24.7091 58.3289 28.2252 56.2299 30.7697C53.9677 33.615 50.2595 35.1417 46.6445 34.9104C43.3328 34.7253 40.1143 33.0829 38.1553 30.3996C35.9397 27.4387 35.4032 23.3674 36.616 19.8976C37.8287 16.1733 41.2571 13.3281 45.1286 12.6573ZM45.8282 17.0524C44.5689 17.3762 43.4027 18.0933 42.5631 19.1111C40.3009 21.7945 40.4408 26.1664 42.9363 28.6647C44.359 30.0989 46.5046 30.7697 48.487 30.3765C50.3294 30.0526 51.9387 28.8266 52.8249 27.2074C54.3642 24.4547 53.921 20.661 51.5655 18.5097C50.0496 17.1218 47.834 16.5435 45.8282 17.0524Z" fill="#18333B"/>
<path d="M69.8498 12.6573C73.3714 11.9864 77.2196 12.958 79.855 15.41C84.1462 19.2268 84.6127 26.3747 80.9511 30.7698C78.7355 33.5456 75.1439 35.0723 71.5989 34.9104C68.2172 34.8179 64.8822 33.1524 62.8764 30.3996C60.6142 27.3693 60.1244 23.2055 61.4071 19.6663C62.6899 16.0577 66.0483 13.305 69.8498 12.6573ZM70.5494 17.0524C69.29 17.3762 68.1239 18.0933 67.2843 19.088C65.0454 21.7251 65.1387 26.0277 67.5409 28.5491C68.9635 30.0527 71.1791 30.7929 73.2315 30.3765C75.0506 30.0295 76.6832 28.8267 77.5694 27.2074C79.0853 24.4315 78.6422 20.6379 76.2634 18.4866C74.7474 17.0987 72.5318 16.5435 70.5494 17.0524Z" fill="#18333B"/>
<path d="M90.816 13.9989C93.4981 12.3334 97.0664 11.8708 99.9583 13.305C100.868 13.6982 101.614 14.369 102.337 15.0399C102.36 14.4153 102.337 13.7676 102.361 13.1199C103.923 13.143 105.486 13.1199 107.072 13.143V33.5456C107.048 36.6222 106.255 39.8838 104.016 42.1276C101.568 44.6028 97.8127 45.3661 94.431 44.8572C90.816 44.3252 87.6675 41.7113 86.2682 38.4034C87.6675 37.7325 89.1368 37.2005 90.5828 36.5759C91.3991 38.4728 93.055 40.092 95.1306 40.4621C97.2063 40.8322 99.6085 40.3233 100.961 38.6115C102.407 36.8535 102.407 34.4478 102.337 32.2965C101.264 33.3374 100.028 34.2627 98.5357 34.6097C95.2939 35.5118 91.7256 34.4015 89.2301 32.2271C86.7113 30.0527 85.2187 26.6985 85.3587 23.3675C85.4286 19.5969 87.5743 15.9652 90.816 13.9989ZM95.6437 16.9598C94.2211 17.1912 92.8917 17.9777 91.9821 19.0649C89.7899 21.6557 89.7899 25.7963 92.0055 28.3409C93.2649 29.8445 95.2939 30.6772 97.253 30.469C99.0954 30.284 100.798 29.1274 101.707 27.5312C103.247 24.8248 102.99 21.1468 100.915 18.7873C99.6318 17.33 97.5795 16.6129 95.6437 16.9598Z" fill="#18333B"/>
<path d="M121.625 15.1787C124.424 12.5879 128.738 11.7089 132.33 13.0737C135.735 14.3459 137.904 17.5613 139 20.8692C133.939 22.9511 128.901 25.0098 123.841 27.0917C124.54 28.4103 125.613 29.6131 127.059 30.0989C129.088 30.816 131.514 30.5616 133.216 29.2199C133.892 28.711 134.429 28.0402 134.942 27.3925C136.225 28.2483 137.507 29.0811 138.79 29.937C136.971 32.6435 133.916 34.5403 130.627 34.841C126.989 35.2805 123.118 33.8926 120.762 31.0705C116.891 26.6291 117.264 19.1805 121.625 15.1787ZM124.12 19.4581C123.328 20.5916 123.001 21.9795 123.024 23.3443C126.406 21.9564 129.788 20.5685 133.169 19.1574C132.61 17.862 131.257 17.0755 129.881 16.8673C127.665 16.4741 125.357 17.6538 124.12 19.4581Z" fill="#18333B"/>
</g>
<defs>
<clipPath id="clip0_628_144">
<rect width="139" height="45" fill="white"/>
</clipPath>
</defs>
</svg>
