<svg width="182" height="45" viewBox="0 0 182 45" fill="none" xmlns="http://www.w3.org/2000/svg">
<path d="M38.7575 1.06809C34.298 1.02798 30.0862 3.29315 30.0862 3.29315C30.0862 3.29315 25.843 5.87613 24.2931 9.74646C24.213 10.1224 15.8067 26.509 15.8067 26.509C5.15119 23.4121 -0.000449687 29.6873 0.161924 32.1093C2.73623 38.6002 15.3246 33.9828 16.5814 32.48C17.2772 32.1049 17.7255 32.5541 17.7255 32.5541C17.7255 32.5541 20.8084 34.617 21.1568 34.7794C21.5049 34.9418 23.2602 34.7053 23.2602 34.7053C24.6252 34.601 27.0608 31.9124 27.3559 31.8866C27.8111 31.888 28.3601 34.8652 30.234 34.8165C32.4824 35.2533 34.92 32.7026 34.92 32.7026C35.2409 32.2462 35.3628 32.5912 35.3628 32.5912C35.311 35.3888 37.5716 34.8953 38.2406 34.8165C40.4621 33.9078 45.9033 28.5197 45.2885 30.1066C45.0746 30.5365 43.4066 33.6666 43.4066 33.6666C43.2197 34.5006 43.8125 34.4455 43.8125 34.4455L47.7235 34.4085C48.3923 34.0066 51.8142 26.6001 51.4135 27.6218C52.6467 25.3785 55.4354 24.5808 55.4354 24.5808C55.7032 24.5006 55.5829 24.8773 55.5829 24.8773L51.0076 34.0005C50.9278 34.242 51.3764 34.4826 51.3764 34.4826L55.3614 34.4085C55.8969 34.3565 59.2358 27.4733 59.2358 27.4733C60.1445 25.7268 63.3686 24.7291 63.3686 24.7291C63.957 24.6228 63.553 25.2112 63.553 25.2112L60.4167 31.8125C59.94 34.8096 62.4455 34.9852 63.5161 34.8535C64.5867 34.6953 66.3276 34.0893 69.7518 31.5157C70.4481 30.9802 70.6005 31.519 70.6005 31.6272C70.63 35.3127 74.6593 34.8906 74.6593 34.8906C75.8639 35.1899 80.7535 35.074 84.8431 26.88C83.3479 32.4445 86.3964 33.9598 86.5037 34.149C86.6111 34.3371 88.2499 34.9125 88.865 34.7794C95.1024 35.3351 97.7207 25.5821 97.7207 25.5821C99.1243 24.5238 99.4807 24.2201 100.045 23.9131C101.438 24.0508 101.811 24.0904 102.481 24.1728C103.016 24.3628 102.531 24.8649 102.37 25.0256C96.0028 30.0123 98.7976 33.8577 99.0123 33.7781C101.798 37.579 107.582 30.9533 108.68 30.8482C110.075 36.4485 114.322 34.0104 114.51 34.0375C114.135 35.1396 113.046 37.8647 112.111 39.6375C110.159 42.4036 107.093 39.3039 107.093 39.3039L106.318 39.2669C105.944 39.7498 106.17 40.3053 106.17 40.3053C106.974 41.599 108.003 43.3892 111.189 43.8284C114.401 43.972 116.244 40.4165 116.244 40.4165C116.244 40.4165 120.747 32.0656 121.041 31.0706C122.405 29.8369 124.772 28.0556 126.538 26.7688C127.689 26.5301 123.659 33.1341 123.365 34.0746C123.285 34.6129 123.476 34.6312 123.476 34.6312C123.476 34.6312 126.54 34.7841 127.129 34.7053C127.717 34.6262 130.577 27.7978 131.593 26.5093C132.476 25.0319 135.32 23.6536 135.32 23.6536C135.936 23.5208 135.726 24.2469 135.726 24.2469L131.962 31.8869C131.055 35.0851 133.61 35.1017 134.066 35.0762C135.297 34.9982 139.895 32.3317 139.895 32.3317C140.537 31.849 140.523 32.6285 140.523 32.6285C140.47 33.6508 141.568 35.3257 142.478 35.113C145.744 35.4178 150.683 29.9653 150.817 30.4773C150.845 30.5852 148.972 34.2973 148.972 34.2973C149.053 34.5933 149.378 34.7424 149.378 34.7424C149.378 34.7424 152.54 34.7772 153.289 34.7794C154.039 34.7816 157.448 26.5937 158.197 26.1381C159.722 24.5553 161.39 24.4051 161.444 24.4323C162.006 24.4074 158.263 30.4173 158.05 31.6269C157.222 35.0956 159.673 35.0389 159.673 35.0389C161.627 35.3407 166.418 31.9242 166.499 32.2202C167.06 31.6573 167.126 32.3317 167.126 32.3317V32.5912C167.45 35.3904 169.082 35.0759 169.082 35.0759C170.956 35.5655 178.27 29.4018 178.27 29.4018L177.163 28.1781L172.587 31.5157C172.213 31.7035 171.997 31.2933 171.997 31.2933L177.126 21.3541C177.366 21.1129 177.015 20.8349 177.015 20.8349H172.403C172.082 21.1835 171.886 21.4283 171.886 21.4283L167.717 29.5874L163.142 31.8496C162.66 31.9823 162.773 31.4789 162.773 31.4789C162.773 31.4789 166.585 23.9601 166.905 22.9117C167.119 22.4282 167.016 21.6509 167.016 21.6509C165.756 18.7144 160.665 22.5159 159.968 22.5411C159.941 22.5679 160.596 21.2059 160.596 21.2059C160.783 20.8026 160.411 20.7979 160.411 20.7979L156.131 20.7608C156.131 20.7608 156.144 20.4552 155.983 20.7237C155.823 20.9923 153.069 26.1755 153.069 26.1755L146.168 31.4045C145.58 31.511 145.726 31.108 145.726 31.108L150.781 21.28L150.818 20.872L145.947 20.7608L141.925 28.5488C141.711 28.7905 137.497 31.1821 137.497 31.1821C136.855 31.3691 136.833 30.8112 136.833 30.8112L140.56 23.5424C141.404 20.7066 138.322 19.8729 136.796 20.4269C135.765 20.8004 134.804 21.1317 134.804 21.1317C134.804 21.1317 134.499 21.2114 134.767 20.8349C135.221 20.1904 139.933 10.8216 139.933 10.8216C140.04 10.5525 139.785 10.3766 139.785 10.3766L135.505 10.3395C135.157 10.4994 135.099 10.7475 135.099 10.7475L129.011 22.3555L123.992 26.1384C123.671 26.3528 123.66 25.9898 123.66 25.9898L126.169 21.2059V20.7235L121.668 20.6864L120.93 21.2797C120.42 20.2021 117.837 20.2148 117.756 20.2413C112.349 20.0643 109.307 27.7698 109.307 27.7698C106.298 30.3913 104.908 31.207 103.92 31.3672C103.097 31.4136 102.849 30.7365 102.849 30.7365C101.704 27.2091 108.901 23.8757 108.901 23.8757C109.142 23.7416 110.179 20.6125 110.045 20.6123C109.911 20.612 101.196 20.602 101.115 20.5752C100.633 20.3857 98.3055 22.5875 97.6101 23.0971C95.5716 17.0918 87.6734 21.6338 86.5775 24.3208C86.1069 24.4469 85.8958 24.359 85.655 24.3578C85.7343 22.3137 85.4643 21.0391 84.1791 20.3896C83.4828 20.0112 80.6371 20.3896 80.6371 20.3896L85.4706 10.7102C85.7111 10.4148 85.2491 10.1168 85.2491 10.1168H80.8953C80.7078 10.2242 80.4893 10.4875 80.4893 10.4875C80.4893 10.4875 72.2625 26.5027 71.7812 27.3621C71.3001 28.2215 65.2871 31.4416 65.2871 31.4416C65.3399 30.8502 69.2129 24.0815 69.3461 22.7635C69.5038 19.3473 65.6192 20.4269 65.6192 20.4269C65.6192 20.4269 63.4195 21.8946 61.413 22.9117C60.9817 19.1706 57.7229 20.464 57.7229 20.464L54.0332 22.8747L54.6973 21.1317L54.8451 20.464L50.417 20.3528C49.9092 20.7282 49.0151 22.7635 49.0151 22.7635L47.6129 25.3595L41.3034 30.1437C40.6881 30.4914 41.0081 29.6616 41.0081 29.6616C41.0081 29.6616 45.2681 21.2637 45.3619 21.2056C45.7098 20.9912 45.436 20.4643 45.436 20.4643L41.1557 20.4269C41.1557 20.4269 40.4308 21.6648 40.2703 21.7992C38.2338 18.9142 31.5134 20.085 27.9093 28.6232C27.4486 29.1938 27.0922 29.5933 26.8393 29.6986C22.6135 34.6638 20.1974 29.7357 20.1974 29.7357L27.7618 15.235C27.7618 15.235 31.2033 7.49596 33.3703 5.2958C38.8549 1.5718 40.4178 5.07341 40.4178 5.07341C40.8917 6.17708 42.3369 10.1614 34.8831 12.0827C33.9053 12.1798 34.2187 12.6387 34.2187 12.6387C36.3882 14.5014 39.0525 14.3078 39.0525 14.3078C41.6761 14.8261 48.7853 10.8941 46.2107 4.59128C44.2017 1.95242 41.4331 1.09216 38.7575 1.06809ZM151.334 10.8961C147.426 11.0463 147.197 16.3176 151.186 16.8667C155.067 16.9856 155.805 11.0703 151.334 10.8958V10.8961ZM177.937 10.8961C173.708 10.911 174.023 16.9093 178.011 16.8667C182 16.5555 181.659 11.0407 177.937 10.8958V10.8961ZM38.3147 22.1328C39.5655 22.1616 39.3467 23.668 39.1265 23.9501C39.2606 24.4076 36.9494 28.3261 36.9494 28.3261C34.2752 31.6817 33.0012 31.0704 33.0012 31.0704C33.0012 31.0704 32.0848 30.9426 32.7799 29.1421C33.5285 27.8797 34.9822 24.5946 36.5065 22.6888C37.3093 22.2741 37.8975 22.1231 38.3147 22.1328ZM80.2678 22.5035C81.5797 22.6689 80.9321 23.8757 80.9321 23.8757L77.3159 31.0333C76.1661 32.4564 75.1021 31.9605 75.1021 31.9605C74.5132 31.5279 75.508 29.8837 75.508 29.8837L78.9027 23.2083C79.571 22.5104 80.2678 22.5035 80.2678 22.5035ZM117.904 22.5408C118.928 22.3582 119.343 23.2083 119.343 23.2083C119.343 23.2083 119.403 23.3449 119.269 24.0984C118.976 25.2546 115.801 30.7738 115.801 30.7738C114.464 32.1154 113.292 31.8493 113.292 31.8493C112.623 31.659 112.886 30.6626 112.886 30.6626C112.886 30.6626 115.457 25.3636 116.686 23.1341C117.168 22.779 117.563 22.6014 117.904 22.5408ZM93.2929 22.5779C93.8584 22.4819 94.3954 22.7162 94.2891 23.9128C93.6215 25.3368 90.9866 30.568 90.4519 31.2927C90.3451 31.9118 87.6544 32.9203 88.3485 30.6626C88.3485 30.6626 92.1227 23.5679 92.1491 23.2453C92.1623 23.0838 92.7276 22.6736 93.2929 22.5779ZM8.31636 28.4008C10.5224 28.3477 12.5227 29.068 12.5227 29.068C12.5227 29.068 12.0066 30.7968 7.13544 31.5898C4.83359 31.4496 3.63093 31.4598 3.63011 30.6258C4.75323 28.946 6.60043 28.442 8.31636 28.4008Z" fill="#18333B"/>
</svg>
