<svg width="213" height="35" viewBox="0 0 213 35" fill="none" xmlns="http://www.w3.org/2000/svg">
<path fill-rule="evenodd" clip-rule="evenodd" d="M0 33.4016L7.41962 0H20.6651L21.2699 18.6593L30.1863 0H43.4633L36.0134 33.4016H26.3965L30.3766 15.4428L21.4299 33.4016H14.5193L14.169 15.4428L9.71144 33.4016H0ZM44.611 5.44412H53.5577L54.7673 0H45.7879L44.611 5.44412ZM47.3489 33.4343L38.3379 33.4016L43.8463 8.66066H52.8572L47.3489 33.4343ZM81.4837 8.66066H89.5396L88.8391 11.7172C89.9541 10.3477 91.2909 9.48843 92.9792 8.91518C94.3342 8.46381 95.7541 8.23782 97.1822 8.24618L95.1122 16.3021C94.6032 16.3021 88.3628 15.0913 86.42 24.6125L84.4142 33.4319H75.9111L81.4837 8.66066Z" fill="#18333B"/>
<path fill-rule="evenodd" clip-rule="evenodd" d="M76.772 24.2634C76.772 24.4537 73.9384 34.3882 61.4879 34.1349C44.8017 33.7846 49.1332 7.03784 68.0786 7.99286C78.8408 8.5334 78.3003 17.4813 78.2045 17.8643H68.9064C69.0336 17.514 69.3524 13.82 66.3903 13.8842C60.882 14.0442 56.9649 27.703 63.0465 27.8314C65.8486 27.9272 67.1551 24.6791 67.4096 24.2659H76.772V24.2634ZM156.663 34.2306C138.546 33.4658 143.99 6.78212 162.586 7.67412C180.067 8.5334 175.098 34.9626 156.663 34.2306ZM161.98 13.5C155.963 12.2905 151.472 26.7467 157.206 27.9248C163.573 29.2628 167.841 14.6793 161.98 13.5Z" fill="#18333B"/>
<path fill-rule="evenodd" clip-rule="evenodd" d="M190.607 4.99933C188.121 4.99933 187.646 5.95435 187.231 7.83289L187.07 8.66065H192.325L193.632 2.67479H201.845L200.571 8.66065H204.806L203.566 14.3605H199.329L197.005 25.2185C196.91 25.8232 196.687 26.3638 196.91 27.0328C197.26 28.0193 200.795 27.6072 200.795 27.6072L199.426 33.2756C199.426 33.2756 192.23 34.1033 189.808 32.4151C188.726 31.6831 187.548 30.1548 188.281 26.8752L191.05 14.3932L186.115 14.3617L181.945 33.4028H173.092L177.232 14.3617H172.677L173.951 8.66187H178.377C179.172 5.47805 179.872 3.31227 181.847 1.65674C184.554 -0.540548 191.592 0.318736 191.592 0.318736L190.607 4.99933ZM111.129 24.9324L127.94 24.9009C127.94 24.9009 126.507 28.6265 131.794 28.6592C135.455 28.6592 136.888 24.4876 131.953 23.6284C129.692 23.2139 120.936 21.7486 121.924 14.998C122.753 9.45813 128.514 7.51535 134.82 7.6111C147.717 7.76987 145.298 15.3495 145.455 15.8585H136.858C136.858 15.8585 137.781 12.6747 133.897 12.6747C130.363 12.6747 129.501 15.8585 133.577 16.7178C138.546 17.8013 144.246 18.0558 144.562 24.4561C144.656 26.2401 143.608 34.5809 130.615 34.3276C118.706 34.073 117.879 28.4689 118.197 25.8584C116.031 30.4117 110.617 34.456 103.39 34.2015C85.2729 33.6282 90.7812 6.78454 109.345 7.70927C117.784 8.12255 121 14.5229 119.98 20.8275C119.821 21.9425 119.726 22.1013 119.407 22.197L111.129 24.9324ZM108.676 13.4685C102.72 12.2905 98.2639 26.6825 103.963 27.8933C110.27 29.1997 114.504 14.6477 108.676 13.4685ZM209.775 8.62914C214.074 8.62914 214.074 15.0295 209.775 15.0295C205.476 15.0295 205.476 8.62914 209.775 8.62914ZM209.775 9.2024C206.177 9.2024 206.177 14.4247 209.775 14.4247C213.404 14.4247 213.404 9.2024 209.775 9.2024ZM210.348 12.1947L210.985 13.4685H210.22L209.711 12.1947H209.264L209.075 13.5642H208.404L208.946 10.1574H210.506C210.506 10.1574 211.365 10.3804 211.301 11.2082C211.208 12.1947 210.413 12.1947 210.348 12.1947ZM210.187 10.6034H209.553L209.392 11.7184H210.028C210.028 11.7184 210.665 11.8142 210.729 11.1767C210.729 10.6034 210.187 10.6034 210.187 10.6034Z" fill="#18333B"/>
</svg>
