<svg width="207" height="45" viewBox="0 0 207 45" fill="none" xmlns="http://www.w3.org/2000/svg">
<g clip-path="url(#clip0_628_151)">
<path d="M202.158 0.0821269C203.746 1.01076e-05 205.333 1.01076e-05 206.921 0.0410685C202.158 9.81297 197.563 19.667 192.925 29.4799H189.04C186.909 24.5529 184.403 19.7491 182.188 14.8221C183.734 14.781 185.28 14.781 186.826 14.8221C188.163 17.8604 189.75 20.7756 190.962 23.8139C194.68 15.8896 198.524 8.0064 202.158 0.0821269Z" fill="#18333B"/>
<path d="M82.5483 4.27008C85.5981 4.31114 88.6897 4.31114 91.7394 4.27008C91.6977 6.93888 91.6977 9.64873 91.7394 12.3175C88.6897 12.2765 85.5981 12.3175 82.5066 12.2765C82.5901 9.60767 82.5066 6.93888 82.5483 4.27008ZM36.3004 15.7664C42.5671 12.2765 51.6746 13.4672 55.8942 19.5027C58.4844 23.0748 59.2364 27.5912 59.1946 31.8613C52.0088 31.9024 44.8231 31.8613 37.6373 31.9024C37.9715 34.0785 38.9324 36.3777 40.9795 37.5274C43.9039 39.2108 48.4995 38.7181 49.9617 35.3923C52.9279 35.3102 55.8524 35.3102 58.8186 35.3923C57.8995 38.7181 55.4346 41.5511 52.343 43.1113C49.0008 44.9179 44.9902 45.2464 41.2719 44.6305C37.3448 44.0146 33.7102 41.8385 31.496 38.5949C29.0728 35.146 28.4462 30.7527 28.9893 26.688C29.5324 22.2126 32.248 17.9836 36.3004 15.7664ZM41.1884 20.8987C39.1413 21.8431 38.1386 24.0192 37.6791 26.1131H49.9617C49.711 24.5119 49.1262 22.8285 47.8728 21.7199C46.1182 20.0365 43.3191 19.9954 41.1884 20.8987ZM132.64 14.2062C137.57 13.344 143.042 14.3704 146.844 17.7372C153.32 23.4033 153.612 34.3659 147.596 40.4425C142.834 45.3285 134.854 46.2318 128.755 43.4808C124.034 41.3869 120.817 36.6652 120.274 31.656C120.065 28.7409 120.19 25.7436 121.402 23.0338C123.24 18.3942 127.71 15.0274 132.64 14.2062ZM133.684 20.8987C131.094 21.802 129.883 24.5529 129.507 27.0575C129.214 30.1779 129.256 33.709 131.303 36.2956C133.517 39.1287 138.405 39.0465 140.619 36.2546C142.458 33.9964 142.75 30.917 142.541 28.125C142.416 25.6615 141.539 23.0338 139.45 21.5146C137.779 20.406 135.564 20.2418 133.684 20.8987ZM165.435 15.8896C168.485 13.5493 172.83 13.3029 176.339 14.6989C178.846 15.7664 180.726 17.9425 181.603 20.4471C182.606 23.0338 182.314 25.8257 182.314 28.5356C182.314 33.7089 182.272 38.8823 182.355 44.0146C179.306 44.0557 176.256 44.0146 173.164 44.0557V26.3184C173.164 24.7993 172.579 23.1569 171.284 22.2126C169.321 20.8987 166.48 21.1451 164.809 22.7874C163.472 24.1013 162.887 25.99 162.929 27.7965V44.0557C159.921 44.0146 156.871 44.0557 153.863 44.0146C153.863 34.2427 153.905 24.4708 153.863 14.6989C156.829 14.74 159.754 14.6579 162.72 14.74C162.678 16.0949 162.678 17.4498 162.636 18.8048C163.555 17.8194 164.307 16.7108 165.435 15.8896ZM0.0791016 14.781H9.60442C11.5262 21.063 13.5733 27.3449 15.3698 33.6679C17.584 27.4681 19.2551 21.063 21.344 14.781C24.3937 14.74 27.4853 14.781 30.5351 14.74C27.0257 24.5119 23.6 34.2838 20.1324 44.0557C16.9573 44.0557 13.7822 44.0146 10.6071 44.0967C6.97243 34.3659 3.75554 24.4708 0.0791016 14.781ZM61.2835 14.74H70.0568C70.015 16.3823 70.0568 18.0246 69.9733 19.667C70.7253 18.8458 71.2684 17.8194 72.0621 17.0392C74.0257 14.9042 77.2426 14.042 80.0835 14.781C80.0417 17.3677 80.0417 19.9544 80.0835 22.5C77.8275 22.2537 75.3208 22.3358 73.399 23.6907C71.3519 25.0867 70.4328 27.6734 70.4746 30.0548C70.4328 34.7354 70.4746 39.375 70.4746 44.0557C67.4248 44.0557 64.3333 44.0146 61.2835 44.0967C61.3253 34.2838 61.3253 24.5119 61.2835 14.74ZM82.5483 14.781C85.6399 14.74 88.6897 14.781 91.7812 14.74C91.7394 24.5119 91.7812 34.2838 91.7812 44.0557C88.7315 44.0146 85.6399 44.0557 82.5483 44.0557V14.781ZM94.2461 14.74C102.56 14.781 110.874 14.74 119.146 14.781C119.062 17.0392 119.146 19.2564 119.104 21.5146C118.811 22.0894 118.31 22.5 117.934 22.9927C113.673 27.6323 109.495 32.3951 105.15 36.9936C110.038 37.0757 114.926 36.9936 119.814 37.0347V44.0967C111.291 44.0557 102.769 44.0557 94.2461 44.0967V37.281C98.7163 32.354 103.145 27.4681 107.657 22.5821C107.782 22.3358 108.325 22.0894 108.033 21.761C103.437 21.8841 98.8417 21.761 94.2461 21.8431V14.74Z" fill="#18333B"/>
</g>
<defs>
<clipPath id="clip0_628_151">
<rect width="207" height="45" fill="white"/>
</clipPath>
</defs>
</svg>
