<svg width="31" height="31" viewBox="0 0 31 31" fill="none" xmlns="http://www.w3.org/2000/svg">
<path d="M0 17.9653C0.0552585 16.5667 0.672311 15.543 1.91563 14.9854C3.17736 14.4186 4.37463 14.638 5.41533 15.5521C6.99941 16.9506 8.55585 18.3766 10.1215 19.7934C10.4162 20.0585 10.7109 20.3327 11.0149 20.5978C11.4661 21 11.8622 20.9817 12.2674 20.5247C15.6658 16.7221 19.055 12.9104 22.4534 9.09872C24.7466 6.52103 27.049 3.95247 29.3422 1.37477C29.6277 1.05485 29.9593 0.899453 30.3829 1.03656C30.7421 1.15539 31.0184 1.47532 31 1.85923C30.9908 2.06033 30.9079 2.27971 30.7974 2.45338C28.191 6.63071 25.5847 10.7989 22.9783 14.9671C19.9759 19.766 16.9736 24.5649 13.9712 29.3729C13.4462 30.2139 12.7371 30.7806 11.7332 30.936C10.6004 31.1188 9.66102 30.7532 8.94266 29.8848C6.36393 26.7678 3.80362 23.6417 1.23411 20.5155C0.745989 19.9488 0.230244 19.3821 0.0920974 18.6051C0.0460487 18.3766 0.0276292 18.1572 0 17.9653Z" fill="#FE5B2C"/>
</svg>
