<svg width="30" height="30" viewBox="0 0 30 30" fill="none" xmlns="http://www.w3.org/2000/svg">
<path d="M14.0625 0C14.6895 0 15.3105 0 15.9375 0C16.0137 0.0175781 16.0898 0.0351562 16.166 0.046875C16.9336 0.164062 17.7188 0.240234 18.4746 0.410156C24.252 1.72852 28.7988 6.56836 29.7773 12.4102C29.8711 12.9551 29.9297 13.5117 30.0059 14.0566C30.0059 14.6836 30.0059 15.3047 30.0059 15.9316C29.9883 16.0078 29.9707 16.084 29.959 16.1602C29.8594 16.8516 29.7949 17.5547 29.6484 18.2402C28.4473 24.0527 23.4727 28.8164 17.6191 29.7656C17.0625 29.8535 16.5 29.918 15.9434 29.9941C15.3164 29.9941 14.6953 29.9941 14.0684 29.9941C14.0039 29.9766 13.9395 29.959 13.875 29.9473C13.1895 29.8477 12.498 29.7832 11.8242 29.6484C6 28.4883 1.17773 23.4844 0.234375 17.6426C0.140625 17.0742 0.0761719 16.5059 0 15.9375C0 15.3105 0 14.6895 0 14.0625C0.09375 13.4004 0.169922 12.7324 0.292969 12.0703C1.40625 6.09961 6.39258 1.21875 12.3867 0.228516C12.9434 0.140625 13.5059 0.0761719 14.0625 0ZM26.8945 9.14648C25.3184 10.0547 23.7832 10.9395 22.2539 11.8242C23.2324 14.291 23.1504 16.6758 21.832 18.9492C20.5078 21.2285 18.4746 22.4941 15.8906 22.8691C15.8906 24.6562 15.8906 26.4199 15.8906 28.2305C20.748 27.7031 24.4395 25.4121 26.7129 21.0996C28.7871 17.1973 28.7285 13.1836 26.8945 9.14648ZM14.1035 1.76953C9.46875 2.24414 5.87695 4.38281 3.55078 8.39648C1.21875 12.4219 1.19531 16.5996 3.09961 20.8535C4.67578 19.9453 6.20508 19.0605 7.74024 18.1758C6.76172 15.7207 6.83789 13.3359 8.15625 11.0566C9.47461 8.77734 11.5078 7.50586 14.1035 7.125C14.1035 5.34961 14.1035 3.58594 14.1035 1.76953ZM21.1523 14.9941C21.1523 11.6074 18.3926 8.84766 15.0059 8.84766C11.6191 8.84766 8.85352 11.6016 8.84766 14.9883C8.8418 18.3867 11.6133 21.1582 15.0117 21.1523C18.3984 21.1465 21.1523 18.3809 21.1523 14.9941ZM21.3691 10.3066C22.9043 9.42188 24.4395 8.53711 25.9688 7.65234C24.5391 4.74023 19.1191 1.61133 15.8965 1.82227C15.8965 3.5918 15.8965 5.36133 15.8965 7.13672C18.1582 7.43555 19.9688 8.49609 21.3691 10.3066ZM4.02539 22.3535C5.53711 25.3066 11.0039 28.459 14.0977 28.1777C14.0977 26.4082 14.0977 24.6387 14.0977 22.8691C11.8301 22.5645 10.0195 21.5039 8.625 19.6992C7.0957 20.5781 5.56641 21.4629 4.02539 22.3535Z" fill="white"/>
<path d="M14.9884 17.6367C13.5352 17.6309 12.3516 16.4297 12.3634 14.9766C12.3751 13.5352 13.5645 12.3633 15.0118 12.3692C16.4649 12.375 17.6485 13.5703 17.6368 15.0293C17.6251 16.4649 16.4356 17.6426 14.9884 17.6367ZM14.9884 14.1211C14.5138 14.127 14.1212 14.5313 14.127 15.0059C14.1329 15.4805 14.5313 15.8789 15.0059 15.8789C15.4923 15.8789 15.8966 15.4629 15.8849 14.9766C15.8673 14.502 15.4571 14.1153 14.9884 14.1211Z" fill="white"/>
</svg>
