<svg width="33" height="32" viewBox="0 0 33 32" fill="none" xmlns="http://www.w3.org/2000/svg">
<path d="M31.9888 16.9145C31.9641 15.6666 31.3963 14.7286 30.3018 14.1168C30.1372 14.0271 30.0878 13.9211 30.0714 13.7416C30.0137 13.1299 29.9561 12.5181 29.8409 11.9227L31.9888 16.9145ZM31.9888 16.9145C32.0053 18.0728 32.0053 19.2392 31.9888 20.3974V16.9145ZM29.9391 11.9037C30.0552 12.5039 30.1132 13.1197 30.1707 13.7298L30.1709 13.7322L30.1709 13.7325C30.1786 13.816 30.1931 13.8707 30.2175 13.9126C30.2409 13.9529 30.2787 13.9903 30.3496 14.029L30.3506 14.0295C31.4757 14.6584 32.0634 15.6287 32.0888 16.9125L32.0888 16.9131C32.1053 18.0723 32.1053 19.2396 32.0888 20.3988C32.0718 21.6901 31.4932 22.6775 30.3506 23.3068C30.2751 23.3497 30.2388 23.3883 30.2187 23.4269C30.1977 23.4671 30.1878 23.5195 30.1878 23.6029V23.6041C30.1857 23.7895 30.1869 23.9765 30.1881 24.1643C30.1916 24.702 30.1951 25.246 30.121 25.7782L30.1209 25.7793C29.7924 27.9667 27.9145 29.5583 25.6791 29.6083M29.9391 11.9037L25.6769 29.5083M29.9391 11.9037C28.4633 4.26924 20.7782 -0.586117 13.1934 1.3118C7.37493 2.76587 3.1799 7.7936 2.83939 13.7264C2.8319 13.814 2.81422 13.869 2.78661 13.9111C2.75866 13.9537 2.71411 13.993 2.63502 14.0378C1.55279 14.6413 0.955692 15.5778 0.921749 16.8057L0.921747 16.8058C0.888772 18.0396 0.897027 19.2811 0.921731 20.5136L0.921734 20.5137C0.955714 22.1051 2.11159 23.4001 3.68767 23.6689C5.10352 23.9139 6.34643 23.0154 6.36381 21.6466L6.36381 21.6466C6.38851 19.6553 6.38027 17.6725 6.36382 15.6821L6.3638 15.6811C6.34646 14.7187 5.66197 13.9328 4.7181 13.7021C4.6771 13.69 4.63428 13.6778 4.59218 13.6659L4.5917 13.6658C4.5746 13.6609 4.55761 13.6561 4.54084 13.6513C4.85939 7.8848 9.83869 2.56948 16.5502 2.59364L16.5503 2.59364C23.2082 2.60976 28.1885 7.90645 28.4705 13.6672C28.4673 13.6685 28.4644 13.6696 28.4619 13.6705C27.8228 13.8488 27.362 14.106 27.0632 14.4976C26.7639 14.8899 26.6385 15.4022 26.6385 16.0662V16.0766V16.087V16.0974V16.1077V16.1181V16.1285V16.1388V16.1492V16.1596V16.17V16.1803V16.1907V16.2011V16.2114V16.2218V16.2322V16.2426V16.2529V16.2633V16.2737V16.2841V16.2944V16.3048V16.3152V16.3256V16.3359V16.3463V16.3567V16.3671V16.3774V16.3878V16.3982V16.4086V16.419V16.4293V16.4397V16.4501V16.4605V16.4708V16.4812V16.4916V16.502V16.5124V16.5227V16.5331V16.5435V16.5539V16.5642V16.5746V16.585V16.5954V16.6058V16.6161V16.6265V16.6369V16.6473V16.6577V16.668V16.6784V16.6888V16.6992V16.7096V16.72V16.7303V16.7407V16.7511V16.7615V16.7719V16.7822V16.7926V16.803V16.8134V16.8238V16.8342V16.8445V16.8549V16.8653V16.8757V16.8861V16.8965V16.9068V16.9172V16.9276V16.938V16.9484V16.9588V16.9691V16.9795V16.9899V17.0003V17.0107V17.0211V17.0315V17.0418V17.0522V17.0626V17.073V17.0834V17.0938V17.1041V17.1145V17.1249V17.1353V17.1457V17.1561V17.1665V17.1769V17.1872V17.1976V17.208V17.2184V17.2288V17.2392V17.2496V17.26V17.2703V17.2807V17.2911V17.3015V17.3119V17.3223V17.3327V17.3431V17.3534V17.3638V17.3742V17.3846V17.395V17.4054V17.4158V17.4262V17.4366V17.4469V17.4573V17.4677V17.4781V17.4885V17.4989V17.5093V17.5197V17.5301V17.5405V17.5508V17.5612V17.5716V17.582V17.5924V17.6028V17.6132V17.6236V17.634V17.6444V17.6548V17.6651V17.6755V17.6859V17.6963V17.7067V17.7171V17.7275V17.7379V17.7483V17.7587V17.7691V17.7794V17.7898V17.8002V17.8106V17.821V17.8314V17.8418V17.8522V17.8626V17.873V17.8834V17.8938V17.9042V17.9145V17.9249V17.9353V17.9457V17.9561V17.9665V17.9769V17.9873V17.9977V18.0081V18.0185V18.0289V18.0393V18.0497V18.0601V18.0704V18.0808V18.0912V18.1016V18.112V18.1224V18.1328V18.1432V18.1536V18.164V18.1744V18.1848V18.1952V18.2056V18.216V18.2264V18.2367V18.2471V18.2575V18.2679V18.2783V18.2887V18.2991V18.3095V18.3199V18.3303V18.3407V18.3511V18.3615V18.3719V18.3823V18.3927V18.4031V18.4134V18.4238V18.4342V18.4446V18.455V18.4654V18.4758V18.4862V18.4966V18.507V18.5174V18.5278V18.5382V18.5486V18.559V18.5694V18.5798V18.5902V18.6006V18.6109V18.6213V18.6317V18.6421V18.6525V18.6629V18.6733V18.6837V18.6941V18.7045V18.7149V18.7253V18.7357V18.7461V18.7565V18.7669V18.7773V18.7877V18.7981V18.8085V18.8188V18.8292V18.8396V18.85V18.8604V18.8708V18.8812V18.8916V18.902V18.9124V18.9228V18.9332V18.9436V18.954V18.9644V18.9748V18.9852V18.9956V19.006V19.0163V19.0267V19.0371V19.0475V19.0579V19.0683V19.0787V19.0891V19.0995V19.1099V19.1203V19.1307V19.1411V19.1515V19.1619V19.1723V19.1827V19.1931V19.2034V19.2138V19.2242V19.2346V19.245V19.2554V19.2658V19.2762V19.2866V19.297V19.3074V19.3178V19.3282V19.3386V19.349V19.3594V19.3697V19.3801V19.3905V19.4009V19.4113V19.4217V19.4321V19.4425V19.4529V19.4633V19.4737V19.4841V19.4945V19.5049V19.5153V19.5256V19.536V19.5464V19.5568V19.5672V19.5776V19.588V19.5984V19.6088V19.6192V19.6296V19.64V19.6504V19.6607V19.6711V19.6815V19.6919V19.7023V19.7127V19.7231V19.7335V19.7439V19.7543V19.7647V19.7751V19.7854V19.7958V19.8062V19.8166V19.827V19.8374V19.8478V19.8582V19.8686V19.879V19.8893V19.8997V19.9101V19.9205V19.9309V19.9413V19.9517V19.9621V19.9725V19.9829V19.9932V20.0036V20.014V20.0244V20.0348V20.0452V20.0556V20.066V20.0764V20.0868V20.0971V20.1075V20.1179V20.1283V20.1387V20.1491V20.1595V20.1699V20.1802V20.1906V20.201V20.2114V20.2218V20.2322V20.2426V20.253V20.2633V20.2737V20.2841V20.2945V20.3049V20.3153V20.3257V20.336V20.3464V20.3568V20.3672V20.3776V20.388V20.3984V20.4087V20.4191V20.4295V20.4399V20.4503V20.4607V20.4711V20.4814V20.4918V20.5022V20.5126V20.523V20.5334V20.5437V20.5541V20.5645V20.5749V20.5853V20.5957V20.606V20.6164V20.6268V20.6372V20.6476V20.658V20.6683V20.6787V20.6891V20.6995V20.7099V20.7203V20.7306V20.741V20.7514V20.7618V20.7722V20.7825V20.7929V20.8033V20.8137V20.8241V20.8344V20.8448V20.8552V20.8656V20.876V20.8863V20.8967V20.9071V20.9175V20.9279V20.9382V20.9486V20.959V20.9694V20.9797V20.9901V21.0005V21.0109V21.0213V21.0316V21.042V21.0524V21.0628V21.0731V21.0835V21.0939V21.1043V21.1146V21.125V21.1354V21.1458V21.1561V21.1665V21.1769V21.1873V21.1976V21.208V21.2184V21.2288V21.2391V21.2495V21.2599V21.2703V21.2806V21.291V21.3014V21.3117V21.3221V21.3325V21.3429V21.3532V21.3636V21.374V21.3843V21.3902C26.6385 21.5983 26.6385 21.8285 26.6906 22.0441L26.6908 22.0448C26.8105 22.5235 27.0366 22.8973 27.3608 23.1734C27.6659 23.4332 28.0525 23.6018 28.5066 23.6938C28.5071 23.8511 28.5087 24.0063 28.5102 24.1602C28.5139 24.5159 28.5174 24.8645 28.5066 25.2148L28.5066 25.215C28.4669 26.5534 27.4007 27.7501 26.0619 27.8917C25.4086 27.9545 24.7515 27.949 24.0873 27.9434C23.8971 27.9418 23.7063 27.9401 23.5149 27.9401L29.9391 11.9037ZM25.6791 29.6083L25.6769 29.5083M25.6791 29.6083C25.6791 29.6083 25.6792 29.6083 25.6792 29.6083L25.6769 29.5083M25.6791 29.6083C24.9888 29.6246 24.307 29.6165 23.6191 29.6084L23.6113 29.6083M25.6769 29.5083C24.9883 29.5246 24.3078 29.5165 23.6193 29.5084L23.6113 29.5083M23.6113 29.6083V29.5083M23.6113 29.6083C23.5358 29.6083 23.4948 29.6181 23.4657 29.6348C23.4374 29.6511 23.4075 29.6815 23.3709 29.7502M23.6113 29.6083L23.6101 29.6083L23.6113 29.5083M23.6113 29.5083L23.3709 29.7502M23.3709 29.7502C23.1501 30.1833 22.859 30.5181 22.4958 30.7452C22.1323 30.9725 21.7022 31.0886 21.2094 31.0928C20.4681 31.101 19.7267 31.101 18.9853 31.0928L18.9851 31.0928C17.6749 31.0758 16.6664 30.1139 16.6234 28.8348C16.5803 27.5799 17.5373 26.5401 18.833 26.4721L18.8334 26.4721C19.6765 26.4311 20.5272 26.4393 21.3684 26.472C21.3684 26.472 21.3685 26.472 21.3686 26.472L21.3647 26.5719L23.3709 29.7502ZM30.4075 16.8764L30.4075 16.8765C30.4185 17.2768 30.4148 17.672 30.4112 18.0706C30.4094 18.2713 30.4075 18.4729 30.4075 18.6764C30.4075 18.913 30.4101 19.1493 30.4128 19.3857C30.4167 19.7403 30.4207 20.0953 30.4158 20.4525C30.3921 21.3243 29.7155 22.0201 28.8918 22.0429L28.8907 22.043C28.6927 22.0505 28.5529 22.0046 28.4633 21.9246C28.375 21.8457 28.3197 21.7194 28.3197 21.5312L28.3197 21.5307C28.3115 19.6224 28.3115 17.7222 28.3197 15.8138V15.8134C28.3197 15.629 28.3732 15.5065 28.4578 15.4296C28.5437 15.3516 28.6777 15.306 28.8679 15.3098L28.8689 15.3098C29.6926 15.3174 30.3842 16.0136 30.4075 16.8764ZM30.5112 18.074C30.5148 17.6743 30.5185 17.2758 30.5075 16.8737L30.5157 20.4545C30.5207 20.0965 30.5167 19.7384 30.5127 19.3821C30.5101 19.1459 30.5075 18.9105 30.5075 18.6764C30.5075 18.4749 30.5093 18.2743 30.5112 18.074ZM2.61122 16.8588L2.61122 16.8584C2.61895 16.023 3.30039 15.3405 4.10303 15.3097C4.31926 15.3021 4.45919 15.3488 4.54747 15.4316C4.63565 15.5143 4.69102 15.6506 4.69899 15.8642V15.8642V15.8643V15.8644V15.8645V15.8646V15.8647V15.8648V15.8649V15.865V15.8651V15.8652V15.8653V15.8654V15.8655V15.8656V15.8657V15.8658V15.8659V15.866V15.8661V15.8662V15.8663V15.8664V15.8665V15.8666V15.8667V15.8668V15.8669V15.867V15.8671V15.8672V15.8673V15.8674V15.8675V15.8676V15.8677V15.8678V15.8679V15.8681V15.8682V15.8683V15.8684V15.8685V15.8686V15.8687V15.8688V15.8689V15.869V15.8691V15.8692V15.8693V15.8694V15.8695V15.8696V15.8698V15.8699V15.87V15.8701V15.8702V15.8703V15.8704V15.8705V15.8706V15.8707V15.8708V15.8709V15.871V15.8712V15.8713V15.8714V15.8715V15.8716V15.8717V15.8718V15.8719V15.872V15.8721V15.8723V15.8724V15.8725V15.8726V15.8727V15.8728V15.8729V15.873V15.8731V15.8732V15.8734V15.8735V15.8736V15.8737V15.8738V15.8739V15.874V15.8741V15.8743V15.8744V15.8745V15.8746V15.8747V15.8748V15.8749V15.875V15.8752V15.8753V15.8754V15.8755V15.8756V15.8757V15.8758V15.8759V15.8761V15.8762V15.8763V15.8764V15.8765V15.8766V15.8767V15.8769V15.877V15.8771V15.8772V15.8773V15.8774V15.8775V15.8777V15.8778V15.8779V15.878V15.8781V15.8782V15.8784V15.8785V15.8786V15.8787V15.8788V15.8789V15.879V15.8792V15.8793V15.8794V15.8795V15.8796V15.8797V15.8799V15.88V15.8801V15.8802V15.8803V15.8804V15.8806V15.8807V15.8808V15.8809V15.881V15.8811V15.8813V15.8814V15.8815V15.8816V15.8817V15.8818V15.882V15.8821V15.8822V15.8823V15.8824V15.8825V15.8827V15.8828V15.8829V15.883V15.8831V15.8833V15.8834V15.8835V15.8836V15.8837V15.8838V15.884V15.8841V15.8842V15.8843V15.8844V15.8846V15.8847V15.8848V15.8849V15.885V15.8851V15.8853V15.8854V15.8855V15.8856V15.8857V15.8859V15.886V15.8861V15.8862V15.8863V15.8865V15.8866V15.8867V15.8868V15.8869V15.8871V15.8872V15.8873V15.8874V15.8875V15.8876V15.8878V15.8879V15.888V15.8881V15.8882V15.8884V15.8885V15.8886V15.8887V15.8888V15.889V15.8891V15.8892V15.8893V15.8894V15.8896V15.8897V15.8898V15.8899V15.89V15.8902V15.8903V15.8904V15.8905V15.8906V15.8908V15.8909V15.891V15.8911V15.8912V15.8913V15.8915V15.8916V15.8917V15.8918V15.8919V15.8921V15.8922V15.8923V15.8924V15.8925V15.8927V15.8928V15.8929V15.893V15.8931V15.8933V15.8934V15.8935V15.8936V15.8937V15.8939V15.894V15.8941V15.8942V15.8943V15.8945V15.8946V15.8947V15.8948V15.8949V15.895V15.8952V15.8953V15.8954V15.8955V15.8956V15.8958V15.8959V15.896V15.8961V15.8962V15.8964V15.8965V15.8966V15.8967V15.8968V15.8969V15.8971V15.8972V15.8973V15.8974V15.8975V15.8977V15.8978V15.8979V15.898V15.8981V15.8982V15.8984V15.8985V15.8986V15.8987V15.8988V15.899V15.8991V15.8992V15.8993V15.8994V15.8995V15.8997V15.8998V15.8999V15.9V15.9001V15.9002V15.9004V15.9005V15.9006V15.9007V15.9008V15.901V15.9011V15.9012V15.9013V15.9014V15.9015V15.9017V15.9018V15.9019V15.902V15.9021V15.9022V15.9023V15.9025V15.9026V15.9027V15.9028V15.9029V15.903V15.9032V15.9033V15.9034V15.9035V15.9036V15.9037V15.9039V15.904V15.9041V15.9042V15.9043V15.9044V15.9045V15.9047V15.9048V15.9049V15.905V15.9051V15.9052V15.9053V15.9055V15.9056V15.9057V15.9058V15.9059V15.906V15.9061V15.9062V15.9064V15.9065V15.9066V15.9067V15.9068V15.9069V15.907V15.9072V15.9073V15.9074V15.9075V15.9076V15.9077V15.9078V15.9079V15.908V15.9082V15.9083V15.9084V15.9085V15.9086V15.9087V15.9088V15.9089V15.909V15.9092V15.9093V15.9094V15.9095V15.9096V15.9097V15.9098V15.9099V15.91V15.9101V15.9103V15.9104V15.9105V15.9106V15.9107V15.9108V15.9109V15.911V15.9111V15.9112V15.9113V15.9115V15.9116V15.9117V15.9118V15.9119V15.912V15.9121V15.9122V15.9123V15.9124V15.9125V15.9126V15.9127V15.9128V15.913V15.9131V15.9132V15.9133V15.9134V15.9135V15.9136V15.9137V15.9138V15.9139V15.914V15.9141V15.9142V15.9143V15.9144V15.9145V15.9146V15.9147V15.9148V15.9149V15.915V15.9151V15.9152V15.9154V15.9155V15.9156V15.9157V15.9158V15.9159V15.916V15.9161V15.9162V15.9163V15.9164V15.9165V15.9166V15.9167V15.9168V15.9169V15.917V15.9171V15.9172V15.9173V15.9174V15.9175V15.9176V15.9177V15.9178V15.9179V15.918V15.9181V15.9182V15.9183V15.9184V15.9185V15.9186V15.9186V15.9187V15.9188V15.9189V15.919V15.9191V15.9192V15.9193V15.9194V15.9249V15.9303V15.9358V15.9412V15.9467V15.9521V15.9576V15.963V15.9684V15.9739V15.9793V15.9848V15.9902V15.9957V16.0011V16.0066V16.012V16.0175V16.0229V16.0283V16.0338V16.0392V16.0447V16.0501V16.0556V16.061V16.0665V16.0719V16.0773V16.0828V16.0882V16.0937V16.0991V16.1046V16.11V16.1154V16.1209V16.1263V16.1318V16.1372V16.1427V16.1481V16.1535V16.159V16.1644V16.1699V16.1753V16.1807V16.1862V16.1916V16.1971V16.2025V16.2079V16.2134V16.2188V16.2243V16.2297V16.2351V16.2406V16.246V16.2514V16.2569V16.2623V16.2678V16.2732V16.2786V16.2841V16.2895V16.295V16.3004V16.3058V16.3113V16.3167V16.3221V16.3276V16.333V16.3384V16.3439V16.3493V16.3548V16.3602V16.3656V16.3711V16.3765V16.3819V16.3874V16.3928V16.3982V16.4037V16.4091V16.4145V16.42V16.4254V16.4308V16.4363V16.4417V16.4471V16.4526V16.458V16.4634V16.4689V16.4743V16.4797V16.4852V16.4906V16.496V16.5015V16.5069V16.5123V16.5178V16.5232V16.5286V16.5341V16.5395V16.5449V16.5504V16.5558V16.5612V16.5667V16.5721V16.5775V16.5829V16.5884V16.5938V16.5992V16.6047V16.6101V16.6155V16.621V16.6264V16.6318V16.6373V16.6427V16.6481V16.6535V16.659V16.6644V16.6698V16.6753V16.6807V16.6861V16.6916V16.697V16.7024V16.7078V16.7133V16.7187V16.7241V16.7296V16.735V16.7404V16.7458V16.7513V16.7567V16.7621V16.7676V16.773V16.7784V16.7838V16.7893V16.7947V16.8001V16.8055V16.811V16.8164V16.8218V16.8273V16.8327V16.8381V16.8435V16.849V16.8544V16.8598V16.8652V16.8707V16.8761V16.8815V16.887V16.8924V16.8978V16.9032V16.9087V16.9141V16.9195V16.9249V16.9304V16.9358V16.9412V16.9466V16.9521V16.9575V16.9629V16.9683V16.9738V16.9792V16.9846V16.9901V16.9955V17.0009V17.0063V17.0118V17.0172V17.0226V17.028V17.0335V17.0389V17.0443V17.0497V17.0552V17.0606V17.066V17.0714V17.0769V17.0823V17.0877V17.0931V17.0986V17.104V17.1094V17.1148V17.1203V17.1257V17.1311V17.1365V17.142V17.1474V17.1528V17.1582V17.1637V17.1691V17.1745V17.1799V17.1854V17.1908V17.1962V17.2016V17.2071V17.2125V17.2179V17.2233V17.2288V17.2342V17.2396V17.245V17.2505V17.2559V17.2613V17.2667V17.2722V17.2776V17.283V17.2884V17.2938V17.2993V17.3047V17.3101V17.3155V17.321V17.3264V17.3318V17.3372V17.3427V17.3481V17.3535V17.3589V17.3644V17.3698V17.3752V17.3806V17.3861V17.3915V17.3969V17.4023V17.4078V17.4132V17.4186V17.424V17.4295V17.4349V17.4403V17.4457V17.4512V17.4566V17.462V17.4674V17.4729V17.4783V17.4837V17.4891V17.4946V17.5V17.5054V17.5108V17.5163V17.5217V17.5271V17.5325V17.538V17.5434V17.5488V17.5542V17.5597V17.5651V17.5705V17.5759V17.5814V17.5868V17.5922V17.5976V17.6031V17.6085V17.6139V17.6193V17.6248V17.6302V17.6356V17.641V17.6465V17.6519V17.6573V17.6627V17.6682V17.6736V17.679V17.6844V17.6899V17.6953V17.7007V17.7062V17.7116V17.717V17.7224V17.7279V17.7333V17.7387V17.7441V17.7496V17.755V17.7604V17.7658V17.7713V17.7767V17.7821V17.7876V17.793V17.7984V17.8038V17.8093V17.8147V17.8201V17.8255V17.831V17.8364V17.8418V17.8473V17.8527V17.8581V17.8635V17.869V17.8744V17.8798V17.8853V17.8907V17.8961V17.9015V17.907V17.9124V17.9178V17.9233V17.9287V17.9341V17.9395V17.945V17.9504V17.9558V17.9613V17.9667V17.9721V17.9776V17.983V17.9884V17.9938V17.9993V18.0047V18.0101V18.0156V18.021V18.0264V18.0319V18.0373V18.0427V18.0482V18.0536V18.059V18.0644V18.0699V18.0753V18.0807V18.0862V18.0916V18.097V18.1025V18.1079V18.1133V18.1188V18.1242V18.1296V18.1351V18.1405V18.1459V18.1514V18.1568V18.1622V18.1677V18.1731V18.1785V18.184V18.1894V18.1948V18.2003V18.2057V18.2111V18.2166V18.222V18.2274V18.2329V18.2383V18.2437V18.2492V18.2546V18.2601V18.2655V18.2709V18.2764V18.2818V18.2872V18.2927V18.2981V18.3035V18.309V18.3144V18.3199V18.3253V18.3307V18.3362V18.3416V18.347V18.3525V18.3579V18.3634V18.3688V18.3742V18.3797V18.3851V18.3905V18.396V18.4014V18.4069V18.4123V18.4177V18.4232V18.4286V18.4341V18.4395V18.4449V18.4504V18.4558V18.4613V18.4667V18.4721V18.4776V18.483V18.4885V18.4939V18.4994V18.5048V18.5102V18.5157V18.5211V18.5266V18.532V18.5375V18.5429V18.5483V18.5538V18.5592V18.5647V18.5701V18.5756V18.581V18.5864V18.5919V18.5973V18.6028V18.6082V18.6137V18.6191V18.6246V18.63V18.6355V18.6409V18.6463V18.6518V18.6572V18.6627V18.6681V18.6736V18.679V18.6845V18.6899V18.6954V18.7008V18.701C4.69899 19.6058 4.69899 20.5112 4.70721 21.4248C4.70308 21.692 4.64515 21.8459 4.54918 21.9318C4.45291 22.018 4.29271 22.0588 4.02617 22.0352C3.26301 21.9664 2.62684 21.2914 2.61121 20.4936C2.59477 19.2793 2.59477 18.0731 2.61122 16.8588ZM21.2477 29.4328L21.2473 29.4328C20.996 29.4382 20.7423 29.4364 20.488 29.4346C20.3606 29.4337 20.233 29.4328 20.1056 29.4328H20.1051C19.7358 29.4328 19.3652 29.4328 18.9945 29.4409C18.7866 29.4368 18.6188 29.3671 18.5027 29.2573C18.3866 29.1474 18.3165 28.9919 18.3128 28.8049C18.3057 28.4375 18.5647 28.1555 18.9717 28.1483L18.9721 28.1483C19.7442 28.132 20.5081 28.132 21.2803 28.1483L21.2805 28.1483C21.6611 28.1554 21.9148 28.428 21.9148 28.7905C21.9148 29.1563 21.6498 29.4256 21.2477 29.4328Z" fill="white" stroke="white" stroke-width="0.2"/>
<path d="M21.1504 20.7155C23.0514 20.7073 24.4092 19.4186 24.4339 17.5507C24.4586 15.4708 24.4586 13.3908 24.4339 11.3109C24.4092 9.44303 23.0679 8.15429 21.1916 8.14613C18.0644 8.13798 14.9373 8.13798 11.8101 8.14613M21.1504 20.7155L11.8101 8.04613V8.14613M21.1504 20.7155C20.7365 20.7155 20.3226 20.7164 19.9084 20.7173M21.1504 20.7155L19.9084 20.7173M11.8101 8.14613C9.9338 8.14613 8.59241 9.45119 8.56773 11.3109L14.4141 23.5363C14.4142 23.5362 14.4142 23.5362 14.4143 23.5361C15.2872 22.6954 16.1435 21.8467 16.9995 20.9901L16.9995 20.9901L17.0012 20.9884C17.0638 20.9226 17.1227 20.8808 17.1853 20.8547C17.2482 20.8284 17.3207 20.8155 17.4141 20.8155C18.2486 20.8209 19.0798 20.8191 19.9092 20.8173C20.3233 20.8164 20.737 20.8155 21.1504 20.8155L21.1508 20.8155C22.1242 20.8113 22.9644 20.4789 23.565 19.9026C24.1659 19.3261 24.5213 18.5108 24.5339 17.552L24.5339 17.5519C24.5586 15.4712 24.5586 13.3904 24.5339 11.3097L24.5339 11.3096C24.5213 10.3512 24.1703 9.53604 23.5768 8.9594C22.9835 8.38293 22.1534 8.05031 21.192 8.04613L21.1918 8.04613C18.0645 8.03798 14.9373 8.03798 11.81 8.04613C11.8099 8.04613 11.8099 8.04613 11.8098 8.04613L11.8101 8.14613ZM17.0617 19.131V19.131C18.061 19.1432 19.0648 19.1417 20.067 19.1401C20.401 19.1396 20.7347 19.1391 21.0681 19.1391C21.6642 19.1391 22.1086 18.9807 22.4041 18.6897C22.6994 18.3989 22.8609 17.9611 22.8609 17.3713V17.3597V17.3482V17.3367V17.3252V17.3137V17.3021V17.2906V17.2791V17.2676V17.2561V17.2446V17.233V17.2215V17.21V17.1985V17.187V17.1754V17.1639V17.1524V17.1409V17.1294V17.1179V17.1063V17.0948V17.0833V17.0718V17.0603V17.0487V17.0372V17.0257V17.0142V17.0027V16.9912V16.9796V16.9681V16.9566V16.9451V16.9336V16.9221V16.9105V16.899V16.8875V16.876V16.8645V16.8529V16.8414V16.8299V16.8184V16.8069V16.7954V16.7838V16.7723V16.7608V16.7493V16.7378V16.7262V16.7147V16.7032V16.6917V16.6802V16.6687V16.6571V16.6456V16.6341V16.6226V16.6111V16.5995V16.588V16.5765V16.565V16.5535V16.542V16.5304V16.5189V16.5074V16.4959V16.4844V16.4728V16.4613V16.4498V16.4383V16.4268V16.4153V16.4037V16.3922V16.3807V16.3692V16.3577V16.3462V16.3346V16.3231V16.3116V16.3001V16.2886V16.277V16.2655V16.254V16.2425V16.231V16.2195V16.2079V16.1964V16.1849V16.1734V16.1619V16.1503V16.1388V16.1273V16.1158V16.1043V16.0928V16.0812V16.0697V16.0582V16.0467V16.0352V16.0236V16.0121V16.0006V15.9891V15.9776V15.9661V15.9545V15.943V15.9315V15.92V15.9085V15.8969V15.8854V15.8739V15.8624V15.8509V15.8394V15.8278V15.8163V15.8048V15.7933V15.7818V15.7702V15.7587V15.7472V15.7357V15.7242V15.7127V15.7011V15.6896V15.6781V15.6666V15.6551V15.6436V15.632V15.6205V15.609V15.5975V15.586V15.5744V15.5629V15.5514V15.5399V15.5284V15.5169V15.5053V15.4938V15.4823V15.4708V15.4593V15.4477V15.4362V15.4247V15.4132V15.4017V15.3902V15.3786V15.3671V15.3556V15.3441V15.3326V15.321V15.3095V15.298V15.2865V15.275V15.2635V15.2519V15.2404V15.2289V15.2174V15.2059V15.1943V15.1828V15.1713V15.1598V15.1483V15.1368V15.1252V15.1137V15.1022V15.0907V15.0792V15.0677V15.0561V15.0446V15.0331V15.0216V15.0101V14.9985V14.987V14.9755V14.964V14.9525V14.941V14.9294V14.9179V14.9064V14.8949V14.8834V14.8718V14.8603V14.8488V14.8373V14.8258V14.8143V14.8027V14.7912V14.7797V14.7682V14.7567V14.7451V14.7336V14.7221V14.7106V14.6991V14.6876V14.676V14.6645V14.653V14.6415V14.63V14.6184V14.6069V14.5954V14.5839V14.5724V14.5609V14.5493V14.5378V14.5263V14.5148V14.5033V14.4917V14.4802V14.4687V14.4572V14.4457V14.4342V14.4226V14.4111V14.3996V14.3881V14.3766V14.3651V14.3535V14.342V14.3305V14.319V14.3075V14.2959V14.2844V14.2729V14.2614V14.2499V14.2384V14.2268V14.2153V14.2038V14.1923V14.1808V14.1692V14.1577V14.1462V14.1347V14.1232V14.1117V14.1001V14.0886V14.0771V14.0656V14.0541V14.0425V14.031V14.0195V14.008V13.9965V13.985V13.9734V13.9619V13.9504V13.9389V13.9274V13.9158V13.9043V13.8928V13.8813V13.8698V13.8583V13.8467V13.8352V13.8237V13.8122V13.8007V13.7891V13.7776V13.7661V13.7546V13.7431V13.7316V13.72V13.7085V13.697V13.6855V13.674V13.6625V13.6509V13.6394V13.6279V13.6164V13.6049V13.5933V13.5818V13.5703V13.5588V13.5473V13.5358V13.5242V13.5127V13.5012V13.4897V13.4782V13.4666V13.4551V13.4436V13.4321V13.4206V13.4091V13.3975V13.386V13.3745V13.363V13.3515V13.3399V13.3284V13.3169V13.3054V13.2939V13.2824V13.2708V13.2593V13.2478V13.2363V13.2248V13.2132V13.2017V13.1902V13.1787V13.1672V13.1557V13.1441V13.1326V13.1211V13.1096V13.0981V13.0866V13.075V13.0635V13.052V13.0405V13.029V13.0174V13.0059V12.9944V12.9829V12.9714V12.9599V12.9483V12.9368V12.9253V12.9138V12.9023V12.8907V12.8792V12.8677V12.8562V12.8447V12.8332V12.8216V12.8101V12.7986V12.7871V12.7756V12.764V12.7525V12.741V12.7295V12.718V12.7065V12.6949V12.6834V12.6719V12.6604V12.6489V12.6373V12.6258V12.6143V12.6028V12.5913V12.5798V12.5682V12.5567V12.5452V12.5337V12.5222V12.5106V12.4991V12.4876V12.4761V12.4646V12.4531V12.4415V12.43V12.4185V12.407V12.3955V12.384V12.3724V12.3609V12.3494V12.3379V12.3264V12.3148V12.3033V12.2918V12.2803V12.2688V12.2573V12.2457V12.2342V12.2227V12.2112V12.1997V12.1881V12.1766V12.1651V12.1536V12.1421V12.1306V12.119V12.1075V12.096V12.0845V12.073V12.0614V12.0499V12.0384V12.0269V12.0154V12.0039V11.9923V11.9808V11.9693V11.9578V11.9463V11.9347V11.9232V11.9117V11.9002V11.8887V11.8772V11.8656V11.8541V11.8426V11.8311V11.8196V11.8081V11.7965V11.785V11.7735V11.762V11.7505V11.7389V11.7274V11.7159V11.7044V11.6929V11.6814V11.6698V11.6583V11.6468V11.6353V11.6238V11.6122V11.6007V11.5892V11.5777V11.5662V11.5547V11.5431V11.5316V11.5201V11.5086V11.4971V11.4855V11.474C22.8609 10.8838 22.7013 10.4483 22.4074 10.1598C22.1131 9.87096 21.6688 9.71432 21.0681 9.71432H21.0503H21.0324H21.0146H20.9968H20.9789H20.9611H20.9432H20.9254H20.9076H20.8897H20.8719H20.854H20.8362H20.8183H20.8005H20.7827H20.7648H20.747H20.7291H20.7113H20.6935H20.6756H20.6578H20.6399H20.6221H20.6043H20.5864H20.5686H20.5507H20.5329H20.5151H20.4972H20.4794H20.4615H20.4437H20.4259H20.408H20.3902H20.3723H20.3545H20.3366H20.3188H20.301H20.2831H20.2653H20.2474H20.2296H20.2118H20.1939H20.1761H20.1582H20.1404H20.1226H20.1047H20.0869H20.069H20.0512H20.0334H20.0155H19.9977H19.9798H19.962H19.9442H19.9263H19.9085H19.8906H19.8728H19.855H19.8371H19.8193H19.8014H19.7836H19.7658H19.7479H19.7301H19.7122H19.6944H19.6766H19.6587H19.6409H19.623H19.6052H19.5874H19.5695H19.5517H19.5338H19.516H19.4982H19.4803H19.4625H19.4446H19.4268H19.409H19.3911H19.3733H19.3554H19.3376H19.3198H19.3019H19.2841H19.2662H19.2484H19.2306H19.2127H19.1949H19.1771H19.1592H19.1414H19.1235H19.1057H19.0879H19.07H19.0522H19.0343H19.0165H18.9987H18.9808H18.963H18.9451H18.9273H18.9095H18.8916H18.8738H18.856H18.8381H18.8203H18.8024H18.7846H18.7668H18.7489H18.7311H18.7133H18.6954H18.6776H18.6597H18.6419H18.6241H18.6062H18.5884H18.5706H18.5527H18.5349H18.517H18.4992H18.4814H18.4635H18.4457H18.4279H18.41H18.3922H18.3743H18.3565H18.3387H18.3208H18.303H18.2852H18.2673H18.2495H18.2317H18.2138H18.196H18.1781H18.1603H18.1425H18.1246H18.1068H18.089H18.0711H18.0533H18.0355H18.0176H17.9998H17.9819H17.9641H17.9463H17.9284H17.9106H17.8928H17.8749H17.8571H17.8393H17.8214H17.8036H17.7858H17.7679H17.7501H17.7323H17.7144H17.6966H17.6788H17.6609H17.6431H17.6253H17.6074H17.5896H17.5718H17.5539H17.5361H17.5182H17.5004H17.4826H17.4647H17.4469H17.4291H17.4112H17.3934H17.3756H17.3577H17.3399H17.3221H17.3042H17.2864H17.2686H17.2508H17.2329H17.2151H17.1973H17.1794H17.1616H17.1438H17.1259H17.1081H17.0903H17.0724H17.0546H17.0368H17.0189H17.0011H16.9833H16.9654H16.9476H16.9298H16.9119H16.8941H16.8763H16.8585H16.8406H16.8228H16.805H16.7871H16.7693H16.7515H16.7336H16.7158H16.698H16.6802H16.6623H16.6445H16.6267H16.6088H16.591H16.5732H16.5553H16.5375H16.5197H16.5019H16.484H16.4662H16.4484H16.4305H16.4127H16.3949H16.3771H16.3592H16.3414H16.3236H16.3057H16.2879H16.2701H16.2523H16.2344H16.2166H16.1988H16.181H16.1631H16.1453H16.1275H16.1096H16.0918H16.074H16.0562H16.0383H16.0205H16.0027H15.9849H15.967H15.9492H15.9314H15.9136H15.8957H15.8779H15.8601H15.8423H15.8244H15.8066H15.7888H15.771H15.7531H15.7353H15.7175H15.6997H15.6818H15.664H15.6462H15.6284H15.6105H15.5927H15.5749H15.5571H15.5392H15.5214H15.5036H15.4858H15.4679H15.4501H15.4323H15.4145H15.3967H15.3788H15.361H15.3432H15.3254H15.3075H15.2897H15.2719H15.2541H15.2363H15.2184H15.2006H15.1828H15.165H15.1472H15.1293H15.1115H15.0937H15.0759H15.0581H15.0402H15.0224H15.0046H14.9868H14.969H14.9511H14.9333H14.9155H14.8977H14.8799H14.862H14.8442H14.8264H14.8086H14.7908H14.7729H14.7551H14.7373H14.7195H14.7017H14.6839H14.666H14.6482H14.6304H14.6126H14.5948H14.577H14.5591H14.5413H14.5235H14.5057H14.4879H14.4701H14.4522H14.4344H14.4166H14.3988H14.381H14.3632H14.3454H14.3275H14.3097H14.2919H14.2741H14.2563H14.2385H14.2207H14.2028H14.185H14.1672H14.1494H14.1316H14.1138H14.096H14.0781H14.0603H14.0425H14.0247H14.0069H13.9891H13.9713H13.9535H13.9356H13.9178H13.9H13.8822H13.8644H13.8466H13.8288H13.811H13.7932H13.7754H13.7575H13.7397H13.7219H13.7041H13.6863H13.6685H13.6507H13.6329H13.6151H13.5973H13.5794H13.5616H13.5438H13.526H13.5082H13.4904H13.4726H13.4548H13.437H13.4192H13.4014H13.3836H13.3658H13.348H13.3301H13.3123H13.2945H13.2767H13.2589H13.2411H13.2233H13.2055H13.1877H13.1699H13.1521H13.1343H13.1165H13.0987H13.0809H13.0631H13.0453H13.0275H13.0097H12.9919H12.974H12.9562H12.9384H12.9206H12.9028H12.885H12.8672H12.8494H12.8316H12.8138H12.796H12.7782H12.7604H12.7426H12.7248H12.707H12.6892H12.6714H12.6536H12.6358H12.618H12.6002H12.5824H12.5646H12.5468H12.529H12.5112H12.4934H12.4756H12.4578H12.44H12.4222H12.4044H12.3866H12.3688H12.351H12.3332H12.3155H12.2977H12.2799H12.2621H12.2443H12.2265H12.2087H12.1909H12.1731H12.1553H12.1375H12.1197H12.1019H12.0841H12.0663H12.0485H12.0307H12.0129H11.9951H11.9773H11.9596H11.9418C11.3411 9.71432 10.899 9.87095 10.6069 10.1596C10.315 10.448 10.1572 10.8835 10.1572 11.474L17.0617 19.131ZM17.0617 19.131H17.0604M17.0617 19.131H17.0604M17.0604 19.131C16.6661 19.131 16.3596 19.2459 16.0839 19.5279C15.5493 20.0679 15.0058 20.6009 14.462 21.1341C14.1356 21.4543 13.809 21.7745 13.4843 22.0963C13.4397 22.1406 13.3917 22.185 13.342 22.23L17.0604 19.131ZM10.1572 17.3597V17.3713V17.3597ZM10.1572 17.3597V17.3482M10.1572 17.3597V17.3482M10.1572 17.3482V17.3367M10.1572 17.3482V17.3367M10.1572 17.3367V17.3252M10.1572 17.3367V17.3252M10.1572 17.3252V17.3137M10.1572 17.3252V17.3137M10.1572 17.3137V17.3021M10.1572 17.3137V17.3021M10.1572 17.3021V17.2906M10.1572 17.3021V17.2906M10.1572 17.2906V17.2791M10.1572 17.2906V17.2791M10.1572 17.2791V17.2676M10.1572 17.2791V17.2676M10.1572 17.2676V17.2561M10.1572 17.2676V17.2561M10.1572 17.2561V17.2446M10.1572 17.2561V17.2446M10.1572 17.2446V17.233M10.1572 17.2446V17.233M10.1572 17.233V17.2215M10.1572 17.233V17.2215M10.1572 17.2215V17.21M10.1572 17.2215V17.21M10.1572 17.21V17.1985M10.1572 17.21V17.1985M10.1572 17.1985V17.187M10.1572 17.1985V17.187M10.1572 17.187V17.1754M10.1572 17.187V17.1754M10.1572 17.1754V17.1639M10.1572 17.1754V17.1639M10.1572 17.1639V17.1524M10.1572 17.1639V17.1524M10.1572 17.1524V17.1409M10.1572 17.1524V17.1409M10.1572 17.1409V17.1294M10.1572 17.1409V17.1294M10.1572 17.1294V17.1179M10.1572 17.1294V17.1179M10.1572 17.1179V17.1063M10.1572 17.1179V17.1063M10.1572 17.1063V17.0948M10.1572 17.1063V17.0948M10.1572 17.0948V17.0833M10.1572 17.0948V17.0833M10.1572 17.0833V17.0718M10.1572 17.0833V17.0718M10.1572 17.0718V17.0603M10.1572 17.0718V17.0603M10.1572 17.0603V17.0487M10.1572 17.0603V17.0487M10.1572 17.0487V17.0372M10.1572 17.0487V17.0372M10.1572 17.0372V17.0257M10.1572 17.0372V17.0257M10.1572 17.0257V17.0142M10.1572 17.0257V17.0142M10.1572 17.0142V17.0027M10.1572 17.0142V17.0027M10.1572 17.0027V16.9912M10.1572 17.0027V16.9912M10.1572 16.9912V16.9796M10.1572 16.9912V16.9796M10.1572 16.9796V16.9681M10.1572 16.9796V16.9681M10.1572 16.9681V16.9566M10.1572 16.9681V16.9566M10.1572 16.9566V16.9451M10.1572 16.9566V16.9451M10.1572 16.9451V16.9336M10.1572 16.9451V16.9336M10.1572 16.9336V16.9221M10.1572 16.9336V16.9221M10.1572 16.9221V16.9105M10.1572 16.9221V16.9105M10.1572 16.9105V16.899M10.1572 16.9105V16.899M10.1572 16.899V16.8875M10.1572 16.899V16.8875M10.1572 16.8875V16.876M10.1572 16.8875V16.876M10.1572 16.876V16.8645M10.1572 16.876V16.8645M10.1572 16.8645V16.8529M10.1572 16.8645V16.8529M10.1572 16.8529V16.8414M10.1572 16.8529V16.8414M10.1572 16.8414V16.8299M10.1572 16.8414V16.8299M10.1572 16.8299V16.8184M10.1572 16.8299V16.8184M10.1572 16.8184V16.8069M10.1572 16.8184V16.8069M10.1572 16.8069V16.7954M10.1572 16.8069V16.7954M10.1572 16.7954V16.7838M10.1572 16.7954V16.7838M10.1572 16.7838V16.7723M10.1572 16.7838V16.7723M10.1572 16.7723V16.7608M10.1572 16.7723V16.7608M10.1572 16.7608V16.7493M10.1572 16.7608V16.7493M10.1572 16.7493V16.7378M10.1572 16.7493V16.7378M10.1572 16.7378V16.7262M10.1572 16.7378V16.7262M10.1572 16.7262V16.7147M10.1572 16.7262V16.7147M10.1572 16.7147V16.7032M10.1572 16.7147V16.7032M10.1572 16.7032V16.6917M10.1572 16.7032V16.6917M10.1572 16.6917V16.6802M10.1572 16.6917V16.6802M10.1572 16.6802V16.6687M10.1572 16.6802V16.6687M10.1572 16.6687V16.6571M10.1572 16.6687V16.6571M10.1572 16.6571V16.6456M10.1572 16.6571V16.6456M10.1572 16.6456V16.6341M10.1572 16.6456V16.6341M10.1572 16.6341V16.6226M10.1572 16.6341V16.6226M10.1572 16.6226V16.6111M10.1572 16.6226V16.6111M10.1572 16.6111V16.5995M10.1572 16.6111V16.5995M10.1572 16.5995V16.588M10.1572 16.5995V16.588M10.1572 16.588V16.5765M10.1572 16.588V16.5765M10.1572 16.5765V16.565M10.1572 16.5765V16.565M10.1572 16.565V16.5535M10.1572 16.565V16.5535M10.1572 16.5535V16.542M10.1572 16.5535V16.542M10.1572 16.542V16.5304M10.1572 16.542V16.5304M10.1572 16.5304V16.5189M10.1572 16.5304V16.5189M10.1572 16.5189V16.5074M10.1572 16.5189V16.5074M10.1572 16.5074V16.4959M10.1572 16.5074V16.4959M10.1572 16.4959V16.4844M10.1572 16.4959V16.4844M10.1572 16.4844V16.4728M10.1572 16.4844V16.4728M10.1572 16.4728V16.4613M10.1572 16.4728V16.4613M10.1572 16.4613V16.4498M10.1572 16.4613V16.4498M10.1572 16.4498V16.4383M10.1572 16.4498V16.4383M10.1572 16.4383V16.4268M10.1572 16.4383V16.4268M10.1572 16.4268V16.4153M10.1572 16.4268V16.4153M10.1572 16.4153V16.4037M10.1572 16.4153V16.4037M10.1572 16.4037V16.3922M10.1572 16.4037V16.3922M10.1572 16.3922V16.3807M10.1572 16.3922V16.3807M10.1572 16.3807V16.3692M10.1572 16.3807V16.3692M10.1572 16.3692V16.3577M10.1572 16.3692V16.3577M10.1572 16.3577V16.3462M10.1572 16.3577V16.3462M10.1572 16.3462V16.3346M10.1572 16.3462V16.3346M10.1572 16.3346V16.3231M10.1572 16.3346V16.3231M10.1572 16.3231V16.3116M10.1572 16.3231V16.3116M10.1572 16.3116V16.3001M10.1572 16.3116V16.3001M10.1572 16.3001V16.2886M10.1572 16.3001V16.2886M10.1572 16.2886V16.277M10.1572 16.2886V16.277M10.1572 16.277V16.2655M10.1572 16.277V16.2655M10.1572 16.2655V16.254M10.1572 16.2655V16.254M10.1572 16.254V16.2425M10.1572 16.254V16.2425M10.1572 16.2425V16.231M10.1572 16.2425V16.231M10.1572 16.231V16.2195M10.1572 16.231V16.2195M10.1572 16.2195V16.2079M10.1572 16.2195V16.2079M10.1572 16.2079V16.1964M10.1572 16.2079V16.1964M10.1572 16.1964V16.1849M10.1572 16.1964V16.1849M10.1572 16.1849V16.1734M10.1572 16.1849V16.1734M10.1572 16.1734V16.1619M10.1572 16.1734V16.1619M10.1572 16.1619V16.1503M10.1572 16.1619V16.1503M10.1572 16.1503V16.1388M10.1572 16.1503V16.1388M10.1572 16.1388V16.1273M10.1572 16.1388V16.1273M10.1572 16.1273V16.1158M10.1572 16.1273V16.1158M10.1572 16.1158V16.1043M10.1572 16.1158V16.1043M10.1572 16.1043V16.0928M10.1572 16.1043V16.0928M10.1572 16.0928V16.0812M10.1572 16.0928V16.0812M10.1572 16.0812V16.0697M10.1572 16.0812V16.0697M10.1572 16.0697V16.0582M10.1572 16.0697V16.0582M10.1572 16.0582V16.0467M10.1572 16.0582V16.0467M10.1572 16.0467V16.0352M10.1572 16.0467V16.0352M10.1572 16.0352V16.0236M10.1572 16.0352V16.0236M10.1572 16.0236V16.0121M10.1572 16.0236V16.0121M10.1572 16.0121V16.0006M10.1572 16.0121V16.0006M10.1572 16.0006V15.9891M10.1572 16.0006V15.9891M10.1572 15.9891V15.9776M10.1572 15.9891V15.9776M10.1572 15.9776V15.9661M10.1572 15.9776V15.9661M10.1572 15.9661V15.9545M10.1572 15.9661V15.9545M10.1572 15.9545V15.943M10.1572 15.9545V15.943M10.1572 15.943V15.9315M10.1572 15.943V15.9315M10.1572 15.9315V15.92M10.1572 15.9315V15.92M10.1572 15.92V15.9085M10.1572 15.92V15.9085M10.1572 15.9085V15.8969M10.1572 15.9085V15.8969M10.1572 15.8969V15.8854M10.1572 15.8969V15.8854M10.1572 15.8854V15.8739M10.1572 15.8854V15.8739M10.1572 15.8739V15.8624M10.1572 15.8739V15.8624M10.1572 15.8624V15.8509M10.1572 15.8624V15.8509M10.1572 15.8509V15.8394M10.1572 15.8509V15.8394M10.1572 15.8394V15.8278M10.1572 15.8394V15.8278M10.1572 15.8278V15.8163M10.1572 15.8278V15.8163M10.1572 15.8163V15.8048M10.1572 15.8163V15.8048M10.1572 15.8048V15.7933M10.1572 15.8048V15.7933M10.1572 15.7933V15.7818M10.1572 15.7933V15.7818M10.1572 15.7818V15.7702M10.1572 15.7818V15.7702M10.1572 15.7702V15.7587M10.1572 15.7702V15.7587M10.1572 15.7587V15.7472M10.1572 15.7587V15.7472M10.1572 15.7472V15.7357M10.1572 15.7472V15.7357M10.1572 15.7357V15.7242M10.1572 15.7357V15.7242M10.1572 15.7242V15.7127M10.1572 15.7242V15.7127M10.1572 15.7127V15.7011M10.1572 15.7127V15.7011M10.1572 15.7011V15.6896M10.1572 15.7011V15.6896M10.1572 15.6896V15.6781M10.1572 15.6896V15.6781M10.1572 15.6781V15.6666M10.1572 15.6781V15.6666M10.1572 15.6666V15.6551M10.1572 15.6666V15.6551M10.1572 15.6551V15.6436M10.1572 15.6551V15.6436M10.1572 15.6436V15.632M10.1572 15.6436V15.632M10.1572 15.632V15.6205M10.1572 15.632V15.6205M10.1572 15.6205V15.609M10.1572 15.6205V15.609M10.1572 15.609V15.5975M10.1572 15.609V15.5975M10.1572 15.5975V15.586M10.1572 15.5975V15.586M10.1572 15.586V15.5744M10.1572 15.586V15.5744M10.1572 15.5744V15.5629M10.1572 15.5744V15.5629M10.1572 15.5629V15.5514M10.1572 15.5629V15.5514M10.1572 15.5514V15.5399M10.1572 15.5514V15.5399M10.1572 15.5399V15.5284M10.1572 15.5399V15.5284M10.1572 15.5284V15.5169M10.1572 15.5284V15.5169M10.1572 15.5169V15.5053M10.1572 15.5169V15.5053M10.1572 15.5053V15.4938M10.1572 15.5053V15.4938M10.1572 15.4938V15.4823M10.1572 15.4938V15.4823M10.1572 15.4823V15.4708M10.1572 15.4823V15.4708M10.1572 15.4708V15.4593M10.1572 15.4708V15.4593M10.1572 15.4593V15.4477M10.1572 15.4593V15.4477M10.1572 15.4477V15.4362M10.1572 15.4477V15.4362M10.1572 15.4362V15.4247M10.1572 15.4362V15.4247M10.1572 15.4247V15.4132M10.1572 15.4247V15.4132M10.1572 15.4132V15.4017M10.1572 15.4132V15.4017M10.1572 15.4017V15.3902M10.1572 15.4017V15.3902M10.1572 15.3902V15.3786M10.1572 15.3902V15.3786M10.1572 15.3786V15.3671M10.1572 15.3786V15.3671M10.1572 15.3671V15.3556M10.1572 15.3671V15.3556M10.1572 15.3556V15.3441M10.1572 15.3556V15.3441M10.1572 15.3441V15.3326M10.1572 15.3441V15.3326M10.1572 15.3326V15.321M10.1572 15.3326V15.321M10.1572 15.321V15.3095M10.1572 15.321V15.3095M10.1572 15.3095V15.298M10.1572 15.3095V15.298M10.1572 15.298V15.2865M10.1572 15.298V15.2865M10.1572 15.2865V15.275M10.1572 15.2865V15.275M10.1572 15.275V15.2635M10.1572 15.275V15.2635M10.1572 15.2635V15.2519M10.1572 15.2635V15.2519M10.1572 15.2519V15.2404M10.1572 15.2519V15.2404M10.1572 15.2404V15.2289M10.1572 15.2404V15.2289M10.1572 15.2289V15.2174M10.1572 15.2289V15.2174M10.1572 15.2174V15.2059M10.1572 15.2174V15.2059M10.1572 15.2059V15.1943M10.1572 15.2059V15.1943M10.1572 15.1943V15.1828M10.1572 15.1943V15.1828M10.1572 15.1828V15.1713M10.1572 15.1828V15.1713M10.1572 15.1713V15.1598M10.1572 15.1713V15.1598M10.1572 15.1598V15.1483M10.1572 15.1598V15.1483M10.1572 15.1483V15.1368M10.1572 15.1483V15.1368M10.1572 15.1368V15.1252M10.1572 15.1368V15.1252M10.1572 15.1252V15.1137M10.1572 15.1252V15.1137M10.1572 15.1137V15.1022M10.1572 15.1137V15.1022M10.1572 15.1022V15.0907M10.1572 15.1022V15.0907M10.1572 15.0907V15.0792M10.1572 15.0907V15.0792M10.1572 15.0792V15.0677M10.1572 15.0792V15.0677M10.1572 15.0677V15.0561M10.1572 15.0677V15.0561M10.1572 15.0561V15.0446M10.1572 15.0561V15.0446M10.1572 15.0446V15.0331M10.1572 15.0446V15.0331M10.1572 15.0331V15.0216M10.1572 15.0331V15.0216M10.1572 15.0216V15.0101M10.1572 15.0216V15.0101M10.1572 15.0101V14.9985M10.1572 15.0101V14.9985M10.1572 14.9985V14.987M10.1572 14.9985V14.987M10.1572 14.987V14.9755M10.1572 14.987V14.9755M10.1572 14.9755V14.964M10.1572 14.9755V14.964M10.1572 14.964V14.9525M10.1572 14.964V14.9525M10.1572 14.9525V14.941M10.1572 14.9525V14.941M10.1572 14.941V14.9294M10.1572 14.941V14.9294M10.1572 14.9294V14.9179M10.1572 14.9294V14.9179M10.1572 14.9179V14.9064M10.1572 14.9179V14.9064M10.1572 14.9064V14.8949M10.1572 14.9064V14.8949M10.1572 14.8949V14.8834M10.1572 14.8949V14.8834M10.1572 14.8834V14.8718M10.1572 14.8834V14.8718M10.1572 14.8718V14.8603M10.1572 14.8718V14.8603M10.1572 14.8603V14.8488M10.1572 14.8603V14.8488M10.1572 14.8488V14.8373M10.1572 14.8488V14.8373M10.1572 14.8373V14.8258M10.1572 14.8373V14.8258M10.1572 14.8258V14.8143M10.1572 14.8258V14.8143M10.1572 14.8143V14.8027M10.1572 14.8143V14.8027M10.1572 14.8027V14.7912M10.1572 14.8027V14.7912M10.1572 14.7912V14.7797M10.1572 14.7912V14.7797M10.1572 14.7797V14.7682M10.1572 14.7797V14.7682M10.1572 14.7682V14.7567M10.1572 14.7682V14.7567M10.1572 14.7567V14.7451M10.1572 14.7567V14.7451M10.1572 14.7451V14.7336M10.1572 14.7451V14.7336M10.1572 14.7336V14.7221M10.1572 14.7336V14.7221M10.1572 14.7221V14.7106M10.1572 14.7221V14.7106M10.1572 14.7106V14.6991M10.1572 14.7106V14.6991M10.1572 14.6991V14.6876M10.1572 14.6991V14.6876M10.1572 14.6876V14.676M10.1572 14.6876V14.676M10.1572 14.676V14.6645M10.1572 14.676V14.6645M10.1572 14.6645V14.653M10.1572 14.6645V14.653M10.1572 14.653V14.6415M10.1572 14.653V14.6415M10.1572 14.6415V14.63M10.1572 14.6415V14.63M10.1572 14.63V14.6184M10.1572 14.63V14.6184M10.1572 14.6184V14.6069M10.1572 14.6184V14.6069M10.1572 14.6069V14.5954M10.1572 14.6069V14.5954M10.1572 14.5954V14.5839M10.1572 14.5954V14.5839M10.1572 14.5839V14.5724M10.1572 14.5839V14.5724M10.1572 14.5724V14.5609M10.1572 14.5724V14.5609M10.1572 14.5609V14.5493M10.1572 14.5609V14.5493M10.1572 14.5493V14.5378M10.1572 14.5493V14.5378M10.1572 14.5378V14.5263M10.1572 14.5378V14.5263M10.1572 14.5263V14.5148M10.1572 14.5263V14.5148M10.1572 14.5148V14.5033M10.1572 14.5148V14.5033M10.1572 14.5033V14.4917M10.1572 14.5033V14.4917M10.1572 14.4917V14.4802M10.1572 14.4917V14.4802M10.1572 14.4802V14.4687M10.1572 14.4802V14.4687M10.1572 14.4687V14.4572M10.1572 14.4687V14.4572M10.1572 14.4572V14.4457M10.1572 14.4572V14.4457M10.1572 14.4457V14.4342M10.1572 14.4457V14.4342M10.1572 14.4342V14.4226M10.1572 14.4342V14.4226M10.1572 14.4226V14.4111M10.1572 14.4226V14.4111M10.1572 14.4111V14.3996M10.1572 14.4111V14.3996M10.1572 14.3996V14.3881M10.1572 14.3996V14.3881M10.1572 14.3881V14.3766M10.1572 14.3881V14.3766M10.1572 14.3766V14.3651M10.1572 14.3766V14.3651M10.1572 14.3651V14.3535M10.1572 14.3651V14.3535M10.1572 14.3535V14.342M10.1572 14.3535V14.342M10.1572 14.342V14.3305M10.1572 14.342V14.3305M10.1572 14.3305V14.319M10.1572 14.3305V14.319M10.1572 14.319V14.3075M10.1572 14.319V14.3075M10.1572 14.3075V14.2959M10.1572 14.3075V14.2959M10.1572 14.2959V14.2844M10.1572 14.2959V14.2844M10.1572 14.2844V14.2729M10.1572 14.2844V14.2729M10.1572 14.2729V14.2614M10.1572 14.2729V14.2614M10.1572 14.2614V14.2499M10.1572 14.2614V14.2499M10.1572 14.2499V14.2384M10.1572 14.2499V14.2384M10.1572 14.2384V14.2268M10.1572 14.2384V14.2268M10.1572 14.2268V14.2153M10.1572 14.2268V14.2153M10.1572 14.2153V14.2038M10.1572 14.2153V14.2038M10.1572 14.2038V14.1923M10.1572 14.2038V14.1923M10.1572 14.1923V14.1808M10.1572 14.1923V14.1808M10.1572 14.1808V14.1692M10.1572 14.1808V14.1692M10.1572 14.1692V14.1577M10.1572 14.1692V14.1577M10.1572 14.1577V14.1462M10.1572 14.1577V14.1462M10.1572 14.1462V14.1347M10.1572 14.1462V14.1347M10.1572 14.1347V14.1232M10.1572 14.1347V14.1232M10.1572 14.1232V14.1117M10.1572 14.1232V14.1117M10.1572 14.1117V14.1001M10.1572 14.1117V14.1001M10.1572 14.1001V14.0886M10.1572 14.1001V14.0886M10.1572 14.0886V14.0771M10.1572 14.0886V14.0771M10.1572 14.0771V14.0656M10.1572 14.0771V14.0656M10.1572 14.0656V14.0541M10.1572 14.0656V14.0541M10.1572 14.0541V14.0425M10.1572 14.0541V14.0425M10.1572 14.0425V14.031M10.1572 14.0425V14.031M10.1572 14.031V14.0195M10.1572 14.031V14.0195M10.1572 14.0195V14.008M10.1572 14.0195V14.008M10.1572 14.008V13.9965M10.1572 14.008V13.9965M10.1572 13.9965V13.985M10.1572 13.9965V13.985M10.1572 13.985V13.9734M10.1572 13.985V13.9734M10.1572 13.9734V13.9619M10.1572 13.9734V13.9619M10.1572 13.9619V13.9504M10.1572 13.9619V13.9504M10.1572 13.9504V13.9389M10.1572 13.9504V13.9389M10.1572 13.9389V13.9274M10.1572 13.9389V13.9274M10.1572 13.9274V13.9158M10.1572 13.9274V13.9158M10.1572 13.9158V13.9043M10.1572 13.9158V13.9043M10.1572 13.9043V13.8928M10.1572 13.9043V13.8928M10.1572 13.8928V13.8813M10.1572 13.8928V13.8813M10.1572 13.8813V13.8698M10.1572 13.8813V13.8698M10.1572 13.8698V13.8583M10.1572 13.8698V13.8583M10.1572 13.8583V13.8467M10.1572 13.8583V13.8467M10.1572 13.8467V13.8352M10.1572 13.8467V13.8352M10.1572 13.8352V13.8237M10.1572 13.8352V13.8237M10.1572 13.8237V13.8122M10.1572 13.8237V13.8122M10.1572 13.8122V13.8007M10.1572 13.8122V13.8007M10.1572 13.8007V13.7891M10.1572 13.8007V13.7891M10.1572 13.7891V13.7776M10.1572 13.7891V13.7776M10.1572 13.7776V13.7661M10.1572 13.7776V13.7661M10.1572 13.7661V13.7546M10.1572 13.7661V13.7546M10.1572 13.7546V13.7431M10.1572 13.7546V13.7431M10.1572 13.7431V13.7316M10.1572 13.7431V13.7316M10.1572 13.7316V13.72M10.1572 13.7316V13.72M10.1572 13.72V13.7085M10.1572 13.72V13.7085M10.1572 13.7085V13.697M10.1572 13.7085V13.697M10.1572 13.697V13.6855M10.1572 13.697V13.6855M10.1572 13.6855V13.674M10.1572 13.6855V13.674M10.1572 13.674V13.6625M10.1572 13.674V13.6625M10.1572 13.6625V13.6509M10.1572 13.6625V13.6509M10.1572 13.6509V13.6394M10.1572 13.6509V13.6394M10.1572 13.6394V13.6279M10.1572 13.6394V13.6279M10.1572 13.6279V13.6164M10.1572 13.6279V13.6164M10.1572 13.6164V13.6049V13.6164ZM19.9084 20.7173C19.0791 20.7191 18.2485 20.7209 17.4143 20.7155L19.9084 20.7173ZM11.4401 19.0997L11.4387 19.0995L11.4233 19.1983L11.4401 19.0997ZM10.1731 17.7598L10.1729 17.7584L10.0737 17.7709L10.1731 17.7598Z" fill="white" stroke="white" stroke-width="0.2"/>
<path d="M15.3145 14.5138C15.2965 15.1577 15.8355 15.7169 16.4911 15.7259L15.3145 14.5138ZM16.4912 15.7259C17.1387 15.7348 17.6944 15.1932 17.7035 14.5506C17.7035 14.5506 17.7035 14.5506 17.7035 14.5506L17.6035 14.5492C17.6117 13.9701 17.1344 13.4807 16.5419 13.4562L16.4912 15.7259Z" fill="white" stroke="white" stroke-width="0.2"/>
<path d="M12.9321 13.348L12.9321 13.3479L12.9308 13.3479C12.275 13.339 11.7275 13.8724 11.7185 14.5232C11.7095 15.1756 12.2494 15.7176 12.913 15.7176C13.5504 15.7176 14.0902 15.2021 14.0992 14.5586L14.0992 14.5586C14.1082 13.8995 13.5868 13.3657 12.9321 13.348Z" fill="white" stroke="white" stroke-width="0.2"/>
<path d="M18.9118 14.5151L18.9118 14.5151C18.9208 13.8716 19.4606 13.3561 20.0981 13.3561C20.7617 13.3561 21.3016 13.8981 21.2926 14.5505C21.2836 15.2018 20.7273 15.7347 20.0803 15.7258L18.9118 14.5151ZM18.9118 14.5151C18.9029 15.1729 19.4233 15.7168 20.0803 15.7258L18.9118 14.5151Z" fill="white" stroke="white" stroke-width="0.2"/>
</svg>
