<svg width="33" height="32" viewBox="0 0 33 32" fill="none" xmlns="http://www.w3.org/2000/svg">
<path d="M2.1324 10.4326L2.13366 10.4315C3.30876 9.43708 4.66761 9.36337 6.01068 9.98514C6.68215 10.296 7.19631 10.7306 7.54269 11.2829C7.8888 11.8347 8.05987 12.492 8.06468 13.2368L8.06469 13.238C8.06469 13.2825 8.0605 13.337 8.0572 13.3799C8.05587 13.3972 8.05468 13.4127 8.05396 13.4249C8.0507 13.4806 8.05287 13.5111 8.05771 13.529L8.06131 13.5423L8.06085 13.5424C8.06421 13.5593 8.07564 13.5886 8.09367 13.6158C8.10085 13.6267 8.1072 13.6343 8.11169 13.6389C9.11194 13.9798 10.1125 14.3044 11.1381 14.6365C11.5875 13.7325 12.2024 12.9622 13.0156 12.3626L13.0164 12.3619C13.8374 11.7633 14.7521 11.4049 15.749 11.2622V11.2556V11.2486V11.2416V11.2346V11.2276V11.2205V11.2135V11.2065V11.1995V11.1925V11.1855V11.1785V11.1715V11.1645V11.1575V11.1505V11.1435V11.1365V11.1295V11.1225V11.1155V11.1084V11.1014V11.0944V11.0874V11.0804V11.0734V11.0664V11.0594V11.0524V11.0454V11.0384V11.0314V11.0244V11.0174V11.0104V11.0034V10.9964V10.9894V10.9824V10.9754V10.9684V10.9614V10.9544V10.9474V10.9404V10.9334V10.9264V10.9194V10.9124V10.9054V10.8984V10.8914V10.8844V10.8774V10.8704V10.8634V10.8564V10.8494V10.8424V10.8354V10.8284V10.8214V10.8144V10.8074V10.8004V10.7934V10.7864V10.7794V10.7724V10.7654V10.7584V10.7514V10.7444V10.7374V10.7304V10.7234V10.7164V10.7094V10.7024V10.6954V10.6884V10.6814V10.6744V10.6674V10.6604V10.6534V10.6464V10.6394V10.6324V10.6254V10.6184V10.6114V10.6044V10.5974V10.5904V10.5834V10.5764V10.5694V10.5624V10.5554V10.5484V10.5414V10.5344V10.5274V10.5204V10.5134V10.5064V10.4994V10.4924V10.4855V10.4785V10.4715V10.4645V10.4575V10.4505V10.4435V10.4365V10.4295V10.4225V10.4155V10.4085V10.4015V10.3945V10.3875V10.3805V10.3735V10.3665V10.3595V10.3525V10.3455V10.3385V10.3315V10.3245V10.3175V10.3106V10.3036V10.2966V10.2896V10.2826V10.2756V10.2686V10.2616V10.2546V10.2476V10.2406V10.2336V10.2266V10.2196V10.2126V10.2056V10.1986V10.1916V10.1846V10.1776V10.1706V10.1636V10.1566V10.1497V10.1427V10.1357V10.1287V10.1217V10.1147V10.1077V10.1007V10.0937V10.0867V10.0797V10.0727V10.0657V10.0587V10.0517V10.0447V10.0377V10.0307V10.0237V10.0167V10.0097V10.0027V9.99574V9.98874V9.98175V9.97475V9.96775V9.96076V9.95376V9.94676V9.93977V9.93277V9.92577V9.91878V9.91178V9.90478V9.89779V9.89079V9.88379V9.87679V9.8698V9.8628V9.8558V9.8488V9.84181V9.83481V9.82781V9.82081V9.81382V9.80682V9.79982V9.79282V9.78582V9.77882V9.77183V9.76483V9.75783V9.75083V9.74383V9.73683V9.72983V9.72283V9.71584V9.70884V9.70184V9.69484V9.68784V9.68084V9.67384V9.66684V9.65984V9.65284V9.64584V9.63884V9.63184V9.62484V9.61784V9.61084V9.60384V9.59684V9.58983V9.58283V9.57583V9.56883V9.56183V9.55483V9.54783V9.54082V9.53382V9.52682V9.51982V9.51282V9.50581V9.49881V9.49181V9.48481V9.4778V9.4708V9.4638V9.45679V9.44979V9.44279V9.43578V9.42878V9.42177V9.41477V9.40776V9.40076V9.39375V9.38675V9.37975V9.37274V9.36574V9.35873V9.35172V9.34472V9.33771V9.33071V9.3237V9.31669V9.30969V9.30268V9.29567V9.28867V9.28166V9.27465V9.26764V9.26064V9.25363V9.24662V9.23961V9.2326V9.22559V9.21859V9.21158V9.20457V9.19756V9.19055V9.18354V9.17653V9.16952V9.16251V9.1555V9.14849V9.14147V9.13446V9.12745V9.12044V9.11343V9.10642V9.09941V9.09239V9.08538V9.07837V9.07135V9.06434V9.05733V9.05031V9.0433V9.03629V9.02927V9.02226V9.01524V9.00823V9.00121V8.9942V8.98718V8.98017V8.97315V8.96613V8.95912V8.9521V8.94508V8.93807V8.93105V8.92403V8.91702V8.91V8.90298V8.89596V8.88894V8.88192V8.8749V8.86788V8.86086V8.85384V8.84682V8.8398V8.83278V8.82576V8.81874V8.81172V8.8047V8.79767V8.79065V8.78363V8.77661V8.76958V8.76256V8.75554V8.74851V8.74149V8.73447V8.72744V8.72042V8.71339V8.70637V8.69934V8.69231V8.68529V8.67826V8.67123V8.66421V8.65718V8.65015V8.64312V8.6361V8.62907V8.62204V8.61501V8.60798V8.60095V8.59392V8.58689V8.57986V8.57283V8.5658V8.55877V8.55173V8.5447V8.53767V8.53064V8.5236V8.51657V8.50954V8.5025V8.49547V8.48844V8.4814V8.47437V8.46733V8.46029V8.45326V8.44622V8.43919V8.43215V8.42511V8.41807V8.41104V8.404V8.39696V8.38992V8.38288V8.37584V8.3688V8.36176V8.35472V8.34768V8.34064V8.3336V8.32655V8.31951V8.31247V8.30543V8.29838V8.29134V8.2843V8.27725V8.27021V8.26316V8.25612V8.24907V8.24202V8.23498V8.22793V8.22088V8.21384V8.20679V8.19974V8.19269V8.18564V8.17859V8.17154V8.16449V8.15744V8.15039V8.14334V8.13629V8.12924V8.12218V8.11513V8.10808V8.10103V8.09397V8.08692V8.07986V8.07281V8.06575V8.0587V8.05164V8.04458V8.03753V8.03047V8.02341V8.01635V8.00929V8.00497C14.6866 7.73646 13.8028 7.16268 13.2871 6.10725C12.8762 5.28059 12.8198 4.40656 13.0225 3.5332C13.424 1.80042 14.9642 0.691268 16.783 0.808477C18.5413 0.916658 19.9019 2.2072 20.1068 3.97293L20.1068 3.97305C20.2083 4.85262 20.0376 5.75001 19.5505 6.49274C19.0846 7.20302 18.3375 7.7592 17.2934 8.02366V8.02546V8.03242V8.03938V8.04634V8.0533V8.06026V8.06722V8.07418V8.08114V8.0881V8.09506V8.10202V8.10898V8.11594V8.1229V8.12986V8.13682V8.14378V8.15074V8.1577V8.16466V8.17162V8.17858V8.18554V8.1925V8.19946V8.20642V8.21338V8.22034V8.2273V8.23426V8.24122V8.24819V8.25515V8.26211V8.26907V8.27603V8.28299V8.28995V8.29691V8.30387V8.31083V8.31779V8.32476V8.33172V8.33868V8.34564V8.3526V8.35956V8.36652V8.37349V8.38045V8.38741V8.39437V8.40133V8.40829V8.41526V8.42222V8.42918V8.43614V8.4431V8.45007V8.45703V8.46399V8.47095V8.47792V8.48488V8.49184V8.4988V8.50577V8.51273V8.51969V8.52666V8.53362V8.54058V8.54755V8.55451V8.56147V8.56844V8.5754V8.58236V8.58933V8.59629V8.60326V8.61022V8.61718V8.62415V8.63111V8.63808V8.64504V8.65201V8.65897V8.66594V8.6729V8.67987V8.68683V8.6938V8.70076V8.70773V8.71469V8.72166V8.72862V8.73559V8.74256V8.74952V8.75649V8.76345V8.77042V8.77739V8.78435V8.79132V8.79829V8.80525V8.81222V8.81919V8.82615V8.83312V8.84009V8.84706V8.85402V8.86099V8.86796V8.87493V8.8819V8.88886V8.89583V8.9028V8.90977V8.91674V8.92371V8.93068V8.93765V8.94462V8.95159V8.95855V8.96552V8.97249V8.97946V8.98643V8.9934V9.00037V9.00735V9.01432V9.02129V9.02826V9.03523V9.0422V9.04917V9.05614V9.06311V9.07009V9.07706V9.08403V9.091V9.09797V9.10495V9.11192V9.11889V9.12586V9.13284V9.13981V9.14678V9.15376V9.16073V9.16771V9.17468V9.18165V9.18863V9.1956V9.20258V9.20955V9.21653V9.2235V9.23048V9.23745V9.24443V9.2514V9.25838V9.26536V9.27233V9.27931V9.28628V9.29326V9.30024V9.30722V9.31419V9.32117V9.32815V9.33513V9.3421V9.34908V9.35606V9.36304V9.37002V9.377V9.38398V9.39095V9.39793V9.40491V9.41189V9.41887V9.42585V9.43283V9.43981V9.44679V9.45378V9.46076V9.46774V9.47472V9.4817V9.48868V9.49566V9.50265V9.50963V9.51661V9.52359V9.53058V9.53756V9.54454V9.55153V9.55851V9.56549V9.57248V9.57946V9.58645V9.59343V9.60042V9.6074V9.61439V9.62137V9.62836V9.63535V9.64233V9.64932V9.65631V9.66329V9.67028V9.67727V9.68425V9.69124V9.69823V9.70522V9.71221V9.7192V9.72618V9.73317V9.74016V9.74715V9.75414V9.76113V9.76812V9.77511V9.7821V9.78909V9.79608V9.80308V9.81007V9.81706V9.82405V9.83104V9.83804V9.84503V9.85202V9.85902V9.86601V9.873V9.88V9.88699V9.89398V9.90098V9.90797V9.91497V9.92196V9.92896V9.93596V9.94295V9.94995V9.95695V9.96394V9.97094V9.97794V9.98493V9.99193V9.99893V10.0059V10.0129V10.0199V10.0269V10.0339V10.0409V10.0479V10.0549V10.0619V10.0689V10.0759V10.0829V10.0899V10.0969V10.1039V10.1109V10.1179V10.1249V10.1319V10.1389V10.146V10.153V10.16V10.167V10.174V10.181V10.188V10.195V10.202V10.209V10.216V10.223V10.23V10.237V10.244V10.251V10.258V10.2651V10.2721V10.2791V10.2861V10.2931V10.3001V10.3071V10.3141V10.3211V10.3281V10.3352V10.3422V10.3492V10.3562V10.3632V10.3702V10.3772V10.3842V10.3913V10.3983V10.4053V10.4123V10.4193V10.4263V10.4333V10.4404V10.4474V10.4544V10.4614V10.4684V10.4754V10.4825V10.4895V10.4965V10.5035V10.5105V10.5175V10.5246V10.5316V10.5386V10.5456V10.5527V10.5597V10.5667V10.5737V10.5807V10.5878V10.5948V10.6018V10.6088V10.6159V10.6229V10.6299V10.6369V10.6439V10.651V10.658V10.665V10.6721V10.6791V10.6861V10.6931V10.7002V10.7072V10.7142V10.7212V10.7283V10.7353V10.7423V10.7494V10.7564V10.7634V10.7705V10.7775V10.7845V10.7915V10.7986V10.8056V10.8126V10.8197V10.8267V10.8337V10.8408V10.8478V10.8549V10.8619V10.8689V10.876V10.883V10.89V10.8971V10.9041V10.9111V10.9182V10.9252V10.9323V10.9393V10.9463V10.9534V10.9604V10.9675V10.9745V10.9815V10.9886V10.9956V11.0027V11.0097V11.0168V11.0238V11.0309V11.0379V11.0449V11.052V11.059V11.0661V11.0731V11.0802V11.0872V11.0943V11.1013V11.1084V11.1154V11.1225V11.1295V11.1366V11.1436V11.1507V11.1577V11.1648V11.1718V11.1789V11.1859V11.193V11.2V11.2071V11.2141V11.2212V11.2282V11.2353V11.2424V11.2494V11.2565V11.2635V11.2706V11.2753C19.3839 11.6173 20.9255 12.7403 21.9025 14.6556C22.3625 14.5065 22.8165 14.3574 23.2709 14.2082C23.5251 14.1247 23.7795 14.0411 24.0351 13.9575C24.1282 13.9264 24.2252 13.9032 24.3155 13.8828C24.3384 13.8777 24.3608 13.8727 24.3826 13.8679C24.4501 13.853 24.5129 13.8391 24.5743 13.8229C24.7417 13.7789 24.8413 13.7309 24.8951 13.6666L24.8968 13.6645C24.934 13.6211 24.9593 13.5285 24.9652 13.3509C24.9671 13.2907 24.967 13.23 24.9668 13.1653C24.9667 13.1404 24.9666 13.1148 24.9666 13.0885C24.9668 12.9978 24.9684 12.9002 24.979 12.8072L24.9791 12.8063C25.1945 10.9856 26.7684 9.61457 28.6374 9.60475C28.6374 9.60475 28.6374 9.60475 28.6375 9.60475L28.6385 9.80474L2.1324 10.4326ZM2.1324 10.4326C0.988097 11.4174 0.544536 12.7295 0.943768 14.2084C1.35446 15.7422 2.46864 16.5981 3.96584 16.8409C4.71109 16.9625 5.3918 16.8786 5.9912 16.5959C6.58993 16.3136 7.0944 15.8392 7.49842 15.2008C7.55967 15.1041 7.58922 15.0865 7.59827 15.0828L7.59839 15.0827C7.60101 15.0816 7.62641 15.0708 7.72237 15.1055C8.12178 15.2515 8.52881 15.3829 8.93032 15.5125C9.1437 15.5814 9.35552 15.6498 9.56381 15.7196C9.92658 15.8412 10.2963 15.9628 10.6664 16.0842C10.337 18.2164 10.9351 20.0244 12.4378 21.5369C11.807 22.408 11.1756 23.28 10.5369 24.1669C9.4943 23.8506 8.57433 23.8129 7.79023 24.078C6.96696 24.3565 6.32186 24.9592 5.85102 25.8577L5.85084 25.858C5.01347 27.4636 5.39373 29.2955 6.81899 30.4046L6.81914 30.4047C8.23301 31.5028 10.1134 31.4353 11.4228 30.2465C12.1103 29.6235 12.551 28.8386 12.6682 27.9056M2.1324 10.4326L25.4858 15.1872M25.4858 15.1872L25.4859 15.1871C25.4859 15.1871 25.4844 15.1846 25.4803 15.1799C25.4763 15.1752 25.4709 15.1696 25.4638 15.1632C25.4495 15.1501 25.4319 15.137 25.4136 15.1259C25.4023 15.1191 25.3925 15.1142 25.3847 15.1107C24.6989 15.3234 24.022 15.5466 23.3385 15.772C23.0135 15.8792 22.687 15.9868 22.3573 16.0941C22.6784 18.2009 22.0963 20.0167 20.5856 21.5547C20.9451 22.0515 21.3051 22.5515 21.6679 23.0551C21.9388 23.4312 22.2111 23.8094 22.4859 24.1899C23.5146 23.757 24.5725 23.7055 25.6051 24.2714C26.4162 24.704 26.971 25.3727 27.3185 26.1977L27.3192 26.1993C27.9931 27.8393 27.4149 29.6492 25.9131 30.6101L25.9129 30.6102C24.3894 31.5824 22.576 31.333 21.3218 29.9938L21.3212 29.993C20.6555 29.2753 20.3145 28.4739 20.3207 27.6124C20.3266 26.7926 20.6466 25.9416 21.2579 25.0784C20.6277 24.2082 19.9968 23.3365 19.3586 22.4428C18.4579 22.9135 17.5154 23.1715 16.502 23.1626C15.4983 23.1625 14.5645 22.9126 13.6558 22.4339C13.339 22.8766 13.0223 23.3124 12.7061 23.7474L12.7058 23.7477C12.5776 23.9255 12.4482 24.1043 12.3176 24.2848C12.1301 24.5439 11.9401 24.8066 11.7473 25.0745C12.4373 25.8775 12.8085 26.805 12.6682 27.9056M25.4858 15.1872L25.4897 15.1933M25.4858 15.1872L25.4897 15.1933M12.6682 27.9056C12.6682 27.9057 12.6682 27.9058 12.6682 27.9059L12.4698 27.8806M12.6682 27.9056C12.6682 27.9056 12.6682 27.9056 12.6683 27.9055L12.4698 27.8806M12.4698 27.8806C12.6082 26.7949 12.2206 25.8856 11.4916 25.0876M12.4698 27.8806L11.4916 25.0876M11.4916 25.0876C11.7167 24.7742 11.9382 24.468 12.156 24.1669C12.2865 23.9866 12.4157 23.808 12.5436 23.6307L12.5438 23.6305C12.8944 23.1481 13.2451 22.6656 13.5957 22.1739L11.4916 25.0876ZM25.4897 15.1933C26.4317 16.6482 28.2261 17.2933 29.7793 16.7101L25.4897 15.1933ZM28.5199 15.3857H28.5185C27.3779 15.3857 26.4667 14.4218 26.4667 13.1731C26.4667 12.0324 27.3909 11.1085 28.547 11.0997C29.7098 11.1001 30.6903 12.0775 30.6903 13.2473C30.6903 14.4347 29.7294 15.3942 28.5199 15.3857ZM26.0667 27.4816L26.0667 27.4829C26.071 28.126 25.8485 28.6627 25.4783 29.0381C25.1081 29.4134 24.5794 29.6385 23.9503 29.6385C22.7903 29.6385 21.8444 28.6738 21.8524 27.5024C21.8697 26.3342 22.8208 25.3702 23.9334 25.3618C25.151 25.3533 26.0667 26.2654 26.0667 27.4816ZM4.3947 15.5857L4.40036 15.3858C4.40016 15.3857 4.39996 15.3857 4.39976 15.3857C4.39954 15.3857 4.39932 15.3857 4.3991 15.3857L4.3947 15.5857ZM2.31512 13.1695C2.34894 12.0248 3.33026 11.0831 4.45569 11.0997L2.31512 13.1695ZM14.3771 4.42428V4.42282C14.3771 3.26359 15.3381 2.3123 16.5028 2.3123C17.6671 2.3123 18.6292 3.26362 18.6376 4.42427C18.646 5.5824 17.6585 6.56038 16.495 6.5519C15.3302 6.54341 14.3687 5.57407 14.3771 4.42428ZM16.539 12.7607C19.0565 12.7695 20.9625 14.7094 20.9448 17.2637C20.9272 19.6766 18.9138 21.6578 16.4947 21.6491C14.065 21.6312 12.0702 19.6404 12.0699 17.2378C12.0789 14.6651 13.9932 12.7518 16.539 12.7607ZM6.90187 27.5109C6.91033 26.3712 7.88874 25.3702 8.9829 25.3618C10.1511 25.3533 11.1901 26.3548 11.1901 27.4909C11.1901 28.6491 10.2117 29.6571 9.10134 29.6571C7.92415 29.6571 6.8935 28.6379 6.90187 27.5109Z" fill="white" stroke="white" stroke-width="0.4"/>
</svg>
