<svg width="32" height="32" viewBox="0 0 32 32" fill="none" xmlns="http://www.w3.org/2000/svg">
<mask id="path-1-outside-1_1068_1412" maskUnits="userSpaceOnUse" x="0" y="0" width="32" height="32" fill="black">
<rect fill="white" width="32" height="32"/>
<path d="M17.7873 13.9871C17.6411 13.6611 17.4174 13.5324 17.056 13.541C16.187 13.5667 15.318 13.541 14.4404 13.5582C14.3113 13.5582 14.165 13.6439 14.0704 13.7383C13.8897 13.9184 13.752 14.1415 13.58 14.3387C13.1584 14.8448 12.9433 15.411 12.9174 16.0714C12.883 17.0064 12.384 17.6498 11.558 17.8385C11.4031 17.8728 11.2397 17.8814 11.0762 17.8814C9.17469 17.8814 7.27319 17.8899 5.36309 17.8814C4.26178 17.8814 3.53904 17.1866 3.51322 16.0886C3.49602 15.3509 3.20348 14.7505 2.73886 14.2015C1.5429 12.7947 0.975029 11.1564 1.00084 9.31217C1.06107 5.76956 3.8832 2.70729 7.41086 2.35561C10.7922 2.0125 13.8037 3.87387 14.9996 7.05622C15.0771 7.27066 15.1803 7.32213 15.3954 7.32213C15.9633 7.30497 16.5398 7.30497 17.1076 7.32213C17.3571 7.33071 17.5206 7.24493 17.6755 7.05622C18.9059 5.56369 20.1448 4.07974 21.3666 2.58721C21.5645 2.33845 21.7882 2.22694 22.1152 2.23552C22.8809 2.25267 23.6381 2.23552 24.4038 2.2441C24.5931 2.2441 24.705 2.20121 24.791 2.0125C25.1438 1.25765 25.9526 0.863076 26.7355 1.04321C27.5529 1.23192 28.1208 1.92672 28.1208 2.75876C28.1208 3.57365 27.5701 4.26845 26.7614 4.45716C25.9698 4.64587 25.1524 4.25987 24.7824 3.48787C24.6964 3.31632 24.6103 3.25627 24.4211 3.25627C23.7585 3.26485 23.0874 3.26485 22.4249 3.25627C22.2184 3.25627 22.0894 3.31632 21.9603 3.47072C20.7557 4.93751 19.5254 6.38715 18.3294 7.86253C18.0541 8.20564 17.7615 8.36004 17.3141 8.34288C16.6688 8.30857 16.0321 8.33431 15.361 8.33431C15.3868 8.85755 15.4212 9.35506 15.447 9.90404C15.5503 9.90404 15.6707 9.90404 15.7826 9.90404C19.1812 9.90404 22.5798 9.90404 25.9784 9.90404C26.1935 9.90404 26.3139 9.86115 26.4172 9.63813C26.7786 8.88328 27.6046 8.52302 28.4133 8.72031C29.1877 8.91759 29.7298 9.62097 29.7211 10.4273C29.7125 11.225 29.1619 11.9284 28.3875 12.1171C27.5787 12.3144 26.7614 11.937 26.4 11.1735C26.3053 10.9763 26.1935 10.9248 25.987 10.9248C22.5282 10.9334 19.0607 10.9334 15.6019 10.9248C15.3782 10.9248 15.2664 10.9677 15.2061 11.2164C15.1115 11.6367 14.948 12.0485 14.8017 12.5117C15.0943 12.5117 15.3782 12.5117 15.6621 12.5117C16.3074 12.5117 16.9527 12.4945 17.598 12.5203C17.7873 12.5288 17.9766 12.6661 18.1487 12.7776C18.252 12.8462 18.3294 12.9663 18.3982 13.0692C18.6305 13.3952 18.8887 13.6439 19.3361 13.6783C19.7577 13.7126 20.0932 13.9956 20.2997 14.3645C20.9708 15.5396 22.597 15.531 23.2853 14.3559C23.6983 13.6525 24.4899 13.4038 25.2212 13.7469C25.9784 14.0986 26.7097 14.5189 27.3981 14.9821C28.1896 15.5139 28.3273 16.2687 27.9057 17.1265C27.5271 17.8985 27.6562 18.7306 28.3015 19.2109C28.5682 19.4082 28.9296 19.554 29.2651 19.5883C30.3234 19.6913 30.9085 20.2059 30.9687 21.2696C31.0118 21.9901 31.0118 22.7278 30.9601 23.4483C30.8999 24.4005 30.2718 24.958 29.3168 25.0009C28.0778 25.0609 27.3378 26.279 27.8627 27.4027C28.3359 28.4063 28.1896 29.0925 27.2776 29.7101C26.6581 30.1304 25.9956 30.4992 25.3245 30.8166C24.4985 31.2112 23.7413 30.9539 23.2251 30.1904C22.4765 29.0753 21.0913 29.0668 20.3341 30.1733C19.8007 30.9624 19.0693 31.2112 18.2175 30.7995C17.5034 30.4564 16.8151 30.0618 16.1612 29.6157C15.3782 29.0753 15.2319 28.3291 15.6621 27.4713C16.187 26.3991 15.6363 25.2325 14.4834 25.0181C14.2769 24.9752 14.0532 24.9923 13.8467 24.9409C13.1842 24.7865 12.7712 24.3661 12.6421 23.7057C12.47 22.7964 12.47 21.87 12.6249 20.9522C12.7626 20.1459 13.339 19.5969 14.1478 19.6055C15.4126 19.6141 16.316 18.2674 15.6277 17.0407C15.2147 16.303 15.4212 15.531 16.1009 15.0164C16.3677 14.8105 16.643 14.6218 16.9183 14.4502C17.2195 14.2959 17.5034 14.1414 17.7873 13.9871ZM8.19383 16.852C9.15748 16.852 10.1297 16.852 11.0934 16.852C11.5924 16.852 11.8419 16.6118 11.885 16.1143C11.9022 15.9085 11.9022 15.7112 11.9366 15.5053C12.057 14.6818 12.5045 14.0214 13.0207 13.3952C14.8189 11.2079 14.8706 8.09413 13.1756 5.82102C11.4892 3.56507 8.46055 2.73303 5.84492 3.81383C1.9731 5.41787 0.78574 10.2815 3.49602 13.4981C4.13271 14.253 4.5371 15.085 4.55431 16.0886C4.56292 16.5947 4.83825 16.852 5.34589 16.852C6.30093 16.852 7.24738 16.852 8.19383 16.852ZM17.013 17.9328C16.9441 19.3996 15.817 20.5748 14.3629 20.6434C13.9241 20.6605 13.7004 20.8149 13.666 21.2009C13.623 21.7671 13.58 22.3332 13.6144 22.8993C13.6746 23.8515 13.7004 23.8515 14.6297 24.0059C16.5053 24.3233 17.469 26.2189 16.6258 27.9259C16.4107 28.3548 16.4365 28.5778 16.8323 28.8352C17.426 29.2126 18.0455 29.5643 18.665 29.8902C19.0263 30.0789 19.2672 29.976 19.4909 29.65C20.6697 27.9088 22.9412 27.9002 24.1113 29.6329C24.3436 29.9846 24.5845 30.0789 24.9631 29.8816C25.5912 29.5557 26.2021 29.204 26.7958 28.818C27.1744 28.5778 27.2002 28.3462 26.9937 27.9345C26.0816 26.0817 27.2604 24.0917 29.3254 23.9801C29.7212 23.9544 29.9449 23.7829 29.9535 23.3969C29.9793 22.6849 29.9793 21.9644 29.9535 21.2524C29.9363 20.8493 29.7212 20.6691 29.3082 20.6434C27.2432 20.5233 26.0902 18.5333 27.0023 16.6719C27.1916 16.2773 27.1657 16.0457 26.8044 15.8141C26.2107 15.4367 25.5998 15.0764 24.9717 14.7505C24.5759 14.5446 24.3522 14.639 24.1027 15.0078C22.9498 16.7234 20.6611 16.7234 19.4995 14.9906C19.2586 14.639 19.0349 14.5446 18.6477 14.7419C18.0369 15.0593 17.4432 15.3938 16.8667 15.7626C16.4279 16.0457 16.4279 16.243 16.6172 16.7148C16.7893 17.1094 16.8839 17.5211 17.013 17.9328ZM27.9917 11.1392C28.3875 11.1392 28.7059 10.8304 28.7059 10.4273C28.7059 10.0327 28.3961 9.70675 28.0003 9.69817C27.6046 9.68959 27.2604 10.0327 27.2604 10.4273C27.269 10.8219 27.596 11.1392 27.9917 11.1392ZM27.0969 2.75018C27.0969 2.35561 26.7786 2.03823 26.3828 2.03823C25.987 2.03823 25.6686 2.34703 25.66 2.74161C25.6514 3.14476 25.987 3.47072 26.3914 3.47072C26.7872 3.46214 27.0969 3.14476 27.0969 2.75018Z"/>
</mask>
<path d="M17.7873 13.9871C17.6411 13.6611 17.4174 13.5324 17.056 13.541C16.187 13.5667 15.318 13.541 14.4404 13.5582C14.3113 13.5582 14.165 13.6439 14.0704 13.7383C13.8897 13.9184 13.752 14.1415 13.58 14.3387C13.1584 14.8448 12.9433 15.411 12.9174 16.0714C12.883 17.0064 12.384 17.6498 11.558 17.8385C11.4031 17.8728 11.2397 17.8814 11.0762 17.8814C9.17469 17.8814 7.27319 17.8899 5.36309 17.8814C4.26178 17.8814 3.53904 17.1866 3.51322 16.0886C3.49602 15.3509 3.20348 14.7505 2.73886 14.2015C1.5429 12.7947 0.975029 11.1564 1.00084 9.31217C1.06107 5.76956 3.8832 2.70729 7.41086 2.35561C10.7922 2.0125 13.8037 3.87387 14.9996 7.05622C15.0771 7.27066 15.1803 7.32213 15.3954 7.32213C15.9633 7.30497 16.5398 7.30497 17.1076 7.32213C17.3571 7.33071 17.5206 7.24493 17.6755 7.05622C18.9059 5.56369 20.1448 4.07974 21.3666 2.58721C21.5645 2.33845 21.7882 2.22694 22.1152 2.23552C22.8809 2.25267 23.6381 2.23552 24.4038 2.2441C24.5931 2.2441 24.705 2.20121 24.791 2.0125C25.1438 1.25765 25.9526 0.863076 26.7355 1.04321C27.5529 1.23192 28.1208 1.92672 28.1208 2.75876C28.1208 3.57365 27.5701 4.26845 26.7614 4.45716C25.9698 4.64587 25.1524 4.25987 24.7824 3.48787C24.6964 3.31632 24.6103 3.25627 24.4211 3.25627C23.7585 3.26485 23.0874 3.26485 22.4249 3.25627C22.2184 3.25627 22.0894 3.31632 21.9603 3.47072C20.7557 4.93751 19.5254 6.38715 18.3294 7.86253C18.0541 8.20564 17.7615 8.36004 17.3141 8.34288C16.6688 8.30857 16.0321 8.33431 15.361 8.33431C15.3868 8.85755 15.4212 9.35506 15.447 9.90404C15.5503 9.90404 15.6707 9.90404 15.7826 9.90404C19.1812 9.90404 22.5798 9.90404 25.9784 9.90404C26.1935 9.90404 26.3139 9.86115 26.4172 9.63813C26.7786 8.88328 27.6046 8.52302 28.4133 8.72031C29.1877 8.91759 29.7298 9.62097 29.7211 10.4273C29.7125 11.225 29.1619 11.9284 28.3875 12.1171C27.5787 12.3144 26.7614 11.937 26.4 11.1735C26.3053 10.9763 26.1935 10.9248 25.987 10.9248C22.5282 10.9334 19.0607 10.9334 15.6019 10.9248C15.3782 10.9248 15.2664 10.9677 15.2061 11.2164C15.1115 11.6367 14.948 12.0485 14.8017 12.5117C15.0943 12.5117 15.3782 12.5117 15.6621 12.5117C16.3074 12.5117 16.9527 12.4945 17.598 12.5203C17.7873 12.5288 17.9766 12.6661 18.1487 12.7776C18.252 12.8462 18.3294 12.9663 18.3982 13.0692C18.6305 13.3952 18.8887 13.6439 19.3361 13.6783C19.7577 13.7126 20.0932 13.9956 20.2997 14.3645C20.9708 15.5396 22.597 15.531 23.2853 14.3559C23.6983 13.6525 24.4899 13.4038 25.2212 13.7469C25.9784 14.0986 26.7097 14.5189 27.3981 14.9821C28.1896 15.5139 28.3273 16.2687 27.9057 17.1265C27.5271 17.8985 27.6562 18.7306 28.3015 19.2109C28.5682 19.4082 28.9296 19.554 29.2651 19.5883C30.3234 19.6913 30.9085 20.2059 30.9687 21.2696C31.0118 21.9901 31.0118 22.7278 30.9601 23.4483C30.8999 24.4005 30.2718 24.958 29.3168 25.0009C28.0778 25.0609 27.3378 26.279 27.8627 27.4027C28.3359 28.4063 28.1896 29.0925 27.2776 29.7101C26.6581 30.1304 25.9956 30.4992 25.3245 30.8166C24.4985 31.2112 23.7413 30.9539 23.2251 30.1904C22.4765 29.0753 21.0913 29.0668 20.3341 30.1733C19.8007 30.9624 19.0693 31.2112 18.2175 30.7995C17.5034 30.4564 16.8151 30.0618 16.1612 29.6157C15.3782 29.0753 15.2319 28.3291 15.6621 27.4713C16.187 26.3991 15.6363 25.2325 14.4834 25.0181C14.2769 24.9752 14.0532 24.9923 13.8467 24.9409C13.1842 24.7865 12.7712 24.3661 12.6421 23.7057C12.47 22.7964 12.47 21.87 12.6249 20.9522C12.7626 20.1459 13.339 19.5969 14.1478 19.6055C15.4126 19.6141 16.316 18.2674 15.6277 17.0407C15.2147 16.303 15.4212 15.531 16.1009 15.0164C16.3677 14.8105 16.643 14.6218 16.9183 14.4502C17.2195 14.2959 17.5034 14.1414 17.7873 13.9871ZM8.19383 16.852C9.15748 16.852 10.1297 16.852 11.0934 16.852C11.5924 16.852 11.8419 16.6118 11.885 16.1143C11.9022 15.9085 11.9022 15.7112 11.9366 15.5053C12.057 14.6818 12.5045 14.0214 13.0207 13.3952C14.8189 11.2079 14.8706 8.09413 13.1756 5.82102C11.4892 3.56507 8.46055 2.73303 5.84492 3.81383C1.9731 5.41787 0.78574 10.2815 3.49602 13.4981C4.13271 14.253 4.5371 15.085 4.55431 16.0886C4.56292 16.5947 4.83825 16.852 5.34589 16.852C6.30093 16.852 7.24738 16.852 8.19383 16.852ZM17.013 17.9328C16.9441 19.3996 15.817 20.5748 14.3629 20.6434C13.9241 20.6605 13.7004 20.8149 13.666 21.2009C13.623 21.7671 13.58 22.3332 13.6144 22.8993C13.6746 23.8515 13.7004 23.8515 14.6297 24.0059C16.5053 24.3233 17.469 26.2189 16.6258 27.9259C16.4107 28.3548 16.4365 28.5778 16.8323 28.8352C17.426 29.2126 18.0455 29.5643 18.665 29.8902C19.0263 30.0789 19.2672 29.976 19.4909 29.65C20.6697 27.9088 22.9412 27.9002 24.1113 29.6329C24.3436 29.9846 24.5845 30.0789 24.9631 29.8816C25.5912 29.5557 26.2021 29.204 26.7958 28.818C27.1744 28.5778 27.2002 28.3462 26.9937 27.9345C26.0816 26.0817 27.2604 24.0917 29.3254 23.9801C29.7212 23.9544 29.9449 23.7829 29.9535 23.3969C29.9793 22.6849 29.9793 21.9644 29.9535 21.2524C29.9363 20.8493 29.7212 20.6691 29.3082 20.6434C27.2432 20.5233 26.0902 18.5333 27.0023 16.6719C27.1916 16.2773 27.1657 16.0457 26.8044 15.8141C26.2107 15.4367 25.5998 15.0764 24.9717 14.7505C24.5759 14.5446 24.3522 14.639 24.1027 15.0078C22.9498 16.7234 20.6611 16.7234 19.4995 14.9906C19.2586 14.639 19.0349 14.5446 18.6477 14.7419C18.0369 15.0593 17.4432 15.3938 16.8667 15.7626C16.4279 16.0457 16.4279 16.243 16.6172 16.7148C16.7893 17.1094 16.8839 17.5211 17.013 17.9328ZM27.9917 11.1392C28.3875 11.1392 28.7059 10.8304 28.7059 10.4273C28.7059 10.0327 28.3961 9.70675 28.0003 9.69817C27.6046 9.68959 27.2604 10.0327 27.2604 10.4273C27.269 10.8219 27.596 11.1392 27.9917 11.1392ZM27.0969 2.75018C27.0969 2.35561 26.7786 2.03823 26.3828 2.03823C25.987 2.03823 25.6686 2.34703 25.66 2.74161C25.6514 3.14476 25.987 3.47072 26.3914 3.47072C26.7872 3.46214 27.0969 3.14476 27.0969 2.75018Z" fill="white"/>
<path d="M17.7873 13.9871C17.6411 13.6611 17.4174 13.5324 17.056 13.541C16.187 13.5667 15.318 13.541 14.4404 13.5582C14.3113 13.5582 14.165 13.6439 14.0704 13.7383C13.8897 13.9184 13.752 14.1415 13.58 14.3387C13.1584 14.8448 12.9433 15.411 12.9174 16.0714C12.883 17.0064 12.384 17.6498 11.558 17.8385C11.4031 17.8728 11.2397 17.8814 11.0762 17.8814C9.17469 17.8814 7.27319 17.8899 5.36309 17.8814C4.26178 17.8814 3.53904 17.1866 3.51322 16.0886C3.49602 15.3509 3.20348 14.7505 2.73886 14.2015C1.5429 12.7947 0.975029 11.1564 1.00084 9.31217C1.06107 5.76956 3.8832 2.70729 7.41086 2.35561C10.7922 2.0125 13.8037 3.87387 14.9996 7.05622C15.0771 7.27066 15.1803 7.32213 15.3954 7.32213C15.9633 7.30497 16.5398 7.30497 17.1076 7.32213C17.3571 7.33071 17.5206 7.24493 17.6755 7.05622C18.9059 5.56369 20.1448 4.07974 21.3666 2.58721C21.5645 2.33845 21.7882 2.22694 22.1152 2.23552C22.8809 2.25267 23.6381 2.23552 24.4038 2.2441C24.5931 2.2441 24.705 2.20121 24.791 2.0125C25.1438 1.25765 25.9526 0.863076 26.7355 1.04321C27.5529 1.23192 28.1208 1.92672 28.1208 2.75876C28.1208 3.57365 27.5701 4.26845 26.7614 4.45716C25.9698 4.64587 25.1524 4.25987 24.7824 3.48787C24.6964 3.31632 24.6103 3.25627 24.4211 3.25627C23.7585 3.26485 23.0874 3.26485 22.4249 3.25627C22.2184 3.25627 22.0894 3.31632 21.9603 3.47072C20.7557 4.93751 19.5254 6.38715 18.3294 7.86253C18.0541 8.20564 17.7615 8.36004 17.3141 8.34288C16.6688 8.30857 16.0321 8.33431 15.361 8.33431C15.3868 8.85755 15.4212 9.35506 15.447 9.90404C15.5503 9.90404 15.6707 9.90404 15.7826 9.90404C19.1812 9.90404 22.5798 9.90404 25.9784 9.90404C26.1935 9.90404 26.3139 9.86115 26.4172 9.63813C26.7786 8.88328 27.6046 8.52302 28.4133 8.72031C29.1877 8.91759 29.7298 9.62097 29.7211 10.4273C29.7125 11.225 29.1619 11.9284 28.3875 12.1171C27.5787 12.3144 26.7614 11.937 26.4 11.1735C26.3053 10.9763 26.1935 10.9248 25.987 10.9248C22.5282 10.9334 19.0607 10.9334 15.6019 10.9248C15.3782 10.9248 15.2664 10.9677 15.2061 11.2164C15.1115 11.6367 14.948 12.0485 14.8017 12.5117C15.0943 12.5117 15.3782 12.5117 15.6621 12.5117C16.3074 12.5117 16.9527 12.4945 17.598 12.5203C17.7873 12.5288 17.9766 12.6661 18.1487 12.7776C18.252 12.8462 18.3294 12.9663 18.3982 13.0692C18.6305 13.3952 18.8887 13.6439 19.3361 13.6783C19.7577 13.7126 20.0932 13.9956 20.2997 14.3645C20.9708 15.5396 22.597 15.531 23.2853 14.3559C23.6983 13.6525 24.4899 13.4038 25.2212 13.7469C25.9784 14.0986 26.7097 14.5189 27.3981 14.9821C28.1896 15.5139 28.3273 16.2687 27.9057 17.1265C27.5271 17.8985 27.6562 18.7306 28.3015 19.2109C28.5682 19.4082 28.9296 19.554 29.2651 19.5883C30.3234 19.6913 30.9085 20.2059 30.9687 21.2696C31.0118 21.9901 31.0118 22.7278 30.9601 23.4483C30.8999 24.4005 30.2718 24.958 29.3168 25.0009C28.0778 25.0609 27.3378 26.279 27.8627 27.4027C28.3359 28.4063 28.1896 29.0925 27.2776 29.7101C26.6581 30.1304 25.9956 30.4992 25.3245 30.8166C24.4985 31.2112 23.7413 30.9539 23.2251 30.1904C22.4765 29.0753 21.0913 29.0668 20.3341 30.1733C19.8007 30.9624 19.0693 31.2112 18.2175 30.7995C17.5034 30.4564 16.8151 30.0618 16.1612 29.6157C15.3782 29.0753 15.2319 28.3291 15.6621 27.4713C16.187 26.3991 15.6363 25.2325 14.4834 25.0181C14.2769 24.9752 14.0532 24.9923 13.8467 24.9409C13.1842 24.7865 12.7712 24.3661 12.6421 23.7057C12.47 22.7964 12.47 21.87 12.6249 20.9522C12.7626 20.1459 13.339 19.5969 14.1478 19.6055C15.4126 19.6141 16.316 18.2674 15.6277 17.0407C15.2147 16.303 15.4212 15.531 16.1009 15.0164C16.3677 14.8105 16.643 14.6218 16.9183 14.4502C17.2195 14.2959 17.5034 14.1414 17.7873 13.9871ZM8.19383 16.852C9.15748 16.852 10.1297 16.852 11.0934 16.852C11.5924 16.852 11.8419 16.6118 11.885 16.1143C11.9022 15.9085 11.9022 15.7112 11.9366 15.5053C12.057 14.6818 12.5045 14.0214 13.0207 13.3952C14.8189 11.2079 14.8706 8.09413 13.1756 5.82102C11.4892 3.56507 8.46055 2.73303 5.84492 3.81383C1.9731 5.41787 0.78574 10.2815 3.49602 13.4981C4.13271 14.253 4.5371 15.085 4.55431 16.0886C4.56292 16.5947 4.83825 16.852 5.34589 16.852C6.30093 16.852 7.24738 16.852 8.19383 16.852ZM17.013 17.9328C16.9441 19.3996 15.817 20.5748 14.3629 20.6434C13.9241 20.6605 13.7004 20.8149 13.666 21.2009C13.623 21.7671 13.58 22.3332 13.6144 22.8993C13.6746 23.8515 13.7004 23.8515 14.6297 24.0059C16.5053 24.3233 17.469 26.2189 16.6258 27.9259C16.4107 28.3548 16.4365 28.5778 16.8323 28.8352C17.426 29.2126 18.0455 29.5643 18.665 29.8902C19.0263 30.0789 19.2672 29.976 19.4909 29.65C20.6697 27.9088 22.9412 27.9002 24.1113 29.6329C24.3436 29.9846 24.5845 30.0789 24.9631 29.8816C25.5912 29.5557 26.2021 29.204 26.7958 28.818C27.1744 28.5778 27.2002 28.3462 26.9937 27.9345C26.0816 26.0817 27.2604 24.0917 29.3254 23.9801C29.7212 23.9544 29.9449 23.7829 29.9535 23.3969C29.9793 22.6849 29.9793 21.9644 29.9535 21.2524C29.9363 20.8493 29.7212 20.6691 29.3082 20.6434C27.2432 20.5233 26.0902 18.5333 27.0023 16.6719C27.1916 16.2773 27.1657 16.0457 26.8044 15.8141C26.2107 15.4367 25.5998 15.0764 24.9717 14.7505C24.5759 14.5446 24.3522 14.639 24.1027 15.0078C22.9498 16.7234 20.6611 16.7234 19.4995 14.9906C19.2586 14.639 19.0349 14.5446 18.6477 14.7419C18.0369 15.0593 17.4432 15.3938 16.8667 15.7626C16.4279 16.0457 16.4279 16.243 16.6172 16.7148C16.7893 17.1094 16.8839 17.5211 17.013 17.9328ZM27.9917 11.1392C28.3875 11.1392 28.7059 10.8304 28.7059 10.4273C28.7059 10.0327 28.3961 9.70675 28.0003 9.69817C27.6046 9.68959 27.2604 10.0327 27.2604 10.4273C27.269 10.8219 27.596 11.1392 27.9917 11.1392ZM27.0969 2.75018C27.0969 2.35561 26.7786 2.03823 26.3828 2.03823C25.987 2.03823 25.6686 2.34703 25.66 2.74161C25.6514 3.14476 25.987 3.47072 26.3914 3.47072C26.7872 3.46214 27.0969 3.14476 27.0969 2.75018Z" stroke="white" stroke-width="0.6" mask="url(#path-1-outside-1_1068_1412)"/>
<path d="M5.28685 20.4592L5.28685 20.4592C5.16726 20.4532 5.03943 20.4022 4.93398 20.3374C4.82877 20.2727 4.7245 20.1812 4.66463 20.0741C4.60327 19.9662 4.60961 19.8271 4.62962 19.7215C4.65078 19.6097 4.69549 19.4919 4.75583 19.4033C4.81556 19.309 4.91855 19.2495 5.00783 19.2141C5.10221 19.1767 5.20895 19.1553 5.30257 19.1553M5.28685 20.4592L5.30292 19.3053M5.28685 20.4592L5.28907 20.4593C6.02767 20.4851 6.76241 20.4819 7.49613 20.4787C7.74027 20.4776 7.98429 20.4765 8.2283 20.4765C8.46831 20.4765 8.70914 20.4771 8.9503 20.4776C9.67515 20.4792 10.403 20.4808 11.1207 20.4679M5.28685 20.4592L11.1193 20.3179M5.30257 19.1553C5.30269 19.1553 5.3028 19.1553 5.30292 19.1553V19.3053M5.30257 19.1553C5.30247 19.1553 5.30236 19.1553 5.30226 19.1553L5.30292 19.3053M5.30257 19.1553C7.24713 19.1467 9.19164 19.1467 11.1272 19.1467H11.1279C11.3361 19.1467 11.5184 19.213 11.6501 19.3345C11.7823 19.4564 11.8543 19.6258 11.8543 19.8116C11.8543 20.0013 11.7825 20.1702 11.6464 20.29C11.5124 20.408 11.3286 20.4677 11.1207 20.4679M5.30292 19.3053C7.24744 19.2967 9.19195 19.2967 11.1279 19.2967C11.4806 19.2967 11.7043 19.5198 11.7043 19.8116C11.7043 20.112 11.4806 20.3179 11.1193 20.3179M11.1207 20.4679C11.1211 20.4679 11.1215 20.4679 11.122 20.4679L11.1193 20.3179M11.1207 20.4679C11.1202 20.4679 11.1197 20.4679 11.1193 20.4679V20.3179" fill="white" stroke="white" stroke-width="0.3"/>
<path d="M6.5228 22.9386L6.5228 22.9386L6.52371 22.9386C6.90374 22.9443 7.28503 22.9424 7.66455 22.9405C7.85346 22.9396 8.04193 22.9386 8.22958 22.9386H8.23286H8.23614H8.23941H8.24269H8.24597H8.24924H8.25252H8.2558H8.25907H8.26235H8.26563H8.26891H8.27218H8.27546H8.27874H8.28201H8.28529H8.28857H8.29184H8.29512H8.2984H8.30168H8.30495H8.30823H8.31151H8.31478H8.31806H8.32134H8.32461H8.32789H8.33117H8.33445H8.33772H8.341H8.34428H8.34755H8.35083H8.35411H8.35739H8.36066H8.36394H8.36722H8.3705H8.37377H8.37705H8.38033H8.3836H8.38688H8.39016H8.39344H8.39671H8.39999H8.40327H8.40655H8.40982H8.4131H8.41638H8.41966H8.42293H8.42621H8.42949H8.43277H8.43604H8.43932H8.4426H8.44588H8.44916H8.45243H8.45571H8.45899H8.46227H8.46555H8.46882H8.4721H8.47538H8.47866H8.48194H8.48521H8.48849H8.49177H8.49505H8.49833H8.5016H8.50488H8.50816H8.51144H8.51472H8.518H8.52127H8.52455H8.52783H8.53111H8.53439H8.53767H8.54095H8.54422H8.5475H8.55078H8.55406H8.55734H8.56062H8.5639H8.56718H8.57046H8.57373H8.57701H8.58029H8.58357H8.58685H8.59013H8.59341H8.59669H8.59997H8.60325H8.60653H8.60981H8.61309H8.61637H8.61964H8.62292H8.6262H8.62948H8.63276H8.63604H8.63932H8.6426H8.64588H8.64916H8.65244H8.65572H8.659H8.66228H8.66556H8.66885H8.67213H8.67541H8.67869H8.68197H8.68525H8.68853H8.69181H8.69509H8.69837H8.70165H8.70493H8.70821H8.71149H8.71478H8.71806H8.72134H8.72462H8.7279H8.73118H8.73446H8.73775H8.74103H8.74431H8.74759H8.75087H8.75415H8.75744H8.76072H8.764H8.76728H8.77056H8.77385H8.77713H8.78041H8.78369H8.78698H8.79026H8.79354H8.79682H8.80011H8.80339H8.80667H8.80995H8.81324H8.81652H8.8198H8.82309H8.82637H8.82965H8.83294H8.83622H8.8395H8.84279H8.84607H8.84935H8.85264H8.85592H8.85921H8.86249H8.86577H8.86906H8.87234H8.87563H8.87891H8.8822H8.88548H8.88877H8.89205H8.89534H8.89862H8.90191H8.90519H8.90848H8.91176H8.91505H8.91833H8.92162H8.9249H8.92819H8.93147H8.93476H8.93805H8.94133H8.94462H8.9479H8.95119H8.95448H8.95776H8.96105H8.96434H8.96762H8.97091H8.9742H8.97748H8.98077H8.98406H8.98734H8.99063H8.99392H8.99721H9.00049H9.00378H9.00707H9.01036H9.01364H9.01693H9.02022H9.02351H9.0268H9.03008H9.03337H9.03666H9.03995H9.04324H9.04653H9.04982H9.05311H9.05639H9.05968H9.06297H9.06626H9.06955H9.07284H9.07613H9.07942H9.08271H9.086H9.08929H9.09258H9.09587H9.09916H9.10245H9.10574H9.10903H9.11232H9.11562H9.11891H9.1222H9.12549H9.12878H9.13207H9.13536H9.13865H9.14195H9.14524H9.14853H9.15182H9.15511H9.15841H9.1617H9.16499H9.16828H9.17158H9.17487H9.17816H9.18146H9.18475H9.18804H9.19134H9.19463H9.19792H9.20122H9.20451H9.2078H9.2111H9.21439H9.21769H9.22098H9.22428H9.22757H9.23087H9.23416H9.23745H9.24075H9.24405H9.24734H9.25064H9.25393H9.25723H9.26052H9.26382H9.26712H9.27041H9.27371H9.277H9.2803H9.2836H9.28689H9.29019H9.29349H9.29679H9.30008H9.30338H9.30668H9.30998H9.31327H9.31657H9.31987H9.32317H9.32647H9.32976H9.33306H9.33636H9.33966H9.34296H9.34626H9.34956H9.35286H9.35616H9.35946H9.36276H9.36606H9.36936H9.37266H9.37596H9.37926H9.38256H9.38586H9.38916H9.39246H9.39576H9.39906H9.40236H9.40566H9.40897H9.41227H9.41557H9.41887H9.42217H9.42548H9.42878H9.43208H9.43538H9.43869H9.44199H9.44529H9.4486H9.4519H9.4552H9.45851H9.46181H9.46512H9.46842H9.47172H9.47503H9.47833H9.48164H9.48494H9.48825H9.49155H9.49486H9.49816H9.50147H9.50478H9.50808H9.51139H9.51469H9.518H9.52131H9.52461H9.52792H9.53123H9.53453H9.53784H9.54115H9.54446H9.54777H9.55107H9.55438H9.55769H9.561H9.56431H9.56762H9.57092H9.57423H9.57754H9.58085H9.58416H9.58747H9.59078H9.59409H9.5974H9.60071H9.60402H9.60733H9.61064H9.61395H9.61726H9.62058H9.62389H9.6272H9.63051H9.63382H9.63713H9.64045H9.64376H9.64707H9.65038H9.6537H9.65701H9.66032H9.66364H9.66695H9.67026H9.67358H9.67689H9.68021H9.68352H9.68684H9.69015H9.69347H9.69678H9.7001H9.70341H9.70673H9.71004H9.71336H9.71668H9.71999H9.72331H9.72662H9.72994H9.73326H9.73658H9.73989H9.74321H9.74653H9.74985H9.75316H9.75648H9.7598H9.76312H9.76644H9.76976H9.77308H9.7764H9.77972H9.78303H9.78635H9.78967H9.79299H9.79632H9.79964H9.80296H9.80628H9.8096H9.81292H9.81624H9.81956H9.82289H9.82621H9.82953H9.83285H9.83617H9.8395H9.84282H9.84614H9.84947H9.85279H9.85611H9.85944H9.86276H9.86609H9.86941H9.87274H9.87606H9.87939H9.88271H9.88604H9.88936H9.89269H9.89601H9.89934H9.90267H9.90599H9.90932H9.91265H9.91598V22.9387L9.91916 22.9386C10.1417 22.9339 10.3388 22.8794 10.4836 22.7645C10.633 22.6458 10.7113 22.4745 10.7113 22.2737C10.7113 22.0735 10.6334 21.9002 10.4842 21.7803C10.339 21.6635 10.1407 21.6088 9.91598 21.6088H9.90937H9.90277H9.89616H9.88956H9.88295H9.87635H9.86975H9.86314H9.85654H9.84993H9.84333H9.83672H9.83012H9.82352H9.81691H9.81031H9.8037H9.7971H9.79049H9.78389H9.77729H9.77068H9.76408H9.75747H9.75087H9.74426H9.73766H9.73106H9.72445H9.71785H9.71124H9.70464H9.69803H9.69143H9.68483H9.67822H9.67162H9.66501H9.65841H9.6518H9.6452H9.6386H9.63199H9.62539H9.61878H9.61218H9.60557H9.59897H9.59237H9.58576H9.57916H9.57255H9.56595H9.55934H9.55274H9.54614H9.53953H9.53293H9.52632H9.51972H9.51311H9.50651H9.49991H9.4933H9.4867H9.48009H9.47349H9.46688H9.46028H9.45368H9.44707H9.44047H9.43386H9.42726H9.42065H9.41405H9.40745H9.40084H9.39424H9.38763H9.38103H9.37442H9.36782H9.36122H9.35461H9.34801H9.3414H9.3348H9.32819H9.32159H9.31499H9.30838H9.30178H9.29517H9.28857H9.28196H9.27536H9.26876H9.26215H9.25555H9.24894H9.24234H9.23573H9.22913H9.22253H9.21592H9.20932H9.20271H9.19611H9.1895H9.1829H9.1763H9.16969H9.16309H9.15648H9.14988H9.14327H9.13667H9.13007H9.12346H9.11686H9.11025H9.10365H9.09704H9.09044H9.08384H9.07723H9.07063H9.06402H9.05742H9.05081H9.04421H9.03761H9.031H9.0244H9.01779H9.01119H9.00458H8.99798H8.99138H8.98477H8.97817H8.97156H8.96496H8.95835H8.95175H8.94515H8.93854H8.93194H8.92533H8.91873H8.91212H8.90552H8.89892H8.89231H8.88571H8.8791H8.8725H8.8659H8.85929H8.85269H8.84608H8.83948H8.83287H8.82627H8.81967H8.81306H8.80646H8.79985H8.79325H8.78664H8.78004H8.77344H8.76683H8.76023H8.75362H8.74702H8.74041H8.73381H8.72721H8.7206H8.714H8.70739H8.70079H8.69418H8.68758H8.68098H8.67437H8.66777H8.66116H8.65456H8.64795H8.64135H8.63475H8.62814H8.62154H8.61493H8.60833H8.60172H8.59512H8.58852H8.58191H8.57531H8.5687H8.5621H8.55549H8.54889H8.54229H8.53568H8.52908H8.52247H8.51587H8.50926H8.50266H8.49606H8.48945H8.48285H8.47624H8.46964H8.46303H8.45643H8.44983H8.44322H8.43662H8.43001H8.42341H8.4168H8.4102H8.4036H8.39699H8.39039H8.38378H8.37718H8.37057H8.36397H8.35737H8.35076H8.34416H8.33755H8.33095H8.32434H8.31774H8.31114H8.30453H8.29793H8.29132H8.28472H8.27811H8.27151H8.26491H8.2583H8.2517H8.24509H8.23849H8.23188H8.22528H8.21868H8.21207H8.20547H8.19886H8.19226H8.18565H8.17905H8.17245H8.16584H8.15924H8.15263H8.14603H8.13942H8.13282H8.12622H8.11961H8.11301H8.1064H8.0998H8.09319H8.08659H8.07999H8.07338H8.06678H8.06017H8.05357H8.04696H8.04036H8.03376H8.02715H8.02055H8.01394H8.00734H8.00073H7.99413H7.98753H7.98092H7.97432H7.96771H7.96111H7.9545H7.9479H7.9413H7.93469H7.92809H7.92148H7.91488H7.90827H7.90167H7.89507H7.88846H7.88186H7.87525H7.86865H7.86204H7.85544H7.84884H7.84223H7.83563H7.82902H7.82242H7.81581H7.80921H7.80261H7.796H7.7894H7.78279H7.77619H7.76959H7.76298H7.75638H7.74977H7.74317H7.73656H7.72996H7.72336H7.71675H7.71015H7.70354H7.69694H7.69033H7.68373H7.67713H7.67052H7.66392H7.65731H7.65071H7.6441H7.6375H7.6309H7.62429H7.61769H7.61108H7.60448H7.59787H7.59127H7.58467H7.57806H7.57146H7.56485H7.55825H7.55164H7.54504H7.53844H7.53183H7.52523H7.51862H7.51202H7.50541H7.49881H7.49221H7.4856H7.479H7.47239H7.46579H7.45918H7.45258H7.44598H7.43937H7.43277H7.42616H7.41956H7.41295H7.40635H7.39975H7.39314H7.38654H7.37993H7.37333H7.36672H7.36012H7.35352H7.34691H7.34031H7.3337H7.3271H7.32049H7.31389H7.30729H7.30068H7.29408H7.28747H7.28087H7.27426H7.26766H7.26106H7.25445H7.24785H7.24124H7.23464H7.22803H7.22143H7.21483H7.20822H7.20162H7.19501H7.18841H7.1818H7.1752H7.1686H7.16199H7.15539H7.14878H7.14218H7.13557H7.12897H7.12237H7.11576H7.10916H7.10255H7.09595H7.08934H7.08274H7.07614H7.06953H7.06293H7.05632H7.04972H7.04311H7.03651H7.02991H7.0233H7.0167H7.01009H7.00349H6.99688H6.99028H6.98368H6.97707H6.97047H6.96386H6.95726H6.95065H6.94405H6.93745H6.93084H6.92424H6.91763H6.91103H6.90442H6.89782H6.89122H6.88461H6.87801H6.8714H6.8648H6.85819H6.85159H6.84499H6.83838H6.83178H6.82517H6.81857H6.81196H6.80536H6.79876H6.79215H6.78555H6.77894H6.77234H6.76573H6.75913H6.75253H6.74592H6.73932H6.73271H6.72611H6.7195H6.7129H6.7063H6.69969H6.69309H6.68648H6.67988H6.67327H6.66667H6.66007H6.65346H6.64686H6.64025H6.63365H6.62704H6.62044H6.61384H6.60723H6.60063H6.59402H6.58742H6.58082H6.57421H6.56761H6.561H6.5544H6.54779H6.54119H6.53459C6.3147 21.6088 6.12255 21.6611 5.98121 21.775C5.83625 21.8919 5.76191 22.0598 5.75655 22.2524L5.75654 22.2526C5.75124 22.4534 5.81877 22.6301 5.96322 22.7551C6.10365 22.8766 6.29902 22.9338 6.5228 22.9386Z" fill="white" stroke="white" stroke-width="0.3"/>
<path d="M4.04223 9.65081C4.2141 9.65616 4.37138 9.60454 4.49282 9.4879C4.61142 9.37399 4.68189 9.21154 4.71116 9.01915C4.84069 8.29181 5.11244 7.69423 5.52121 7.21828C5.93022 6.74205 6.48263 6.38034 7.18424 6.13452C7.37914 6.0695 7.53182 5.95426 7.61712 5.79716C7.70308 5.63883 7.711 5.45534 7.6478 5.27537C7.53196 4.92092 7.16499 4.75643 6.78065 4.88031C6.50093 4.96748 6.21532 5.07384 5.95368 5.21774C4.5198 6.00311 3.6563 7.20942 3.40819 8.83491L3.40818 8.83491L3.40799 8.83627C3.37724 9.05081 3.42472 9.25151 3.54079 9.40251C3.65752 9.55437 3.83575 9.64518 4.04223 9.65081ZM4.04223 9.65081L4.0469 9.50088M4.04223 9.65081C4.04247 9.65081 4.04272 9.65082 4.04297 9.65083L4.0469 9.50088M4.0469 9.50088C4.32223 9.50946 4.51152 9.3379 4.56314 8.99479L3.55647 8.85755C3.50484 9.21781 3.71995 9.4923 4.0469 9.50088Z" fill="white" stroke="white" stroke-width="0.3"/>
<path d="M21.7888 24.6108C21.7888 24.6108 21.7888 24.6108 21.7888 24.6108L21.7879 24.7608C23.1473 24.7693 24.2572 23.68 24.2658 22.3247C24.2745 20.9951 23.1731 19.88 21.8395 19.8629M21.7888 24.6108C23.0661 24.6188 24.1078 23.5955 24.1159 22.3237V22.3237C24.1239 21.0774 23.0895 20.029 21.8376 20.0129M21.7888 24.6108C20.5286 24.6027 19.5024 23.5797 19.4943 22.3151C19.4863 21.0368 20.5433 19.9967 21.8376 20.0129M21.7888 24.6108L21.8395 19.8629M21.8376 20.0129L21.8395 19.8629M21.8376 20.0129C21.8376 20.0129 21.8376 20.0129 21.8376 20.0129L21.8395 19.8629M21.7958 18.6835C19.7954 18.6925 18.1525 20.3373 18.1705 22.326L25.4569 22.2976C25.4569 22.2976 25.4569 22.2976 25.4569 22.2976C25.439 20.2939 23.806 18.6746 21.7958 18.6835Z" fill="white" stroke="white" stroke-width="0.3"/>
</svg>
