<svg width="144" height="45" viewBox="0 0 144 45" fill="none" xmlns="http://www.w3.org/2000/svg">
<path d="M74.9707 12.5171H70.8002L68.448 16.3176H72.6165L74.9707 12.5171ZM85.7895 22.5171C83.6048 22.6972 79.7448 24.6447 77.6424 28.9C75.5401 33.1554 75.5324 35.7823 75.5324 35.7823C75.5324 35.7823 76.6411 34.571 78.3409 33.3028C80.0406 32.0345 81.3057 31.584 81.3057 31.584C81.3057 31.584 81.6211 30.0216 82.406 28.3876C83.1694 26.7981 84.3807 25.1433 85.8795 24.7678C88.9176 24.0057 87.4627 29.5314 85.2313 33.1345C84.0318 35.071 79.7776 40.6362 76.115 40.6362C72.4525 40.6362 71.7457 37.1173 72.5181 33.827C73.2898 30.5375 74.3581 26.358 79.7015 18.7638C85.045 11.1695 90.8287 6.66739 94.1766 4.77544C97.6151 2.83343 99.0163 3.6845 99.0163 3.6845C99.0163 3.6845 94.6266 6.37884 92.1293 9.62039C89.7416 12.7187 88.3168 16.205 89.4248 17.9134C90.4798 19.5411 94.1989 19.5717 98.2941 13.6796C102.336 7.86333 101.315 4.40484 101.315 4.40484C101.315 4.40484 101.804 4.24631 102.132 4.20251C104.103 3.94107 105.682 4.45908 108.127 5.70856C110.688 7.01783 113.146 9.11768 116.513 10.8358C117.527 9.72886 118.655 8.55308 119.842 7.40582C115.303 5.20376 111.856 2.06511 107.404 1.76404C103.529 1.5026 100.473 2.90992 100.473 2.90992C100.473 2.90992 99.2912 1.30583 95.6447 1.8294C91.9982 2.35367 80.7635 7.03452 71.2049 22.2883C62.5624 36.0799 66.6346 43.9835 72.8467 43.8931C79.5808 43.7944 85.987 36.3316 88.1549 30.1773C90.3228 24.0231 87.7607 22.3551 85.7895 22.5171ZM99.0093 9.70174C97.8775 12.451 96.2112 14.3722 94.5715 15.8393C92.4685 17.7215 91.3144 17.6582 90.8148 17.28C89.51 16.2898 91.2606 12.556 94.2994 9.21711C97.3256 5.89142 99.931 4.8568 99.931 4.8568C99.931 4.89573 100.364 6.40526 99.0093 9.70174ZM136.509 5.69256C133.428 7.66795 129.155 9.45699 125.055 9.06275C124.018 10.1356 122.905 11.3719 121.79 12.7243C128.907 14.1232 135.132 9.72955 138.447 5.98599C140.514 3.65182 141.535 1.56796 141.535 1.56796C141.535 1.56796 139.561 3.73595 136.509 5.69256Z" fill="#FE5B2C"/>
<path d="M133.143 23.0253H128.757L128.045 24.1225C128.045 24.1225 127.15 22.5143 125.635 22.54C123.04 22.5845 120.442 24.5592 117.423 27.9843C115.211 30.4937 111.543 36.0805 111.543 36.0805C111.543 36.0805 108.729 40.4019 107.306 40.0633C104.879 39.4855 109.343 30.5375 109.343 30.5375C109.343 30.5375 111.689 29.0933 114.73 26.5436C116.645 24.9388 118.847 22.7312 120.872 20.6849C122.714 18.8235 124.884 16.2961 126.946 13.5273C126.418 13.6108 125.877 13.6671 125.325 13.6942C123.475 16.125 121.5 18.3007 119.821 20.0299C117.321 22.604 115.021 24.7101 113.35 26.0534C111.748 27.3397 110.721 27.9189 110.721 27.9189C110.721 27.9189 113.776 21.6674 118.868 14.7601C123.959 7.85358 131.088 1.43723 130.529 4.48131C130.37 5.35532 129.825 6.60897 129.002 8.09694C129.581 7.97665 130.144 7.82647 130.686 7.65542C131.913 5.13213 132.331 3.05244 131.416 2.45169C127.68 1.58548e-05 118.178 10.1446 113.414 16.0367C108.651 21.9288 104.34 30.9331 104.34 30.9331C104.34 30.9331 103.595 31.2446 102.771 31.4004C102.251 31.4991 102.029 31.4776 101.944 31.4442C101.902 31.4268 101.897 31.3976 101.897 31.3976C101.897 31.3976 106.087 23.592 101.797 22.5567C97.6572 21.5582 90.4842 29.19 87.9339 34.4987C86.1839 38.1407 85.1965 42.7256 88.1976 43.8173C91.4478 45 96.9685 39.0871 98.2663 37.3689C99.5641 35.6501 101.184 32.7924 101.184 32.7924C101.184 32.7924 101.977 32.7507 102.41 32.6874C103.239 32.5657 103.627 32.4642 103.627 32.4642C103.627 32.4642 103.09 33.8667 102.509 35.6446C101.425 38.9598 100.448 43.7033 104.349 43.9265C106.834 44.0676 110.481 39.5947 110.481 39.5947C110.481 39.5947 109.5 43.5718 112.725 43.9265C115.107 44.1879 118.573 40.5215 118.573 40.5215C118.573 40.5215 117.818 43.6803 120.232 43.9584C122.299 44.1969 125.233 41.7821 127.639 39.1253C130.266 36.2245 132.281 33.0476 132.281 33.0476H130.753C130.753 33.0476 127.373 38.1609 124.999 39.5293C123.05 40.6529 123.718 38.8527 124.309 37.9092C124.961 36.8683 133.14 23.0253 133.14 23.026L133.143 23.0253ZM99.7302 32.6561C99.6702 32.7931 98.5726 34.6962 97.3983 36.1925C96.1333 37.8049 93.8174 40.2316 92.4254 39.7184C90.249 38.916 92.6438 34.1914 94.2095 31.8996C95.7753 29.6079 95.9532 29.4528 95.9972 29.393C96.0412 29.3332 96.0851 29.2783 96.1235 29.3492C96.1619 29.4201 96.6601 30.3616 97.6439 31.1786C98.6319 31.999 99.5823 32.4322 99.659 32.4593C99.7358 32.4865 99.7909 32.5191 99.7302 32.6554V32.6561ZM100.709 30.9533C100.572 31.1814 100.473 31.1925 100.188 31.1167C99.6856 30.9811 97.6041 30.0223 97.6202 27.8953C97.6348 25.8226 100.567 23.7923 101.717 24.66C102.79 25.4694 102.277 27.5386 101.872 28.5941C101.468 29.6489 100.799 30.8038 100.709 30.9533ZM120.632 36.0805C120.053 36.8718 119.568 37.5866 119.131 38.0886C118.198 39.1629 117.589 39.6628 117.046 39.7949C116.772 39.861 116.433 39.845 116.209 39.7094C115.412 39.2261 115.97 37.3446 117.357 34.8151C118.626 32.5031 120.093 30.1898 122.504 27.5268C124.924 24.8533 125.85 24.7247 126.528 24.7553C127.098 24.7796 127.179 25.3769 127.179 25.3769C127.179 25.3769 127.138 25.5152 127.048 25.6717C126.249 27.0519 122.224 33.9049 120.631 36.0805H120.632ZM55.9443 39.425C53.2851 37.7875 49.8738 36.7369 45.9545 36.7028C35.8579 36.6152 24.8646 41.5033 17.4188 41.5693C8.63682 41.6458 8.19932 34.9131 8.85033 31.2161C10.2514 23.2513 15.9207 15.6529 19.5659 11.6465C23.2117 7.64012 27.0319 4.53137 30.2081 3.73663C33.3843 2.94189 33.0857 5.34906 32.697 5.67795C32.2958 5.68629 31.5262 5.77251 31.0894 6.07358C30.4056 6.54361 29.4922 7.40441 29.435 8.76931C29.3366 10.8719 32.0634 11.2405 34.0346 6.83773C35.3792 3.83467 33.2468 1.79671 31.4759 1.60063C29.047 1.33085 25.3349 2.17218 20.9042 5.00975C13.1925 9.94787 2.8775 20.9137 2.61444 33.0803C2.46442 40.0209 7.01452 43.9265 13.2574 43.9265C19.5003 43.9265 27.976 40.1168 36.2521 40.0195C41.3765 39.9757 44.6929 41.7654 46.3724 44.6802C46.3724 44.6802 48.0415 41.9135 51.7584 41.7654C55.4356 41.618 59.4841 42.645 62.8075 44.9729C61.6988 43.3765 58.5644 41.0381 55.9436 39.425H55.9443Z" fill="#FE5B2C"/>
<path d="M32.9506 12.0915C28.718 11.0166 21.6887 18.1964 18.7267 24.0398C16.9 27.6443 16.099 32.1743 19.3512 33.3528C22.6035 34.5314 28.1214 28.6226 29.4192 26.9045C30.7171 25.1857 32.8411 21.7432 32.8411 21.7432C32.8411 21.7432 33.4928 21.618 33.9198 21.5193C34.3468 21.4206 35.0369 21.2245 35.0369 21.2245C35.0369 21.2245 34.2366 22.6457 33.5144 24.1024C32.6582 25.8295 30.3319 31.5791 34.8234 33.3035C39.1146 34.9507 45.2235 28.0817 45.5445 27.9516C45.5445 27.9516 43.7261 32.6325 46.5507 33.3528C49.6501 34.1427 53.0468 30.1857 53.0468 30.1857C53.0468 30.1857 52.3316 33.1561 54.7466 33.4349C59.0713 33.9334 66.7208 22.9106 66.7208 22.9106H65.1927C65.1927 22.9106 61.2999 27.9023 59.4278 28.9334C57.5557 29.9646 58.2291 28.1324 58.7378 27.3133C59.3867 26.2711 67.6565 12.5011 67.6565 12.5011H63.2711L62.7624 13.3028C62.7624 13.3028 61.8588 11.9281 60.3482 12.0262C55.953 12.3119 50.7233 19.2929 48.4235 22.3697C46.1243 25.4471 41.1639 31.3225 38.5522 30.2754C35.7061 29.1337 38.5362 23.8924 40.4083 20.8149C42.4464 17.4649 46.0587 14.1469 47.4871 14.1212C49.2447 14.0885 48.5546 15.6759 48.5546 15.6759C48.5546 15.6759 47.2407 15.5125 46.2883 16.707C45.6143 17.5518 45.0561 18.7853 45.6966 19.4563C46.7314 20.5403 48.0788 19.4396 48.8833 18.2117C51.3917 14.3854 49.5566 12.369 47.5861 12.0748C43.3884 11.447 39.5214 16.8211 36.5817 18.818C34.5422 20.2024 33.6902 20.0946 33.6902 20.0946C33.6902 20.0946 37.2286 13.1776 32.9513 12.0908L32.9506 12.0915ZM51.9541 24.4653C53.2233 22.1527 54.9524 19.9201 57.2027 17.1214C59.453 14.3228 60.5729 14.0961 61.2504 14.1267C61.8205 14.1517 61.9014 14.7483 61.9014 14.7483C61.9014 14.7483 57.0122 23.2374 55.2385 25.6599C54.6593 26.4511 54.1639 27.1214 53.7271 27.6241C52.7935 28.6984 52.1153 29.2178 51.592 29.3471C51.3185 29.4139 50.9793 29.3972 50.754 29.2609C49.9571 28.7777 50.5649 26.9942 51.9534 24.4653H51.9541ZM31.2041 21.7105C31.1434 21.8468 29.7472 24.1476 28.5735 25.6439C27.3092 27.2563 24.9724 29.6927 23.5804 29.1796C21.404 28.3772 23.7255 23.6852 25.2913 21.3941C26.8571 19.1024 27.0866 18.8076 27.1313 18.7485C27.1752 18.688 27.2185 18.633 27.2569 18.7047C27.2952 18.7756 27.7934 19.7963 28.8722 20.4833C29.9509 21.1709 31.0569 21.4873 31.1336 21.5144C31.2104 21.5415 31.2655 21.5749 31.2048 21.7105H31.2041ZM33.0246 18.1289C32.6199 19.1851 32.2584 19.8505 32.1838 20.0077C32.0637 20.2594 31.763 20.1787 31.763 20.1787C31.4204 20.1634 28.7571 19.5578 28.7724 17.4308C28.7871 15.3581 31.7197 13.3278 32.869 14.1956C33.9421 15.0049 33.4293 17.0741 33.0246 18.1289ZM129.842 41.4032C129.586 41.2585 129.302 41.1869 128.988 41.1869C128.675 41.1869 128.39 41.2592 128.134 41.4032C127.878 41.5478 127.677 41.7439 127.53 41.9935C127.383 42.2424 127.31 42.5136 127.31 42.8056C127.31 43.0977 127.383 43.3737 127.53 43.6212C127.677 43.8681 127.878 44.0641 128.134 44.2081C128.39 44.3527 128.675 44.4243 128.988 44.4243C129.302 44.4243 129.586 44.352 129.842 44.2081C130.098 44.0641 130.299 43.8681 130.447 43.6212C130.593 43.3744 130.667 43.1025 130.667 42.8056C130.667 42.5087 130.594 42.2424 130.447 41.9935C130.3 41.7446 130.098 41.5478 129.842 41.4032ZM130.143 43.4759C130.032 43.6734 129.876 43.8284 129.676 43.9418C129.475 44.0544 129.246 44.1107 128.988 44.1107C128.731 44.1107 128.501 44.0544 128.301 43.9418C128.101 43.8291 127.945 43.6741 127.834 43.4759C127.723 43.2784 127.667 43.0545 127.667 42.8056C127.667 42.5567 127.723 42.3391 127.834 42.1416C127.944 41.9441 128.101 41.7891 128.304 41.6757C128.506 41.5624 128.734 41.5068 128.988 41.5068C129.242 41.5068 129.47 41.5631 129.673 41.6757C129.875 41.7884 130.032 41.9434 130.143 42.1416C130.254 42.3391 130.31 42.5609 130.31 42.8056C130.31 43.0504 130.254 43.2784 130.143 43.4759Z" fill="#FE5B2C"/>
<path d="M129.62 42.7792C129.667 42.702 129.691 42.6158 129.691 42.5212C129.691 42.3905 129.648 42.2813 129.563 42.1923C129.478 42.1033 129.364 42.0588 129.221 42.0588H128.37V43.5239H128.745V42.9899H129.03L129.376 43.5239H129.804L129.417 42.9544C129.505 42.9148 129.572 42.8564 129.62 42.7792ZM129.263 42.6248C129.235 42.6506 129.197 42.6631 129.15 42.6631H128.745V42.3787H129.15C129.197 42.3787 129.235 42.3919 129.263 42.4169C129.29 42.4427 129.304 42.4774 129.304 42.5205C129.304 42.5636 129.29 42.5984 129.263 42.6241V42.6248Z" fill="#FE5B2C"/>
</svg>
