<svg width="128" height="46" viewBox="0 0 128 46" fill="none" xmlns="http://www.w3.org/2000/svg">
<path fill-rule="evenodd" clip-rule="evenodd" d="M78.5403 15.6035H79.9881C81.1482 15.6035 81.8433 16.8204 81.4961 18.6174C81.2057 20.0083 80.4524 21.2834 78.8861 21.6895C78.3657 21.806 77.8439 21.8635 77.322 21.8635L78.5403 15.6035ZM77.0905 23.1393C81.2057 23.1393 84.3361 22.2696 85.0894 18.212C85.6112 15.6617 84.1621 14.3865 80.9742 14.3865H75.4093L72.3364 29.9794C72.9172 29.9205 73.4966 29.863 74.0759 29.863C74.6553 29.863 75.2346 29.9205 75.7565 29.9794L77.0905 23.1393ZM94.1901 29.9787C93.6682 29.9198 93.2053 29.8623 92.6835 29.8623C92.1616 29.8623 91.6973 29.9198 91.1769 29.9787L91.4658 28.2982C90.1907 29.4569 89.2627 30.152 87.6411 30.152C86.4809 30.152 85.379 29.7466 84.9161 28.7618C84.3943 27.777 84.7422 26.3847 84.9736 25.226L86.1913 18.9085C86.7131 18.966 87.2336 19.0242 87.7554 19.0242C88.2772 19.0242 88.7991 18.966 89.3785 18.9085L88.1033 25.226C88.0458 25.7479 87.8718 26.6176 87.9869 27.0812C88.1608 27.777 88.6251 28.2989 89.3785 28.2989C91.3501 28.2989 91.7555 26.3272 92.0445 24.8781L93.2046 18.9085C93.7265 18.966 94.1894 19.0242 94.7687 19.0242C95.2906 19.0242 95.811 18.966 96.3329 18.9085L94.1901 29.9787ZM99.2332 18.9078C99.755 18.9653 100.218 19.0235 100.74 19.0235C101.262 19.0235 101.841 18.9653 102.363 18.9078L101.783 21.7478C102.594 20.1254 103.87 18.7338 106.13 18.7338C105.782 19.7768 105.493 20.8205 105.377 21.806L105.145 21.9799C104.912 21.806 104.392 21.6902 104.044 21.6902C103.058 21.6902 102.13 22.2121 101.667 23.1969C101.319 23.8927 101.145 25.1096 101.03 25.8643L100.218 29.9794C99.6961 29.9205 99.1757 29.863 98.6538 29.863C98.132 29.863 97.6101 29.9205 97.0883 29.9794L99.2332 18.9078ZM109.841 23.3708C110.131 22.1539 110.768 19.7768 112.392 19.7768C113.782 19.7768 113.434 22.1532 113.202 23.3708H109.841ZM116.159 24.472C117.029 21.2266 116.159 18.7338 112.565 18.7338C109.261 18.7338 106.942 20.9945 106.305 24.1816C105.609 27.8914 107.116 30.152 110.883 30.152C111.984 30.152 113.26 29.8055 114.304 29.1672L115.057 27.8921L114.825 27.6606C114.013 28.24 112.913 28.7043 111.984 28.7043C109.549 28.7043 109.087 26.7902 109.608 24.4727L116.159 24.472Z" fill="#FE5B2C"/>
<path fill-rule="evenodd" clip-rule="evenodd" d="M75.9328 3.54703C72.1066 -1.6111 63.1798 -0.974221 53.8483 4.35856C52.2253 5.28581 50.5447 6.3295 50.5447 6.3295L49.0381 4.06888L47.5308 10.0392L46.1981 7.43071L39.1251 16.1253L45.8495 8.99554L47.4719 12.0677L49.0367 5.63371C49.0367 5.63371 50.3118 7.83682 50.3694 7.83682C50.5433 7.66287 50.833 7.48892 51.1227 7.31497C60.2809 1.34462 69.3809 0.127682 72.9756 4.93862C77.3222 10.7932 72.0484 23.2551 61.2089 32.8194C50.3118 42.3256 38.0232 45.3395 33.6184 39.4856C33.3194 39.122 33.0843 38.7103 32.9233 38.268C31.8221 36.7613 31.3003 34.8486 31.1845 32.703C30.6052 36.1813 31.0688 39.2527 32.7494 41.5134C37.7343 48.1795 51.413 45.0491 63.3538 34.5582C75.2945 24.0666 80.9176 10.2125 75.9328 3.54703Z" fill="#FE5B2C"/>
<path fill-rule="evenodd" clip-rule="evenodd" d="M4.86845 15.0816C5.56424 15.0234 7.18729 15.0234 8.11455 15.0816C9.91155 15.2556 10.4334 16.4725 10.1437 18.0373C9.7376 20.0665 8.11455 21.4574 5.79641 21.6896C5.0431 21.7478 4.11584 21.7478 3.594 21.6896L4.86845 15.0816ZM3.42005 22.6175C3.94189 22.6175 5.391 22.7332 6.4915 22.5593C9.79512 21.9217 11.7085 20.6459 12.2304 17.9223C12.7522 15.1398 11.5346 14.1551 7.07156 14.1551H3.01394L0 29.7466C0.347897 29.6891 0.695092 29.6891 1.04299 29.6891C1.33267 29.6891 1.62235 29.6891 2.02846 29.7466L3.42005 22.6175ZM15.9394 12.647C16.2298 12.7053 16.5188 12.7053 16.8667 12.7053C17.1564 12.7053 17.446 12.7053 17.7939 12.647L14.4321 29.7459C14.1424 29.6884 13.8527 29.6884 13.5624 29.6884C13.2145 29.6884 12.9248 29.6884 12.6351 29.7459L15.9394 12.647ZM24.2868 27.3709C24.2286 27.5449 23.7068 27.9503 23.5335 28.1242C23.0117 28.5296 22.1426 28.9351 21.5626 28.9351C20.1717 28.9351 19.4177 28.2393 19.7081 26.8484C20.1135 24.7617 22.4898 24.5288 24.1129 24.2399L24.9244 24.0659L24.2868 27.3709ZM27.0104 22.5593C27.5322 19.9508 26.4885 18.7338 24.1122 18.7338C22.7788 18.7338 21.4454 19.2557 20.1703 19.9508L19.9381 21.2259H20.1703C20.4607 20.7623 21.5612 19.6611 23.1842 19.6611C24.923 19.6611 25.677 20.6459 25.3291 22.3271C25.1552 23.429 24.5176 23.5441 22.6631 23.892C20.4607 24.1809 18.3158 24.5288 17.7939 27.1374C17.446 28.8179 18.6637 29.9198 20.2867 29.9198C21.6201 29.9198 22.7788 29.4569 23.9382 28.4707L24.1704 28.2982C24.1122 29.6309 25.0401 29.8048 26.2571 29.5719C26.4892 29.5719 26.8364 29.4569 26.9529 29.3405L27.0686 28.8776C25.6777 29.1665 25.8517 28.7036 26.0256 27.8339L27.0104 22.5593ZM29.6771 27.5449C30.025 28.4132 30.8948 29.2247 31.9378 29.2247C33.0397 29.2247 34.3723 28.3564 34.6045 27.1381C35.1839 24.0666 29.4457 26.0958 30.199 22.0957C30.6051 19.8933 32.5178 18.7338 34.5463 18.7338C35.7632 18.7338 36.633 19.0817 36.9809 19.3132C36.6875 19.8425 36.4167 20.384 36.1693 20.9362H35.9372C35.8214 20.1822 35.1263 19.4289 34.3141 19.4289C33.1547 19.4289 32.1117 20.0665 31.8795 21.3417C31.3002 24.2406 36.9802 22.675 36.2851 26.3265C35.7632 28.7611 33.3869 29.9198 31.3584 29.9198C30.4311 29.9198 29.3874 29.6884 28.6917 29.1665C28.9813 28.6447 29.2717 28.1242 29.5032 27.5449H29.6771ZM40.1687 18.8496C40.4584 18.9078 40.7481 18.9078 41.096 18.9078C41.3864 18.9078 41.6761 18.9078 42.024 18.8496L41.6178 20.8205C42.6033 19.5454 43.8209 18.7338 45.3858 18.7338C46.8931 18.7338 48.11 19.5454 48.284 20.9945C49.4427 19.5454 50.7186 18.7338 52.2834 18.7338C55.0652 18.7338 55.6452 20.3562 55.0652 23.1394L53.79 29.7466C53.5003 29.6891 53.21 29.6891 52.9203 29.6891C52.5724 29.6891 52.2827 29.6891 51.993 29.7466L53.1524 23.6612C53.5578 21.632 53.6161 19.8933 51.3554 19.8933C49.0948 19.8933 48.3408 21.9799 48.0511 23.6023L46.8342 29.7466C46.5445 29.6891 46.2548 29.6891 45.9651 29.6891C45.6172 29.6891 45.3276 29.6891 45.0379 29.7466L46.3123 23.0811C46.7185 20.9369 46.1966 19.8933 44.5153 19.8933C42.1972 19.8933 41.5014 21.4581 41.1535 23.1394L39.8784 29.7466C39.5305 29.6891 39.2983 29.6891 39.0086 29.6891C38.6607 29.6891 38.371 29.6891 38.0814 29.7466L40.1687 18.8496ZM62.9482 27.3709C62.9482 27.5449 62.4264 27.9503 62.1942 28.1242C61.6724 28.5296 60.8616 28.9351 60.2233 28.9351C58.8324 28.9351 58.1366 28.2393 58.4263 26.8484C58.8317 24.7617 61.2081 24.5288 62.7736 24.2399L63.5844 24.0659L62.9482 27.3709ZM65.7307 22.5593C66.2526 19.9508 65.1514 18.7338 62.7743 18.7338C61.4409 18.7338 60.1083 19.2557 58.8906 19.9508L58.6592 21.2259H58.8913C59.1228 20.7623 60.224 19.6611 61.9053 19.6611C63.5858 19.6611 64.3391 20.6459 64.0502 22.3271C63.8187 23.429 63.1804 23.5441 61.3259 23.892C59.1228 24.1809 56.9786 24.5288 56.515 27.1374C56.1671 28.8179 57.384 29.9198 58.9495 29.9198C60.3404 29.9198 61.4999 29.4569 62.6018 28.4707L62.8921 28.2982C62.7757 29.6309 63.703 29.8048 64.9788 29.5719C65.2103 29.5719 65.5007 29.4569 65.6746 29.3405L65.7896 28.8776C64.3995 29.1665 64.5145 28.7036 64.6884 27.8339L65.7307 22.5593ZM114.826 7.89433V9.11127H116.448V13.7483H118.071V9.11127H119.694V7.89433H114.826ZM120.797 7.89433V13.7483H122.361V9.69133L123.752 13.7483H124.911L126.301 9.74884V13.7483H127.867V7.89433H125.664L124.331 11.4294L122.998 7.89433H120.797Z" fill="#FE5B2C"/>
</svg>
