<svg width="138" height="45" viewBox="0 0 138 45" fill="none" xmlns="http://www.w3.org/2000/svg">
<g clip-path="url(#clip0_628_138)">
<path d="M59.3969 23.775C59.3969 21.6136 60.4462 19.6465 62.1545 18.2137C61.3492 16.7809 60.2998 15.5424 59.0065 14.4495C58.7868 14.2795 58.5672 14.1096 58.3476 13.9396C57.0542 12.9682 55.59 12.2153 53.955 11.6325C52.0271 10.9525 49.9529 10.6125 47.7566 10.6125C45.5603 10.6125 43.486 10.9525 41.5582 11.6325C39.6303 12.3125 37.9465 13.2596 36.5067 14.4738C35.0669 15.6638 33.92 17.0723 33.1147 18.6751C32.285 20.2779 31.8701 22.0022 31.8701 23.8235C31.8701 25.6206 32.285 27.3206 33.1147 28.9234C33.9444 30.5262 35.0669 31.9347 36.5067 33.1247C37.9465 34.3146 39.6303 35.2617 41.5582 35.9417C43.486 36.6217 45.5603 36.9617 47.7566 36.9617C49.9529 36.9617 52.0271 36.6217 53.955 35.9417C55.59 35.3589 57.0542 34.5818 58.3476 33.6346C58.5672 33.4646 58.7868 33.2947 59.0065 33.1247C60.3242 32.0318 61.3736 30.769 62.1545 29.3605C60.4462 27.9277 59.3969 25.9363 59.3969 23.775ZM47.7322 31.6918C46.5852 31.6918 45.4627 31.5219 44.4378 31.2062L40.3624 33.9018L41.9974 30.089C39.6791 28.6562 38.1905 26.3492 38.1905 23.775C38.1905 19.4037 42.4611 15.8581 47.7322 15.8581C50.3921 15.8581 52.7836 16.7566 54.5163 18.2137C56.2245 19.6465 57.2738 21.6136 57.2738 23.775C57.2738 25.9363 56.2245 27.9034 54.5163 29.3362C52.7836 30.7933 50.3921 31.6918 47.7322 31.6918Z" fill="#FE5B2C"/>
<path d="M83.6297 18.6508C82.8 17.048 81.6775 15.6395 80.2377 14.4495C78.7979 13.2596 77.1141 12.3125 75.1862 11.6082C73.2584 10.9282 71.1841 10.5882 68.9878 10.5882C66.7915 10.5882 64.6684 10.9282 62.7406 11.6082C61.1056 12.191 59.6414 12.9682 58.348 13.9153C58.1284 14.0853 57.9088 14.2553 57.6891 14.4253C56.3714 15.5181 55.322 16.7809 54.5167 18.1894C56.2249 19.6222 57.2743 21.5893 57.2743 23.7507C57.2743 25.912 56.2249 27.8791 54.5167 29.3119C55.322 30.7447 56.3714 31.9833 57.6891 33.0761C57.9088 33.2461 58.1284 33.4161 58.348 33.5861C59.6414 34.5332 61.1056 35.3103 62.7406 35.8932C64.6684 36.5731 66.7427 36.9131 68.939 36.9131C71.1353 36.9131 73.2095 36.5731 75.1374 35.8932C77.0653 35.2132 78.7491 34.2661 80.1889 33.0761C81.6287 31.8619 82.7756 30.4776 83.5809 28.8748C84.4106 27.272 84.8255 25.572 84.8255 23.775C84.8499 21.9779 84.435 20.2536 83.6297 18.6508ZM76.3576 33.9018L72.2578 31.2062C71.2329 31.5219 70.1104 31.6919 68.939 31.6919C66.2791 31.6919 63.8875 30.7933 62.1549 29.3362C60.4467 27.9034 59.3974 25.9363 59.3974 23.775C59.3974 21.6136 60.4467 19.6465 62.1549 18.2137C63.8875 16.7566 66.2791 15.8581 68.939 15.8581C74.2101 15.8581 78.4806 19.4037 78.4806 23.775C78.4806 26.3492 76.9921 28.632 74.6982 30.089L76.3576 33.9018ZM3.44085 42.4015C3.39204 42.6201 3.34324 42.8144 3.24562 42.9844C3.14801 43.1544 3.0504 43.3001 2.90398 43.4215C2.75756 43.5429 2.61114 43.64 2.41592 43.7129C2.24509 43.7858 2.02546 43.81 1.80584 43.81C1.5618 43.81 1.34218 43.7615 1.12255 43.6886C0.902918 43.6158 0.732096 43.4701 0.561273 43.3243C0.414854 43.1543 0.292838 42.9601 0.195225 42.7172C0.0976127 42.4744 0.0732096 42.1829 0.0732096 41.8672C0.0732096 41.5515 0.122016 41.2601 0.195225 41.0173C0.268435 40.7744 0.390451 40.5559 0.53687 40.3859C0.683289 40.2159 0.878515 40.0702 1.09814 39.973C1.31777 39.8759 1.5618 39.8273 1.83024 39.8273C2.07427 39.8273 2.2695 39.8516 2.46472 39.9244C2.63554 39.9973 2.80637 40.0944 2.95279 40.2159C3.0992 40.3373 3.19682 40.483 3.27003 40.653C3.34324 40.823 3.39204 40.993 3.41645 41.1873H2.63554C2.58674 40.9687 2.48912 40.7987 2.3183 40.6773C2.17188 40.5559 2.00106 40.5073 1.80584 40.5073C1.48859 40.5073 1.24456 40.6287 1.07374 40.8473C0.927321 41.0901 0.854111 41.4058 0.854111 41.8187C0.854111 42.2315 0.927321 42.5472 1.07374 42.7901C1.22016 43.0329 1.46419 43.1301 1.75703 43.1301C2.00106 43.1301 2.17188 43.0572 2.3183 42.9358C2.46472 42.8144 2.56233 42.6201 2.61114 42.4015H3.44085ZM8.51671 43.7615C8.29708 43.7615 8.07745 43.7372 7.90663 43.6643C7.73581 43.5915 7.58939 43.4943 7.46737 43.3729C7.34536 43.2515 7.24775 43.0815 7.19894 42.9115C7.15013 42.7415 7.07692 42.4987 7.07692 42.3044C7.07692 42.0858 7.10133 41.8915 7.17454 41.6973C7.24775 41.503 7.34536 41.3573 7.46737 41.2358C7.58939 41.1144 7.73581 41.0173 7.90663 40.9444C8.07745 40.8716 8.27268 40.8473 8.49231 40.8473C8.71194 40.8473 8.90716 40.8716 9.07798 40.9444C9.24881 41.0173 9.39523 41.1144 9.51724 41.2358C9.63926 41.3573 9.73687 41.5273 9.81008 41.6973C9.88329 41.8672 9.90769 42.0858 9.90769 42.3044C9.90769 42.5229 9.88329 42.7172 9.81008 42.9115C9.73687 43.0815 9.66366 43.2272 9.51724 43.3729C9.39523 43.4943 9.24881 43.6158 9.07798 43.6643C8.93157 43.7129 8.73634 43.7615 8.51671 43.7615ZM8.51671 43.1301C8.95597 43.1301 9.2 42.8386 9.2 42.2801C9.2 41.7215 8.98037 41.4301 8.51671 41.4301C8.07745 41.4301 7.83342 41.7215 7.83342 42.2801C7.83342 42.8629 8.05305 43.1301 8.51671 43.1301ZM16.9846 43.6886V42.013C16.9846 41.843 16.9358 41.6973 16.8626 41.6001C16.7894 41.503 16.6674 41.4301 16.5454 41.4544C16.3989 41.4544 16.3013 41.503 16.2037 41.6244C16.1061 41.7458 16.0817 41.8672 16.0817 42.0372V43.6886H15.3496V42.013C15.3496 41.8915 15.3496 41.8187 15.3252 41.7458C15.3008 41.673 15.2764 41.6244 15.252 41.5758C15.2032 41.5273 15.1788 41.503 15.1056 41.4787C15.0324 41.4544 14.9592 41.4544 14.9103 41.4544C14.6175 41.4544 14.4711 41.6244 14.4711 41.9887V43.6643H13.739V40.8958H14.4223V41.3087C14.5199 41.1144 14.6419 40.993 14.7639 40.9201C14.8859 40.8473 15.0568 40.823 15.2276 40.823C15.3252 40.823 15.3984 40.823 15.4716 40.8473C15.5448 40.8716 15.618 40.8959 15.6668 40.9201C15.7157 40.9444 15.7889 40.993 15.8377 41.0658C15.8865 41.1144 15.9353 41.1873 15.9841 41.2601C16.0573 41.1144 16.1549 40.993 16.2769 40.9201C16.3989 40.8473 16.5454 40.823 16.7406 40.823C16.887 40.823 17.009 40.8473 17.131 40.8958C17.2531 40.9444 17.3507 41.0173 17.4239 41.0901C17.5947 41.2601 17.6923 41.503 17.6923 41.7458V43.6643L16.9846 43.6886ZM23.3783 43.6886V43.3001C23.183 43.6158 22.8902 43.7615 22.4997 43.7615C22.3533 43.7615 22.2313 43.7372 22.1093 43.6886C21.9873 43.64 21.8897 43.5672 21.8164 43.4701C21.7432 43.3729 21.67 43.2758 21.6212 43.1544C21.5724 43.0329 21.548 42.8872 21.548 42.7415V40.9201H22.2801V42.6444C22.2801 42.9844 22.4265 43.1544 22.7438 43.1544C22.939 43.1544 23.0854 43.1058 23.183 42.9844C23.2806 42.8629 23.3294 42.7172 23.3294 42.5229V40.9201H24.0615V43.6886H23.3783ZM29.6987 43.6886V42.013C29.6987 41.7944 29.6743 41.6487 29.6011 41.5758C29.5279 41.503 29.4058 41.4544 29.235 41.4544C28.8446 41.4544 28.6737 41.673 28.6737 42.0858V43.6643H27.9416V40.8958H28.6493V41.3087C28.747 41.163 28.8446 41.0416 28.991 40.9444C29.1374 40.8716 29.3082 40.823 29.5523 40.823C29.6743 40.823 29.7963 40.8473 29.9183 40.8716C30.0403 40.8959 30.1379 40.9687 30.2111 41.0416C30.2844 41.1144 30.3576 41.2116 30.4064 41.333C30.4552 41.4544 30.4796 41.5758 30.4796 41.7215V43.64L29.6987 43.6886ZM34.3109 40.5801V39.9002H35.043V40.5801H34.3109ZM34.3109 43.6886V40.9201H35.043V43.6886H34.3109ZM41.4122 42.6687C41.3878 42.9601 41.2414 43.2515 40.9973 43.4458C40.8753 43.5429 40.7533 43.6158 40.6069 43.6643C40.4605 43.7129 40.2897 43.7372 40.1432 43.7372C39.948 43.7372 39.7772 43.7129 39.6308 43.64C39.4844 43.5672 39.3379 43.4943 39.2159 43.3486C39.0939 43.2029 39.0207 43.0572 38.9475 42.8872C38.8743 42.6929 38.8499 42.4744 38.8499 42.2315C38.8499 41.9887 38.8743 41.7701 38.9475 41.6001C39.0207 41.4301 39.0939 41.2844 39.2159 41.163C39.3379 41.0416 39.4599 40.9687 39.6308 40.8958C39.8016 40.8473 39.9724 40.823 40.1676 40.823C40.3385 40.823 40.5093 40.8473 40.6557 40.8958C40.8021 40.9444 40.9241 41.0173 41.0462 41.1144C41.1682 41.2116 41.2414 41.333 41.3146 41.4544C41.3878 41.5758 41.4122 41.7215 41.4366 41.8915H40.7045C40.6801 41.7458 40.6313 41.6487 40.5337 41.5515C40.4361 41.4787 40.3141 41.4301 40.1676 41.4301C40.0944 41.4301 40.0212 41.4544 39.948 41.4787C39.8748 41.503 39.826 41.5515 39.7772 41.6001C39.7284 41.673 39.6796 41.7458 39.6552 41.843C39.6308 41.9401 39.6064 42.0615 39.6064 42.2315C39.6064 42.5472 39.6552 42.7658 39.7772 42.9115C39.8748 43.0572 40.0212 43.1301 40.1676 43.1301C40.3141 43.1301 40.4361 43.0815 40.5337 43.0086C40.6313 42.9358 40.7045 42.8144 40.7045 42.6687H41.4122ZM46.9029 43.6886C46.8785 43.6158 46.8541 43.5186 46.8541 43.4458C46.7565 43.5429 46.6589 43.6158 46.5125 43.6886C46.3661 43.7372 46.1952 43.7858 46.0244 43.7858C45.7072 43.7858 45.4631 43.7129 45.3167 43.5672C45.1703 43.4215 45.0971 43.2515 45.0971 43.0086C45.0971 42.8144 45.1215 42.6444 45.1947 42.5229C45.2679 42.4015 45.3411 42.3044 45.4631 42.2558C45.5851 42.2072 45.7072 42.1344 45.878 42.1101C46.0488 42.0858 46.2196 42.0372 46.3905 42.013C46.5857 41.9887 46.7077 41.9401 46.7565 41.9158C46.8053 41.8915 46.8541 41.7944 46.8541 41.6973C46.8541 41.6001 46.8053 41.5273 46.7321 41.4787C46.6589 41.4301 46.5369 41.4058 46.3905 41.4058C46.2196 41.4058 46.0976 41.4544 46.0244 41.5273C45.9512 41.6001 45.9024 41.6973 45.878 41.8187H45.1947C45.1947 41.673 45.2191 41.5515 45.2679 41.4301C45.3167 41.3087 45.3899 41.2116 45.4875 41.1144C45.5851 41.0173 45.7072 40.9687 45.8536 40.9201C46 40.8716 46.1952 40.8473 46.4149 40.8473C46.6345 40.8473 46.8297 40.8716 46.9761 40.9201C47.1226 40.9687 47.2446 41.0416 47.3422 41.1387C47.4398 41.2358 47.513 41.3573 47.5374 41.4787C47.5862 41.6244 47.6106 41.7701 47.6106 41.9401V43.6886H46.9029ZM46.8541 42.3287C46.8053 42.3772 46.7565 42.4015 46.6833 42.4258C46.6101 42.4501 46.5125 42.4744 46.3661 42.4987C46.1464 42.5472 46 42.5958 45.9268 42.6444C45.8536 42.7172 45.8048 42.7901 45.8048 42.9115C45.8048 43.1301 45.9268 43.2272 46.1708 43.2272C46.2684 43.2272 46.3416 43.2029 46.4393 43.1786C46.5125 43.1544 46.5857 43.1058 46.6589 43.0572C46.7077 43.0086 46.7565 42.9358 46.8053 42.8629C46.8297 42.7901 46.8541 42.7172 46.8541 42.6201V42.3287ZM53.931 42.6687C53.9066 42.9601 53.7602 43.2515 53.5162 43.4458C53.3942 43.5429 53.2722 43.6158 53.1257 43.6643C52.9793 43.7129 52.8085 43.7372 52.6621 43.7372C52.4668 43.7372 52.296 43.7129 52.1496 43.64C52.0032 43.5672 51.8568 43.4943 51.7348 43.3486C51.6127 43.2029 51.5395 43.0572 51.4663 42.8872C51.3931 42.6929 51.3687 42.4744 51.3687 42.2315C51.3687 41.9887 51.3931 41.7701 51.4663 41.6001C51.5395 41.4301 51.6127 41.2844 51.7348 41.163C51.8568 41.0416 51.9788 40.9687 52.1496 40.8958C52.3204 40.8473 52.4912 40.823 52.6865 40.823C52.8573 40.823 53.0281 40.8473 53.1745 40.8958C53.321 40.9444 53.443 41.0173 53.565 41.1144C53.687 41.2116 53.7602 41.333 53.8334 41.4544C53.9066 41.5758 53.931 41.7215 53.9554 41.8915H53.2233C53.1989 41.7458 53.1501 41.6487 53.0525 41.5515C52.9549 41.4787 52.8329 41.4301 52.6865 41.4301C52.6133 41.4301 52.5401 41.4544 52.4668 41.4787C52.3936 41.503 52.3448 41.5515 52.296 41.6001C52.2472 41.673 52.1984 41.7458 52.174 41.843C52.1496 41.9401 52.1252 42.0615 52.1252 42.2315C52.1252 42.5472 52.174 42.7658 52.296 42.9115C52.3936 43.0572 52.5401 43.1301 52.6865 43.1301C52.8329 43.1301 52.9549 43.0815 53.0525 43.0086C53.1501 42.9358 53.2233 42.8144 53.2233 42.6687H53.931ZM52.3936 44.7572C52.6377 44.7329 52.7597 44.6114 52.7597 44.3929H52.3936V43.9315H53.0525V44.2472C53.0525 44.3443 53.0525 44.4415 53.0281 44.5386C53.0037 44.6114 52.9793 44.7086 52.9305 44.7814C52.8817 44.8543 52.8085 44.9029 52.7353 44.9514C52.6621 45 52.5401 45.0243 52.418 45.0243L52.3936 44.7572ZM59.4218 43.6886C59.3974 43.6158 59.3729 43.5186 59.3729 43.4458C59.2753 43.5429 59.1777 43.6158 59.0313 43.6886C58.8849 43.7372 58.7141 43.7858 58.5432 43.7858C58.226 43.7858 57.982 43.7129 57.8355 43.5672C57.6891 43.4215 57.6159 43.2515 57.6159 43.0086C57.6159 42.8144 57.6403 42.6444 57.7135 42.5229C57.7867 42.4015 57.86 42.3044 57.982 42.2558C58.104 42.2072 58.226 42.1344 58.3968 42.1101C58.5676 42.0858 58.7385 42.0372 58.9093 42.013C59.1045 41.9887 59.2265 41.9401 59.2753 41.9158C59.3241 41.8915 59.3729 41.7944 59.3729 41.6973C59.3729 41.6001 59.3241 41.5273 59.2509 41.4787C59.1777 41.4301 59.0557 41.4058 58.9093 41.4058C58.7385 41.4058 58.6164 41.4544 58.5432 41.5273C58.47 41.6001 58.4212 41.6973 58.3968 41.8187H57.7135C57.7135 41.673 57.7379 41.5515 57.7867 41.4301C57.8355 41.3087 57.9088 41.2116 58.0064 41.1144C58.104 41.0173 58.226 40.9687 58.3724 40.9201C58.5188 40.8716 58.7141 40.8473 58.9337 40.8473C59.1533 40.8473 59.3485 40.8716 59.495 40.9201C59.6414 40.9687 59.7634 41.0416 59.861 41.1387C59.9586 41.2358 60.0318 41.3573 60.0562 41.4787C60.105 41.6244 60.1294 41.7701 60.1294 41.9401V43.6886H59.4218ZM59.8854 39.8759C59.8122 40.0702 59.739 40.2159 59.617 40.313C59.495 40.3859 59.3974 40.4344 59.2753 40.4344C59.2021 40.4344 59.1289 40.4102 59.0801 40.3859C59.0313 40.3616 58.9581 40.3373 58.9093 40.2887C58.8605 40.2644 58.7873 40.2402 58.7385 40.1916C58.6897 40.1673 58.6165 40.143 58.5676 40.143C58.5432 40.143 58.5188 40.1673 58.47 40.1916C58.4212 40.2159 58.3968 40.2887 58.348 40.3859L57.9576 40.1673C58.0064 39.973 58.104 39.8516 58.2016 39.7787C58.2992 39.7059 58.3968 39.6573 58.5188 39.6573C58.6165 39.6573 58.6897 39.6816 58.7629 39.7059C58.8361 39.7302 58.8849 39.7545 58.9581 39.803C59.0069 39.8273 59.0801 39.8759 59.1289 39.9002C59.1777 39.9245 59.2265 39.9487 59.2753 39.9487C59.2997 39.9487 59.3485 39.9245 59.3974 39.9002C59.4462 39.8759 59.4706 39.803 59.495 39.7059L59.8854 39.8759ZM59.3729 42.3287C59.3241 42.3772 59.2753 42.4015 59.2021 42.4258C59.1289 42.4501 59.0313 42.4744 58.8849 42.4987C58.6653 42.5472 58.5188 42.5958 58.4456 42.6444C58.3724 42.7172 58.3236 42.7901 58.3236 42.9115C58.3236 43.1301 58.4456 43.2272 58.6897 43.2272C58.7873 43.2272 58.8605 43.2029 58.9581 43.1786C59.0313 43.1544 59.1045 43.1058 59.1777 43.0572C59.2265 43.0086 59.2753 42.9358 59.3241 42.8629C59.3485 42.7901 59.3729 42.7172 59.3729 42.6201V42.3287ZM65.3273 43.7615C65.1077 43.7615 64.8881 43.7372 64.7172 43.6643C64.5464 43.5915 64.4 43.4943 64.278 43.3729C64.156 43.2515 64.0584 43.0815 64.0096 42.9115C63.9607 42.7415 63.9119 42.5229 63.9119 42.3287C63.9119 42.1101 63.9363 41.9158 64.0096 41.7215C64.0828 41.5273 64.1804 41.3815 64.3024 41.2601C64.4244 41.1387 64.5708 41.0416 64.7416 40.9687C64.9125 40.8958 65.1077 40.8716 65.3273 40.8716C65.547 40.8716 65.7422 40.8958 65.913 40.9687C66.0838 41.0416 66.2302 41.1387 66.3523 41.2601C66.4743 41.3815 66.5719 41.5515 66.6451 41.7215C66.7183 41.8915 66.7427 42.1101 66.7427 42.3287C66.7427 42.5472 66.7183 42.7415 66.6451 42.9358C66.5719 43.1058 66.4987 43.2515 66.3523 43.3972C66.2302 43.5186 66.0838 43.64 65.913 43.6886C65.7422 43.7129 65.547 43.7615 65.3273 43.7615ZM65.3273 43.1301C65.7666 43.1301 66.0106 42.8386 66.0106 42.2801C66.0106 41.7215 65.791 41.4301 65.3273 41.4301C64.8881 41.4301 64.644 41.7215 64.644 42.2801C64.6684 42.8629 64.8881 43.1301 65.3273 43.1301ZM76.1623 42.4744C76.1623 42.6929 76.2355 42.8629 76.3576 42.9844C76.4796 43.1058 76.626 43.1786 76.7968 43.1786C76.9188 43.1786 77.0164 43.1544 77.1141 43.1058C77.2117 43.0572 77.2605 42.9844 77.2849 42.8872H78.0414C77.9438 43.1786 77.7973 43.3972 77.5777 43.5429C77.3581 43.6886 77.1141 43.7858 76.7968 43.7858C75.8695 43.7858 75.4058 43.2758 75.4058 42.2801C75.4058 42.0615 75.4302 41.8672 75.5034 41.6973C75.5523 41.5273 75.6499 41.3815 75.7719 41.2601C75.8939 41.1387 76.0403 41.0416 76.1867 40.9687C76.3576 40.8958 76.5528 40.8716 76.748 40.8716C77.1873 40.8716 77.5045 41.0173 77.7241 41.2844C77.9438 41.5515 78.0658 41.9644 78.0658 42.5229L76.1623 42.4744ZM77.3337 42.013C77.3337 41.9158 77.3093 41.8187 77.2849 41.7458C77.2605 41.673 77.2117 41.6001 77.1629 41.5515C77.1141 41.503 77.0409 41.4544 76.9921 41.4301C76.9188 41.4058 76.8456 41.4058 76.7724 41.4058C76.626 41.4058 76.504 41.4544 76.382 41.5758C76.2844 41.673 76.2112 41.843 76.1867 42.013H77.3337ZM89.7061 43.6886V41.1144L88.9984 43.6886H88.2175L87.5098 41.1387V43.6886H86.7777V39.9487H87.9247L88.608 42.6929L89.2913 39.9487H90.4138V43.6886H89.7061ZM96.0265 43.6886C96.0021 43.6158 95.9777 43.5186 95.9777 43.4458C95.8801 43.5429 95.7825 43.6158 95.6361 43.6886C95.4897 43.7372 95.3188 43.7858 95.148 43.7858C94.8308 43.7858 94.5867 43.7129 94.4403 43.5672C94.2939 43.4215 94.1963 43.2272 94.1963 42.9844C94.1963 42.7901 94.2207 42.6201 94.2939 42.4987C94.3671 42.3772 94.4403 42.2801 94.5623 42.2315C94.6844 42.1829 94.8064 42.1101 94.9772 42.0858C95.148 42.0615 95.3188 42.013 95.4897 41.9887C95.6849 41.9644 95.8069 41.9158 95.8557 41.8915C95.9045 41.8672 95.9533 41.7701 95.9533 41.673C95.9533 41.5758 95.9045 41.503 95.8313 41.4544C95.7581 41.4058 95.6361 41.3815 95.4897 41.3815C95.3188 41.3815 95.1968 41.4301 95.1236 41.503C95.0504 41.5758 95.0016 41.673 94.9772 41.7944H94.2939C94.2939 41.6487 94.3183 41.5273 94.3671 41.4058C94.4159 41.2844 94.4891 41.1873 94.5867 41.0901C94.6844 40.993 94.8064 40.9444 94.9528 40.8958C95.0992 40.8473 95.2944 40.823 95.5141 40.823C95.7337 40.823 95.9289 40.8473 96.0753 40.8958C96.2218 40.9444 96.3438 41.0173 96.4414 41.1144C96.539 41.2116 96.6122 41.333 96.6366 41.4544C96.6854 41.6001 96.7098 41.7458 96.7098 41.9158V43.6643L96.0265 43.6886ZM95.9777 42.3287C95.9289 42.3772 95.8801 42.4015 95.8069 42.4258C95.7337 42.4501 95.6361 42.4744 95.4897 42.4987C95.27 42.5472 95.1236 42.5958 95.0504 42.6444C94.9772 42.7172 94.9284 42.7901 94.9284 42.9115C94.9284 43.1301 95.0504 43.2272 95.2944 43.2272C95.3921 43.2272 95.4653 43.2029 95.5629 43.1786C95.6361 43.1544 95.7093 43.1058 95.7825 43.0572C95.8313 43.0086 95.8801 42.9358 95.9289 42.8629C95.9533 42.7901 95.9777 42.7172 95.9777 42.6201V42.3287ZM100.566 43.6886V40.9201H101.249V41.2601C101.298 41.163 101.371 41.0901 101.444 41.0416C101.566 40.9444 101.712 40.8716 101.859 40.8716H102.079H102.176V41.6244C102.103 41.6244 102.03 41.6001 101.981 41.6001C101.542 41.6001 101.298 41.8187 101.298 42.2801V43.7129L100.566 43.6886ZM107.594 43.6886L106.984 42.4501L106.618 42.8144V43.6886H105.885V39.9002H106.618V41.9644L107.545 40.9201H108.448L107.52 41.9401L108.423 43.6886H107.594ZM112.547 42.4744C112.547 42.6929 112.621 42.8629 112.743 42.9844C112.865 43.1058 113.011 43.1786 113.182 43.1786C113.304 43.1786 113.402 43.1544 113.499 43.1058C113.597 43.0572 113.646 42.9844 113.67 42.8872H114.427C114.329 43.1786 114.183 43.3972 113.963 43.5429C113.743 43.6886 113.499 43.7858 113.182 43.7858C112.255 43.7858 111.791 43.2758 111.791 42.2801C111.791 42.0615 111.815 41.8672 111.889 41.6973C111.937 41.5273 112.035 41.3815 112.157 41.2601C112.279 41.1387 112.425 41.0416 112.572 40.9687C112.743 40.8958 112.938 40.8716 113.133 40.8716C113.572 40.8716 113.89 41.0173 114.109 41.2844C114.329 41.5515 114.451 41.9644 114.451 42.5229L112.547 42.4744ZM113.694 42.013C113.694 41.9158 113.67 41.8187 113.646 41.7458C113.621 41.673 113.572 41.6001 113.524 41.5515C113.475 41.503 113.402 41.4544 113.353 41.4301C113.28 41.4058 113.206 41.4058 113.133 41.4058C112.987 41.4058 112.865 41.4544 112.743 41.5758C112.645 41.673 112.572 41.843 112.547 42.013H113.694ZM119.82 41.8672H120.503V42.6444C120.503 42.7901 120.479 42.9358 120.43 43.0572C120.381 43.1786 120.308 43.3001 120.234 43.4215C120.137 43.5186 120.015 43.6158 119.893 43.6643C119.771 43.7129 119.576 43.7615 119.38 43.7615C119.185 43.7615 119.014 43.7372 118.868 43.6643C118.721 43.6158 118.624 43.5186 118.502 43.4215C118.404 43.3243 118.331 43.2029 118.307 43.0572C118.258 42.9115 118.233 42.7658 118.233 42.6201V40.143H118.966V40.8958H120.503V41.4058H118.966V42.5472C118.966 42.7172 118.99 42.8629 119.063 42.9601C119.136 43.0572 119.234 43.1058 119.38 43.1058C119.527 43.1058 119.624 43.0572 119.698 42.9601C119.771 42.8629 119.795 42.7415 119.795 42.5715L119.82 41.8672ZM124.334 40.5801V39.9002H125.066V40.5801H124.334ZM124.334 43.6886V40.9201H125.066V43.6886H124.334ZM130.728 43.6886V42.013C130.728 41.7944 130.703 41.6487 130.63 41.5758C130.557 41.503 130.435 41.4544 130.264 41.4544C129.874 41.4544 129.703 41.673 129.703 42.0858V43.6643H128.971V40.8958H129.679V41.3087C129.776 41.163 129.874 41.0416 130.02 40.9444C130.167 40.8716 130.337 40.823 130.581 40.823C130.703 40.823 130.825 40.8473 130.947 40.8716C131.07 40.8959 131.167 40.9687 131.24 41.0416C131.314 41.1144 131.387 41.2116 131.436 41.333C131.484 41.4544 131.509 41.5758 131.509 41.7215V43.64L130.728 43.6886ZM137.268 43.3001C137.219 43.4215 137.121 43.5186 136.975 43.5915C136.829 43.6643 136.682 43.6886 136.487 43.6886C136.267 43.6886 136.072 43.64 135.901 43.5672C135.755 43.4943 135.633 43.3729 135.511 43.2515C135.413 43.1058 135.34 42.9601 135.291 42.7901C135.242 42.6201 135.218 42.4501 135.218 42.2558C135.218 42.0372 135.242 41.843 135.316 41.673C135.389 41.503 135.462 41.333 135.584 41.2116C135.682 41.0901 135.828 40.993 135.975 40.9201C136.121 40.8473 136.292 40.823 136.438 40.823C136.78 40.823 137.048 40.9687 137.219 41.2358V40.8958H137.951V43.7129C137.951 43.9315 137.927 44.1015 137.854 44.2715C137.78 44.4172 137.683 44.5629 137.561 44.66C137.439 44.7572 137.292 44.8543 137.122 44.9029C136.951 44.9514 136.78 44.9757 136.585 44.9757C136.414 44.9757 136.219 44.9514 136.048 44.9029C135.877 44.8543 135.731 44.7814 135.609 44.66C135.486 44.5629 135.389 44.4415 135.34 44.2957C135.291 44.15 135.242 43.98 135.242 43.81H135.926C135.926 43.98 135.975 44.1015 136.097 44.1986C136.219 44.2957 136.365 44.3443 136.536 44.3443C136.731 44.3443 136.902 44.2957 137.024 44.1743C137.17 44.0772 137.219 43.9315 137.219 43.7372V43.3001H137.268ZM136.658 43.1301C136.829 43.1301 136.999 43.0572 137.097 42.9358C137.195 42.8144 137.268 42.6201 137.268 42.3772C137.268 41.7944 137.048 41.4787 136.633 41.4787C136.219 41.4787 135.999 41.7701 135.999 42.3287C135.999 42.5715 136.048 42.7658 136.17 42.9115C136.316 43.0572 136.463 43.1301 136.658 43.1301ZM31.8462 5.26984V36.9617H26.5507V15.8338L15.9109 31.6676L5.3443 15.8338V36.9374H0.0244032L0 5.26984H5.3443L15.9109 21.1036L26.5507 5.26984H31.8462Z" fill="#FE5B2C"/>
<path d="M110.302 18.6023C109.619 16.9995 108.667 15.5909 107.471 14.401C106.276 13.211 104.86 12.2639 103.25 11.5596C101.639 10.8797 99.9308 10.5397 98.0761 10.5397C96.2215 10.5397 94.5133 10.8797 92.9026 11.5596C91.292 12.2396 89.8767 13.1867 88.6809 14.401C87.4851 15.5909 86.5334 16.9995 85.8501 18.6023C85.1668 20.2051 84.8252 21.9293 84.8252 23.7507C84.8252 25.5478 85.1668 27.2477 85.8501 28.8505C86.5334 30.4533 87.4851 31.8619 88.6809 33.0518C89.8767 34.2418 91.292 35.1889 92.9026 35.8689C94.5133 36.5488 96.2215 36.8888 98.0761 36.8888C99.9308 36.8888 101.639 36.5488 103.25 35.8689C103.64 35.6989 104.03 35.5046 104.421 35.3103L100.394 31.279C99.6623 31.4976 98.8814 31.619 98.0761 31.619C93.6835 31.619 90.1207 28.0734 90.1207 23.7021C90.1207 19.3308 93.708 15.8095 98.1005 15.8095C102.493 15.8095 106.056 19.3551 106.056 23.7264L111.107 26.252C111.254 25.4263 111.351 24.6007 111.351 23.7507C111.351 21.9293 111.01 20.2051 110.302 18.6023ZM137.585 26.3735C137.756 25.5721 137.853 24.6978 137.853 23.7993C137.853 21.9779 137.512 20.2537 136.828 18.6508C136.145 17.048 135.193 15.6638 133.998 14.4495C132.802 13.2596 131.386 12.3125 129.776 11.6325C128.165 10.9525 126.457 10.6125 124.602 10.6125C122.748 10.6125 121.04 10.9768 119.429 11.6568C117.818 12.3368 116.427 13.2839 115.207 14.4738C114.011 15.6638 113.06 17.0723 112.376 18.6751C111.693 20.2779 111.351 21.9779 111.351 23.8235C111.351 25.6206 111.693 27.3206 112.376 28.9234C113.06 30.5262 114.011 31.9104 115.207 33.1247C116.403 34.3146 117.818 35.2617 119.429 35.9417C121.04 36.6217 122.748 36.9617 124.602 36.9617C126.603 36.9617 128.458 36.5731 130.166 35.796C130.435 35.6746 130.703 35.5289 130.972 35.3832L126.896 31.3276C126.14 31.5461 125.359 31.6676 124.578 31.6676C121.113 31.6676 118.184 29.4576 117.111 26.3977L137.585 26.3735ZM124.602 15.9066C128.019 15.9066 130.947 18.068 132.045 21.1036H117.159C118.258 18.068 121.162 15.9066 124.602 15.9066Z" fill="#FE5B2C"/>
<path d="M106.032 0H111.328V36.9374H106.032V0ZM132.51 23.775C132.51 24.1392 132.485 24.5035 132.436 24.8435C132.363 25.3778 132.241 25.8878 132.07 26.3734H117.136C116.843 25.5478 116.696 24.6492 116.696 23.775C116.696 22.8278 116.867 21.9293 117.16 21.1036H132.046C132.241 21.6136 132.363 22.1722 132.436 22.7064C132.485 23.0707 132.51 23.4107 132.51 23.775Z" fill="#FE5B2C"/>
<path d="M116.525 21.1036H132.436V26.3734H116.525V21.1036Z" fill="#FE5B2C"/>
</g>
<defs>
<clipPath id="clip0_628_138">
<rect width="138" height="45" fill="white"/>
</clipPath>
</defs>
</svg>
