<svg width="175" height="45" viewBox="0 0 175 45" fill="none" xmlns="http://www.w3.org/2000/svg">
<g clip-path="url(#clip0_628_232)">
<path d="M22.5082 11.5203C21.8242 10.9643 21.0385 10.548 20.1953 10.2949C19.45 10.0595 18.6749 9.93314 17.8937 9.91961H7.12348C5.80951 9.91961 4.70041 10.1579 3.7962 10.6346C2.94435 11.0692 2.19272 11.6784 1.58985 12.4229C1.0375 13.1102 0.624337 13.8994 0.373642 14.7461C0.138338 15.4951 0.0124795 16.2745 0 17.0599L0 27.8088C0 29.1298 0.237263 30.2439 0.711788 31.1509C1.12369 31.9744 1.69898 32.7045 2.40227 33.2964C3.10556 33.8883 3.92198 34.3293 4.8013 34.5925C5.54728 34.8277 6.32303 34.9541 7.1048 34.9678H17.8732C19.1884 34.9678 20.2975 34.7295 21.2004 34.2528C22.0203 33.8391 22.7472 33.2612 23.3364 32.5548C23.9257 31.8484 24.3648 31.0283 24.6267 30.1451C24.8611 29.3964 24.9869 28.6178 25.0004 27.8331V17.088C25.0004 15.7669 24.7631 14.6529 24.2886 13.7459C23.857 12.8869 23.2504 12.1286 22.5082 11.5203ZM19.9226 27.7844C19.9226 28.4637 19.747 28.9797 19.3957 29.3325C19.0445 29.6853 18.537 29.8617 17.8732 29.8617H7.14403C6.46649 29.8617 5.95211 29.6853 5.60089 29.3325C5.24967 28.9797 5.07406 28.4699 5.07406 27.8031V17.0974C5.07406 16.4181 5.24967 15.902 5.60089 15.5493C5.95211 15.1965 6.45964 15.0213 7.12348 15.0238H17.8545C18.5308 15.0238 19.0445 15.2002 19.3957 15.553C19.747 15.9058 19.9226 16.4175 19.9226 17.088V27.7844ZM52.4967 11.5203C51.8124 10.9646 51.0268 10.5484 50.1838 10.2949C49.4378 10.0597 48.6621 9.93327 47.8803 9.91961H37.112C35.7967 9.91961 34.687 10.1579 33.7828 10.6346C32.9295 11.0685 32.1765 11.6778 31.5727 12.4229C31.0192 13.11 30.6047 13.8992 30.3528 14.7461C30.1175 15.4951 29.9916 16.2745 29.9791 17.0599V44.9886H35.0551V17.0974C35.0551 16.4181 35.2307 15.902 35.5819 15.5493C35.9331 15.1965 36.4394 15.0201 37.1045 15.0201H47.8336C48.5099 15.0201 49.0237 15.1965 49.3749 15.5493C49.7261 15.902 49.9042 16.415 49.9092 17.088V27.7844C49.9092 28.4637 49.7336 28.9797 49.3824 29.3325C49.0311 29.6853 48.5249 29.8617 47.8598 29.8617H37.2913V34.9584H47.8598C49.175 34.9584 50.2847 34.7201 51.1889 34.2434C52.0399 33.8099 52.7909 33.202 53.3934 32.4588C53.947 31.7718 54.3614 30.9825 54.6133 30.1357C54.8485 29.3872 54.9744 28.6085 54.987 27.8238V17.088C54.987 15.7669 54.7491 14.6529 54.2733 13.7459C53.8423 12.8875 53.2371 12.1294 52.4967 11.5203ZM112.477 11.5203C111.793 10.9643 111.008 10.548 110.165 10.2949C109.419 10.0594 108.643 9.93298 107.861 9.91961H97.0927C95.7787 9.91961 94.6696 10.1579 93.7654 10.6346C92.9455 11.0483 92.2186 11.6262 91.6294 12.3326C91.0402 13.039 90.6011 13.8591 90.3391 14.7423C90.1046 15.4916 89.9788 16.2708 89.9655 17.0561V44.9886H95.0395V17.0974C95.0395 16.4181 95.2151 15.902 95.5664 15.5493C95.9176 15.1965 96.4264 15.0213 97.0927 15.0238H107.824C108.5 15.0238 109.014 15.2002 109.365 15.553C109.716 15.9058 109.892 16.4175 109.892 17.088V27.7844C109.892 28.4637 109.716 28.9797 109.365 29.3325C109.014 29.6853 108.506 29.8617 107.842 29.8617H97.272V34.9584H107.842C109.158 34.9584 110.267 34.7201 111.17 34.2434C112.021 33.8099 112.773 33.202 113.376 32.4588C113.93 31.7718 114.344 30.9825 114.596 30.1357C114.83 29.387 114.956 28.6084 114.97 27.8238V17.088C114.97 15.7669 114.732 14.6529 114.258 13.7459C113.826 12.8869 113.22 12.1286 112.477 11.5203ZM65.0959 0.0114288H60.0218V27.8088C60.0218 29.1298 60.2591 30.2439 60.7336 31.1509C61.1459 31.9748 61.7218 32.7052 62.4257 33.2971C63.1297 33.8889 63.9468 34.3298 64.8268 34.5925C65.5728 34.8277 66.3486 34.9541 67.1303 34.9678H75.0179V29.8673H67.1714C66.4939 29.8673 65.9795 29.6909 65.6283 29.3381C65.2771 28.9853 65.1015 28.4755 65.1015 27.8088V15.0238H75.0198V9.92336H65.0959V0.0114288ZM127.169 29.8673C126.493 29.8673 125.979 29.6909 125.628 29.3381C125.276 28.9853 125.101 28.4755 125.101 27.8088V0.0114288H120.027V27.8088C120.027 29.1298 120.264 30.2439 120.739 31.1509C121.15 31.9744 121.726 32.7045 122.429 33.2964C123.132 33.8883 123.949 34.3293 124.828 34.5925C125.574 34.828 126.35 34.9544 127.132 34.9678H135.206V29.8673H127.169ZM80.0098 9.92336H85.0838V34.9659H80.0098V9.92336ZM80.0098 0.0114288H85.0838V4.9111H80.0098V0.0114288ZM141.748 32.4645C142.351 33.2076 143.102 33.8155 143.953 34.2491C144.857 34.7257 145.967 34.964 147.282 34.964H157.852V29.8673H147.282C146.618 29.8673 146.111 29.6909 145.76 29.3381C145.408 28.9853 145.233 28.4674 145.233 27.7844V9.92336H140.157V27.8294C140.17 28.614 140.296 29.3926 140.53 30.1413C140.782 30.988 141.196 31.7772 141.748 32.4645Z" fill="#FE5B2C"/>
<path d="M160.08 9.92336V37.8145C160.08 38.4938 159.904 39.0099 159.553 39.3627C159.202 39.7155 158.695 39.8918 158.03 39.8918H140.157V44.9885H158.03C159.346 44.9885 160.455 44.7502 161.36 44.2736C162.21 43.8401 162.961 43.2321 163.564 42.489C164.114 41.8024 164.526 41.0146 164.776 40.1696C165.012 39.4211 165.137 38.6424 165.15 37.8577V9.92336H160.08ZM174.977 34.2397C174.989 34.3332 174.979 34.4282 174.949 34.5175C174.918 34.6068 174.868 34.688 174.802 34.755C174.736 34.822 174.656 34.8731 174.568 34.9045C174.479 34.9358 174.385 34.9465 174.291 34.9359H170.704C170.61 34.9412 170.516 34.9272 170.427 34.895C170.339 34.8627 170.258 34.8128 170.189 34.7482C170.126 34.6795 170.079 34.5989 170.049 34.5111C170.019 34.4234 170.006 34.3304 170.013 34.2378V30.6667C170.006 30.573 170.018 30.4788 170.049 30.3899C170.079 30.3009 170.126 30.2189 170.189 30.1488C170.258 30.0865 170.338 30.0387 170.426 30.0084C170.513 29.9781 170.606 29.9659 170.699 29.9724H174.284C174.377 29.9604 174.471 29.9698 174.56 30C174.649 30.0301 174.73 30.0801 174.797 30.1463C174.864 30.2125 174.915 30.2931 174.946 30.3819C174.977 30.4708 174.988 30.5656 174.977 30.6592V34.2397Z" fill="#FE5B2C"/>
</g>
<defs>
<clipPath id="clip0_628_232">
<rect width="175" height="45" fill="white"/>
</clipPath>
</defs>
</svg>
