<svg width="137" height="45" viewBox="0 0 137 45" fill="none" xmlns="http://www.w3.org/2000/svg">
<g clip-path="url(#clip0_628_154)">
<path d="M31.6054 31.0122C31.8057 31.0332 32.0063 30.9743 32.1636 30.8481C32.3209 30.7219 32.4223 30.5387 32.4458 30.3381V27.8102C32.405 27.3563 32.067 27.0167 31.6054 26.9676H6.05683C5.84101 26.9885 5.63915 27.084 5.48583 27.2377C5.33251 27.3914 5.23727 27.5938 5.21642 27.8102V30.3381C5.26735 30.7141 5.60606 31.0537 6.05683 31.0122H31.6054ZM31.6054 4.0472C32.067 4.01847 32.405 3.6795 32.4458 3.20456V0.676648C32.405 0.320443 32.067 -0.0185271 31.6054 0.00253884H6.05683C5.60606 -0.0185271 5.26671 0.321081 5.21642 0.676648V3.20456C5.26735 3.6795 5.60606 4.01847 6.05683 4.0472H31.6054ZM42.6988 31.0122C43.0974 31.0543 43.4354 30.7154 43.3711 30.3381V0.677287C43.4354 0.321081 43.0974 -0.0178887 42.6988 0.0031772H39.5052C39.0475 -0.0178887 38.7081 0.321719 38.6648 0.677287V30.3381C38.689 30.5384 38.7905 30.7213 38.9477 30.8473C39.1048 30.9734 39.305 31.0326 39.5052 31.0122H42.6988ZM117.664 21.2376H105.394C104.924 21.2236 104.628 21.5313 104.386 21.9117L103.377 24.1026C103.14 24.4709 103.392 24.9095 103.881 24.9452H119.513L122.202 30.5066C122.357 30.8354 122.75 31.0543 123.043 31.0122H126.573C127.039 31.0543 127.039 30.6152 126.909 30.3381L112.454 0.508121C112.245 0.157022 111.851 -0.0185271 111.613 0.00253884H108.924C108.656 -0.0185271 108.393 0.0689284 108.252 0.508121L93.4604 30.3381C93.1172 30.7473 93.4228 31.0543 93.6284 31.0122H96.9901C97.5822 31.0543 97.8445 30.7907 97.9986 30.5066L110.269 5.90164L117.664 21.2376ZM28.4118 8.09249C28.7079 7.80523 28.6919 7.32582 28.4118 7.08133L26.5629 5.39605C26.242 5.03538 25.7639 5.05198 25.5544 5.39605L8.74615 23.4285C8.41762 23.7534 8.43418 24.2341 8.74615 24.4396L10.5951 26.2934C10.8841 26.5239 11.3629 26.5067 11.6035 26.1249L28.4118 8.09249ZM87.7455 0.00253884C88.1829 -0.0185271 88.521 0.321081 88.586 0.676648V30.3375C88.521 30.7147 88.1829 31.0537 87.7455 31.0116H84.552C84.1324 31.0537 83.7937 30.7147 83.7116 30.3375V7.08133L74.1309 18.3727C73.9195 18.6057 73.4413 18.6389 73.1224 18.3727L71.6096 16.6874C71.22 16.3925 71.1875 15.9131 71.4415 15.6762L84.2158 0.677287C84.6685 0.201708 85.0193 -0.0178887 85.3924 0.0031772L87.7455 0.00253884ZM55.6412 0.677287L72.1132 19.7209C72.394 20.0975 72.3615 20.5769 72.1132 20.9006L70.4324 22.5858C70.1402 22.9114 69.662 22.8782 69.4239 22.5858L55.305 6.23805V30.3375C55.3413 30.7147 55.0032 31.0537 54.6327 31.0116H51.4391C50.9533 31.0537 50.614 30.7147 50.5987 30.3375V0.677287C50.614 0.321081 50.9533 -0.0178887 51.4391 0.0031772H54.6327C54.9478 -0.0178887 55.4444 0.495992 55.6412 0.677287ZM0.00585938 35.2254H130.438V36.2366H0.00585938V35.2254ZM58.1624 41.798C58.0733 41.5541 57.9364 41.0421 57.1539 41.1239C56.7623 41.0428 56.1269 41.346 56.1454 42.6406C56.1269 43.4437 56.4332 44.1771 57.1539 44.1573C57.6906 44.1771 58.0376 43.8797 58.1624 43.3147H59.0028C58.864 44.3106 58.2534 44.9993 57.1539 45C56.0321 44.9993 55.2114 44.1835 55.1369 42.6406C55.2114 41.03 56.0792 40.2206 57.1539 40.2812C58.475 40.2206 58.9958 41.1564 59.0028 41.798H58.1624ZM64.8857 43.9888H67.0708V44.8315H64.0453V40.2812H64.8857V43.9888ZM74.8026 41.1239H72.6175V42.135H74.6345V42.9777H72.6175V44.1573H74.9713V44.8315H71.7777V40.2812H74.8026V41.1239ZM80.3493 44.8315H79.3408L80.8535 40.2812H82.0307L83.5428 44.8315H82.535L82.1988 43.9888H80.6861L80.3493 44.8315ZM89.2583 40.2812H91.4434C92.527 40.3406 92.7358 41.2317 92.788 41.6294C92.7358 42.1229 92.4964 42.5525 92.1157 42.6406C92.4251 42.8685 92.6168 43.0077 92.6199 43.8203C92.6168 44.5187 92.6168 44.6834 92.788 44.8315H91.7795C91.7541 44.6642 91.7184 44.4306 91.7795 43.9888C91.7184 43.3428 91.6821 43.1028 90.9391 43.1462H90.0987V44.8315H89.2583V40.2812ZM103.041 44.8315H102.201V41.1239L101.36 44.8315H100.352L99.5113 41.1239V44.8315H98.6709V40.2812H100.016L100.856 43.9888L101.696 40.2812H103.041V44.8315ZM110.269 44.8315H109.26L110.773 40.2812H111.949L113.462 44.8315H112.454L112.118 43.9888H110.605L110.269 44.8315ZM120.69 43.9888H122.707V44.8315H119.681V40.2812H120.69V43.9888ZM130.943 44.8315H129.934V41.1239H128.758V40.2812H132.287V41.1239H130.943V44.8315ZM132.119 33.7087H134.136V34.0457H133.296V36.2366H132.96V34.0457H132.119V33.7087ZM136.658 36.2366V34.7198C136.593 34.6707 136.6 34.3515 136.658 34.0457L135.817 36.2366H135.481L134.809 34.0457C134.835 34.3515 134.842 34.6707 134.809 34.7198V36.2366H134.472V33.7087H134.977L135.649 35.8995L136.489 33.7087H136.994V36.2366H136.658Z" fill="#FE5B2C"/>
<path d="M80.8535 43.1462H82.0307L81.3578 41.2924L80.8535 43.1462ZM91.1065 42.3036C91.6102 42.338 91.8374 42.1676 91.7789 41.798C91.8374 41.4788 91.7356 41.1245 91.2746 41.1239H90.098V42.3036H91.1065ZM110.773 43.1462H111.949L111.277 41.2924L110.773 43.1462Z" fill="#FE5B2C"/>
</g>
<defs>
<clipPath id="clip0_628_154">
<rect width="137" height="45" fill="white"/>
</clipPath>
</defs>
</svg>
