<svg width="30" height="30" viewBox="0 0 30 30" fill="none" xmlns="http://www.w3.org/2000/svg">
<g clip-path="url(#clip0_632_432)">
<path d="M25.7227 30C17.3613 30 9.00586 30 0.644531 30C0.427734 29.7832 0.216797 29.5723 0 29.3555C0 23.2207 0 17.0918 0 10.957C0.0175781 10.8809 0.0410156 10.8105 0.0585938 10.7344C0.416016 8.91211 1.47656 7.71094 3.26367 7.19531C3.73828 7.06055 4.24805 7.04297 4.72266 6.97852C4.74023 6.99023 4.73438 6.98438 4.72266 6.98438C4.69336 6.97852 4.66406 6.97852 4.63477 6.97266C3.15234 6.63867 2.17969 5.74219 1.85156 4.26562C1.5293 2.81836 2.02148 1.61719 3.18164 0.697266C3.67383 0.304688 4.25977 0.134766 4.86328 0C5.13867 0 5.4082 0 5.68359 0C5.73633 0.0175781 5.78906 0.0410156 5.84766 0.0527344C8.01562 0.410156 9.33984 2.66016 8.56641 4.7168C8.08594 6 7.125 6.73242 5.72461 7.01367C7.37109 7.01367 8.94727 7.01367 10.5469 7.01367C10.5469 6.89062 10.5469 6.78516 10.5469 6.67969C10.5469 4.8457 10.5586 3.01172 10.541 1.17773C10.5293 0.638672 10.6816 0.234375 11.1914 0C17.2441 0 23.3027 0 29.3555 0C29.5723 0.216797 29.7832 0.427734 30 0.644531C30 5.50781 30 10.3711 30 15.2344C29.7656 15.7441 29.3613 15.8906 28.8164 15.8848C23.1152 15.873 17.4082 15.8789 11.707 15.8789C11.6191 15.8789 11.5312 15.8789 11.4434 15.8789C10.9219 15.8613 10.5645 15.5098 10.5469 14.9941C10.541 14.8301 10.5469 14.6602 10.5469 14.4961C10.5469 13.7754 10.5469 13.0547 10.5469 12.3281C9.94922 12.3281 9.38086 12.3281 8.78906 12.3281C8.78906 12.4512 8.78906 12.5566 8.78906 12.6621C8.78906 14.2852 8.79492 15.9023 8.7832 17.5254C8.7832 17.7598 8.8418 17.877 9.06445 17.9824C10.5645 18.6855 11.0098 20.666 9.97852 21.9551C9.53906 22.5 8.97656 22.8105 8.29688 22.9629C9.57422 23.127 10.6113 23.7012 11.4316 24.7266C12.2461 23.6953 13.2949 23.127 14.5664 22.9629C13.1953 22.6816 12.2402 21.5273 12.3164 20.2441C12.3984 18.832 13.4473 17.7891 14.8594 17.707C16.084 17.6367 17.3027 18.5918 17.5254 19.8105C17.6602 20.5488 17.5312 21.2344 17.1035 21.8438C16.6758 22.459 16.0723 22.8105 15.334 22.9688C16.6113 23.1328 17.6484 23.707 18.4688 24.7324C19.2832 23.7012 20.332 23.1328 21.6035 22.9688C20.2207 22.6875 19.2539 21.5098 19.3535 20.2207C19.4648 18.8086 20.4902 17.7949 21.8906 17.7129C23.127 17.6426 24.3633 18.627 24.5625 19.8457C24.6855 20.584 24.5508 21.2637 24.1172 21.873C23.6895 22.4707 23.0918 22.8164 22.3711 22.9688C22.4824 23.0039 22.582 23.0273 22.6875 23.0449C24.498 23.2969 26.0918 24.8848 26.3027 26.7012C26.3848 27.4043 26.332 28.125 26.3789 28.834C26.4082 29.3613 26.2324 29.7656 25.7227 30ZM12.3164 7.03125C13.166 7.03125 13.9922 7.03125 14.8184 7.03125C15.4512 7.03125 16.043 7.17773 16.5352 7.59375C16.7168 7.74609 16.8516 7.73438 17.0508 7.63477C19.6523 6.32227 22.2656 5.02148 24.873 3.7207C24.9785 3.66797 25.084 3.61523 25.1895 3.57422C25.6641 3.4043 26.1562 3.65039 26.3145 4.13086C26.4668 4.58789 26.2559 4.99219 25.7285 5.25586C23.0977 6.57422 20.4609 7.89258 17.8242 9.19922C17.6367 9.29297 17.5605 9.38672 17.5605 9.61523C17.5781 10.9863 16.6113 12.1289 15.252 12.2578C14.3789 12.3398 13.4941 12.293 12.6211 12.3047C12.5156 12.3047 12.416 12.3047 12.3105 12.3047C12.3105 12.9258 12.3105 13.5117 12.3105 14.1035C17.6191 14.1035 22.916 14.1035 28.2129 14.1035C28.2129 9.98438 28.2129 5.87695 28.2129 1.76953C22.9043 1.76953 17.6133 1.76953 12.3105 1.76953C12.3164 3.52148 12.3164 5.25586 12.3164 7.03125ZM7.5293 22.9395C7.49414 22.9277 7.4707 22.9219 7.44727 22.916C6.26953 22.6992 5.44922 21.8086 5.29688 20.5723C5.16211 19.5059 5.78906 18.416 6.82031 17.9414C6.99609 17.8594 7.03711 17.7656 7.03711 17.5898C7.03125 15.6152 7.03125 13.6465 7.03125 11.6719C7.03125 10.8457 7.33008 10.541 8.15625 10.541C10.3711 10.541 12.5918 10.541 14.8066 10.541C15.1758 10.541 15.4863 10.4414 15.6855 10.1191C15.8672 9.83203 15.873 9.52734 15.7031 9.22852C15.5156 8.90039 15.2168 8.77734 14.8418 8.77734C11.3965 8.77734 7.94531 8.77734 4.5 8.7832C4.24805 8.7832 3.99023 8.80664 3.75 8.87695C2.50195 9.22852 1.75781 10.2188 1.75781 11.5488C1.75195 17.0273 1.75781 22.5059 1.75781 27.9844C1.75781 28.0664 1.76953 28.1484 1.77539 28.2246C2.36719 28.2246 2.92969 28.2246 3.50977 28.2246C3.375 25.3418 4.63477 23.5195 7.5293 22.9395ZM10.5234 28.2363C10.6348 26.9707 10.4473 25.8398 9.27539 25.1309C8.31445 24.5449 7.1543 24.627 6.33398 25.2539C5.38477 25.9863 5.13867 27.0234 5.31445 28.2363C7.04883 28.2363 8.77148 28.2363 10.5234 28.2363ZM12.3164 28.2188C14.0859 28.2188 15.8262 28.2188 17.6016 28.2188C17.5781 27.7793 17.5781 27.3574 17.5312 26.9473C17.4082 25.916 16.5352 24.9961 15.498 24.7852C14.4023 24.5625 13.248 25.0723 12.6973 25.9922C12.2812 26.6895 12.2871 27.4395 12.3164 28.2188ZM24.5801 28.2363C24.7676 26.8301 24.3047 25.6758 23.3438 25.125C22.3711 24.5625 21.2168 24.6211 20.4023 25.2539C19.4531 25.9863 19.207 27.0234 19.3828 28.2363C21.1113 28.2363 22.834 28.2363 24.5801 28.2363ZM7.03125 3.52734C7.03711 2.57227 6.25195 1.77539 5.29102 1.76367C4.33594 1.74609 3.5332 2.53125 3.51562 3.49219C3.49805 4.45312 4.30664 5.26758 5.27344 5.27344C6.22266 5.27344 7.01953 4.48242 7.03125 3.52734ZM7.91602 19.4531C7.43555 19.4473 7.03711 19.8457 7.03125 20.3203C7.02539 20.8008 7.42383 21.1992 7.89844 21.2051C8.37891 21.2109 8.77734 20.8125 8.7832 20.3379C8.78906 19.8633 8.39648 19.459 7.91602 19.4531ZM15.8203 20.3203C15.8145 19.8398 15.4102 19.4473 14.9297 19.459C14.4492 19.4648 14.0566 19.8691 14.0684 20.3496C14.0742 20.8301 14.4785 21.2227 14.959 21.2109C15.4336 21.1992 15.8262 20.7949 15.8203 20.3203ZM21.9844 19.4531C21.5039 19.4473 21.1055 19.8398 21.0996 20.3203C21.0938 20.8008 21.4863 21.1992 21.9668 21.2051C22.4473 21.2109 22.8457 20.8184 22.8516 20.3379C22.8574 19.8633 22.459 19.459 21.9844 19.4531Z" fill="#18333B"/>
</g>
<defs>
<clipPath id="clip0_632_432">
<rect width="30" height="30" fill="white"/>
</clipPath>
</defs>
</svg>
