<svg width="30" height="30" viewBox="0 0 30 30" fill="none" xmlns="http://www.w3.org/2000/svg">
<path d="M0 9.5365C0 6.57257 0 3.61648 0 0.652551C0.148438 0.480047 0.265625 0.252656 0.445312 0.13504C1.03906 -0.241333 1.75 0.213451 1.75781 0.950513C1.76562 2.68339 1.75781 4.41627 1.75781 6.15699C1.75781 6.25893 1.75781 6.36086 1.75781 6.45496C2.36719 6.45496 2.92969 6.45496 3.51562 6.45496C3.51562 6.3295 3.51562 6.22756 3.51562 6.11779C3.51562 4.40059 3.51562 2.69123 3.51562 0.974036C3.51562 0.558458 3.67188 0.244815 4.05469 0.080152C4.64844 -0.186445 5.27344 0.260497 5.27344 0.942672C5.28125 2.67555 5.27344 4.40843 5.27344 6.14915C5.27344 6.25109 5.27344 6.35302 5.27344 6.45496C5.88281 6.45496 6.45312 6.45496 7.03125 6.45496C7.03125 6.32166 7.03125 6.21972 7.03125 6.10995C7.03125 4.42411 7.03125 2.73828 7.03125 1.05245C7.03125 0.93483 7.03125 0.817214 7.05469 0.699598C7.15625 0.260497 7.55469 -0.0296232 7.98438 0.00958225C8.4375 0.0487877 8.78125 0.417319 8.78906 0.903466C8.79688 1.69542 8.78906 2.48737 8.78906 3.27932C14.0625 0.809373 18.9922 1.35041 23.5938 4.91026C24.0312 2.13452 26.1875 0.127199 28.8359 0.00958225C29.6719 -0.0296232 30.0078 0.291861 30.0078 1.12302C30.0078 9.78742 30.0078 18.4518 30.0078 27.1162C30.0078 27.2417 30.0078 27.375 30 27.5004C29.9375 28.8099 28.8672 29.9076 27.5547 29.9939C26.2188 30.088 25.0156 29.1549 24.7812 27.8454C24.7422 27.6181 24.7266 27.375 24.7266 27.1476C24.7188 26.1047 24.7266 25.0619 24.7266 23.9484C22.3672 26.4419 19.5469 27.8768 16.1953 28.1826C12.8359 28.4884 9.79688 27.5788 7.03125 25.5637C7.03125 26.238 7.04688 26.8575 7.03125 27.4691C6.96875 29.3431 4.96875 30.5663 3.28906 29.7508C2.25781 29.249 1.76562 28.3943 1.76562 27.2417C1.76562 22.145 1.76562 17.0483 1.77344 11.9516C1.77344 11.7242 1.71875 11.5909 1.5 11.4889C0.773438 11.1518 0.320312 10.5872 0.101562 9.83447C0.0703125 9.73253 0.03125 9.6306 0 9.5365ZM24.7969 20.616C23.7812 20.5375 23.5547 20.2945 23.5547 19.3771C23.5547 15.48 23.5547 11.5752 23.5469 7.67817C23.5469 7.52134 23.4766 7.33316 23.375 7.21554C21.3516 5.0514 18.875 3.82819 15.9219 3.57728C13.4688 3.36557 11.1953 3.92229 9.08594 5.17686C8.875 5.30232 8.77344 5.43561 8.78125 5.70221C8.79688 6.83917 8.80469 7.97613 8.78125 9.11308C8.76562 10.2108 8.24219 11.0185 7.26562 11.5046C7.07031 11.5987 7.02344 11.7006 7.02344 11.8967C7.03125 15.582 7.02344 19.2673 7.03125 22.9526C7.03125 23.0937 7.10938 23.2819 7.21094 23.376C9.6875 25.6578 12.6094 26.7085 15.9531 26.4105C19.6172 26.0812 22.4766 24.3248 24.5469 21.2746C24.6719 21.0943 24.7031 20.859 24.7969 20.616ZM25.3125 18.8047C26.3047 18.8047 27.2656 18.8047 28.2344 18.8047C28.2344 13.1591 28.2344 7.53703 28.2344 1.89928C28.1797 1.90713 28.1328 1.91497 28.0859 1.92281C26.4453 2.35407 25.3125 3.88308 25.3125 5.67085C25.3125 9.95208 25.3125 14.2333 25.3125 18.5224C25.3125 18.6086 25.3125 18.6949 25.3125 18.8047ZM3.51562 11.7791C3.51562 11.881 3.51562 11.9516 3.51562 12.0143C3.51562 17.0875 3.51562 22.1607 3.51562 27.2338C3.51562 27.2887 3.51562 27.3515 3.51562 27.4063C3.55469 27.8298 3.89062 28.1748 4.3125 28.2218C4.71875 28.261 5.10938 28.0101 5.22656 27.5945C5.26562 27.4534 5.27344 27.3044 5.27344 27.1633C5.27344 22.1371 5.27344 17.111 5.27344 12.0849C5.27344 11.9829 5.27344 11.881 5.27344 11.7712C4.67188 11.7791 4.10938 11.7791 3.51562 11.7791ZM26.4844 20.6003C26.4844 22.882 26.4766 25.1324 26.4922 27.3828C26.4922 27.7592 26.7031 28.0258 27.0547 28.1669C27.6484 28.4022 28.2422 27.9631 28.2422 27.2887C28.25 25.1167 28.2422 22.9448 28.2422 20.7649C28.2422 20.7101 28.2266 20.6552 28.2188 20.5924C27.6406 20.6003 27.0781 20.6003 26.4844 20.6003ZM1.75781 8.25056C1.75781 8.57989 1.74219 8.88569 1.75781 9.18365C1.78125 9.6306 2.14844 9.99129 2.60156 9.99913C3.78906 10.007 4.98438 10.007 6.17188 9.99913C6.59375 9.99913 6.95312 9.68548 7.00781 9.27775C7.04688 8.94058 7.01562 8.60341 7.01562 8.25056C5.26563 8.25056 3.53125 8.25056 1.75781 8.25056Z" fill="#18333B"/>
<path d="M15.0078 11.199C15.5078 10.7129 16.0859 10.3836 16.7578 10.2346C18.2891 9.88173 19.8594 10.5639 20.6563 11.9126C21.4531 13.2769 21.2813 15.002 20.2109 16.1703C19.6641 16.7584 19.0859 17.3151 18.5234 17.8796C17.6016 18.8127 16.6719 19.738 15.75 20.6632C15.2422 21.1729 14.7734 21.1729 14.2578 20.6554C12.8125 19.2126 11.3594 17.7699 9.92188 16.3114C8.26563 14.6256 8.56251 11.9126 10.5391 10.6815C11.8516 9.86604 13.5625 9.98366 14.75 10.9795C14.8359 11.05 14.9141 11.1206 15.0078 11.199ZM15 18.8833C15.0313 18.8676 15.0469 18.8598 15.0625 18.8519C16.3359 17.5738 17.625 16.2957 18.8906 15.002C19.5859 14.2884 19.5625 13.1593 18.875 12.4536C18.1797 11.7401 17.0625 11.7087 16.3125 12.3987C16.0938 12.5947 15.8984 12.8143 15.6875 13.0182C15.2422 13.4494 14.7578 13.4494 14.3203 13.0182C14.0938 12.7986 13.8828 12.5712 13.6484 12.3595C12.9219 11.7165 11.8359 11.7479 11.1563 12.4301C10.4609 13.1201 10.3906 14.2492 11.0703 14.9549C12.3594 16.2801 13.6797 17.566 15 18.8833Z" fill="#18333B"/>
</svg>
