<svg width="28" height="28" viewBox="0 0 28 28" fill="none" xmlns="http://www.w3.org/2000/svg">
<path d="M27.3438 28C18.4479 28 9.55208 28 0.65625 28C0.35 27.8687 0.13125 27.65 0 27.3438C0 22.4365 0 17.5365 0 12.6292C0.211458 12.126 0.583333 11.9292 1.12292 11.9656C1.61875 11.9948 2.12187 11.9729 2.625 11.9729C2.88021 11.9729 3.12812 11.9729 3.39792 11.9729C3.39792 11.8198 3.39792 11.7031 3.39792 11.5865C3.39792 8.10833 3.40521 4.6375 3.39062 1.15937C3.39062 0.619792 3.53646 0.21875 4.04688 0C10.6823 0 17.3177 0 23.9531 0C24.4562 0.226042 24.6094 0.627083 24.6094 1.16667C24.5948 4.65938 24.6021 8.14479 24.6021 11.6375C24.6021 11.7396 24.6021 11.849 24.6021 11.9729C25.3823 11.9729 26.1333 11.9948 26.8771 11.9656C27.4167 11.9438 27.7885 12.1333 28 12.6292C28 17.5365 28 22.4365 28 27.3438C27.8687 27.65 27.65 27.8687 27.3438 28ZM5.16979 1.76458C5.16979 9.93854 5.16979 18.0833 5.16979 26.2354C6.71562 26.2354 8.23958 26.2354 9.79271 26.2354C9.79271 26.1187 9.79271 26.024 9.79271 25.9219C9.79271 24.1937 9.79271 22.4583 9.79271 20.7302C9.79271 20.074 10.1281 19.7385 10.7844 19.7385C12.4906 19.7385 14.1896 19.7385 15.8958 19.7385C16.5667 19.7385 16.9021 20.074 16.9021 20.7448C16.9021 22.4729 16.9021 24.2083 16.9021 25.9365C16.9021 26.0312 16.9021 26.1333 16.9021 26.2354C18.9 26.2354 20.8615 26.2354 22.8375 26.2354C22.8375 18.0687 22.8375 9.92396 22.8375 1.76458C16.9385 1.76458 11.0687 1.76458 5.16979 1.76458ZM3.38333 26.2427C3.38333 22.0573 3.38333 17.901 3.38333 13.7448C2.82917 13.7448 2.30417 13.7448 1.77187 13.7448C1.77187 17.9229 1.77187 22.0792 1.77187 26.2427C2.31146 26.2427 2.83646 26.2427 3.38333 26.2427ZM26.2354 26.2427C26.2354 22.0646 26.2354 17.9083 26.2354 13.7448C25.6885 13.7448 25.1562 13.7448 24.6167 13.7448C24.6167 17.9156 24.6167 22.0719 24.6167 26.2427C25.1635 26.2427 25.6885 26.2427 26.2354 26.2427ZM11.55 26.2354C12.7604 26.2354 13.9417 26.2354 15.1302 26.2354C15.1302 24.6531 15.1302 23.0781 15.1302 21.5031C13.9271 21.5031 12.7385 21.5031 11.55 21.5031C11.55 23.0854 11.55 24.6531 11.55 26.2354Z" fill="#18333B"/>
<path d="M17.3325 12.4542C17.9085 12.4542 18.4773 12.4469 19.0533 12.4542C19.6294 12.4615 19.9794 12.7969 19.9867 13.3729C19.9939 14.5323 19.9939 15.6844 19.9867 16.8438C19.9794 17.4125 19.6221 17.7625 19.0533 17.7625C17.9085 17.7698 16.7564 17.7698 15.6117 17.7625C15.0502 17.7625 14.6856 17.3979 14.6783 16.8365C14.671 15.6771 14.671 14.525 14.6783 13.3656C14.6856 12.7969 15.0429 12.4615 15.6117 12.4542C16.1804 12.4542 16.7564 12.4542 17.3325 12.4542ZM16.4356 15.9979C17.0481 15.9979 17.6242 15.9979 18.2221 15.9979C18.2221 15.4 18.2221 14.8167 18.2221 14.226C17.6169 14.226 17.0335 14.226 16.4356 14.226C16.4356 14.824 16.4356 15.4 16.4356 15.9979Z" fill="#18333B"/>
<path d="M10.6674 5.78979C11.2435 5.78979 11.8195 5.78979 12.3883 5.78979C12.957 5.79709 13.3216 6.13979 13.3216 6.70854C13.3289 7.86792 13.3289 9.02 13.3216 10.1794C13.3143 10.7481 12.9497 11.0981 12.3883 11.0981C11.2435 11.1054 10.0914 11.1054 8.94661 11.0981C8.38516 11.0981 8.02057 10.7481 8.01328 10.1794C8.00599 9.02 8.00599 7.86792 8.01328 6.70854C8.02057 6.1325 8.37057 5.79709 8.93932 5.78979C9.51536 5.78979 10.0914 5.78979 10.6674 5.78979ZM9.77786 7.55438C9.77786 8.15959 9.77786 8.74292 9.77786 9.34084C10.3758 9.34084 10.9664 9.34084 11.5643 9.34084C11.5643 8.74292 11.5643 8.15229 11.5643 7.55438C10.9664 7.55438 10.3831 7.55438 9.77786 7.55438Z" fill="#18333B"/>
<path d="M17.3399 5.78962C17.916 5.78962 18.4847 5.78233 19.0607 5.78962C19.6149 5.79691 19.9795 6.13233 19.9868 6.68649C20.0014 7.85316 20.0014 9.01983 19.9868 10.1865C19.9795 10.7552 19.6222 11.098 19.0535 11.098C17.9087 11.098 16.7566 11.1052 15.6118 11.098C15.0649 11.098 14.693 10.7407 14.6857 10.2011C14.6712 9.02712 14.6712 7.85316 14.6857 6.67191C14.693 6.13962 15.0576 5.79691 15.5972 5.78962C16.1732 5.78233 16.7566 5.78962 17.3399 5.78962ZM18.2295 7.56149C17.617 7.56149 17.0337 7.56149 16.443 7.56149C16.443 8.1667 16.443 8.75003 16.443 9.33337C17.0482 9.33337 17.6389 9.33337 18.2295 9.33337C18.2295 8.73545 18.2295 8.15941 18.2295 7.56149Z" fill="#18333B"/>
<path d="M10.6676 12.4539C11.2436 12.4539 11.8124 12.4466 12.3884 12.4539C12.9572 12.4612 13.3145 12.8039 13.3217 13.3727C13.329 14.532 13.329 15.6841 13.3217 16.8435C13.3145 17.405 12.9499 17.7623 12.3884 17.7623C11.2436 17.7695 10.0915 17.7695 8.94674 17.7623C8.39258 17.7623 8.02799 17.4123 8.0207 16.8654C8.00612 15.6914 8.00612 14.5175 8.0207 13.3362C8.02799 12.7966 8.37799 12.4612 8.92487 12.4539C9.50091 12.4466 10.0842 12.4539 10.6676 12.4539ZM9.778 14.2185C9.778 14.831 9.778 15.407 9.778 15.9977C10.3759 15.9977 10.9665 15.9977 11.5572 15.9977C11.5572 15.3925 11.5572 14.8091 11.5572 14.2185C10.9592 14.2185 10.3832 14.2185 9.778 14.2185Z" fill="#18333B"/>
</svg>
