<svg width="30" height="22" viewBox="0 0 30 22" fill="none" xmlns="http://www.w3.org/2000/svg">
<path d="M29.9922 5.59971C29.6251 6.8053 29.2502 8.01089 28.8909 9.22441C27.774 12.9522 26.6571 16.68 25.5402 20.4158C25.3215 21.1455 24.9466 21.431 24.189 21.431C18.0578 21.431 11.9344 21.431 5.80318 21.431C5.04556 21.431 4.67066 21.1534 4.45197 20.4237C2.9836 15.5062 1.52304 10.6045 0.0546733 5.70282C0.0390523 5.66317 0.0156209 5.63144 0 5.59971C0 5.44108 0 5.28245 0 5.12382C0.0312419 5.04451 0.0702942 4.96519 0.101536 4.87795C0.390523 4.21963 1.08565 3.99755 1.78079 4.33861C3.76464 5.31418 5.74069 6.29769 7.72455 7.27326C7.84171 7.32878 7.95105 7.3843 8.09164 7.45569C8.38844 7.1067 8.69305 6.75771 8.98985 6.40873C10.6847 4.43378 12.3718 2.45091 14.0588 0.475963C14.6056 -0.166489 15.3944 -0.158558 15.9568 0.499757C17.8782 2.7523 19.8073 5.00485 21.7287 7.26533C21.7756 7.32085 21.8303 7.3843 21.9005 7.45569C22.5488 7.13843 23.1971 6.81323 23.8454 6.49597C25.2512 5.80593 26.6493 5.10796 28.0552 4.41792C29.0081 3.94996 29.5782 4.15618 30 5.12382C29.9922 5.28245 29.9922 5.44108 29.9922 5.59971ZM26.9071 7.63811C26.7587 7.70949 26.6649 7.74915 26.5712 7.79674C25.1419 8.50264 23.7126 9.20855 22.2833 9.91445C21.5803 10.2634 21.1039 10.1603 20.5962 9.56547C18.7842 7.44775 16.98 5.33004 15.1679 3.2044C15.1133 3.14095 15.0898 3.04577 15.0508 2.95852C14.9336 3.08543 14.9024 3.12508 14.8711 3.15681C13.0513 5.29039 11.2236 7.42396 9.4038 9.55753C8.89612 10.1603 8.41968 10.2555 7.71674 9.90652C6.27961 9.19269 4.84249 8.48678 3.40536 7.77295C3.31945 7.72536 3.22572 7.69363 3.09294 7.63811C3.12419 7.75708 3.13981 7.8126 3.15543 7.86812C4.24108 11.5008 5.33455 15.1413 6.41239 18.7739C6.47488 18.996 6.58422 19.0357 6.77948 19.0357C12.2468 19.0278 17.7141 19.0278 23.1815 19.0357C23.4236 19.0357 23.5329 18.9643 23.6032 18.7264C24.5717 15.4586 25.5558 12.1908 26.5322 8.92301C26.6493 8.51851 26.7743 8.10607 26.9071 7.63811Z" fill="#18333B"/>
</svg>
