<svg width="30" height="30" viewBox="0 0 30 30" fill="none" xmlns="http://www.w3.org/2000/svg">
<g clip-path="url(#clip0_632_428)">
<path d="M0 16.9297C0.242188 16.3828 0.679688 16.2187 1.25 16.2344C2.33594 16.2578 3.41406 16.2344 4.5 16.2422C4.6875 16.2422 4.76562 16.2031 4.8125 16C5.38281 13.2344 7.78125 11.2578 10.6016 11.25C13.5391 11.2344 16.4766 11.2344 19.4219 11.25C22.2266 11.2656 24.625 13.2422 25.1875 15.9844C25.2266 16.1719 25.2891 16.25 25.4844 16.2422C26.0312 16.2265 26.5703 16.2344 27.1406 16.2344C27.1016 15.5234 26.9297 14.875 26.6797 14.25C26.1719 12.9844 25.375 11.9453 24.2969 11.125C24.1562 11.0156 24.0469 11 23.875 11.0703C22.8438 11.5156 21.6797 10.9844 21.3438 9.93749C21.0156 8.90624 21.6328 7.78905 22.6797 7.54686C23.7734 7.28905 24.7969 7.98436 24.9844 9.10155C25.0078 9.23436 25.1016 9.39061 25.2109 9.46874C27.4219 11.0937 28.7031 13.2578 29.0078 15.9922C29.0234 16.1484 29.0703 16.2265 29.2344 16.2656C29.8438 16.4062 30.1406 16.9297 29.9297 17.5156C29.1094 19.789 28.2812 22.0625 27.4531 24.3281C27.2812 24.789 26.9688 24.9844 26.4219 24.9922C25.0156 24.9922 23.6094 25 22.2031 24.9844C21.9531 24.9844 21.8594 25.0469 21.8203 25.3125C21.6484 26.5234 21.4375 27.7187 21.2734 28.9297C21.2031 29.4453 21 29.8125 20.5 29.9844C20.3594 29.9844 20.2266 29.9844 20.0859 29.9844C19.4766 29.6797 19.2969 29.375 19.3906 28.7578C19.6719 26.9297 19.9609 25.0937 20.2422 23.2656C20.3125 22.8047 20.375 22.3437 20.4453 21.8672C16.7891 21.8672 13.1719 21.8672 9.54688 21.8672C9.54688 21.9453 9.53906 22.0156 9.54688 22.0781C9.88281 24.2656 10.2188 26.4531 10.5625 28.6406C10.6797 29.3672 10.5469 29.6484 9.89062 29.9765C9.73438 29.9765 9.57812 29.9765 9.42188 29.9765C9.03906 29.7812 8.78906 29.5 8.71875 29.0469C8.53906 27.7812 8.32812 26.5234 8.14844 25.2578C8.10938 25 8.00781 24.9687 7.79688 24.9765C6.39844 24.9844 5.00781 24.9844 3.60938 24.9765C2.97656 24.9765 2.70312 24.789 2.49219 24.2031C2.125 23.1953 1.75781 22.1875 1.39062 21.1875C0.9375 19.9375 0.46875 18.6719 0 17.3984C0 17.2422 0 17.0859 0 16.9297ZM27.7188 18.1406C19.2266 18.1406 10.7656 18.1406 2.3125 18.1406C2.3125 18.1797 2.3125 18.2031 2.32031 18.2187C2.89062 19.7969 3.46875 21.3672 4.03125 22.9453C4.09375 23.125 4.20312 23.125 4.34375 23.125C5.41406 23.125 6.49219 23.125 7.5625 23.125C7.64062 23.125 7.71094 23.1094 7.80469 23.1015C7.78906 22.9765 7.78906 22.8672 7.76562 22.7656C7.67969 22.2187 7.59375 21.664 7.50781 21.1172C7.45312 20.789 7.53906 20.5 7.78125 20.2578C8.01562 20.0312 8.30469 19.9844 8.61719 19.9844C12.8672 19.9844 17.1094 19.9844 21.3594 19.9844C21.4375 19.9844 21.5156 19.9844 21.5938 19.9922C22.1875 20.0469 22.5625 20.5234 22.4766 21.1094C22.4297 21.4062 22.375 21.7031 22.3359 22.0078C22.2812 22.3672 22.2344 22.7344 22.1797 23.125C23.4062 23.125 24.5859 23.125 25.7656 23.1172C25.8281 23.1172 25.9219 23.0156 25.9531 22.9453C26.0859 22.6094 26.2031 22.2734 26.3281 21.9297C26.7969 20.6797 27.25 19.4297 27.7188 18.1406ZM6.69531 16.2265C12.2422 16.2265 17.7734 16.2265 23.3125 16.2265C23.2969 16.164 23.2891 16.1328 23.2812 16.0937C22.8203 14.375 21.2188 13.1328 19.4062 13.1328C16.4688 13.125 13.5312 13.1328 10.5938 13.1328C10.3828 13.1328 10.1641 13.1562 9.95312 13.1875C8.40625 13.4062 6.99219 14.7187 6.69531 16.2265Z" fill="#18333B"/>
<path d="M10.0078 4.9844C10.0156 2.21877 12.2578 -0.007792 15.0313 2.04964e-05C17.7813 0.007833 20.0078 2.25783 19.9922 5.01565C19.9844 7.77346 17.7422 10.0078 15 10.0078C12.2422 10 10 7.75002 10.0078 4.9844ZM11.8828 4.9844C11.875 6.71096 13.2735 8.12502 15 8.12502C16.711 8.13283 18.1094 6.7344 18.125 5.02346C18.1406 3.2969 16.75 1.88283 15.0235 1.87502C13.2891 1.86721 11.8906 3.25783 11.8828 4.9844Z" fill="#18333B"/>
</g>
<defs>
<clipPath id="clip0_632_428">
<rect width="30" height="30" fill="white"/>
</clipPath>
</defs>
</svg>
