<svg width="50" height="50" viewBox="0 0 50 50" fill="none" xmlns="http://www.w3.org/2000/svg">
<g clip-path="url(#clip0_1171_499)">
<path d="M39.5833 0H10.4167C7.65501 0.00330804 5.00741 1.10184 3.05462 3.05462C1.10184 5.00741 0.00330804 7.65501 0 10.4167L0 39.5833C0.00330804 42.345 1.10184 44.9926 3.05462 46.9454C5.00741 48.8982 7.65501 49.9967 10.4167 50H39.5833C42.345 49.9967 44.9926 48.8982 46.9454 46.9454C48.8982 44.9926 49.9967 42.345 50 39.5833V10.4167C49.9967 7.65501 48.8982 5.00741 46.9454 3.05462C44.9926 1.10184 42.345 0.00330804 39.5833 0ZM35.4167 20.8333C34.8641 20.8333 34.3342 20.6138 33.9435 20.2231C33.5528 19.8324 33.3333 19.3025 33.3333 18.75C33.3333 18.1975 33.1138 17.6676 32.7231 17.2769C32.3324 16.8862 31.8025 16.6667 31.25 16.6667H27.0833V33.3333H29.1667C29.7192 33.3333 30.2491 33.5528 30.6398 33.9435C31.0305 34.3342 31.25 34.8641 31.25 35.4167C31.25 35.9692 31.0305 36.4991 30.6398 36.8898C30.2491 37.2805 29.7192 37.5 29.1667 37.5H20.8333C20.2808 37.5 19.7509 37.2805 19.3602 36.8898C18.9695 36.4991 18.75 35.9692 18.75 35.4167C18.75 34.8641 18.9695 34.3342 19.3602 33.9435C19.7509 33.5528 20.2808 33.3333 20.8333 33.3333H22.9167V16.6667H18.75C18.1975 16.6667 17.6676 16.8862 17.2769 17.2769C16.8862 17.6676 16.6667 18.1975 16.6667 18.75C16.6667 19.3025 16.4472 19.8324 16.0565 20.2231C15.6658 20.6138 15.1359 20.8333 14.5833 20.8333C14.0308 20.8333 13.5009 20.6138 13.1102 20.2231C12.7195 19.8324 12.5 19.3025 12.5 18.75C12.5 17.0924 13.1585 15.5027 14.3306 14.3306C15.5027 13.1585 17.0924 12.5 18.75 12.5H31.25C32.9076 12.5 34.4973 13.1585 35.6694 14.3306C36.8415 15.5027 37.5 17.0924 37.5 18.75C37.5 19.3025 37.2805 19.8324 36.8898 20.2231C36.4991 20.6138 35.9692 20.8333 35.4167 20.8333Z" fill="#FE5B2C"/>
</g>
<defs>
<clipPath id="clip0_1171_499">
<rect width="50" height="50" fill="white"/>
</clipPath>
</defs>
</svg>
