<svg width="46" height="50" viewBox="0 0 46 50" fill="none" xmlns="http://www.w3.org/2000/svg">
<g clip-path="url(#clip0_1171_483)">
<path d="M14.3862 50.0003C13.3029 49.792 12.2064 49.6488 11.1495 49.3493C5.09897 47.6436 0.594089 42.305 0.1185 36.1201C-0.0796615 33.4508 0.0656573 30.7555 -0.000396724 28.0732C-0.0136075 27.4222 0.197765 27.0706 0.752619 26.7321C4.59696 24.3883 8.41488 22.0055 12.246 19.6488C14.4258 21.667 17.1736 21.2764 18.825 19.6357C20.0008 20.3649 21.1897 21.0941 22.3655 21.8232C25.153 23.542 27.9272 25.2738 30.7147 26.9795C31.0186 27.1618 31.1242 27.3701 31.1242 27.7217C31.111 30.0003 31.1242 32.279 31.111 34.5576C31.0846 42.1357 25.8267 48.3727 18.2701 49.779C17.7681 49.8701 17.2661 49.9352 16.7641 50.0133C15.9715 50.0003 15.1788 50.0003 14.3862 50.0003Z" fill="#FE5B2C"/>
<path d="M39.6457 49.9999C39.2758 49.7134 38.8795 49.453 38.5492 49.1275C37.2017 47.8254 35.8806 46.5103 34.5595 45.1952C34.0707 44.7004 33.965 44.0624 34.2425 43.4895C34.5067 42.9426 35.088 42.578 35.6957 42.6952C36.0656 42.7603 36.4487 42.9556 36.7261 43.203C37.3338 43.7368 37.8754 44.3488 38.4435 44.9217C38.4831 44.8957 38.5228 44.8827 38.5624 44.8566C38.5624 44.6874 38.5624 44.5181 38.5624 44.3358C38.5624 41.328 38.5624 38.3202 38.5624 35.3124C38.5624 34.1665 39.6853 33.4504 40.6893 33.9452C41.297 34.2447 41.5348 34.7655 41.5348 35.4296C41.5348 38.3853 41.5348 41.354 41.5348 44.3098C41.5348 44.4921 41.5348 44.6613 41.5348 44.9217C41.6801 44.8176 41.7726 44.7525 41.8651 44.6744C42.3935 44.1535 42.9087 43.6327 43.4372 43.1249C44.0713 42.5259 44.9961 42.5259 45.5641 43.1119C46.1322 43.6848 46.1454 44.5702 45.5377 45.1822C44.0713 46.6535 42.5785 48.1119 41.0857 49.5572C40.8875 49.7525 40.5836 49.8566 40.3326 49.9999C40.1081 49.9999 39.8835 49.9999 39.6457 49.9999Z" fill="#FE5B2C"/>
<path d="M40.438 0C40.8079 0.286458 41.2043 0.546875 41.5345 0.872396C42.8688 2.16146 44.1899 3.46354 45.4978 4.76562C46.3697 5.63802 46.013 6.97917 44.8505 7.26562C44.2692 7.40885 43.7804 7.21354 43.3708 6.8099C42.7896 6.23698 42.2215 5.65104 41.5345 4.96094C41.5345 5.27344 41.5345 5.44271 41.5345 5.61198C41.5345 8.60677 41.5345 11.6016 41.5345 14.5964C41.5345 15.7552 40.5305 16.4844 39.5133 16.0938C38.9056 15.8594 38.5621 15.3385 38.5621 14.5833C38.5621 11.6016 38.5621 8.63281 38.5621 5.65104C38.5621 5.48177 38.5621 5.29948 38.5621 5.13021C38.5225 5.10417 38.4828 5.09115 38.4432 5.0651C37.8619 5.65104 37.2807 6.23698 36.6994 6.82292C36.2899 7.22656 35.8011 7.42187 35.2198 7.26562C34.1365 6.99219 33.7005 5.70312 34.4668 4.90885C35.9728 3.35938 37.5317 1.86198 39.0773 0.351562C39.2359 0.195312 39.4604 0.117187 39.6586 0C39.9096 0 40.1738 0 40.438 0Z" fill="#FE5B2C"/>
<path d="M17.0813 0.078125C19.195 0.273438 21.1502 0.820312 22.9469 1.83594C28.1123 4.7526 30.8734 9.15365 31.0979 15.013C31.2036 17.8255 31.1244 20.638 31.1244 23.4505C31.1244 23.5286 31.1112 23.6068 31.0979 23.737C30.913 23.6328 30.7677 23.5677 30.6356 23.4766C27.214 21.3542 23.7924 19.2448 20.3708 17.1354C20.0933 16.9661 20.0141 16.7839 20.0141 16.4714C20.0141 15.2214 20.0669 13.9583 19.9612 12.7214C19.8159 11.0807 18.878 9.9349 17.3983 9.20573C17.253 9.1276 17.0681 8.91927 17.0681 8.77604C17.0549 5.96354 17.0549 3.15104 17.0549 0.338542C17.0417 0.260417 17.0549 0.195312 17.0813 0.078125Z" fill="#FE5B2C"/>
<path d="M14.07 0.0908203C14.07 0.286133 14.07 0.442383 14.07 0.598633C14.07 3.2679 14.0568 5.93717 14.0832 8.60645C14.0832 8.95801 13.9643 9.10124 13.6604 9.25749C12.0487 10.0518 11.1636 11.3408 11.1108 13.1377C11.0843 14.2705 11.1108 15.4163 11.0843 16.5492C11.0843 16.7184 10.9786 16.9658 10.8333 17.057C7.29283 19.2575 3.73913 21.458 0.185424 23.6455C0.159003 23.6585 0.11937 23.6715 0.0401056 23.6976C0.0268948 23.5283 0.013684 23.3851 0.013684 23.2288C0.013684 20.6117 0.000473168 17.9945 0.013684 15.3643C0.0401056 7.61686 5.73396 1.19759 13.5151 0.129883C13.6736 0.103841 13.8454 0.103841 14.07 0.0908203Z" fill="#FE5B2C"/>
<path d="M34.0969 24.974C34.1101 21.7448 36.7786 19.1277 40.0813 19.1407C43.3444 19.1537 46.013 21.8099 45.9998 25.0391C45.9734 28.2422 43.2916 30.8594 40.0285 30.8594C36.7522 30.8594 34.0836 28.2162 34.0969 24.974Z" fill="#FE5B2C"/>
<path d="M14.0692 14.9219C14.0692 14.3489 14.056 13.776 14.0692 13.2161C14.0956 12.3958 14.6901 11.7838 15.496 11.7448C16.249 11.7187 16.9756 12.2786 17.0152 13.0729C17.0681 14.3099 17.0813 15.5469 17.0152 16.7838C16.9756 17.6041 16.2622 18.138 15.4564 18.0989C14.6901 18.0599 14.0956 17.4479 14.0824 16.6406C14.056 16.0547 14.0692 15.4948 14.0692 14.9219Z" fill="#FE5B2C"/>
</g>
<defs>
<clipPath id="clip0_1171_483">
<rect width="46" height="50" fill="white"/>
</clipPath>
</defs>
</svg>
