<svg width="44" height="49" viewBox="0 0 44 49" fill="none" xmlns="http://www.w3.org/2000/svg">
<g clip-path="url(#clip0_1171_443)">
<path d="M22.0454 0C28.4851 0 34.9249 0 41.3646 0C43.2217 0 44.1352 0.992258 43.9855 2.80167C43.6111 7.47111 43.2516 12.1406 42.8772 16.81C42.5178 21.3335 42.1584 25.8571 41.7989 30.3806C41.5144 33.941 41.2448 37.5015 40.9753 41.0765C40.8554 42.6087 40.4062 43.2216 38.9085 43.7031C33.6669 45.3958 28.4102 47.0884 23.1686 48.7957C22.3898 49.0438 21.656 49.0584 20.8623 48.8103C15.6056 47.0884 10.334 45.3812 5.06239 43.7031C3.80439 43.3091 3.13046 42.5649 3.0406 41.2662C2.81596 38.2311 2.57634 35.196 2.33672 32.1608C2.02222 28.1042 1.69275 24.0476 1.37825 20.0057C1.10868 16.489 0.824129 12.9869 0.554558 9.48481C0.374844 7.26683 0.210106 5.04884 0.0154156 2.83085C-0.104394 1.37165 0.524606 0.350208 1.7826 0.0583681C2.05218 0 2.33672 0 2.62127 0C9.09098 0 15.5757 0 22.0454 0ZM29.2938 25.3901C29.2938 25.5944 29.3088 25.7549 29.2938 25.9154C29.0842 27.7686 28.8595 29.6072 28.6798 31.4604C28.6499 31.8106 28.5001 31.9565 28.1706 32.0587C26.7179 32.4964 25.2652 32.905 23.8575 33.4157C22.9589 33.7368 22.1203 33.7659 21.2067 33.5033C19.3946 33.0071 17.5525 32.5986 15.6805 32.1316C15.6805 30.7454 15.6805 29.3883 15.6805 28.0167C13.6288 28.0167 11.6369 28.0167 9.60017 28.0167C9.79486 30.687 9.98955 33.3136 10.1693 35.9256C10.1992 36.2904 10.304 36.4946 10.6934 36.626C14.3027 37.8809 17.897 39.165 21.5062 40.4053C21.7608 40.4929 22.1053 40.5074 22.3449 40.4199C26.1189 39.1942 29.8779 37.9247 33.6519 36.6989C34.0113 36.5822 34.1162 36.4217 34.1461 36.0569C34.4157 31.8544 34.7152 27.6519 34.9998 23.4494C35.0746 22.2966 35.1495 21.1292 35.2244 19.9035C34.9698 19.9035 34.7452 19.9035 34.5205 19.9035C28.3803 19.9035 22.2401 19.9035 16.0998 19.9035C15.965 19.9035 15.8303 19.8889 15.7104 19.9035C15.4109 19.9327 15.2761 19.8306 15.2462 19.5095C15.1713 18.8821 15.0515 18.2546 14.9616 17.6126C14.7969 16.5182 14.6322 15.4238 14.4674 14.2564C21.6111 14.2564 28.6948 14.2564 35.7935 14.2564C35.7935 12.5345 35.7935 10.8856 35.7935 9.22216C26.5083 9.22216 17.268 9.22216 7.99772 9.22216C8.40207 14.6212 8.82141 19.9765 9.22576 25.3755C15.965 25.3901 22.6145 25.3901 29.2938 25.3901Z" fill="#FE5B2C"/>
</g>
<defs>
<clipPath id="clip0_1171_443">
<rect width="44" height="49" fill="white"/>
</clipPath>
</defs>
</svg>
