<svg width="44" height="50" viewBox="0 0 44 50" fill="none" xmlns="http://www.w3.org/2000/svg">
<g clip-path="url(#clip0_1171_448)">
<path d="M22.8773 50C22.2924 50 21.7075 50 21.1226 50C19.0888 49.4424 17.0417 48.898 15.0078 48.3404C11.9371 47.4907 8.86643 46.641 5.79574 45.7913C4.57278 45.4461 3.81507 44.5167 3.70873 43.2554C3.48275 40.6665 3.24347 38.0775 3.01749 35.4753C2.47248 29.461 1.92746 23.4599 1.39574 17.4456C0.930481 12.3606 0.478517 7.27562 0.0132605 2.19065C-0.11967 0.690388 0.505103 0 2.00722 0C15.3269 0 28.6598 0 41.9794 0C43.4815 0 44.1063 0.703664 43.9601 2.20393C43.6145 6.02762 43.2556 9.8513 42.9232 13.675C42.5111 18.2422 42.1256 22.8093 41.7136 27.3765C41.235 32.6739 40.7565 37.9713 40.2779 43.2687C40.1716 44.53 39.4139 45.4594 38.1909 45.7913C35.4791 46.5481 32.7673 47.2916 30.0556 48.035C27.6761 48.6989 25.2701 49.3494 22.8773 50ZM29.3643 25.385C29.0985 27.8678 28.8459 30.2708 28.5667 32.6739C28.5534 32.82 28.3275 33.0058 28.1679 33.0589C26.2272 33.7493 24.2731 34.4264 22.319 35.1036C22.1329 35.1699 21.8936 35.1832 21.7208 35.1301C19.7401 34.453 17.7462 33.7759 15.7788 33.0589C15.6326 33.0058 15.4598 32.7934 15.4332 32.6341C15.287 31.5852 15.1939 30.5364 15.0743 29.4875C14.9812 28.7042 14.5824 28.3324 13.7849 28.3324C13.0537 28.3192 12.3226 28.3324 11.5915 28.3324C10.6078 28.3324 10.1824 28.7839 10.2755 29.7531C10.4483 31.5852 10.6743 33.4041 10.8471 35.2363C10.9269 36.1126 11.3522 36.6702 12.1897 36.9623C15.2072 37.9979 18.2114 39.0467 21.229 40.0823C21.7474 40.2549 22.2392 40.2682 22.7577 40.0823C25.7885 39.0069 28.8326 37.9448 31.8767 36.8826C32.6876 36.6038 33.0997 36.0462 33.1927 35.1832C33.4852 32.2756 33.8175 29.368 34.1365 26.4472C34.2827 25.0929 34.4157 23.7254 34.5619 22.3712C34.6151 21.8003 34.4689 21.3091 34.0435 20.9108C33.6447 20.539 33.1661 20.4594 32.6477 20.4594C29.8562 20.4594 27.0779 20.4726 24.2864 20.4461C24.0604 20.4461 23.7148 20.3133 23.6483 20.154C23.5154 19.8088 23.8743 19.7292 24.1269 19.6097C24.2066 19.5698 24.2731 19.5433 24.3528 19.5167C27.8755 18.0828 31.3982 16.6357 34.9208 15.2018C35.1734 15.0956 35.3728 15.0027 35.3994 14.684C35.5323 13.3298 35.7051 11.9756 35.838 10.6081C35.9045 9.93096 35.6253 9.65215 34.9341 9.65215C26.3335 9.65215 17.7329 9.65215 9.13229 9.65215C8.42776 9.65215 8.1619 9.94424 8.22837 10.6612C8.32142 11.6038 8.42776 12.5332 8.52081 13.4758C8.62716 14.4318 8.76009 14.5512 9.70389 14.5512C13.5855 14.5512 17.4537 14.5512 21.3353 14.5512C21.6145 14.5512 22 14.4185 22.0664 14.8168C22.0797 14.9495 21.7341 15.2018 21.5214 15.2947C20.2586 15.8391 18.9692 16.3569 17.693 16.8879C15.2072 17.9102 12.7347 18.9326 10.2489 19.9549C9.57096 20.2337 9.3184 20.6187 9.37157 21.256C9.46462 22.1721 9.57096 23.1014 9.67731 24.0175C9.81024 25.1062 10.1293 25.3717 11.2459 25.3717C17.0815 25.3717 22.9172 25.3717 28.7395 25.3717C28.8991 25.385 29.0852 25.385 29.3643 25.385Z" fill="#FE5B2C"/>
</g>
<defs>
<clipPath id="clip0_1171_448">
<rect width="44" height="50" fill="white"/>
</clipPath>
</defs>
</svg>
