<svg width="57" height="49" viewBox="0 0 57 49" fill="none" xmlns="http://www.w3.org/2000/svg">
<g clip-path="url(#clip0_1171_518)">
<path d="M0 26.5958C0.35625 25.7968 0.964844 25.4952 1.82578 25.5405C2.64219 25.5857 3.45859 25.5405 4.275 25.5405C4.30469 25.5405 4.33437 25.5103 4.30469 25.5254C4.70547 13.298 10.2719 4.94538 21.7906 0.949999C30.3555 -1.32662 37.9852 0.497691 44.7687 6.34754C43.0469 8.398 41.3695 10.3882 39.7219 12.3331C33.2945 7.11646 26.4664 6.18169 19.4602 10.7651C14.3094 14.1272 12.0828 19.2534 12.2312 25.5405C13.1813 25.5405 14.057 25.5405 14.9477 25.5405C15.2445 25.5405 15.5414 25.5405 15.8383 25.5405C16.432 25.5405 16.8773 25.8118 17.1297 26.3546C17.3969 26.9275 17.2781 27.4552 16.8773 27.9226C15.7047 29.2946 14.5469 30.6515 13.3742 32.0085C11.875 33.7574 10.3758 35.5063 8.87656 37.2552C8.80234 37.3306 8.71328 37.406 8.62422 37.5115C7.08047 35.7023 5.53672 33.9232 4.00781 32.1291C2.86484 30.7872 1.72187 29.4605 0.578906 28.1186C0.371094 27.8774 0.207812 27.6211 0.0148437 27.3648C0 27.1235 0 26.8672 0 26.5958Z" fill="#FE5B2C"/>
<path d="M13.4336 43.5875C15.1703 41.5219 16.8477 39.5318 18.4953 37.5718C24.2844 41.5973 30.2961 42.2758 36.4563 38.8383C41.4883 36.0339 44.1305 31.4958 44.7688 25.6158C43.982 25.6158 43.2695 25.6158 42.557 25.6158C42.1117 25.6158 41.6664 25.6007 41.2211 25.6158C40.5977 25.6309 40.1375 25.3595 39.8703 24.8016C39.5883 24.2136 39.7367 23.6709 40.1523 23.1884C41.6812 21.4093 43.1953 19.6453 44.7242 17.8663C45.9266 16.4641 47.1289 15.0619 48.3609 13.6296C49.9195 15.4539 51.4633 17.233 52.9922 19.0272C54.15 20.369 55.293 21.7259 56.4656 23.0678C56.9258 23.5955 57.1633 24.1533 56.8516 24.8167C56.5547 25.465 56.0055 25.6459 55.3375 25.6309C54.432 25.6007 53.5266 25.6309 52.6656 25.6309C51.4484 36.637 46.0008 44.3715 35.5359 47.7939C27.5945 50.3872 20.1727 48.7136 13.4336 43.5875Z" fill="#FE5B2C"/>
</g>
<defs>
<clipPath id="clip0_1171_518">
<rect width="57" height="49" fill="white"/>
</clipPath>
</defs>
</svg>
