<svg width="57" height="49" viewBox="0 0 57 49" fill="none" xmlns="http://www.w3.org/2000/svg">
<g clip-path="url(#clip0_1171_436)">
<path d="M20.0303 48.9998C18.2191 48.9998 16.7275 48.2476 15.6621 46.8507C10.8677 40.5108 5.9668 34.2783 1.1724 27.9384C-0.319186 25.8968 -0.319186 23.3178 1.1724 21.2761C5.9668 14.9362 10.7612 8.59632 15.6621 2.36386C18.006 -0.644911 22.1612 -0.537455 24.6117 2.57877C28.4472 7.52176 32.3892 12.5722 36.2247 17.6226C37.0771 18.6972 37.8229 19.7718 38.6752 20.8463C40.3799 23.2104 40.4864 25.7893 38.6752 28.0459C33.9874 34.1709 29.2995 40.4033 24.5051 46.5283C23.4397 48.1402 21.9481 48.8924 20.0303 48.9998Z" fill="#FE5B2C"/>
<path d="M28.5537 49C28.5537 48.0329 28.5537 47.1733 28.5537 46.0987C29.9388 46.0987 30.6846 45.0241 31.4303 43.9496C35.9051 38.1469 40.3799 32.3443 44.7481 26.5417C45.9201 25.0373 45.9201 23.9627 44.7481 22.4583C40.1668 16.5482 35.5855 10.5307 31.1107 4.62061C30.4715 3.76097 29.7257 3.00877 28.5537 2.90132C28.5537 1.93421 28.5537 0.967105 28.5537 0C30.3649 0 31.8565 0.752193 32.9219 2.25658C34.6266 4.4057 36.3313 6.66228 37.9294 8.8114C40.9126 12.6798 43.8958 16.6557 46.8789 20.5241C49.0098 23.318 49.0098 25.682 46.8789 28.3684C42.2976 34.386 37.6098 40.4035 33.0285 46.5285C32.0696 47.818 30.7911 48.6776 29.193 48.8925C29.0864 48.8925 28.8733 49 28.5537 49Z" fill="#FE5B2C"/>
<path d="M37.0763 48.8925C37.0763 47.9254 37.0763 47.0658 37.0763 46.0987C38.4613 45.9912 39.2071 45.0241 39.9529 43.9496C44.3211 38.1469 48.7959 32.3443 53.1641 26.6491C54.4426 24.9298 54.4426 23.9627 53.1641 22.3509C48.5828 16.4408 44.108 10.5307 39.5267 4.51316C38.8875 3.65351 38.1417 3.00877 36.9697 2.90132C36.9697 1.93421 36.9697 0.967105 36.9697 0C38.7809 0 40.2725 0.752193 41.3379 2.25658C43.6819 5.26535 46.0258 8.27412 48.2632 11.3904C50.7137 14.5066 53.1641 17.7303 55.508 20.8465C57.3193 23.2105 57.3193 25.7895 55.508 28.1535C50.8202 34.2785 46.1323 40.4035 41.4445 46.5285C40.4856 47.818 39.2071 48.6776 37.609 48.8925C37.5024 48.8925 37.2894 48.8925 37.1828 48.8925C37.2894 49 37.1828 48.8925 37.0763 48.8925Z" fill="#FE5B2C"/>
</g>
<defs>
<clipPath id="clip0_1171_436">
<rect width="57" height="49" fill="white"/>
</clipPath>
</defs>
</svg>
